# MagicaVoxel @ Ephtracy

# group
o 

# material
mtllib typ beine walk 4.mtl
usemtl palette

# normals
vn -1 0 0
vn 1 0 0
vn 0 0 1
vn 0 0 -1
vn 0 -1 0
vn 0 1 0

# texcoords
vt 0.0605469 0.5
vt 0.876953 0.5
vt 0.935547 0.5

# verts
v 3.4 2.1 -3.7
v 3.4 2.1 -4.2
v 3.4 2.2 -3.7
v 3.4 2.2 -3.8
v 3.4 2.3 -3.8
v 3.4 2.3 -3.9
v 3.4 2.3 -4.2
v 3.4 2.5 -4.2
v 3.4 2.5 -4.3
v 3.4 2.6 -3.9
v 3.4 2.6 -4.1
v 3.4 2.6 -4.3
v 3.4 2.6 -4.4
v 3.4 2.7 -4.1
v 3.4 2.7 -4.2
v 3.4 2.7 -4.4
v 3.4 2.7 -4.5
v 3.4 3 -4.2
v 3.4 3 -4.5
v 3.4 3.1 -4.2
v 3.4 3.1 -4.5
v 3.8 2 -4
v 3.8 2 -4.5
v 3.8 2.1 -4
v 3.8 2.1 -4.1
v 3.8 2.2 -4.1
v 3.8 2.2 -4.2
v 3.8 2.2 -4.5
v 3.8 2.7 -4.2
v 3.8 2.7 -4.5
v 3.8 2.9 -4.2
v 3.8 2.9 -4.3
v 3.8 3 -4.2
v 3.8 3 -4.3
v 3.7 2.1 -3.7
v 3.7 2.1 -4.2
v 3.7 2.2 -3.7
v 3.7 2.2 -3.8
v 3.7 2.3 -3.8
v 3.7 2.3 -3.9
v 3.7 2.3 -4.2
v 3.7 2.5 -4.2
v 3.7 2.5 -4.3
v 3.7 2.6 -3.9
v 3.7 2.6 -4.1
v 3.7 2.6 -4.3
v 3.7 2.6 -4.4
v 3.7 2.7 -4.1
v 3.7 2.7 -4.2
v 3.7 2.7 -4.4
v 3.7 2.9 -4.2
v 3.7 2.9 -4.3
v 3.7 3 -4.2
v 3.7 3 -4.3
v 4.1 2 -4
v 4.1 2 -4.5
v 4.1 2.1 -4
v 4.1 2.1 -4.1
v 4.1 2.2 -4.1
v 4.1 2.2 -4.2
v 4.1 2.2 -4.5
v 4.1 3 -4.2
v 4.1 3 -4.5
v 4.1 3.1 -4.2
v 4.1 3.1 -4.5
v 3.4 2.1 -3.7
v 3.4 2.2 -3.7
v 3.7 2.1 -3.7
v 3.7 2.2 -3.7
v 3.4 2.2 -3.8
v 3.4 2.3 -3.8
v 3.7 2.2 -3.8
v 3.7 2.3 -3.8
v 3.4 2.3 -3.9
v 3.4 2.6 -3.9
v 3.7 2.3 -3.9
v 3.7 2.6 -3.9
v 3.8 2 -4
v 3.8 2.1 -4
v 4.1 2 -4
v 4.1 2.1 -4
v 3.4 2.6 -4.1
v 3.4 2.7 -4.1
v 3.7 2.6 -4.1
v 3.7 2.7 -4.1
v 3.8 2.1 -4.1
v 3.8 2.2 -4.1
v 4.1 2.1 -4.1
v 4.1 2.2 -4.1
v 3.4 2.7 -4.2
v 3.4 3 -4.2
v 3.4 3.1 -4.2
v 3.7 2.7 -4.2
v 3.7 2.9 -4.2
v 3.7 3 -4.2
v 3.8 2.2 -4.2
v 3.8 2.7 -4.2
v 3.8 2.9 -4.2
v 3.8 3 -4.2
v 4.1 2.2 -4.2
v 4.1 3 -4.2
v 4.1 3.1 -4.2
v 3.7 2.9 -4.3
v 3.7 3 -4.3
v 3.8 2.9 -4.3
v 3.8 3 -4.3
v 3.4 2.1 -4.2
v 3.4 2.3 -4.2
v 3.4 2.5 -4.2
v 3.7 2.1 -4.2
v 3.7 2.3 -4.2
v 3.7 2.5 -4.2
v 3.4 2.5 -4.3
v 3.4 2.6 -4.3
v 3.7 2.5 -4.3
v 3.7 2.6 -4.3
v 3.4 2.6 -4.4
v 3.4 2.7 -4.4
v 3.7 2.6 -4.4
v 3.7 2.7 -4.4
v 3.4 2.7 -4.5
v 3.4 3 -4.5
v 3.4 3.1 -4.5
v 3.8 2 -4.5
v 3.8 2.2 -4.5
v 3.8 2.7 -4.5
v 4.1 2 -4.5
v 4.1 2.2 -4.5
v 4.1 3 -4.5
v 4.1 3.1 -4.5
v 3.8 2 -4
v 4.1 2 -4
v 3.8 2 -4.5
v 4.1 2 -4.5
v 3.4 2.1 -3.7
v 3.7 2.1 -3.7
v 3.4 2.1 -4.2
v 3.7 2.1 -4.2
v 3.4 2.5 -4.2
v 3.7 2.5 -4.2
v 3.4 2.5 -4.3
v 3.7 2.5 -4.3
v 3.4 2.6 -4.3
v 3.7 2.6 -4.3
v 3.4 2.6 -4.4
v 3.7 2.6 -4.4
v 3.7 2.7 -4.2
v 3.8 2.7 -4.2
v 3.4 2.7 -4.4
v 3.7 2.7 -4.4
v 3.4 2.7 -4.5
v 3.8 2.7 -4.5
v 3.7 3 -4.2
v 3.8 3 -4.2
v 3.7 3 -4.3
v 3.8 3 -4.3
v 3.8 2.1 -4
v 4.1 2.1 -4
v 3.8 2.1 -4.1
v 4.1 2.1 -4.1
v 3.4 2.2 -3.7
v 3.7 2.2 -3.7
v 3.4 2.2 -3.8
v 3.7 2.2 -3.8
v 3.8 2.2 -4.1
v 4.1 2.2 -4.1
v 3.8 2.2 -4.2
v 4.1 2.2 -4.2
v 3.4 2.3 -3.8
v 3.7 2.3 -3.8
v 3.4 2.3 -3.9
v 3.7 2.3 -3.9
v 3.4 2.6 -3.9
v 3.7 2.6 -3.9
v 3.4 2.6 -4.1
v 3.7 2.6 -4.1
v 3.4 2.7 -4.1
v 3.7 2.7 -4.1
v 3.4 2.7 -4.2
v 3.7 2.7 -4.2
v 3.7 2.9 -4.2
v 3.8 2.9 -4.2
v 3.7 2.9 -4.3
v 3.8 2.9 -4.3
v 3.4 3.1 -4.2
v 4.1 3.1 -4.2
v 3.4 3.1 -4.5
v 4.1 3.1 -4.5

# faces
f 3/1/1 2/1/1 1/1/1
f 4/1/1 2/1/1 3/1/1
f 5/1/1 2/1/1 4/1/1
f 6/1/1 2/1/1 5/1/1
f 7/1/1 2/1/1 6/1/1
f 8/3/1 7/3/1 6/3/1
f 10/3/1 8/3/1 6/3/1
f 10/3/1 9/3/1 8/3/1
f 11/3/1 9/3/1 10/3/1
f 12/3/1 9/3/1 11/3/1
f 14/3/1 13/3/1 12/3/1
f 14/3/1 12/3/1 11/3/1
f 15/3/1 13/3/1 14/3/1
f 16/3/1 13/3/1 15/3/1
f 18/3/1 17/3/1 16/3/1
f 18/3/1 16/3/1 15/3/1
f 19/3/1 17/3/1 18/3/1
f 20/2/1 19/2/1 18/2/1
f 21/2/1 19/2/1 20/2/1
f 24/1/1 23/1/1 22/1/1
f 25/1/1 23/1/1 24/1/1
f 26/1/1 23/1/1 25/1/1
f 27/1/1 23/1/1 26/1/1
f 28/1/1 23/1/1 27/1/1
f 29/3/1 28/3/1 27/3/1
f 30/3/1 28/3/1 29/3/1
f 33/3/1 32/3/1 31/3/1
f 34/3/1 32/3/1 33/3/1
f 35/1/2 36/1/2 37/1/2
f 37/1/2 36/1/2 38/1/2
f 38/1/2 36/1/2 39/1/2
f 39/1/2 36/1/2 40/1/2
f 40/1/2 36/1/2 41/1/2
f 40/3/2 41/3/2 42/3/2
f 40/3/2 42/3/2 44/3/2
f 42/3/2 43/3/2 44/3/2
f 44/3/2 43/3/2 45/3/2
f 45/3/2 43/3/2 46/3/2
f 46/3/2 47/3/2 48/3/2
f 45/3/2 46/3/2 48/3/2
f 48/3/2 47/3/2 49/3/2
f 49/3/2 47/3/2 50/3/2
f 51/3/2 52/3/2 53/3/2
f 53/3/2 52/3/2 54/3/2
f 55/1/2 56/1/2 57/1/2
f 57/1/2 56/1/2 58/1/2
f 58/1/2 56/1/2 59/1/2
f 59/1/2 56/1/2 60/1/2
f 60/1/2 56/1/2 61/1/2
f 60/3/2 61/3/2 62/3/2
f 62/3/2 61/3/2 63/3/2
f 62/2/2 63/2/2 64/2/2
f 64/2/2 63/2/2 65/2/2
f 68/1/3 67/1/3 66/1/3
f 69/1/3 67/1/3 68/1/3
f 72/1/3 71/1/3 70/1/3
f 73/1/3 71/1/3 72/1/3
f 76/3/3 75/3/3 74/3/3
f 77/3/3 75/3/3 76/3/3
f 80/1/3 79/1/3 78/1/3
f 81/1/3 79/1/3 80/1/3
f 84/3/3 83/3/3 82/3/3
f 85/3/3 83/3/3 84/3/3
f 88/1/3 87/1/3 86/1/3
f 89/1/3 87/1/3 88/1/3
f 93/3/3 91/3/3 90/3/3
f 94/3/3 91/3/3 93/3/3
f 95/2/3 92/2/3 91/2/3
f 95/3/3 91/3/3 94/3/3
f 97/3/3 94/3/3 93/3/3
f 98/3/3 94/3/3 97/3/3
f 99/2/3 92/2/3 95/2/3
f 100/3/3 98/3/3 97/3/3
f 100/3/3 99/3/3 98/3/3
f 100/3/3 97/3/3 96/3/3
f 101/2/3 92/2/3 99/2/3
f 101/3/3 99/3/3 100/3/3
f 102/2/3 92/2/3 101/2/3
f 105/3/3 104/3/3 103/3/3
f 106/3/3 104/3/3 105/3/3
f 107/1/4 108/1/4 110/1/4
f 108/3/4 109/3/4 111/3/4
f 110/1/4 108/1/4 111/1/4
f 111/3/4 109/3/4 112/3/4
f 113/3/4 114/3/4 115/3/4
f 115/3/4 114/3/4 116/3/4
f 117/3/4 118/3/4 119/3/4
f 119/3/4 118/3/4 120/3/4
f 121/3/4 122/3/4 126/3/4
f 124/1/4 125/1/4 127/1/4
f 125/3/4 126/3/4 128/3/4
f 127/1/4 125/1/4 128/1/4
f 122/2/4 123/2/4 129/2/4
f 128/3/4 126/3/4 129/3/4
f 126/3/4 122/3/4 129/3/4
f 129/2/4 123/2/4 130/2/4
f 133/1/5 132/1/5 131/1/5
f 134/1/5 132/1/5 133/1/5
f 137/1/5 136/1/5 135/1/5
f 138/1/5 136/1/5 137/1/5
f 141/3/5 140/3/5 139/3/5
f 142/3/5 140/3/5 141/3/5
f 145/3/5 144/3/5 143/3/5
f 146/3/5 144/3/5 145/3/5
f 150/3/5 148/3/5 147/3/5
f 151/3/5 150/3/5 149/3/5
f 152/3/5 148/3/5 150/3/5
f 152/3/5 150/3/5 151/3/5
f 155/2/5 154/2/5 153/2/5
f 156/2/5 154/2/5 155/2/5
f 157/1/6 158/1/6 159/1/6
f 159/1/6 158/1/6 160/1/6
f 161/1/6 162/1/6 163/1/6
f 163/1/6 162/1/6 164/1/6
f 165/1/6 166/1/6 167/1/6
f 167/1/6 166/1/6 168/1/6
f 169/1/6 170/1/6 171/1/6
f 171/1/6 170/1/6 172/1/6
f 173/3/6 174/3/6 175/3/6
f 175/3/6 174/3/6 176/3/6
f 177/3/6 178/3/6 179/3/6
f 179/3/6 178/3/6 180/3/6
f 181/3/6 182/3/6 183/3/6
f 183/3/6 182/3/6 184/3/6
f 185/2/6 186/2/6 187/2/6
f 187/2/6 186/2/6 188/2/6
