# MagicaVoxel @ Ephtracy

# group
o 

# material
mtllib typ beine walk 3.mtl
usemtl palette

# normals
vn -1 0 0
vn 1 0 0
vn 0 0 1
vn 0 0 -1
vn 0 -1 0
vn 0 1 0

# texcoords
vt 0.0605469 0.5
vt 0.876953 0.5
vt 0.935547 0.5

# verts
v 3.4 2 -4
v 3.4 2 -4.5
v 3.4 2.1 -4
v 3.4 2.1 -4.1
v 3.4 2.2 -4.1
v 3.4 2.2 -4.2
v 3.4 2.2 -4.5
v 3.4 3 -4.2
v 3.4 3 -4.5
v 3.4 3.1 -4.2
v 3.4 3.1 -4.5
v 3.8 2.2 -3.6
v 3.8 2.2 -4.1
v 3.8 2.3 -3.6
v 3.8 2.3 -3.7
v 3.8 2.4 -3.7
v 3.8 2.4 -3.8
v 3.8 2.4 -4.1
v 3.8 2.5 -4.1
v 3.8 2.5 -4.3
v 3.8 2.6 -4.3
v 3.8 2.6 -4.4
v 3.8 2.7 -3.8
v 3.8 2.7 -4.2
v 3.8 2.7 -4.4
v 3.8 2.9 -4.2
v 3.8 2.9 -4.3
v 3.8 3 -4.2
v 3.8 3 -4.3
v 3.7 2 -4
v 3.7 2 -4.5
v 3.7 2.1 -4
v 3.7 2.1 -4.1
v 3.7 2.2 -4.1
v 3.7 2.2 -4.2
v 3.7 2.2 -4.5
v 3.7 2.7 -4.2
v 3.7 2.7 -4.5
v 3.7 2.9 -4.2
v 3.7 2.9 -4.3
v 3.7 3 -4.2
v 3.7 3 -4.3
v 4.1 2.2 -3.6
v 4.1 2.2 -4.1
v 4.1 2.3 -3.6
v 4.1 2.3 -3.7
v 4.1 2.4 -3.7
v 4.1 2.4 -3.8
v 4.1 2.4 -4.1
v 4.1 2.5 -4.1
v 4.1 2.5 -4.3
v 4.1 2.6 -4.3
v 4.1 2.6 -4.4
v 4.1 2.7 -3.8
v 4.1 2.7 -4.2
v 4.1 2.7 -4.4
v 4.1 2.7 -4.5
v 4.1 3 -4.2
v 4.1 3 -4.5
v 4.1 3.1 -4.2
v 4.1 3.1 -4.5
v 3.8 2.2 -3.6
v 3.8 2.3 -3.6
v 4.1 2.2 -3.6
v 4.1 2.3 -3.6
v 3.8 2.3 -3.7
v 3.8 2.4 -3.7
v 4.1 2.3 -3.7
v 4.1 2.4 -3.7
v 3.8 2.4 -3.8
v 3.8 2.7 -3.8
v 4.1 2.4 -3.8
v 4.1 2.7 -3.8
v 3.4 2 -4
v 3.4 2.1 -4
v 3.7 2 -4
v 3.7 2.1 -4
v 3.4 2.1 -4.1
v 3.4 2.2 -4.1
v 3.7 2.1 -4.1
v 3.7 2.2 -4.1
v 3.4 2.2 -4.2
v 3.4 3 -4.2
v 3.4 3.1 -4.2
v 3.7 2.2 -4.2
v 3.7 2.7 -4.2
v 3.7 2.9 -4.2
v 3.7 3 -4.2
v 3.8 2.7 -4.2
v 3.8 2.9 -4.2
v 3.8 3 -4.2
v 4.1 2.7 -4.2
v 4.1 3 -4.2
v 4.1 3.1 -4.2
v 3.7 2.9 -4.3
v 3.7 3 -4.3
v 3.8 2.9 -4.3
v 3.8 3 -4.3
v 3.8 2.2 -4.1
v 3.8 2.4 -4.1
v 3.8 2.5 -4.1
v 4.1 2.2 -4.1
v 4.1 2.4 -4.1
v 4.1 2.5 -4.1
v 3.8 2.5 -4.3
v 3.8 2.6 -4.3
v 4.1 2.5 -4.3
v 4.1 2.6 -4.3
v 3.8 2.6 -4.4
v 3.8 2.7 -4.4
v 4.1 2.6 -4.4
v 4.1 2.7 -4.4
v 3.4 2 -4.5
v 3.4 2.2 -4.5
v 3.4 3 -4.5
v 3.4 3.1 -4.5
v 3.7 2 -4.5
v 3.7 2.2 -4.5
v 3.7 2.7 -4.5
v 4.1 2.7 -4.5
v 4.1 3 -4.5
v 4.1 3.1 -4.5
v 3.4 2 -4
v 3.7 2 -4
v 3.4 2 -4.5
v 3.7 2 -4.5
v 3.8 2.2 -3.6
v 4.1 2.2 -3.6
v 3.8 2.2 -4.1
v 4.1 2.2 -4.1
v 3.8 2.5 -4.1
v 4.1 2.5 -4.1
v 3.8 2.5 -4.3
v 4.1 2.5 -4.3
v 3.8 2.6 -4.3
v 4.1 2.6 -4.3
v 3.8 2.6 -4.4
v 4.1 2.6 -4.4
v 3.7 2.7 -4.2
v 3.8 2.7 -4.2
v 3.8 2.7 -4.4
v 4.1 2.7 -4.4
v 3.7 2.7 -4.5
v 4.1 2.7 -4.5
v 3.7 3 -4.2
v 3.8 3 -4.2
v 3.7 3 -4.3
v 3.8 3 -4.3
v 3.4 2.1 -4
v 3.7 2.1 -4
v 3.4 2.1 -4.1
v 3.7 2.1 -4.1
v 3.4 2.2 -4.1
v 3.7 2.2 -4.1
v 3.4 2.2 -4.2
v 3.7 2.2 -4.2
v 3.8 2.3 -3.6
v 4.1 2.3 -3.6
v 3.8 2.3 -3.7
v 4.1 2.3 -3.7
v 3.8 2.4 -3.7
v 4.1 2.4 -3.7
v 3.8 2.4 -3.8
v 4.1 2.4 -3.8
v 3.8 2.7 -3.8
v 4.1 2.7 -3.8
v 3.8 2.7 -4.2
v 4.1 2.7 -4.2
v 3.7 2.9 -4.2
v 3.8 2.9 -4.2
v 3.7 2.9 -4.3
v 3.8 2.9 -4.3
v 3.4 3.1 -4.2
v 4.1 3.1 -4.2
v 3.4 3.1 -4.5
v 4.1 3.1 -4.5

# faces
f 3/1/1 2/1/1 1/1/1
f 4/1/1 2/1/1 3/1/1
f 5/1/1 2/1/1 4/1/1
f 6/1/1 2/1/1 5/1/1
f 7/1/1 2/1/1 6/1/1
f 8/3/1 7/3/1 6/3/1
f 9/3/1 7/3/1 8/3/1
f 10/2/1 9/2/1 8/2/1
f 11/2/1 9/2/1 10/2/1
f 14/1/1 13/1/1 12/1/1
f 15/1/1 13/1/1 14/1/1
f 16/1/1 13/1/1 15/1/1
f 17/1/1 13/1/1 16/1/1
f 18/1/1 13/1/1 17/1/1
f 19/3/1 18/3/1 17/3/1
f 21/3/1 20/3/1 19/3/1
f 23/3/1 19/3/1 17/3/1
f 23/3/1 22/3/1 21/3/1
f 23/3/1 21/3/1 19/3/1
f 24/3/1 22/3/1 23/3/1
f 25/3/1 22/3/1 24/3/1
f 28/3/1 27/3/1 26/3/1
f 29/3/1 27/3/1 28/3/1
f 30/1/2 31/1/2 32/1/2
f 32/1/2 31/1/2 33/1/2
f 33/1/2 31/1/2 34/1/2
f 34/1/2 31/1/2 35/1/2
f 35/1/2 31/1/2 36/1/2
f 35/3/2 36/3/2 37/3/2
f 37/3/2 36/3/2 38/3/2
f 39/3/2 40/3/2 41/3/2
f 41/3/2 40/3/2 42/3/2
f 43/1/2 44/1/2 45/1/2
f 45/1/2 44/1/2 46/1/2
f 46/1/2 44/1/2 47/1/2
f 47/1/2 44/1/2 48/1/2
f 48/1/2 44/1/2 49/1/2
f 48/3/2 49/3/2 50/3/2
f 50/3/2 51/3/2 52/3/2
f 48/3/2 50/3/2 54/3/2
f 52/3/2 53/3/2 54/3/2
f 50/3/2 52/3/2 54/3/2
f 54/3/2 53/3/2 55/3/2
f 55/3/2 53/3/2 56/3/2
f 56/3/2 57/3/2 58/3/2
f 55/3/2 56/3/2 58/3/2
f 58/3/2 57/3/2 59/3/2
f 58/2/2 59/2/2 60/2/2
f 60/2/2 59/2/2 61/2/2
f 64/1/3 63/1/3 62/1/3
f 65/1/3 63/1/3 64/1/3
f 68/1/3 67/1/3 66/1/3
f 69/1/3 67/1/3 68/1/3
f 72/3/3 71/3/3 70/3/3
f 73/3/3 71/3/3 72/3/3
f 76/1/3 75/1/3 74/1/3
f 77/1/3 75/1/3 76/1/3
f 80/1/3 79/1/3 78/1/3
f 81/1/3 79/1/3 80/1/3
f 85/3/3 83/3/3 82/3/3
f 86/3/3 83/3/3 85/3/3
f 87/3/3 83/3/3 86/3/3
f 88/2/3 84/2/3 83/2/3
f 88/3/3 83/3/3 87/3/3
f 89/3/3 87/3/3 86/3/3
f 90/3/3 87/3/3 89/3/3
f 91/2/3 84/2/3 88/2/3
f 92/3/3 90/3/3 89/3/3
f 92/3/3 91/3/3 90/3/3
f 93/2/3 84/2/3 91/2/3
f 93/3/3 91/3/3 92/3/3
f 94/2/3 84/2/3 93/2/3
f 97/3/3 96/3/3 95/3/3
f 98/3/3 96/3/3 97/3/3
f 99/1/4 100/1/4 102/1/4
f 100/3/4 101/3/4 103/3/4
f 102/1/4 100/1/4 103/1/4
f 103/3/4 101/3/4 104/3/4
f 105/3/4 106/3/4 107/3/4
f 107/3/4 106/3/4 108/3/4
f 109/3/4 110/3/4 111/3/4
f 111/3/4 110/3/4 112/3/4
f 113/1/4 114/1/4 117/1/4
f 114/3/4 115/3/4 118/3/4
f 117/1/4 114/1/4 118/1/4
f 118/3/4 115/3/4 119/3/4
f 119/3/4 115/3/4 120/3/4
f 115/2/4 116/2/4 121/2/4
f 120/3/4 115/3/4 121/3/4
f 121/2/4 116/2/4 122/2/4
f 125/1/5 124/1/5 123/1/5
f 126/1/5 124/1/5 125/1/5
f 129/1/5 128/1/5 127/1/5
f 130/1/5 128/1/5 129/1/5
f 133/3/5 132/3/5 131/3/5
f 134/3/5 132/3/5 133/3/5
f 137/3/5 136/3/5 135/3/5
f 138/3/5 136/3/5 137/3/5
f 141/3/5 140/3/5 139/3/5
f 143/3/5 141/3/5 139/3/5
f 143/3/5 142/3/5 141/3/5
f 144/3/5 142/3/5 143/3/5
f 147/2/5 146/2/5 145/2/5
f 148/2/5 146/2/5 147/2/5
f 149/1/6 150/1/6 151/1/6
f 151/1/6 150/1/6 152/1/6
f 153/1/6 154/1/6 155/1/6
f 155/1/6 154/1/6 156/1/6
f 157/1/6 158/1/6 159/1/6
f 159/1/6 158/1/6 160/1/6
f 161/1/6 162/1/6 163/1/6
f 163/1/6 162/1/6 164/1/6
f 165/3/6 166/3/6 167/3/6
f 167/3/6 166/3/6 168/3/6
f 169/3/6 170/3/6 171/3/6
f 171/3/6 170/3/6 172/3/6
f 173/2/6 174/2/6 175/2/6
f 175/2/6 174/2/6 176/2/6
