# MagicaVoxel @ Ephtracy

# group
o 

# material
mtllib Typ beine walk 1.mtl
usemtl palette

# normals
vn -1 0 0
vn 1 0 0
vn 0 0 1
vn 0 0 -1
vn 0 -1 0
vn 0 1 0

# texcoords
vt 0.0605469 0.5
vt 0.876953 0.5
vt 0.935547 0.5

# verts
v 3.4 2 -3.7
v 3.4 2 -4.2
v 3.4 2.1 -3.7
v 3.4 2.1 -3.8
v 3.4 2.2 -3.8
v 3.4 2.2 -3.9
v 3.4 2.2 -4.2
v 3.4 2.5 -3.9
v 3.4 2.5 -4
v 3.4 2.5 -4.2
v 3.4 2.5 -4.3
v 3.4 2.6 -4
v 3.4 2.6 -4.1
v 3.4 2.6 -4.3
v 3.4 2.6 -4.4
v 3.4 2.7 -4.1
v 3.4 2.7 -4.2
v 3.4 2.7 -4.4
v 3.4 2.7 -4.5
v 3.4 3 -4.2
v 3.4 3 -4.5
v 3.4 3.1 -4.2
v 3.4 3.1 -4.5
v 3.8 2 -4.1
v 3.8 2 -4.6
v 3.8 2.1 -4.1
v 3.8 2.1 -4.2
v 3.8 2.2 -4.2
v 3.8 2.2 -4.3
v 3.8 2.2 -4.6
v 3.8 2.5 -4.2
v 3.8 2.5 -4.3
v 3.8 2.5 -4.5
v 3.8 2.5 -4.6
v 3.8 2.7 -4.2
v 3.8 2.7 -4.5
v 3.8 2.9 -4.2
v 3.8 2.9 -4.3
v 3.8 3 -4.2
v 3.8 3 -4.3
v 3.7 2 -3.7
v 3.7 2 -4.2
v 3.7 2.1 -3.7
v 3.7 2.1 -3.8
v 3.7 2.2 -3.8
v 3.7 2.2 -3.9
v 3.7 2.2 -4.2
v 3.7 2.5 -3.9
v 3.7 2.5 -4
v 3.7 2.5 -4.2
v 3.7 2.5 -4.3
v 3.7 2.6 -4
v 3.7 2.6 -4.1
v 3.7 2.6 -4.3
v 3.7 2.6 -4.4
v 3.7 2.7 -4.1
v 3.7 2.7 -4.2
v 3.7 2.7 -4.4
v 3.7 2.9 -4.2
v 3.7 2.9 -4.3
v 3.7 3 -4.2
v 3.7 3 -4.3
v 4.1 2 -4.1
v 4.1 2 -4.6
v 4.1 2.1 -4.1
v 4.1 2.1 -4.2
v 4.1 2.2 -4.2
v 4.1 2.2 -4.3
v 4.1 2.2 -4.6
v 4.1 2.5 -4.2
v 4.1 2.5 -4.3
v 4.1 2.5 -4.5
v 4.1 2.5 -4.6
v 4.1 3 -4.2
v 4.1 3 -4.5
v 4.1 3.1 -4.2
v 4.1 3.1 -4.5
v 3.4 2 -3.7
v 3.4 2.1 -3.7
v 3.7 2 -3.7
v 3.7 2.1 -3.7
v 3.4 2.1 -3.8
v 3.4 2.2 -3.8
v 3.7 2.1 -3.8
v 3.7 2.2 -3.8
v 3.4 2.2 -3.9
v 3.4 2.5 -3.9
v 3.7 2.2 -3.9
v 3.7 2.5 -3.9
v 3.4 2.5 -4
v 3.4 2.6 -4
v 3.7 2.5 -4
v 3.7 2.6 -4
v 3.4 2.6 -4.1
v 3.4 2.7 -4.1
v 3.7 2.6 -4.1
v 3.7 2.7 -4.1
v 3.8 2 -4.1
v 3.8 2.1 -4.1
v 4.1 2 -4.1
v 4.1 2.1 -4.1
v 3.4 2.7 -4.2
v 3.4 3 -4.2
v 3.4 3.1 -4.2
v 3.7 2.7 -4.2
v 3.7 2.9 -4.2
v 3.7 3 -4.2
v 3.8 2.1 -4.2
v 3.8 2.2 -4.2
v 3.8 2.5 -4.2
v 3.8 2.7 -4.2
v 3.8 2.9 -4.2
v 3.8 3 -4.2
v 4.1 2.1 -4.2
v 4.1 2.2 -4.2
v 4.1 2.5 -4.2
v 4.1 3 -4.2
v 4.1 3.1 -4.2
v 3.7 2.9 -4.3
v 3.7 3 -4.3
v 3.8 2.2 -4.3
v 3.8 2.5 -4.3
v 3.8 2.9 -4.3
v 3.8 3 -4.3
v 4.1 2.2 -4.3
v 4.1 2.5 -4.3
v 3.4 2 -4.2
v 3.4 2.2 -4.2
v 3.4 2.5 -4.2
v 3.7 2 -4.2
v 3.7 2.2 -4.2
v 3.7 2.5 -4.2
v 3.4 2.5 -4.3
v 3.4 2.6 -4.3
v 3.7 2.5 -4.3
v 3.7 2.6 -4.3
v 3.4 2.6 -4.4
v 3.4 2.7 -4.4
v 3.7 2.6 -4.4
v 3.7 2.7 -4.4
v 3.4 2.7 -4.5
v 3.4 3 -4.5
v 3.4 3.1 -4.5
v 3.8 2.5 -4.5
v 3.8 2.7 -4.5
v 4.1 2.5 -4.5
v 4.1 3 -4.5
v 4.1 3.1 -4.5
v 3.8 2 -4.6
v 3.8 2.2 -4.6
v 3.8 2.5 -4.6
v 4.1 2 -4.6
v 4.1 2.2 -4.6
v 4.1 2.5 -4.6
v 3.4 2 -3.7
v 3.7 2 -3.7
v 3.8 2 -4.1
v 4.1 2 -4.1
v 3.4 2 -4.2
v 3.7 2 -4.2
v 3.8 2 -4.6
v 4.1 2 -4.6
v 3.4 2.5 -4.2
v 3.7 2.5 -4.2
v 3.8 2.5 -4.2
v 4.1 2.5 -4.2
v 3.4 2.5 -4.3
v 3.7 2.5 -4.3
v 3.8 2.5 -4.3
v 4.1 2.5 -4.3
v 3.4 2.6 -4.3
v 3.7 2.6 -4.3
v 3.4 2.6 -4.4
v 3.7 2.6 -4.4
v 3.7 2.7 -4.2
v 3.8 2.7 -4.2
v 3.4 2.7 -4.4
v 3.7 2.7 -4.4
v 3.4 2.7 -4.5
v 3.8 2.7 -4.5
v 3.7 3 -4.2
v 3.8 3 -4.2
v 3.7 3 -4.3
v 3.8 3 -4.3
v 3.4 2.1 -3.7
v 3.7 2.1 -3.7
v 3.4 2.1 -3.8
v 3.7 2.1 -3.8
v 3.8 2.1 -4.1
v 4.1 2.1 -4.1
v 3.8 2.1 -4.2
v 4.1 2.1 -4.2
v 3.4 2.2 -3.8
v 3.7 2.2 -3.8
v 3.4 2.2 -3.9
v 3.7 2.2 -3.9
v 3.8 2.2 -4.2
v 4.1 2.2 -4.2
v 3.8 2.2 -4.3
v 4.1 2.2 -4.3
v 3.4 2.5 -3.9
v 3.7 2.5 -3.9
v 3.4 2.5 -4
v 3.7 2.5 -4
v 3.8 2.5 -4.5
v 4.1 2.5 -4.5
v 3.8 2.5 -4.6
v 4.1 2.5 -4.6
v 3.4 2.6 -4
v 3.7 2.6 -4
v 3.4 2.6 -4.1
v 3.7 2.6 -4.1
v 3.4 2.7 -4.1
v 3.7 2.7 -4.1
v 3.4 2.7 -4.2
v 3.7 2.7 -4.2
v 3.7 2.9 -4.2
v 3.8 2.9 -4.2
v 3.7 2.9 -4.3
v 3.8 2.9 -4.3
v 3.4 3.1 -4.2
v 4.1 3.1 -4.2
v 3.4 3.1 -4.5
v 4.1 3.1 -4.5

# faces
f 3/1/1 2/1/1 1/1/1
f 4/1/1 2/1/1 3/1/1
f 5/1/1 2/1/1 4/1/1
f 6/1/1 2/1/1 5/1/1
f 7/1/1 2/1/1 6/1/1
f 8/3/1 7/3/1 6/3/1
f 9/3/1 7/3/1 8/3/1
f 10/3/1 7/3/1 9/3/1
f 12/3/1 10/3/1 9/3/1
f 12/3/1 11/3/1 10/3/1
f 13/3/1 11/3/1 12/3/1
f 14/3/1 11/3/1 13/3/1
f 16/3/1 15/3/1 14/3/1
f 16/3/1 14/3/1 13/3/1
f 17/3/1 15/3/1 16/3/1
f 18/3/1 15/3/1 17/3/1
f 20/3/1 19/3/1 18/3/1
f 20/3/1 18/3/1 17/3/1
f 21/3/1 19/3/1 20/3/1
f 22/2/1 21/2/1 20/2/1
f 23/2/1 21/2/1 22/2/1
f 26/1/1 25/1/1 24/1/1
f 27/1/1 25/1/1 26/1/1
f 28/1/1 25/1/1 27/1/1
f 29/1/1 25/1/1 28/1/1
f 30/1/1 25/1/1 29/1/1
f 32/3/1 30/3/1 29/3/1
f 33/3/1 30/3/1 32/3/1
f 34/3/1 30/3/1 33/3/1
f 35/3/1 32/3/1 31/3/1
f 35/3/1 33/3/1 32/3/1
f 36/3/1 33/3/1 35/3/1
f 39/3/1 38/3/1 37/3/1
f 40/3/1 38/3/1 39/3/1
f 41/1/2 42/1/2 43/1/2
f 43/1/2 42/1/2 44/1/2
f 44/1/2 42/1/2 45/1/2
f 45/1/2 42/1/2 46/1/2
f 46/1/2 42/1/2 47/1/2
f 46/3/2 47/3/2 48/3/2
f 48/3/2 47/3/2 49/3/2
f 49/3/2 47/3/2 50/3/2
f 49/3/2 50/3/2 52/3/2
f 50/3/2 51/3/2 52/3/2
f 52/3/2 51/3/2 53/3/2
f 53/3/2 51/3/2 54/3/2
f 54/3/2 55/3/2 56/3/2
f 53/3/2 54/3/2 56/3/2
f 56/3/2 55/3/2 57/3/2
f 57/3/2 55/3/2 58/3/2
f 59/3/2 60/3/2 61/3/2
f 61/3/2 60/3/2 62/3/2
f 63/1/2 64/1/2 65/1/2
f 65/1/2 64/1/2 66/1/2
f 66/1/2 64/1/2 67/1/2
f 67/1/2 64/1/2 68/1/2
f 68/1/2 64/1/2 69/1/2
f 68/3/2 69/3/2 71/3/2
f 71/3/2 69/3/2 72/3/2
f 72/3/2 69/3/2 73/3/2
f 70/3/2 71/3/2 74/3/2
f 71/3/2 72/3/2 74/3/2
f 74/3/2 72/3/2 75/3/2
f 74/2/2 75/2/2 76/2/2
f 76/2/2 75/2/2 77/2/2
f 80/1/3 79/1/3 78/1/3
f 81/1/3 79/1/3 80/1/3
f 84/1/3 83/1/3 82/1/3
f 85/1/3 83/1/3 84/1/3
f 88/3/3 87/3/3 86/3/3
f 89/3/3 87/3/3 88/3/3
f 92/3/3 91/3/3 90/3/3
f 93/3/3 91/3/3 92/3/3
f 96/3/3 95/3/3 94/3/3
f 97/3/3 95/3/3 96/3/3
f 100/1/3 99/1/3 98/1/3
f 101/1/3 99/1/3 100/1/3
f 105/3/3 103/3/3 102/3/3
f 106/3/3 103/3/3 105/3/3
f 107/2/3 104/2/3 103/2/3
f 107/3/3 103/3/3 106/3/3
f 111/3/3 106/3/3 105/3/3
f 112/3/3 106/3/3 111/3/3
f 113/2/3 104/2/3 107/2/3
f 114/1/3 109/1/3 108/1/3
f 115/1/3 109/1/3 114/1/3
f 116/3/3 113/3/3 112/3/3
f 116/3/3 112/3/3 111/3/3
f 116/3/3 111/3/3 110/3/3
f 117/2/3 104/2/3 113/2/3
f 117/3/3 113/3/3 116/3/3
f 118/2/3 104/2/3 117/2/3
f 123/3/3 120/3/3 119/3/3
f 124/3/3 120/3/3 123/3/3
f 125/3/3 122/3/3 121/3/3
f 126/3/3 122/3/3 125/3/3
f 127/1/4 128/1/4 130/1/4
f 128/3/4 129/3/4 131/3/4
f 130/1/4 128/1/4 131/1/4
f 131/3/4 129/3/4 132/3/4
f 133/3/4 134/3/4 135/3/4
f 135/3/4 134/3/4 136/3/4
f 137/3/4 138/3/4 139/3/4
f 139/3/4 138/3/4 140/3/4
f 141/3/4 142/3/4 145/3/4
f 144/3/4 145/3/4 146/3/4
f 142/2/4 143/2/4 147/2/4
f 146/3/4 145/3/4 147/3/4
f 145/3/4 142/3/4 147/3/4
f 147/2/4 143/2/4 148/2/4
f 149/1/4 150/1/4 152/1/4
f 150/3/4 151/3/4 153/3/4
f 152/1/4 150/1/4 153/1/4
f 153/3/4 151/3/4 154/3/4
f 159/1/5 156/1/5 155/1/5
f 160/1/5 156/1/5 159/1/5
f 161/1/5 158/1/5 157/1/5
f 162/1/5 158/1/5 161/1/5
f 167/3/5 164/3/5 163/3/5
f 168/3/5 164/3/5 167/3/5
f 169/3/5 166/3/5 165/3/5
f 170/3/5 166/3/5 169/3/5
f 173/3/5 172/3/5 171/3/5
f 174/3/5 172/3/5 173/3/5
f 178/3/5 176/3/5 175/3/5
f 179/3/5 178/3/5 177/3/5
f 180/3/5 176/3/5 178/3/5
f 180/3/5 178/3/5 179/3/5
f 183/2/5 182/2/5 181/2/5
f 184/2/5 182/2/5 183/2/5
f 185/1/6 186/1/6 187/1/6
f 187/1/6 186/1/6 188/1/6
f 189/1/6 190/1/6 191/1/6
f 191/1/6 190/1/6 192/1/6
f 193/1/6 194/1/6 195/1/6
f 195/1/6 194/1/6 196/1/6
f 197/1/6 198/1/6 199/1/6
f 199/1/6 198/1/6 200/1/6
f 201/3/6 202/3/6 203/3/6
f 203/3/6 202/3/6 204/3/6
f 205/3/6 206/3/6 207/3/6
f 207/3/6 206/3/6 208/3/6
f 209/3/6 210/3/6 211/3/6
f 211/3/6 210/3/6 212/3/6
f 213/3/6 214/3/6 215/3/6
f 215/3/6 214/3/6 216/3/6
f 217/3/6 218/3/6 219/3/6
f 219/3/6 218/3/6 220/3/6
f 221/2/6 222/2/6 223/2/6
f 223/2/6 222/2/6 224/2/6
