# MagicaVoxel @ Ephtracy

# group
o 

# material
mtllib Tomaten25.mtl
usemtl palette

# normals
vn -1 0 0
vn 1 0 0
vn 0 0 1
vn 0 0 -1
vn 0 -1 0
vn 0 1 0

# texcoords
vt 0.0410156 0.5
vt 0.0605469 0.5
vt 0.841797 0.5
vt 0.904297 0.5
vt 0.912109 0.5

# verts
v 2.9 2 -2.8
v 2.9 2 -4.6
v 2.9 2.2 -2.8
v 2.9 2.2 -4.6
v 2.9 2.9 -4.2
v 2.9 2.9 -4.3
v 2.9 3 -4.2
v 2.9 3 -4.3
v 3 2 -2.7
v 3 2 -2.8
v 3 2.2 -2.7
v 3 2.2 -2.8
v 3 2.2 -3.7
v 3 2.2 -4.6
v 3 2.3 -3.7
v 3 2.3 -4.6
v 3 2.8 -4.2
v 3 2.8 -4.3
v 3 2.9 -4.2
v 3 2.9 -4.3
v 3.1 2.2 -2.7
v 3.1 2.2 -3.1
v 3.1 2.3 -2.7
v 3.1 2.3 -3.1
v 3.1 3 -4.1
v 3.1 3 -4.2
v 3.1 3.2 -4.1
v 3.1 3.2 -4.2
v 3.2 2 -4.6
v 3.2 2 -4.7
v 3.2 2.2 -3.1
v 3.2 2.2 -3.2
v 3.2 2.2 -3.6
v 3.2 2.2 -3.7
v 3.2 2.3 -3.1
v 3.2 2.3 -3.2
v 3.2 2.3 -3.6
v 3.2 2.3 -3.7
v 3.2 2.3 -4
v 3.2 2.3 -4.2
v 3.2 2.3 -4.6
v 3.2 2.3 -4.7
v 3.2 2.5 -4.1
v 3.2 2.5 -4.2
v 3.2 2.6 -4.1
v 3.2 2.6 -4.2
v 3.2 2.8 -4.2
v 3.2 2.9 -3.6
v 3.2 2.9 -3.9
v 3.2 2.9 -4.2
v 3.2 3 -4.1
v 3.2 3 -4.2
v 3.2 3.1 -3.6
v 3.2 3.1 -3.7
v 3.2 3.2 -3.7
v 3.2 3.2 -3.9
v 3.2 3.2 -4.1
v 3.2 3.2 -4.2
v 3.2 3.5 -4
v 3.2 3.5 -4.2
v 3.3 2.2 -3.2
v 3.3 2.2 -3.6
v 3.3 2.3 -3.2
v 3.3 2.3 -3.6
v 3.3 2.3 -4.2
v 3.3 2.3 -4.3
v 3.3 2.5 -4.1
v 3.3 2.5 -4.2
v 3.3 2.6 -4.1
v 3.3 2.6 -4.2
v 3.3 2.8 -4.2
v 3.3 2.8 -4.3
v 3.3 3.2 -3.7
v 3.3 3.2 -3.8
v 3.3 3.3 -3.7
v 3.3 3.3 -3.8
v 3.3 3.3 -4
v 3.3 3.4 -3.8
v 3.3 3.4 -4
v 3.4 2 -2.6
v 3.4 2 -2.7
v 3.4 2.3 -2.6
v 3.4 2.3 -2.7
v 3.5 2 -4.7
v 3.5 2 -4.8
v 3.5 2.3 -4.7
v 3.5 2.3 -4.8
v 3.9 2.1 -3.6
v 3.9 2.1 -3.8
v 3.9 2.2 -3.4
v 3.9 2.2 -3.5
v 3.9 2.2 -3.6
v 3.9 2.2 -3.8
v 3.9 2.2 -4
v 3.9 2.2 -4.1
v 3.9 2.3 -3.4
v 3.9 2.3 -3.5
v 3.9 2.3 -4
v 3.9 2.3 -4.1
v 4 2.2 -3.5
v 4 2.2 -4
v 4 2.3 -3.5
v 4 2.3 -4
v 4 2.3 -4.2
v 4 2.3 -4.3
v 4 2.5 -4.2
v 4 2.5 -4.3
v 4.6 2 -2.7
v 4.6 2 -2.8
v 4.6 2.2 -2.7
v 4.6 2.2 -2.8
v 4.7 2.3 -4.2
v 4.7 2.3 -4.3
v 4.7 2.5 -4.2
v 4.7 2.5 -4.3
v 4.8 2.5 -4.2
v 4.8 2.5 -4.3
v 4.8 2.6 -4.2
v 4.8 2.6 -4.3
v 4.9 2.1 -3.1
v 4.9 2.1 -3.5
v 4.9 2.2 -3.1
v 4.9 2.2 -3.5
v 3 2.9 -4.2
v 3 2.9 -4.3
v 3 3 -4.2
v 3 3 -4.3
v 3.3 2.6 -4
v 3.3 2.6 -4.1
v 3.3 2.7 -4
v 3.3 2.7 -4.1
v 3.3 3.4 -4
v 3.3 3.4 -4.2
v 3.3 3.5 -4
v 3.3 3.5 -4.2
v 3.4 2.3 -4
v 3.4 2.3 -4.2
v 3.4 2.6 -4
v 3.4 2.6 -4.1
v 3.4 2.7 -4
v 3.4 2.7 -4.1
v 3.4 2.9 -4.1
v 3.4 2.9 -4.2
v 3.4 3 -3.6
v 3.4 3 -3.8
v 3.4 3.1 -3.6
v 3.4 3.1 -3.7
v 3.4 3.1 -3.8
v 3.4 3.1 -3.9
v 3.4 3.1 -4.1
v 3.4 3.1 -4.2
v 3.4 3.2 -3.7
v 3.4 3.2 -3.8
v 3.4 3.2 -3.9
v 3.4 3.3 -3.7
v 3.4 3.3 -3.8
v 3.4 3.3 -4
v 3.4 3.4 -3.8
v 3.4 3.4 -4.2
v 3.5 2.3 -4.2
v 3.5 2.3 -4.3
v 3.5 2.8 -4.2
v 3.5 2.8 -4.3
v 3.5 2.9 -3.6
v 3.5 2.9 -3.9
v 3.5 2.9 -4.1
v 3.5 2.9 -4.2
v 3.5 3 -3.6
v 3.5 3 -3.8
v 3.5 3 -4.1
v 3.5 3 -4.2
v 3.5 3.1 -3.8
v 3.5 3.1 -3.9
v 3.6 2.1 -3.6
v 3.6 2.1 -3.8
v 3.6 2.3 -3.6
v 3.6 2.3 -3.8
v 3.6 3 -4.1
v 3.6 3 -4.2
v 3.6 3.1 -4.1
v 3.6 3.1 -4.2
v 3.7 2 -2.6
v 3.7 2 -2.7
v 3.7 2.3 -2.6
v 3.7 2.3 -2.7
v 3.7 2.8 -4.2
v 3.7 2.8 -4.3
v 3.7 2.9 -4.2
v 3.7 2.9 -4.3
v 3.8 2.2 -3.4
v 3.8 2.2 -3.6
v 3.8 2.2 -3.8
v 3.8 2.2 -4.1
v 3.8 2.3 -3.4
v 3.8 2.3 -3.6
v 3.8 2.3 -3.8
v 3.8 2.3 -4.1
v 4 2 -2.7
v 4 2 -2.8
v 4 2.3 -2.7
v 4 2.3 -2.8
v 4.1 2 -4.7
v 4.1 2 -4.8
v 4.1 2.3 -4.7
v 4.1 2.3 -4.8
v 4.2 2.3 -4.2
v 4.2 2.3 -4.3
v 4.2 2.5 -4.2
v 4.2 2.5 -4.3
v 4.4 2 -4.6
v 4.4 2 -4.7
v 4.4 2.3 -4.6
v 4.4 2.3 -4.7
v 4.6 2.2 -2.8
v 4.6 2.2 -3
v 4.6 2.2 -3.3
v 4.6 2.2 -3.6
v 4.6 2.3 -2.8
v 4.6 2.3 -3
v 4.6 2.3 -3.3
v 4.6 2.3 -3.6
v 4.7 2.1 -3.1
v 4.7 2.1 -3.5
v 4.7 2.2 -3
v 4.7 2.2 -3.1
v 4.7 2.2 -3.3
v 4.7 2.2 -3.5
v 4.7 2.3 -3
v 4.7 2.3 -3.3
v 4.8 2.1 -2.7
v 4.8 2.1 -2.8
v 4.8 2.2 -2.7
v 4.8 2.2 -2.8
v 4.8 2.2 -3.6
v 4.8 2.2 -3.9
v 4.8 2.3 -3.6
v 4.8 2.3 -3.9
v 4.9 2.2 -4.2
v 4.9 2.2 -4.6
v 4.9 2.3 -4.2
v 4.9 2.3 -4.3
v 4.9 2.3 -4.6
v 4.9 2.6 -4.2
v 4.9 2.6 -4.3
v 5 2 -4.5
v 5 2 -4.6
v 5 2.1 -2.8
v 5 2.1 -4.5
v 5 2.2 -2.8
v 5 2.2 -3.9
v 5 2.2 -4.2
v 5 2.2 -4.6
v 5 2.3 -3.9
v 5 2.3 -4.2
v 5.1 2 -2.7
v 5.1 2 -4.5
v 5.1 2.1 -2.7
v 5.1 2.1 -4.5
v 3.4 2 -2.6
v 3.4 2.3 -2.6
v 3.7 2 -2.6
v 3.7 2.3 -2.6
v 3 2 -2.7
v 3 2.2 -2.7
v 3.1 2.2 -2.7
v 3.1 2.3 -2.7
v 3.4 2 -2.7
v 3.4 2.3 -2.7
v 3.7 2 -2.7
v 3.7 2.3 -2.7
v 4 2 -2.7
v 4 2.3 -2.7
v 4.6 2 -2.7
v 4.6 2.2 -2.7
v 4.8 2.1 -2.7
v 4.8 2.2 -2.7
v 5.1 2 -2.7
v 5.1 2.1 -2.7
v 2.9 2 -2.8
v 2.9 2.2 -2.8
v 3 2 -2.8
v 3 2.2 -2.8
v 4 2 -2.8
v 4 2.3 -2.8
v 4.6 2 -2.8
v 4.6 2.2 -2.8
v 4.6 2.3 -2.8
v 4.8 2.1 -2.8
v 4.8 2.2 -2.8
v 5 2.1 -2.8
v 5 2.2 -2.8
v 4.6 2.2 -3
v 4.6 2.3 -3
v 4.7 2.2 -3
v 4.7 2.3 -3
v 4.7 2.1 -3.5
v 4.7 2.2 -3.5
v 4.9 2.1 -3.5
v 4.9 2.2 -3.5
v 3.2 2.2 -3.6
v 3.2 2.3 -3.6
v 3.2 2.9 -3.6
v 3.2 3.1 -3.6
v 3.3 2.2 -3.6
v 3.3 2.3 -3.6
v 3.4 3 -3.6
v 3.4 3.1 -3.6
v 3.5 2.9 -3.6
v 3.5 3 -3.6
v 4.6 2.2 -3.6
v 4.6 2.3 -3.6
v 4.8 2.2 -3.6
v 4.8 2.3 -3.6
v 3 2.2 -3.7
v 3 2.3 -3.7
v 3.2 2.2 -3.7
v 3.2 2.3 -3.7
v 3.2 3.1 -3.7
v 3.2 3.2 -3.7
v 3.3 3.2 -3.7
v 3.3 3.3 -3.7
v 3.4 3.1 -3.7
v 3.4 3.2 -3.7
v 3.4 3.3 -3.7
v 3.3 3.3 -3.8
v 3.3 3.4 -3.8
v 3.4 3 -3.8
v 3.4 3.1 -3.8
v 3.4 3.3 -3.8
v 3.4 3.4 -3.8
v 3.5 3 -3.8
v 3.5 3.1 -3.8
v 3.6 2.1 -3.8
v 3.6 2.3 -3.8
v 3.8 2.2 -3.8
v 3.8 2.3 -3.8
v 3.9 2.1 -3.8
v 3.9 2.2 -3.8
v 4.8 2.2 -3.9
v 4.8 2.3 -3.9
v 5 2.2 -3.9
v 5 2.3 -3.9
v 3.2 2.3 -4
v 3.2 3.5 -4
v 3.3 2.6 -4
v 3.3 2.7 -4
v 3.3 3.3 -4
v 3.3 3.4 -4
v 3.3 3.5 -4
v 3.4 2.3 -4
v 3.4 2.6 -4
v 3.4 2.7 -4
v 3.4 3.3 -4
v 3.9 2.2 -4
v 3.9 2.3 -4
v 4 2.2 -4
v 4 2.3 -4
v 3.1 3 -4.1
v 3.1 3.2 -4.1
v 3.2 3 -4.1
v 3.2 3.2 -4.1
v 3.3 2.6 -4.1
v 3.3 2.7 -4.1
v 3.4 2.6 -4.1
v 3.4 2.7 -4.1
v 3.4 2.9 -4.1
v 3.4 3.1 -4.1
v 3.5 2.9 -4.1
v 3.5 3 -4.1
v 3.6 3 -4.1
v 3.6 3.1 -4.1
v 3.8 2.2 -4.1
v 3.8 2.3 -4.1
v 3.9 2.2 -4.1
v 3.9 2.3 -4.1
v 2.9 2.9 -4.2
v 2.9 3 -4.2
v 3 2.8 -4.2
v 3 2.9 -4.2
v 3 3 -4.2
v 3.2 2.8 -4.2
v 3.2 2.9 -4.2
v 3.4 2.3 -4.2
v 3.4 2.9 -4.2
v 3.5 2.3 -4.2
v 3.5 2.8 -4.2
v 3.5 2.9 -4.2
v 3.7 2.8 -4.2
v 3.7 2.9 -4.2
v 4 2.3 -4.2
v 4 2.5 -4.2
v 4.2 2.3 -4.2
v 4.2 2.5 -4.2
v 4.7 2.3 -4.2
v 4.7 2.5 -4.2
v 4.8 2.5 -4.2
v 4.8 2.6 -4.2
v 4.9 2.3 -4.2
v 4.9 2.6 -4.2
v 3.1 2.2 -3.1
v 3.1 2.3 -3.1
v 3.2 2.2 -3.1
v 3.2 2.3 -3.1
v 4.7 2.1 -3.1
v 4.7 2.2 -3.1
v 4.9 2.1 -3.1
v 4.9 2.2 -3.1
v 3.2 2.2 -3.2
v 3.2 2.3 -3.2
v 3.3 2.2 -3.2
v 3.3 2.3 -3.2
v 4.6 2.2 -3.3
v 4.6 2.3 -3.3
v 4.7 2.2 -3.3
v 4.7 2.3 -3.3
v 3.8 2.2 -3.4
v 3.8 2.3 -3.4
v 3.9 2.2 -3.4
v 3.9 2.3 -3.4
v 3.9 2.2 -3.5
v 3.9 2.3 -3.5
v 4 2.2 -3.5
v 4 2.3 -3.5
v 3.6 2.1 -3.6
v 3.6 2.3 -3.6
v 3.8 2.2 -3.6
v 3.8 2.3 -3.6
v 3.9 2.1 -3.6
v 3.9 2.2 -3.6
v 3.3 3.2 -3.8
v 3.3 3.3 -3.8
v 3.4 3.2 -3.8
v 3.4 3.3 -3.8
v 3.2 2.9 -3.9
v 3.2 3.2 -3.9
v 3.4 3.1 -3.9
v 3.4 3.2 -3.9
v 3.5 2.9 -3.9
v 3.5 3.1 -3.9
v 3.2 2.5 -4.1
v 3.2 2.6 -4.1
v 3.3 2.5 -4.1
v 3.3 2.6 -4.1
v 3.1 3 -4.2
v 3.1 3.2 -4.2
v 3.2 2.3 -4.2
v 3.2 2.5 -4.2
v 3.2 2.6 -4.2
v 3.2 2.8 -4.2
v 3.2 2.9 -4.2
v 3.2 3 -4.2
v 3.2 3.2 -4.2
v 3.2 3.5 -4.2
v 3.3 2.3 -4.2
v 3.3 2.5 -4.2
v 3.3 2.6 -4.2
v 3.3 2.8 -4.2
v 3.3 2.9 -4.2
v 3.3 3.4 -4.2
v 3.3 3.5 -4.2
v 3.4 3.1 -4.2
v 3.4 3.4 -4.2
v 3.5 2.9 -4.2
v 3.5 3 -4.2
v 3.6 3 -4.2
v 3.6 3.1 -4.2
v 4.9 2.2 -4.2
v 4.9 2.3 -4.2
v 5 2.2 -4.2
v 5 2.3 -4.2
v 2.9 2.9 -4.3
v 2.9 3 -4.3
v 3 2.8 -4.3
v 3 2.9 -4.3
v 3 3 -4.3
v 3.3 2.3 -4.3
v 3.3 2.8 -4.3
v 3.3 2.9 -4.3
v 3.5 2.3 -4.3
v 3.5 2.8 -4.3
v 3.5 2.9 -4.3
v 3.7 2.8 -4.3
v 3.7 2.9 -4.3
v 4 2.3 -4.3
v 4 2.5 -4.3
v 4.2 2.3 -4.3
v 4.2 2.5 -4.3
v 4.7 2.3 -4.3
v 4.7 2.5 -4.3
v 4.8 2.5 -4.3
v 4.8 2.6 -4.3
v 4.9 2.3 -4.3
v 4.9 2.6 -4.3
v 5 2 -4.5
v 5 2.1 -4.5
v 5.1 2 -4.5
v 5.1 2.1 -4.5
v 2.9 2 -4.6
v 2.9 2.2 -4.6
v 3 2.2 -4.6
v 3 2.3 -4.6
v 3.2 2 -4.6
v 3.2 2.3 -4.6
v 4.4 2 -4.6
v 4.4 2.3 -4.6
v 4.9 2.2 -4.6
v 4.9 2.3 -4.6
v 5 2 -4.6
v 5 2.2 -4.6
v 3.2 2 -4.7
v 3.2 2.3 -4.7
v 3.5 2 -4.7
v 3.5 2.3 -4.7
v 4.1 2 -4.7
v 4.1 2.3 -4.7
v 4.4 2 -4.7
v 4.4 2.3 -4.7
v 3.5 2 -4.8
v 3.5 2.3 -4.8
v 4.1 2 -4.8
v 4.1 2.3 -4.8
v 3.4 2 -2.6
v 3.7 2 -2.6
v 3 2 -2.7
v 3.4 2 -2.7
v 3.7 2 -2.7
v 4 2 -2.7
v 4.6 2 -2.7
v 5.1 2 -2.7
v 2.9 2 -2.8
v 3 2 -2.8
v 4 2 -2.8
v 4.6 2 -2.8
v 5 2 -4.5
v 5.1 2 -4.5
v 2.9 2 -4.6
v 3.2 2 -4.6
v 4.4 2 -4.6
v 5 2 -4.6
v 3.2 2 -4.7
v 3.5 2 -4.7
v 4.1 2 -4.7
v 4.4 2 -4.7
v 3.5 2 -4.8
v 4.1 2 -4.8
v 3.2 2.6 -4.1
v 3.3 2.6 -4.1
v 3.2 2.6 -4.2
v 3.3 2.6 -4.2
v 3.3 2.7 -4
v 3.4 2.7 -4
v 3.3 2.7 -4.1
v 3.4 2.7 -4.1
v 3 2.8 -4.2
v 3.2 2.8 -4.2
v 3.3 2.8 -4.2
v 3.5 2.8 -4.2
v 3.7 2.8 -4.2
v 3 2.8 -4.3
v 3.3 2.8 -4.3
v 3.5 2.8 -4.3
v 3.7 2.8 -4.3
v 3.2 2.9 -3.6
v 3.5 2.9 -3.6
v 3.2 2.9 -3.9
v 3.5 2.9 -3.9
v 3.4 2.9 -4.1
v 3.5 2.9 -4.1
v 2.9 2.9 -4.2
v 3 2.9 -4.2
v 3.4 2.9 -4.2
v 3.5 2.9 -4.2
v 2.9 2.9 -4.3
v 3 2.9 -4.3
v 3.1 3 -4.1
v 3.2 3 -4.1
v 3.5 3 -4.1
v 3.6 3 -4.1
v 3.1 3 -4.2
v 3.2 3 -4.2
v 3.5 3 -4.2
v 3.6 3 -4.2
v 3.3 3.3 -3.8
v 3.4 3.3 -3.8
v 3.3 3.3 -4
v 3.4 3.3 -4
v 4.8 2.1 -2.7
v 5.1 2.1 -2.7
v 4.8 2.1 -2.8
v 5 2.1 -2.8
v 4.7 2.1 -3.1
v 4.9 2.1 -3.1
v 4.7 2.1 -3.5
v 4.9 2.1 -3.5
v 3.6 2.1 -3.6
v 3.9 2.1 -3.6
v 3.6 2.1 -3.8
v 3.9 2.1 -3.8
v 5 2.1 -4.5
v 5.1 2.1 -4.5
v 3 2.2 -2.7
v 3.1 2.2 -2.7
v 4.6 2.2 -2.7
v 4.8 2.2 -2.7
v 2.9 2.2 -2.8
v 3 2.2 -2.8
v 4.6 2.2 -2.8
v 4.8 2.2 -2.8
v 5 2.2 -2.8
v 4.6 2.2 -3
v 4.7 2.2 -3
v 3.1 2.2 -3.1
v 3.2 2.2 -3.1
v 4.7 2.2 -3.1
v 4.9 2.2 -3.1
v 3.2 2.2 -3.2
v 3.3 2.2 -3.2
v 4.6 2.2 -3.3
v 4.7 2.2 -3.3
v 3.8 2.2 -3.4
v 3.9 2.2 -3.4
v 3.9 2.2 -3.5
v 4 2.2 -3.5
v 4.7 2.2 -3.5
v 4.9 2.2 -3.5
v 3.2 2.2 -3.6
v 3.3 2.2 -3.6
v 3.8 2.2 -3.6
v 3.9 2.2 -3.6
v 4.6 2.2 -3.6
v 4.8 2.2 -3.6
v 3 2.2 -3.7
v 3.2 2.2 -3.7
v 3.8 2.2 -3.8
v 3.9 2.2 -3.8
v 4.8 2.2 -3.9
v 5 2.2 -3.9
v 3.9 2.2 -4
v 4 2.2 -4
v 3.8 2.2 -4.1
v 3.9 2.2 -4.1
v 4.9 2.2 -4.2
v 5 2.2 -4.2
v 2.9 2.2 -4.6
v 3 2.2 -4.6
v 4.9 2.2 -4.6
v 5 2.2 -4.6
v 3.4 2.3 -2.6
v 3.7 2.3 -2.6
v 3.1 2.3 -2.7
v 3.4 2.3 -2.7
v 3.7 2.3 -2.7
v 4 2.3 -2.7
v 4 2.3 -2.8
v 4.6 2.3 -2.8
v 4.6 2.3 -3
v 4.7 2.3 -3
v 3.1 2.3 -3.1
v 3.2 2.3 -3.1
v 3.2 2.3 -3.2
v 3.3 2.3 -3.2
v 4.6 2.3 -3.3
v 4.7 2.3 -3.3
v 3.8 2.3 -3.4
v 3.9 2.3 -3.4
v 3.9 2.3 -3.5
v 4 2.3 -3.5
v 3.2 2.3 -3.6
v 3.3 2.3 -3.6
v 3.6 2.3 -3.6
v 3.8 2.3 -3.6
v 4.6 2.3 -3.6
v 4.8 2.3 -3.6
v 3 2.3 -3.7
v 3.2 2.3 -3.7
v 3.6 2.3 -3.8
v 3.8 2.3 -3.8
v 4.8 2.3 -3.9
v 5 2.3 -3.9
v 3.2 2.3 -4
v 3.4 2.3 -4
v 3.9 2.3 -4
v 4 2.3 -4
v 3.8 2.3 -4.1
v 3.9 2.3 -4.1
v 3.2 2.3 -4.2
v 3.3 2.3 -4.2
v 3.4 2.3 -4.2
v 3.5 2.3 -4.2
v 4 2.3 -4.2
v 4.2 2.3 -4.2
v 4.7 2.3 -4.2
v 4.9 2.3 -4.2
v 5 2.3 -4.2
v 3.3 2.3 -4.3
v 3.5 2.3 -4.3
v 4 2.3 -4.3
v 4.2 2.3 -4.3
v 4.7 2.3 -4.3
v 4.9 2.3 -4.3
v 3 2.3 -4.6
v 3.2 2.3 -4.6
v 4.4 2.3 -4.6
v 4.9 2.3 -4.6
v 3.2 2.3 -4.7
v 3.5 2.3 -4.7
v 4.1 2.3 -4.7
v 4.4 2.3 -4.7
v 3.5 2.3 -4.8
v 4.1 2.3 -4.8
v 3.2 2.5 -4.1
v 3.3 2.5 -4.1
v 3.2 2.5 -4.2
v 3.3 2.5 -4.2
v 4 2.5 -4.2
v 4.2 2.5 -4.2
v 4.7 2.5 -4.2
v 4.8 2.5 -4.2
v 4 2.5 -4.3
v 4.2 2.5 -4.3
v 4.7 2.5 -4.3
v 4.8 2.5 -4.3
v 3.3 2.6 -4
v 3.4 2.6 -4
v 3.3 2.6 -4.1
v 3.4 2.6 -4.1
v 4.8 2.6 -4.2
v 4.9 2.6 -4.2
v 4.8 2.6 -4.3
v 4.9 2.6 -4.3
v 3 2.9 -4.2
v 3.2 2.9 -4.2
v 3.3 2.9 -4.2
v 3.5 2.9 -4.2
v 3.7 2.9 -4.2
v 3 2.9 -4.3
v 3.3 2.9 -4.3
v 3.5 2.9 -4.3
v 3.7 2.9 -4.3
v 3.4 3 -3.6
v 3.5 3 -3.6
v 3.4 3 -3.8
v 3.5 3 -3.8
v 2.9 3 -4.2
v 3 3 -4.2
v 2.9 3 -4.3
v 3 3 -4.3
v 3.2 3.1 -3.6
v 3.4 3.1 -3.6
v 3.2 3.1 -3.7
v 3.4 3.1 -3.7
v 3.4 3.1 -3.8
v 3.5 3.1 -3.8
v 3.4 3.1 -3.9
v 3.5 3.1 -3.9
v 3.4 3.1 -4.1
v 3.6 3.1 -4.1
v 3.4 3.1 -4.2
v 3.6 3.1 -4.2
v 3.2 3.2 -3.7
v 3.3 3.2 -3.7
v 3.3 3.2 -3.8
v 3.4 3.2 -3.8
v 3.2 3.2 -3.9
v 3.4 3.2 -3.9
v 3.1 3.2 -4.1
v 3.2 3.2 -4.1
v 3.1 3.2 -4.2
v 3.2 3.2 -4.2
v 3.3 3.3 -3.7
v 3.4 3.3 -3.7
v 3.3 3.3 -3.8
v 3.4 3.3 -3.8
v 3.3 3.4 -3.8
v 3.4 3.4 -3.8
v 3.3 3.4 -4
v 3.3 3.4 -4.2
v 3.4 3.4 -4.2
v 3.2 3.5 -4
v 3.3 3.5 -4
v 3.2 3.5 -4.2
v 3.3 3.5 -4.2

# faces
f 3/2/1 2/2/1 1/2/1
f 4/2/1 2/2/1 3/2/1
f 7/5/1 6/5/1 5/5/1
f 8/5/1 6/5/1 7/5/1
f 11/2/1 10/2/1 9/2/1
f 12/2/1 10/2/1 11/2/1
f 15/2/1 14/2/1 13/2/1
f 16/2/1 14/2/1 15/2/1
f 19/5/1 18/5/1 17/5/1
f 20/5/1 18/5/1 19/5/1
f 23/2/1 22/2/1 21/2/1
f 24/2/1 22/2/1 23/2/1
f 27/4/1 26/4/1 25/4/1
f 28/4/1 26/4/1 27/4/1
f 35/2/1 32/2/1 31/2/1
f 36/2/1 32/2/1 35/2/1
f 37/2/1 34/2/1 33/2/1
f 38/2/1 34/2/1 37/2/1
f 41/2/1 30/2/1 29/2/1
f 42/2/1 30/2/1 41/2/1
f 43/4/1 40/4/1 39/4/1
f 44/4/1 40/4/1 43/4/1
f 45/4/1 43/4/1 39/4/1
f 47/4/1 46/4/1 45/4/1
f 50/4/1 47/4/1 45/4/1
f 51/4/1 45/4/1 39/4/1
f 51/4/1 50/4/1 45/4/1
f 52/4/1 50/4/1 51/4/1
f 53/3/1 49/3/1 48/3/1
f 54/3/1 49/3/1 53/3/1
f 55/3/1 49/3/1 54/3/1
f 56/3/1 49/3/1 55/3/1
f 57/4/1 51/4/1 39/4/1
f 59/4/1 58/4/1 57/4/1
f 59/4/1 57/4/1 39/4/1
f 60/4/1 58/4/1 59/4/1
f 63/2/1 62/2/1 61/2/1
f 64/2/1 62/2/1 63/2/1
f 68/1/1 66/1/1 65/1/1
f 69/4/1 68/4/1 67/4/1
f 70/1/1 66/1/1 68/1/1
f 70/4/1 68/4/1 69/4/1
f 71/1/1 66/1/1 70/1/1
f 72/1/1 66/1/1 71/1/1
f 75/4/1 74/4/1 73/4/1
f 76/4/1 74/4/1 75/4/1
f 78/4/1 77/4/1 76/4/1
f 79/4/1 77/4/1 78/4/1
f 82/2/1 81/2/1 80/2/1
f 83/2/1 81/2/1 82/2/1
f 86/2/1 85/2/1 84/2/1
f 87/2/1 85/2/1 86/2/1
f 92/2/1 89/2/1 88/2/1
f 93/2/1 89/2/1 92/2/1
f 96/2/1 91/2/1 90/2/1
f 97/2/1 91/2/1 96/2/1
f 98/2/1 95/2/1 94/2/1
f 99/2/1 95/2/1 98/2/1
f 102/2/1 101/2/1 100/2/1
f 103/2/1 101/2/1 102/2/1
f 106/1/1 105/1/1 104/1/1
f 107/1/1 105/1/1 106/1/1
f 110/2/1 109/2/1 108/2/1
f 111/2/1 109/2/1 110/2/1
f 114/1/1 113/1/1 112/1/1
f 115/1/1 113/1/1 114/1/1
f 118/1/1 117/1/1 116/1/1
f 119/1/1 117/1/1 118/1/1
f 122/2/1 121/2/1 120/2/1
f 123/2/1 121/2/1 122/2/1
f 124/5/2 125/5/2 126/5/2
f 126/5/2 125/5/2 127/5/2
f 128/4/2 129/4/2 130/4/2
f 130/4/2 129/4/2 131/4/2
f 132/4/2 133/4/2 134/4/2
f 134/4/2 133/4/2 135/4/2
f 136/4/2 137/4/2 138/4/2
f 138/4/2 137/4/2 139/4/2
f 139/4/2 137/4/2 141/4/2
f 141/4/2 137/4/2 142/4/2
f 140/4/2 141/4/2 142/4/2
f 142/4/2 137/4/2 143/4/2
f 144/3/2 145/3/2 146/3/2
f 146/3/2 145/3/2 147/3/2
f 147/3/2 145/3/2 148/3/2
f 140/4/2 142/4/2 150/4/2
f 148/3/2 149/3/2 152/3/2
f 147/3/2 148/3/2 152/3/2
f 152/3/2 149/3/2 153/3/2
f 153/3/2 149/3/2 154/3/2
f 152/4/2 153/4/2 155/4/2
f 155/4/2 153/4/2 156/4/2
f 150/4/2 151/4/2 157/4/2
f 140/4/2 150/4/2 157/4/2
f 156/4/2 157/4/2 158/4/2
f 157/4/2 151/4/2 159/4/2
f 158/4/2 157/4/2 159/4/2
f 160/1/2 161/1/2 162/1/2
f 162/1/2 161/1/2 163/1/2
f 164/3/2 165/3/2 168/3/2
f 168/3/2 165/3/2 169/3/2
f 166/4/2 167/4/2 170/4/2
f 170/4/2 167/4/2 171/4/2
f 169/3/2 165/3/2 172/3/2
f 172/3/2 165/3/2 173/3/2
f 174/2/2 175/2/2 176/2/2
f 176/2/2 175/2/2 177/2/2
f 178/4/2 179/4/2 180/4/2
f 180/4/2 179/4/2 181/4/2
f 182/2/2 183/2/2 184/2/2
f 184/2/2 183/2/2 185/2/2
f 186/5/2 187/5/2 188/5/2
f 188/5/2 187/5/2 189/5/2
f 190/2/2 191/2/2 194/2/2
f 194/2/2 191/2/2 195/2/2
f 192/2/2 193/2/2 196/2/2
f 196/2/2 193/2/2 197/2/2
f 198/2/2 199/2/2 200/2/2
f 200/2/2 199/2/2 201/2/2
f 202/2/2 203/2/2 204/2/2
f 204/2/2 203/2/2 205/2/2
f 206/1/2 207/1/2 208/1/2
f 208/1/2 207/1/2 209/1/2
f 210/2/2 211/2/2 212/2/2
f 212/2/2 211/2/2 213/2/2
f 214/2/2 215/2/2 218/2/2
f 218/2/2 215/2/2 219/2/2
f 216/2/2 217/2/2 220/2/2
f 220/2/2 217/2/2 221/2/2
f 222/2/2 223/2/2 225/2/2
f 225/2/2 223/2/2 226/2/2
f 226/2/2 223/2/2 227/2/2
f 224/2/2 225/2/2 228/2/2
f 225/2/2 226/2/2 228/2/2
f 228/2/2 226/2/2 229/2/2
f 230/2/2 231/2/2 232/2/2
f 232/2/2 231/2/2 233/2/2
f 234/2/2 235/2/2 236/2/2
f 236/2/2 235/2/2 237/2/2
f 238/2/2 239/2/2 240/2/2
f 240/2/2 239/2/2 241/2/2
f 241/2/2 239/2/2 242/2/2
f 240/1/2 241/1/2 243/1/2
f 243/1/2 241/1/2 244/1/2
f 245/2/2 246/2/2 248/2/2
f 247/2/2 248/2/2 249/2/2
f 249/2/2 248/2/2 250/2/2
f 250/2/2 248/2/2 251/2/2
f 248/2/2 246/2/2 252/2/2
f 251/2/2 248/2/2 252/2/2
f 250/2/2 251/2/2 253/2/2
f 253/2/2 251/2/2 254/2/2
f 255/2/2 256/2/2 257/2/2
f 257/2/2 256/2/2 258/2/2
f 261/2/3 260/2/3 259/2/3
f 262/2/3 260/2/3 261/2/3
f 265/2/3 264/2/3 263/2/3
f 267/2/3 265/2/3 263/2/3
f 267/2/3 266/2/3 265/2/3
f 268/2/3 266/2/3 267/2/3
f 271/2/3 270/2/3 269/2/3
f 272/2/3 270/2/3 271/2/3
f 275/2/3 274/2/3 273/2/3
f 276/2/3 274/2/3 275/2/3
f 277/2/3 275/2/3 273/2/3
f 278/2/3 275/2/3 277/2/3
f 281/2/3 280/2/3 279/2/3
f 282/2/3 280/2/3 281/2/3
f 285/2/3 284/2/3 283/2/3
f 286/2/3 284/2/3 285/2/3
f 287/2/3 284/2/3 286/2/3
f 290/2/3 289/2/3 288/2/3
f 291/2/3 289/2/3 290/2/3
f 294/2/3 293/2/3 292/2/3
f 295/2/3 293/2/3 294/2/3
f 298/2/3 297/2/3 296/2/3
f 299/2/3 297/2/3 298/2/3
f 304/2/3 301/2/3 300/2/3
f 305/2/3 301/2/3 304/2/3
f 306/3/3 303/3/3 302/3/3
f 307/3/3 303/3/3 306/3/3
f 308/3/3 306/3/3 302/3/3
f 309/3/3 306/3/3 308/3/3
f 312/2/3 311/2/3 310/2/3
f 313/2/3 311/2/3 312/2/3
f 316/2/3 315/2/3 314/2/3
f 317/2/3 315/2/3 316/2/3
f 320/3/3 319/3/3 318/3/3
f 322/3/3 320/3/3 318/3/3
f 323/4/3 321/4/3 320/4/3
f 323/3/3 320/3/3 322/3/3
f 324/4/3 321/4/3 323/4/3
f 329/4/3 326/4/3 325/4/3
f 330/4/3 326/4/3 329/4/3
f 331/3/3 328/3/3 327/3/3
f 332/3/3 328/3/3 331/3/3
f 335/2/3 334/2/3 333/2/3
f 336/2/3 334/2/3 335/2/3
f 337/2/3 335/2/3 333/2/3
f 338/2/3 335/2/3 337/2/3
f 341/2/3 340/2/3 339/2/3
f 342/2/3 340/2/3 341/2/3
f 345/4/3 344/4/3 343/4/3
f 346/4/3 344/4/3 345/4/3
f 347/4/3 344/4/3 346/4/3
f 348/4/3 344/4/3 347/4/3
f 349/4/3 344/4/3 348/4/3
f 350/4/3 345/4/3 343/4/3
f 351/4/3 345/4/3 350/4/3
f 352/4/3 347/4/3 346/4/3
f 353/4/3 347/4/3 352/4/3
f 356/2/3 355/2/3 354/2/3
f 357/2/3 355/2/3 356/2/3
f 360/4/3 359/4/3 358/4/3
f 361/4/3 359/4/3 360/4/3
f 364/4/3 363/4/3 362/4/3
f 365/4/3 363/4/3 364/4/3
f 368/4/3 367/4/3 366/4/3
f 369/4/3 367/4/3 368/4/3
f 370/4/3 367/4/3 369/4/3
f 371/4/3 367/4/3 370/4/3
f 374/2/3 373/2/3 372/2/3
f 375/2/3 373/2/3 374/2/3
f 379/5/3 377/5/3 376/5/3
f 380/5/3 377/5/3 379/5/3
f 381/5/3 379/5/3 378/5/3
f 382/5/3 379/5/3 381/5/3
f 385/1/3 384/1/3 383/1/3
f 386/1/3 384/1/3 385/1/3
f 387/1/3 384/1/3 386/1/3
f 388/5/3 387/5/3 386/5/3
f 389/5/3 387/5/3 388/5/3
f 392/1/3 391/1/3 390/1/3
f 393/1/3 391/1/3 392/1/3
f 396/1/3 395/1/3 394/1/3
f 398/1/3 396/1/3 394/1/3
f 398/1/3 397/1/3 396/1/3
f 399/1/3 397/1/3 398/1/3
f 400/2/4 401/2/4 402/2/4
f 402/2/4 401/2/4 403/2/4
f 404/2/4 405/2/4 406/2/4
f 406/2/4 405/2/4 407/2/4
f 408/2/4 409/2/4 410/2/4
f 410/2/4 409/2/4 411/2/4
f 412/2/4 413/2/4 414/2/4
f 414/2/4 413/2/4 415/2/4
f 416/2/4 417/2/4 418/2/4
f 418/2/4 417/2/4 419/2/4
f 420/2/4 421/2/4 422/2/4
f 422/2/4 421/2/4 423/2/4
f 424/2/4 425/2/4 426/2/4
f 426/2/4 425/2/4 427/2/4
f 424/2/4 426/2/4 428/2/4
f 428/2/4 426/2/4 429/2/4
f 430/4/4 431/4/4 432/4/4
f 432/4/4 431/4/4 433/4/4
f 434/3/4 435/3/4 436/3/4
f 436/3/4 435/3/4 437/3/4
f 434/3/4 436/3/4 438/3/4
f 438/3/4 436/3/4 439/3/4
f 440/4/4 441/4/4 442/4/4
f 442/4/4 441/4/4 443/4/4
f 444/4/4 445/4/4 451/4/4
f 451/4/4 445/4/4 452/4/4
f 446/4/4 447/4/4 454/4/4
f 454/4/4 447/4/4 455/4/4
f 448/4/4 449/4/4 456/4/4
f 456/4/4 449/4/4 457/4/4
f 452/4/4 453/4/4 458/4/4
f 450/4/4 451/4/4 458/4/4
f 451/4/4 452/4/4 458/4/4
f 458/4/4 453/4/4 459/4/4
f 459/4/4 453/4/4 460/4/4
f 458/4/4 459/4/4 461/4/4
f 461/4/4 459/4/4 462/4/4
f 458/4/4 461/4/4 463/4/4
f 463/4/4 461/4/4 464/4/4
f 464/4/4 461/4/4 465/4/4
f 465/4/4 461/4/4 466/4/4
f 467/2/4 468/2/4 469/2/4
f 469/2/4 468/2/4 470/2/4
f 471/5/4 472/5/4 474/5/4
f 474/5/4 472/5/4 475/5/4
f 473/5/4 474/5/4 477/5/4
f 477/5/4 474/5/4 478/5/4
f 476/1/4 477/1/4 479/1/4
f 477/1/4 478/1/4 479/1/4
f 479/1/4 478/1/4 480/1/4
f 480/1/4 478/1/4 481/1/4
f 480/5/4 481/5/4 482/5/4
f 482/5/4 481/5/4 483/5/4
f 484/1/4 485/1/4 486/1/4
f 486/1/4 485/1/4 487/1/4
f 488/1/4 489/1/4 490/1/4
f 488/1/4 490/1/4 492/1/4
f 490/1/4 491/1/4 492/1/4
f 492/1/4 491/1/4 493/1/4
f 494/2/4 495/2/4 496/2/4
f 496/2/4 495/2/4 497/2/4
f 498/2/4 499/2/4 500/2/4
f 498/2/4 500/2/4 502/2/4
f 500/2/4 501/2/4 502/2/4
f 502/2/4 501/2/4 503/2/4
f 504/2/4 505/2/4 506/2/4
f 506/2/4 505/2/4 507/2/4
f 504/2/4 506/2/4 508/2/4
f 508/2/4 506/2/4 509/2/4
f 510/2/4 511/2/4 512/2/4
f 512/2/4 511/2/4 513/2/4
f 514/2/4 515/2/4 516/2/4
f 516/2/4 515/2/4 517/2/4
f 518/2/4 519/2/4 520/2/4
f 520/2/4 519/2/4 521/2/4
f 525/2/5 523/2/5 522/2/5
f 526/2/5 523/2/5 525/2/5
f 531/2/5 525/2/5 524/2/5
f 531/2/5 526/2/5 525/2/5
f 531/2/5 527/2/5 526/2/5
f 532/2/5 527/2/5 531/2/5
f 533/2/5 529/2/5 528/2/5
f 534/2/5 532/2/5 531/2/5
f 534/2/5 533/2/5 532/2/5
f 534/2/5 529/2/5 533/2/5
f 534/2/5 531/2/5 530/2/5
f 535/2/5 529/2/5 534/2/5
f 536/2/5 534/2/5 530/2/5
f 537/2/5 534/2/5 536/2/5
f 538/2/5 534/2/5 537/2/5
f 539/2/5 534/2/5 538/2/5
f 540/2/5 538/2/5 537/2/5
f 541/2/5 538/2/5 540/2/5
f 542/2/5 538/2/5 541/2/5
f 543/2/5 538/2/5 542/2/5
f 544/2/5 542/2/5 541/2/5
f 545/2/5 542/2/5 544/2/5
f 548/4/5 547/4/5 546/4/5
f 549/4/5 547/4/5 548/4/5
f 552/4/5 551/4/5 550/4/5
f 553/4/5 551/4/5 552/4/5
f 559/5/5 555/5/5 554/5/5
f 559/5/5 556/5/5 555/5/5
f 560/5/5 556/5/5 559/5/5
f 561/5/5 558/5/5 557/5/5
f 562/5/5 558/5/5 561/5/5
f 565/3/5 564/3/5 563/3/5
f 566/3/5 564/3/5 565/3/5
f 571/4/5 568/4/5 567/4/5
f 572/4/5 568/4/5 571/4/5
f 573/5/5 570/5/5 569/5/5
f 574/5/5 570/5/5 573/5/5
f 579/4/5 576/4/5 575/4/5
f 580/4/5 576/4/5 579/4/5
f 581/4/5 578/4/5 577/4/5
f 582/4/5 578/4/5 581/4/5
f 585/4/5 584/4/5 583/4/5
f 586/4/5 584/4/5 585/4/5
f 587/2/6 588/2/6 589/2/6
f 589/2/6 588/2/6 590/2/6
f 591/2/6 592/2/6 593/2/6
f 593/2/6 592/2/6 594/2/6
f 595/2/6 596/2/6 597/2/6
f 597/2/6 596/2/6 598/2/6
f 590/2/6 588/2/6 599/2/6
f 599/2/6 588/2/6 600/2/6
f 601/2/6 602/2/6 606/2/6
f 603/2/6 604/2/6 607/2/6
f 607/2/6 604/2/6 608/2/6
f 607/2/6 608/2/6 610/2/6
f 608/2/6 609/2/6 610/2/6
f 610/2/6 609/2/6 611/2/6
f 605/2/6 606/2/6 612/2/6
f 606/2/6 602/2/6 612/2/6
f 611/2/6 609/2/6 614/2/6
f 614/2/6 609/2/6 615/2/6
f 612/2/6 613/2/6 616/2/6
f 620/2/6 621/2/6 622/2/6
f 618/2/6 619/2/6 624/2/6
f 615/2/6 609/2/6 625/2/6
f 612/2/6 616/2/6 626/2/6
f 616/2/6 617/2/6 626/2/6
f 626/2/6 617/2/6 627/2/6
f 622/2/6 623/2/6 628/2/6
f 620/2/6 622/2/6 628/2/6
f 628/2/6 623/2/6 629/2/6
f 618/2/6 624/2/6 630/2/6
f 624/2/6 625/2/6 630/2/6
f 630/2/6 625/2/6 631/2/6
f 605/2/6 612/2/6 632/2/6
f 612/2/6 626/2/6 632/2/6
f 632/2/6 626/2/6 633/2/6
f 629/2/6 623/2/6 635/2/6
f 631/2/6 625/2/6 636/2/6
f 625/2/6 609/2/6 637/2/6
f 636/2/6 625/2/6 637/2/6
f 634/2/6 635/2/6 638/2/6
f 635/2/6 623/2/6 638/2/6
f 638/2/6 623/2/6 639/2/6
f 634/2/6 638/2/6 640/2/6
f 640/2/6 638/2/6 641/2/6
f 605/2/6 632/2/6 644/2/6
f 644/2/6 632/2/6 645/2/6
f 642/2/6 643/2/6 646/2/6
f 646/2/6 643/2/6 647/2/6
f 648/2/6 649/2/6 651/2/6
f 651/2/6 649/2/6 652/2/6
f 650/2/6 651/2/6 654/2/6
f 652/2/6 653/2/6 654/2/6
f 651/2/6 652/2/6 654/2/6
f 654/2/6 655/2/6 656/2/6
f 650/2/6 654/2/6 658/2/6
f 656/2/6 657/2/6 658/2/6
f 654/2/6 656/2/6 658/2/6
f 658/2/6 657/2/6 659/2/6
f 659/2/6 657/2/6 660/2/6
f 660/2/6 657/2/6 661/2/6
f 661/2/6 657/2/6 662/2/6
f 662/2/6 657/2/6 663/2/6
f 661/2/6 662/2/6 664/2/6
f 664/2/6 662/2/6 665/2/6
f 665/2/6 662/2/6 666/2/6
f 666/2/6 662/2/6 667/2/6
f 661/2/6 664/2/6 669/2/6
f 669/2/6 664/2/6 670/2/6
f 670/2/6 664/2/6 671/2/6
f 667/2/6 662/2/6 672/2/6
f 668/2/6 669/2/6 675/2/6
f 669/2/6 670/2/6 675/2/6
f 675/2/6 670/2/6 676/2/6
f 674/2/6 675/2/6 676/2/6
f 672/2/6 673/2/6 678/2/6
f 676/2/6 677/2/6 680/2/6
f 674/2/6 676/2/6 680/2/6
f 680/2/6 677/2/6 681/2/6
f 667/2/6 672/2/6 683/2/6
f 678/2/6 679/2/6 683/2/6
f 672/2/6 678/2/6 683/2/6
f 681/2/6 677/2/6 684/2/6
f 682/2/6 683/2/6 685/2/6
f 674/2/6 680/2/6 686/2/6
f 681/2/6 684/2/6 688/2/6
f 684/2/6 685/2/6 688/2/6
f 688/2/6 685/2/6 689/2/6
f 683/2/6 679/2/6 690/2/6
f 689/2/6 685/2/6 690/2/6
f 685/2/6 683/2/6 690/2/6
f 690/2/6 679/2/6 691/2/6
f 691/2/6 679/2/6 692/2/6
f 692/2/6 679/2/6 693/2/6
f 693/2/6 679/2/6 694/2/6
f 686/2/6 687/2/6 695/2/6
f 689/2/6 690/2/6 696/2/6
f 696/2/6 690/2/6 697/2/6
f 691/2/6 692/2/6 698/2/6
f 698/2/6 692/2/6 699/2/6
f 696/2/6 697/2/6 701/2/6
f 699/2/6 700/2/6 701/2/6
f 698/2/6 699/2/6 701/2/6
f 697/2/6 698/2/6 701/2/6
f 674/2/6 686/2/6 701/2/6
f 695/2/6 696/2/6 701/2/6
f 686/2/6 695/2/6 701/2/6
f 701/2/6 700/2/6 702/2/6
f 702/2/6 700/2/6 703/2/6
f 703/2/6 700/2/6 704/2/6
f 702/2/6 703/2/6 705/2/6
f 705/2/6 703/2/6 706/2/6
f 706/2/6 703/2/6 707/2/6
f 707/2/6 703/2/6 708/2/6
f 706/2/6 707/2/6 709/2/6
f 709/2/6 707/2/6 710/2/6
f 711/4/6 712/4/6 713/4/6
f 713/4/6 712/4/6 714/4/6
f 715/1/6 716/1/6 719/1/6
f 719/1/6 716/1/6 720/1/6
f 717/1/6 718/1/6 721/1/6
f 721/1/6 718/1/6 722/1/6
f 723/4/6 724/4/6 725/4/6
f 725/4/6 724/4/6 726/4/6
f 727/1/6 728/1/6 729/1/6
f 729/1/6 728/1/6 730/1/6
f 731/5/6 732/5/6 736/5/6
f 732/5/6 733/5/6 736/5/6
f 733/1/6 734/1/6 737/1/6
f 736/5/6 733/5/6 737/5/6
f 734/5/6 735/5/6 738/5/6
f 737/1/6 734/1/6 738/1/6
f 738/5/6 735/5/6 739/5/6
f 740/3/6 741/3/6 742/3/6
f 742/3/6 741/3/6 743/3/6
f 744/5/6 745/5/6 746/5/6
f 746/5/6 745/5/6 747/5/6
f 748/3/6 749/3/6 750/3/6
f 750/3/6 749/3/6 751/3/6
f 752/3/6 753/3/6 754/3/6
f 754/3/6 753/3/6 755/3/6
f 756/4/6 757/4/6 758/4/6
f 758/4/6 757/4/6 759/4/6
f 760/3/6 761/3/6 762/3/6
f 760/3/6 762/3/6 764/3/6
f 762/3/6 763/3/6 764/3/6
f 764/3/6 763/3/6 765/3/6
f 766/4/6 767/4/6 768/4/6
f 768/4/6 767/4/6 769/4/6
f 770/4/6 771/4/6 772/4/6
f 772/4/6 771/4/6 773/4/6
f 774/4/6 775/4/6 776/4/6
f 776/4/6 775/4/6 777/4/6
f 777/4/6 775/4/6 778/4/6
f 779/4/6 780/4/6 781/4/6
f 781/4/6 780/4/6 782/4/6
