# MagicaVoxel @ Ephtracy

# group
o 

# material
mtllib Geschuetz 1.mtl
usemtl palette

# normals
vn -1 0 0
vn 1 0 0
vn 0 0 1
vn 0 0 -1
vn 0 -1 0
vn 0 1 0

# texcoords
vt 0.748047 0.5
vt 0.876953 0.5
vt 0.986328 0.5
vt 0.990234 0.5
vt 0.994141 0.5

# verts
v 3.5 3.3 -3.5
v 3.5 3.3 -3.9
v 3.5 3.4 -3.5
v 3.5 3.4 -3.7
v 3.5 3.5 -3.7
v 3.5 3.5 -3.9
v 3.6 3.3 -3.4
v 3.6 3.3 -3.5
v 3.6 3.4 -3.4
v 3.6 3.4 -3.5
v 3.6 3.4 -3.7
v 3.6 3.5 -3.5
v 3.6 3.5 -3.7
v 3.6 3.5 -3.9
v 3.6 3.6 -3.7
v 3.6 3.6 -3.9
v 3.7 3.3 -3.9
v 3.7 3.3 -4
v 3.7 3.4 -3.9
v 3.7 3.4 -4
v 3.7 3.5 -3
v 3.7 3.5 -3.5
v 3.7 3.5 -3.7
v 3.7 3.6 -3
v 3.7 3.6 -3.7
v 3.7 3.6 -3.9
v 3.7 3.6 -4
v 3.8 3.3 -3.9
v 3.8 3.3 -4
v 3.8 3.4 -3.9
v 3.8 3.4 -4
v 3.8 3.5 -3
v 3.8 3.5 -3.5
v 3.8 3.5 -3.7
v 3.8 3.6 -3
v 3.8 3.6 -3.7
v 3.8 3.6 -3.9
v 3.8 3.6 -4
v 3.9 3.3 -3.4
v 3.9 3.3 -3.5
v 3.9 3.4 -3.4
v 3.9 3.4 -3.5
v 3.9 3.4 -3.7
v 3.9 3.5 -3.5
v 3.9 3.5 -3.7
v 3.9 3.5 -3.9
v 3.9 3.6 -3.7
v 3.9 3.6 -3.9
v 4 3.3 -3.5
v 4 3.3 -3.9
v 4 3.4 -3.5
v 4 3.4 -3.7
v 4 3.5 -3.7
v 4 3.5 -3.9
v 3.7 3.5 -3
v 3.7 3.6 -3
v 3.8 3.5 -3
v 3.8 3.6 -3
v 3.6 3.3 -3.4
v 3.6 3.4 -3.4
v 3.9 3.3 -3.4
v 3.9 3.4 -3.4
v 3.5 3.3 -3.5
v 3.5 3.4 -3.5
v 3.6 3.3 -3.5
v 3.6 3.4 -3.5
v 3.6 3.5 -3.5
v 3.7 3.5 -3.5
v 3.8 3.5 -3.5
v 3.9 3.3 -3.5
v 3.9 3.4 -3.5
v 3.9 3.5 -3.5
v 4 3.3 -3.5
v 4 3.4 -3.5
v 3.5 3.4 -3.7
v 3.5 3.5 -3.7
v 3.6 3.4 -3.7
v 3.6 3.5 -3.7
v 3.6 3.6 -3.7
v 3.7 3.5 -3.7
v 3.7 3.6 -3.7
v 3.8 3.5 -3.7
v 3.8 3.6 -3.7
v 3.9 3.4 -3.7
v 3.9 3.5 -3.7
v 3.9 3.6 -3.7
v 4 3.4 -3.7
v 4 3.5 -3.7
v 3.5 3.3 -3.9
v 3.5 3.5 -3.9
v 3.6 3.3 -3.9
v 3.6 3.5 -3.9
v 3.6 3.6 -3.9
v 3.7 3.3 -3.9
v 3.7 3.4 -3.9
v 3.7 3.6 -3.9
v 3.8 3.3 -3.9
v 3.8 3.4 -3.9
v 3.8 3.6 -3.9
v 3.9 3.3 -3.9
v 3.9 3.5 -3.9
v 3.9 3.6 -3.9
v 4 3.3 -3.9
v 4 3.5 -3.9
v 3.7 3.3 -4
v 3.7 3.4 -4
v 3.7 3.6 -4
v 3.8 3.3 -4
v 3.8 3.4 -4
v 3.8 3.6 -4
v 3.6 3.3 -3.4
v 3.9 3.3 -3.4
v 3.5 3.3 -3.5
v 3.6 3.3 -3.5
v 3.9 3.3 -3.5
v 4 3.3 -3.5
v 3.6 3.3 -3.8
v 3.9 3.3 -3.8
v 3.5 3.3 -3.9
v 3.6 3.3 -3.9
v 3.7 3.3 -3.9
v 3.8 3.3 -3.9
v 3.9 3.3 -3.9
v 4 3.3 -3.9
v 3.7 3.3 -4
v 3.8 3.3 -4
v 3.7 3.5 -3
v 3.8 3.5 -3
v 3.7 3.5 -3.5
v 3.8 3.5 -3.5
v 3.6 3.4 -3.4
v 3.9 3.4 -3.4
v 3.5 3.4 -3.5
v 3.6 3.4 -3.5
v 3.9 3.4 -3.5
v 4 3.4 -3.5
v 3.5 3.4 -3.7
v 3.6 3.4 -3.7
v 3.9 3.4 -3.7
v 4 3.4 -3.7
v 3.6 3.5 -3.5
v 3.7 3.5 -3.5
v 3.8 3.5 -3.5
v 3.9 3.5 -3.5
v 3.5 3.5 -3.7
v 3.6 3.5 -3.7
v 3.7 3.5 -3.7
v 3.8 3.5 -3.7
v 3.9 3.5 -3.7
v 4 3.5 -3.7
v 3.5 3.5 -3.9
v 3.6 3.5 -3.9
v 3.9 3.5 -3.9
v 4 3.5 -3.9
v 3.7 3.6 -3
v 3.8 3.6 -3
v 3.6 3.6 -3.7
v 3.7 3.6 -3.7
v 3.8 3.6 -3.7
v 3.9 3.6 -3.7
v 3.6 3.6 -3.9
v 3.7 3.6 -3.9
v 3.8 3.6 -3.9
v 3.9 3.6 -3.9
v 3.7 3.6 -4
v 3.8 3.6 -4

# faces
f 3/3/1 2/3/1 1/3/1
f 4/3/1 2/3/1 3/3/1
f 5/3/1 2/3/1 4/3/1
f 6/3/1 2/3/1 5/3/1
f 9/4/1 8/4/1 7/4/1
f 10/4/1 8/4/1 9/4/1
f 12/4/1 11/4/1 10/4/1
f 13/4/1 11/4/1 12/4/1
f 15/4/1 14/4/1 13/4/1
f 16/4/1 14/4/1 15/4/1
f 19/4/1 18/4/1 17/4/1
f 20/4/1 18/4/1 19/4/1
f 24/5/1 22/5/1 21/5/1
f 24/5/1 23/5/1 22/5/1
f 25/5/1 23/5/1 24/5/1
f 26/2/1 20/2/1 19/2/1
f 27/2/1 20/2/1 26/2/1
f 28/4/2 29/4/2 30/4/2
f 30/4/2 29/4/2 31/4/2
f 32/5/2 33/5/2 35/5/2
f 33/5/2 34/5/2 35/5/2
f 35/5/2 34/5/2 36/5/2
f 30/2/2 31/2/2 37/2/2
f 37/2/2 31/2/2 38/2/2
f 39/4/2 40/4/2 41/4/2
f 41/4/2 40/4/2 42/4/2
f 42/4/2 43/4/2 44/4/2
f 44/4/2 43/4/2 45/4/2
f 45/4/2 46/4/2 47/4/2
f 47/4/2 46/4/2 48/4/2
f 49/3/2 50/3/2 51/3/2
f 51/3/2 50/3/2 52/3/2
f 52/3/2 50/3/2 53/3/2
f 53/3/2 50/3/2 54/3/2
f 57/5/3 56/5/3 55/5/3
f 58/5/3 56/5/3 57/5/3
f 61/4/3 60/4/3 59/4/3
f 62/4/3 60/4/3 61/4/3
f 65/3/3 64/3/3 63/3/3
f 66/3/3 64/3/3 65/3/3
f 68/4/3 67/4/3 66/4/3
f 69/4/3 68/4/3 66/4/3
f 71/4/3 69/4/3 66/4/3
f 72/4/3 69/4/3 71/4/3
f 73/3/3 71/3/3 70/3/3
f 74/3/3 71/3/3 73/3/3
f 77/3/3 76/3/3 75/3/3
f 78/3/3 76/3/3 77/3/3
f 80/4/3 79/4/3 78/4/3
f 81/4/3 79/4/3 80/4/3
f 85/4/3 83/4/3 82/4/3
f 86/4/3 83/4/3 85/4/3
f 87/3/3 85/3/3 84/3/3
f 88/3/3 85/3/3 87/3/3
f 89/3/4 90/3/4 91/3/4
f 91/3/4 90/3/4 92/3/4
f 91/4/4 92/4/4 94/4/4
f 92/4/4 93/4/4 94/4/4
f 94/4/4 93/4/4 95/4/4
f 95/4/4 93/4/4 96/4/4
f 97/4/4 98/4/4 100/4/4
f 98/4/4 99/4/4 100/4/4
f 100/4/4 99/4/4 101/4/4
f 101/4/4 99/4/4 102/4/4
f 100/3/4 101/3/4 103/3/4
f 103/3/4 101/3/4 104/3/4
f 105/4/4 106/4/4 108/4/4
f 106/2/4 107/2/4 109/2/4
f 108/4/4 106/4/4 109/4/4
f 109/2/4 107/2/4 110/2/4
f 114/4/5 112/4/5 111/4/5
f 115/4/5 112/4/5 114/4/5
f 117/3/5 114/3/5 113/3/5
f 117/1/5 115/1/5 114/1/5
f 118/3/5 116/3/5 115/3/5
f 118/1/5 115/1/5 117/1/5
f 119/3/5 117/3/5 113/3/5
f 120/4/5 118/4/5 117/4/5
f 120/3/5 117/3/5 119/3/5
f 121/4/5 118/4/5 120/4/5
f 122/4/5 118/4/5 121/4/5
f 123/3/5 116/3/5 118/3/5
f 123/4/5 118/4/5 122/4/5
f 124/3/5 116/3/5 123/3/5
f 125/4/5 122/4/5 121/4/5
f 126/4/5 122/4/5 125/4/5
f 129/5/5 128/5/5 127/5/5
f 130/5/5 128/5/5 129/5/5
f 131/4/6 132/4/6 134/4/6
f 134/4/6 132/4/6 135/4/6
f 133/3/6 134/3/6 137/3/6
f 137/3/6 134/3/6 138/3/6
f 135/3/6 136/3/6 139/3/6
f 139/3/6 136/3/6 140/3/6
f 141/4/6 142/4/6 146/4/6
f 146/4/6 142/4/6 147/4/6
f 143/4/6 144/4/6 148/4/6
f 148/4/6 144/4/6 149/4/6
f 145/3/6 146/3/6 151/3/6
f 151/3/6 146/3/6 152/3/6
f 149/3/6 150/3/6 153/3/6
f 153/3/6 150/3/6 154/3/6
f 155/5/6 156/5/6 158/5/6
f 158/5/6 156/5/6 159/5/6
f 157/4/6 158/4/6 161/4/6
f 158/5/6 159/5/6 162/5/6
f 161/4/6 158/4/6 162/4/6
f 159/4/6 160/4/6 163/4/6
f 162/5/6 159/5/6 163/5/6
f 163/4/6 160/4/6 164/4/6
f 162/2/6 163/2/6 165/2/6
f 165/2/6 163/2/6 166/2/6
