# MagicaVoxel @ Ephtracy

# group
o 

# material
mtllib Dose3.mtl
usemtl palette

# normals
vn -1 0 0
vn 1 0 0
vn 0 0 1
vn 0 0 -1
vn 0 -1 0
vn 0 1 0

# texcoords
vt 0.0605469 0.5
vt 0.845703 0.5
vt 0.849609 0.5
vt 0.958984 0.5
vt 0.966797 0.5

# verts
v 2.3 2 -3.5
v 2.3 2 -4
v 2.3 2.1 -3.5
v 2.3 2.1 -4
v 2.3 4.1 -3.5
v 2.3 4.1 -4
v 2.3 4.2 -3.5
v 2.3 4.2 -4
v 2.4 2 -3.3
v 2.4 2 -3.5
v 2.4 2 -4
v 2.4 2 -4.2
v 2.4 2.1 -3.3
v 2.4 2.1 -3.5
v 2.4 2.1 -4
v 2.4 2.1 -4.2
v 2.4 4.1 -3.3
v 2.4 4.1 -3.5
v 2.4 4.1 -4
v 2.4 4.1 -4.2
v 2.4 4.2 -3.3
v 2.4 4.2 -3.5
v 2.4 4.2 -4
v 2.4 4.2 -4.2
v 2.5 2 -3.2
v 2.5 2 -3.3
v 2.5 2 -4.2
v 2.5 2 -4.3
v 2.5 2.1 -3.2
v 2.5 2.1 -3.3
v 2.5 2.1 -4.2
v 2.5 2.1 -4.3
v 2.5 4.1 -3.2
v 2.5 4.1 -3.3
v 2.5 4.1 -4.2
v 2.5 4.1 -4.3
v 2.5 4.2 -3.2
v 2.5 4.2 -3.3
v 2.5 4.2 -4.2
v 2.5 4.2 -4.3
v 2.6 2 -3.1
v 2.6 2 -3.2
v 2.6 2 -4.3
v 2.6 2 -4.4
v 2.6 2.1 -3.1
v 2.6 2.1 -3.2
v 2.6 2.1 -4.3
v 2.6 2.1 -4.4
v 2.6 4.1 -3.1
v 2.6 4.1 -3.2
v 2.6 4.1 -4.3
v 2.6 4.1 -4.4
v 2.6 4.2 -3.1
v 2.6 4.2 -3.2
v 2.6 4.2 -4.3
v 2.6 4.2 -4.4
v 2.8 2 -3
v 2.8 2 -3.1
v 2.8 2 -4.4
v 2.8 2 -4.5
v 2.8 2.1 -3
v 2.8 2.1 -3.1
v 2.8 2.1 -4.4
v 2.8 2.1 -4.5
v 2.8 2.2 -4.4
v 2.8 2.2 -4.5
v 2.8 2.3 -4.4
v 2.8 2.3 -4.5
v 2.8 2.5 -3
v 2.8 2.5 -3.1
v 2.8 2.6 -3
v 2.8 2.6 -3.1
v 2.8 2.6 -4.4
v 2.8 2.7 -3
v 2.8 2.7 -3.1
v 2.8 2.7 -4.4
v 2.8 2.7 -4.5
v 2.8 2.8 -3
v 2.8 2.8 -3.1
v 2.8 2.8 -4.4
v 2.8 2.8 -4.5
v 2.8 3 -4.4
v 2.8 3 -4.5
v 2.8 3.1 -4.4
v 2.8 3.1 -4.5
v 2.8 3.2 -4.4
v 2.8 3.2 -4.5
v 2.8 3.3 -3
v 2.8 3.3 -3.1
v 2.8 3.3 -4.4
v 2.8 3.3 -4.5
v 2.8 3.4 -3
v 2.8 3.4 -3.1
v 2.8 3.4 -4.4
v 2.8 3.5 -3
v 2.8 3.5 -3.1
v 2.8 3.5 -4.4
v 2.8 3.5 -4.5
v 2.8 3.6 -3
v 2.8 3.6 -3.1
v 2.8 3.9 -4.4
v 2.8 3.9 -4.5
v 2.8 4.1 -3
v 2.8 4.1 -3.1
v 2.8 4.1 -4.4
v 2.8 4.1 -4.5
v 2.8 4.2 -3
v 2.8 4.2 -3.1
v 2.8 4.2 -4.4
v 2.8 4.2 -4.5
v 3.3 2 -3
v 3.3 2 -3.1
v 3.3 2 -4.4
v 3.3 2 -4.5
v 3.3 2.1 -3
v 3.3 2.1 -3.1
v 3.3 2.1 -4.4
v 3.3 2.1 -4.5
v 3.3 2.2 -3
v 3.3 2.2 -3.1
v 3.3 2.2 -4.4
v 3.3 2.2 -4.5
v 3.3 2.3 -3
v 3.3 2.3 -3.1
v 3.3 2.3 -4.4
v 3.3 2.3 -4.5
v 3.3 2.4 -3
v 3.3 2.4 -3.1
v 3.3 2.6 -4.4
v 3.3 2.9 -3
v 3.3 2.9 -3.1
v 3.3 3 -3
v 3.3 3 -3.1
v 3.3 3.1 -3
v 3.3 3.1 -3.1
v 3.3 3.2 -3
v 3.3 3.2 -3.1
v 3.3 3.2 -4.4
v 3.3 3.2 -4.5
v 3.3 3.3 -4.4
v 3.3 3.3 -4.5
v 3.3 3.7 -3
v 3.3 3.7 -3.1
v 3.3 3.8 -3
v 3.3 3.8 -3.1
v 3.3 3.9 -3
v 3.3 3.9 -3.1
v 3.3 4 -3
v 3.3 4 -3.1
v 3.3 4.1 -3
v 3.3 4.1 -3.1
v 3.3 4.1 -4.4
v 3.3 4.1 -4.5
v 3.3 4.2 -3
v 3.3 4.2 -3.1
v 3.3 4.2 -4.4
v 3.3 4.2 -4.5
v 3.5 2 -3.1
v 3.5 2 -3.2
v 3.5 2 -4.3
v 3.5 2 -4.4
v 3.5 2.1 -3.1
v 3.5 2.1 -3.2
v 3.5 2.1 -4.3
v 3.5 2.1 -4.4
v 3.5 4.1 -3.1
v 3.5 4.1 -3.2
v 3.5 4.1 -4.3
v 3.5 4.1 -4.4
v 3.5 4.2 -3.1
v 3.5 4.2 -3.2
v 3.5 4.2 -4.3
v 3.5 4.2 -4.4
v 3.6 2 -3.2
v 3.6 2 -3.3
v 3.6 2 -4.2
v 3.6 2 -4.3
v 3.6 2.1 -3.2
v 3.6 2.1 -3.3
v 3.6 2.1 -4.2
v 3.6 2.1 -4.3
v 3.6 4.1 -3.2
v 3.6 4.1 -3.3
v 3.6 4.1 -4.2
v 3.6 4.1 -4.3
v 3.6 4.2 -3.2
v 3.6 4.2 -3.3
v 3.6 4.2 -4.2
v 3.6 4.2 -4.3
v 3.7 2 -3.3
v 3.7 2 -3.5
v 3.7 2 -4
v 3.7 2 -4.2
v 3.7 2.1 -3.3
v 3.7 2.1 -3.5
v 3.7 2.1 -4
v 3.7 2.1 -4.2
v 3.7 4.1 -3.3
v 3.7 4.1 -3.5
v 3.7 4.1 -4
v 3.7 4.1 -4.2
v 3.7 4.2 -3.3
v 3.7 4.2 -3.5
v 3.7 4.2 -4
v 3.7 4.2 -4.2
v 3.8 2 -3.5
v 3.8 2 -4
v 3.8 2.1 -3.5
v 3.8 2.1 -4
v 3.8 4.1 -3.5
v 3.8 4.1 -4
v 3.8 4.2 -3.5
v 3.8 4.2 -4
v 2.8 2 -3
v 2.8 2.1 -3
v 2.8 2.5 -3
v 2.8 2.6 -3
v 2.8 2.7 -3
v 2.8 2.8 -3
v 2.8 3.3 -3
v 2.8 3.4 -3
v 2.8 3.5 -3
v 2.8 3.6 -3
v 2.8 4.1 -3
v 2.8 4.2 -3
v 2.9 2.4 -3
v 2.9 2.5 -3
v 2.9 2.6 -3
v 2.9 2.7 -3
v 2.9 2.8 -3
v 2.9 2.9 -3
v 2.9 3.2 -3
v 2.9 3.3 -3
v 2.9 3.4 -3
v 2.9 3.5 -3
v 2.9 3.6 -3
v 2.9 3.7 -3
v 2.9 4 -3
v 2.9 4.1 -3
v 3 2.3 -3
v 3 2.4 -3
v 3 2.5 -3
v 3 2.6 -3
v 3 2.7 -3
v 3 2.8 -3
v 3 2.9 -3
v 3 3 -3
v 3 3.1 -3
v 3 3.2 -3
v 3 3.3 -3
v 3 3.4 -3
v 3 3.5 -3
v 3 3.6 -3
v 3 3.7 -3
v 3 3.8 -3
v 3 3.9 -3
v 3 4 -3
v 3 4.1 -3
v 3.1 2.2 -3
v 3.1 2.3 -3
v 3.1 2.4 -3
v 3.1 2.5 -3
v 3.1 2.6 -3
v 3.1 2.7 -3
v 3.1 2.8 -3
v 3.1 2.9 -3
v 3.1 3 -3
v 3.1 3.1 -3
v 3.1 3.2 -3
v 3.1 3.3 -3
v 3.1 3.4 -3
v 3.1 3.5 -3
v 3.1 3.6 -3
v 3.1 3.7 -3
v 3.1 3.8 -3
v 3.1 3.9 -3
v 3.1 4 -3
v 3.1 4.1 -3
v 3.2 2.1 -3
v 3.2 2.2 -3
v 3.2 2.3 -3
v 3.2 2.4 -3
v 3.2 2.5 -3
v 3.2 2.8 -3
v 3.2 2.9 -3
v 3.2 3 -3
v 3.2 3.1 -3
v 3.2 3.2 -3
v 3.2 3.3 -3
v 3.2 3.6 -3
v 3.2 3.7 -3
v 3.2 3.8 -3
v 3.2 3.9 -3
v 3.2 4 -3
v 3.2 4.1 -3
v 3.3 2 -3
v 3.3 2.1 -3
v 3.3 2.2 -3
v 3.3 2.3 -3
v 3.3 2.4 -3
v 3.3 2.9 -3
v 3.3 3 -3
v 3.3 3.1 -3
v 3.3 3.2 -3
v 3.3 3.7 -3
v 3.3 3.8 -3
v 3.3 3.9 -3
v 3.3 4 -3
v 3.3 4.1 -3
v 3.3 4.2 -3
v 2.6 2 -3.1
v 2.6 2.1 -3.1
v 2.6 4.1 -3.1
v 2.6 4.2 -3.1
v 2.8 2 -3.1
v 2.8 2.1 -3.1
v 2.8 2.5 -3.1
v 2.8 2.6 -3.1
v 2.8 2.7 -3.1
v 2.8 2.8 -3.1
v 2.8 3.3 -3.1
v 2.8 3.4 -3.1
v 2.8 3.5 -3.1
v 2.8 3.6 -3.1
v 2.8 4.1 -3.1
v 2.8 4.2 -3.1
v 3.3 2 -3.1
v 3.3 2.1 -3.1
v 3.3 2.2 -3.1
v 3.3 2.3 -3.1
v 3.3 2.4 -3.1
v 3.3 2.9 -3.1
v 3.3 3 -3.1
v 3.3 3.1 -3.1
v 3.3 3.2 -3.1
v 3.3 3.7 -3.1
v 3.3 3.8 -3.1
v 3.3 3.9 -3.1
v 3.3 4 -3.1
v 3.3 4.1 -3.1
v 3.3 4.2 -3.1
v 3.5 2 -3.1
v 3.5 2.1 -3.1
v 3.5 4.1 -3.1
v 3.5 4.2 -3.1
v 2.5 2 -3.2
v 2.5 2.1 -3.2
v 2.5 4.1 -3.2
v 2.5 4.2 -3.2
v 2.6 2 -3.2
v 2.6 2.1 -3.2
v 2.6 4.1 -3.2
v 2.6 4.2 -3.2
v 3.5 2 -3.2
v 3.5 2.1 -3.2
v 3.5 4.1 -3.2
v 3.5 4.2 -3.2
v 3.6 2 -3.2
v 3.6 2.1 -3.2
v 3.6 4.1 -3.2
v 3.6 4.2 -3.2
v 2.4 2 -3.3
v 2.4 2.1 -3.3
v 2.4 4.1 -3.3
v 2.4 4.2 -3.3
v 2.5 2 -3.3
v 2.5 2.1 -3.3
v 2.5 4.1 -3.3
v 2.5 4.2 -3.3
v 3.6 2 -3.3
v 3.6 2.1 -3.3
v 3.6 4.1 -3.3
v 3.6 4.2 -3.3
v 3.7 2 -3.3
v 3.7 2.1 -3.3
v 3.7 4.1 -3.3
v 3.7 4.2 -3.3
v 2.3 2 -3.5
v 2.3 2.1 -3.5
v 2.3 4.1 -3.5
v 2.3 4.2 -3.5
v 2.4 2 -3.5
v 2.4 2.1 -3.5
v 2.4 4.1 -3.5
v 2.4 4.2 -3.5
v 3.7 2 -3.5
v 3.7 2.1 -3.5
v 3.7 4.1 -3.5
v 3.7 4.2 -3.5
v 3.8 2 -3.5
v 3.8 2.1 -3.5
v 3.8 4.1 -3.5
v 3.8 4.2 -3.5
v 2.3 2 -4
v 2.3 2.1 -4
v 2.3 4.1 -4
v 2.3 4.2 -4
v 2.4 2 -4
v 2.4 2.1 -4
v 2.4 4.1 -4
v 2.4 4.2 -4
v 3.7 2 -4
v 3.7 2.1 -4
v 3.7 4.1 -4
v 3.7 4.2 -4
v 3.8 2 -4
v 3.8 2.1 -4
v 3.8 4.1 -4
v 3.8 4.2 -4
v 2.4 2 -4.2
v 2.4 2.1 -4.2
v 2.4 4.1 -4.2
v 2.4 4.2 -4.2
v 2.5 2 -4.2
v 2.5 2.1 -4.2
v 2.5 4.1 -4.2
v 2.5 4.2 -4.2
v 3.6 2 -4.2
v 3.6 2.1 -4.2
v 3.6 4.1 -4.2
v 3.6 4.2 -4.2
v 3.7 2 -4.2
v 3.7 2.1 -4.2
v 3.7 4.1 -4.2
v 3.7 4.2 -4.2
v 2.5 2 -4.3
v 2.5 2.1 -4.3
v 2.5 4.1 -4.3
v 2.5 4.2 -4.3
v 2.6 2 -4.3
v 2.6 2.1 -4.3
v 2.6 4.1 -4.3
v 2.6 4.2 -4.3
v 3.5 2 -4.3
v 3.5 2.1 -4.3
v 3.5 4.1 -4.3
v 3.5 4.2 -4.3
v 3.6 2 -4.3
v 3.6 2.1 -4.3
v 3.6 4.1 -4.3
v 3.6 4.2 -4.3
v 2.6 2 -4.4
v 2.6 2.1 -4.4
v 2.6 4.1 -4.4
v 2.6 4.2 -4.4
v 2.7 2.3 -4.4
v 2.7 2.6 -4.4
v 2.7 2.8 -4.4
v 2.7 3 -4.4
v 2.7 3.2 -4.4
v 2.7 3.4 -4.4
v 2.8 2 -4.4
v 2.8 2.1 -4.4
v 2.8 2.2 -4.4
v 2.8 2.3 -4.4
v 2.8 2.6 -4.4
v 2.8 2.7 -4.4
v 2.8 2.8 -4.4
v 2.8 3 -4.4
v 2.8 3.1 -4.4
v 2.8 3.2 -4.4
v 2.8 3.3 -4.4
v 2.8 3.4 -4.4
v 2.8 3.5 -4.4
v 2.8 3.9 -4.4
v 2.8 4.1 -4.4
v 2.8 4.2 -4.4
v 3.3 2 -4.4
v 3.3 2.1 -4.4
v 3.3 2.2 -4.4
v 3.3 2.3 -4.4
v 3.3 2.6 -4.4
v 3.3 3.2 -4.4
v 3.3 3.3 -4.4
v 3.3 4.1 -4.4
v 3.3 4.2 -4.4
v 3.4 2.3 -4.4
v 3.4 2.6 -4.4
v 3.4 3.2 -4.4
v 3.4 3.3 -4.4
v 3.5 2 -4.4
v 3.5 2.1 -4.4
v 3.5 4.1 -4.4
v 3.5 4.2 -4.4
v 2.8 2 -4.5
v 2.8 2.1 -4.5
v 2.8 2.2 -4.5
v 2.8 2.3 -4.5
v 2.8 2.7 -4.5
v 2.8 2.8 -4.5
v 2.8 3 -4.5
v 2.8 3.1 -4.5
v 2.8 3.2 -4.5
v 2.8 3.3 -4.5
v 2.8 3.5 -4.5
v 2.8 3.9 -4.5
v 2.8 4.1 -4.5
v 2.8 4.2 -4.5
v 2.9 3.6 -4.5
v 2.9 3.7 -4.5
v 2.9 3.8 -4.5
v 2.9 3.9 -4.5
v 3 3.6 -4.5
v 3 3.7 -4.5
v 3.1 2.7 -4.5
v 3.1 2.8 -4.5
v 3.1 3 -4.5
v 3.1 3.1 -4.5
v 3.1 3.5 -4.5
v 3.1 3.8 -4.5
v 3.2 2.8 -4.5
v 3.2 3 -4.5
v 3.3 2 -4.5
v 3.3 2.1 -4.5
v 3.3 2.2 -4.5
v 3.3 2.3 -4.5
v 3.3 3.2 -4.5
v 3.3 3.3 -4.5
v 3.3 4.1 -4.5
v 3.3 4.2 -4.5
v 2.8 2 -3
v 3.3 2 -3
v 2.6 2 -3.1
v 2.8 2 -3.1
v 3.3 2 -3.1
v 3.5 2 -3.1
v 2.5 2 -3.2
v 2.6 2 -3.2
v 3.5 2 -3.2
v 3.6 2 -3.2
v 2.4 2 -3.3
v 2.5 2 -3.3
v 3.6 2 -3.3
v 3.7 2 -3.3
v 2.3 2 -3.5
v 2.4 2 -3.5
v 3.7 2 -3.5
v 3.8 2 -3.5
v 2.3 2 -4
v 2.4 2 -4
v 3.7 2 -4
v 3.8 2 -4
v 2.4 2 -4.2
v 2.5 2 -4.2
v 3.6 2 -4.2
v 3.7 2 -4.2
v 2.5 2 -4.3
v 2.6 2 -4.3
v 3.5 2 -4.3
v 3.6 2 -4.3
v 2.6 2 -4.4
v 2.8 2 -4.4
v 3.3 2 -4.4
v 3.5 2 -4.4
v 2.8 2 -4.5
v 3.3 2 -4.5
v 2.8 4.2 -3
v 3.3 4.2 -3
v 2.6 4.2 -3.1
v 2.8 4.2 -3.1
v 3.3 4.2 -3.1
v 3.5 4.2 -3.1
v 2.5 4.2 -3.2
v 2.6 4.2 -3.2
v 3.5 4.2 -3.2
v 3.6 4.2 -3.2
v 2.4 4.2 -3.3
v 2.5 4.2 -3.3
v 3.6 4.2 -3.3
v 3.7 4.2 -3.3
v 2.3 4.2 -3.5
v 2.4 4.2 -3.5
v 3.7 4.2 -3.5
v 3.8 4.2 -3.5
v 2.9 4.2 -3.8
v 3.2 4.2 -3.8
v 2.3 4.2 -4
v 2.4 4.2 -4
v 3.7 4.2 -4
v 3.8 4.2 -4
v 3 4.2 -4.1
v 3.1 4.2 -4.1
v 2.4 4.2 -4.2
v 2.5 4.2 -4.2
v 3 4.2 -4.2
v 3.1 4.2 -4.2
v 3.6 4.2 -4.2
v 3.7 4.2 -4.2
v 2.5 4.2 -4.3
v 2.6 4.2 -4.3
v 2.9 4.2 -4.3
v 3.2 4.2 -4.3
v 3.5 4.2 -4.3
v 3.6 4.2 -4.3
v 2.6 4.2 -4.4
v 2.8 4.2 -4.4
v 3.3 4.2 -4.4
v 3.5 4.2 -4.4
v 2.8 4.2 -4.5
v 3.3 4.2 -4.5

# faces
f 3/5/1 2/5/1 1/5/1
f 4/5/1 2/5/1 3/5/1
f 5/4/1 4/4/1 3/4/1
f 6/4/1 4/4/1 5/4/1
f 7/5/1 6/5/1 5/5/1
f 8/5/1 6/5/1 7/5/1
f 13/5/1 10/5/1 9/5/1
f 14/5/1 10/5/1 13/5/1
f 15/5/1 12/5/1 11/5/1
f 16/5/1 12/5/1 15/5/1
f 17/2/1 14/2/1 13/2/1
f 18/2/1 14/2/1 17/2/1
f 19/2/1 16/2/1 15/2/1
f 20/2/1 16/2/1 19/2/1
f 21/5/1 18/5/1 17/5/1
f 22/5/1 18/5/1 21/5/1
f 23/5/1 20/5/1 19/5/1
f 24/5/1 20/5/1 23/5/1
f 29/5/1 26/5/1 25/5/1
f 30/5/1 26/5/1 29/5/1
f 31/5/1 28/5/1 27/5/1
f 32/5/1 28/5/1 31/5/1
f 33/2/1 30/2/1 29/2/1
f 34/2/1 30/2/1 33/2/1
f 35/2/1 32/2/1 31/2/1
f 36/2/1 32/2/1 35/2/1
f 37/5/1 34/5/1 33/5/1
f 38/5/1 34/5/1 37/5/1
f 39/5/1 36/5/1 35/5/1
f 40/5/1 36/5/1 39/5/1
f 45/5/1 42/5/1 41/5/1
f 46/5/1 42/5/1 45/5/1
f 47/5/1 44/5/1 43/5/1
f 48/5/1 44/5/1 47/5/1
f 49/2/1 46/2/1 45/2/1
f 50/2/1 46/2/1 49/2/1
f 51/2/1 48/2/1 47/2/1
f 52/2/1 48/2/1 51/2/1
f 53/5/1 50/5/1 49/5/1
f 54/5/1 50/5/1 53/5/1
f 55/5/1 52/5/1 51/5/1
f 56/5/1 52/5/1 55/5/1
f 61/5/1 58/5/1 57/5/1
f 62/5/1 58/5/1 61/5/1
f 63/5/1 60/5/1 59/5/1
f 64/5/1 60/5/1 63/5/1
f 65/2/1 64/2/1 63/2/1
f 66/2/1 64/2/1 65/2/1
f 67/4/1 66/4/1 65/4/1
f 68/4/1 66/4/1 67/4/1
f 69/2/1 62/2/1 61/2/1
f 70/2/1 62/2/1 69/2/1
f 71/4/1 70/4/1 69/4/1
f 72/4/1 70/4/1 71/4/1
f 73/2/1 68/2/1 67/2/1
f 74/2/1 72/2/1 71/2/1
f 75/2/1 72/2/1 74/2/1
f 76/2/1 68/2/1 73/2/1
f 77/2/1 68/2/1 76/2/1
f 78/4/1 75/4/1 74/4/1
f 79/4/1 75/4/1 78/4/1
f 80/4/1 77/4/1 76/4/1
f 81/4/1 77/4/1 80/4/1
f 82/2/1 81/2/1 80/2/1
f 83/2/1 81/2/1 82/2/1
f 84/4/1 83/4/1 82/4/1
f 85/4/1 83/4/1 84/4/1
f 86/2/1 85/2/1 84/2/1
f 87/2/1 85/2/1 86/2/1
f 88/2/1 79/2/1 78/2/1
f 89/2/1 79/2/1 88/2/1
f 90/4/1 87/4/1 86/4/1
f 91/4/1 87/4/1 90/4/1
f 92/4/1 89/4/1 88/4/1
f 93/4/1 89/4/1 92/4/1
f 94/2/1 91/2/1 90/2/1
f 95/2/1 93/2/1 92/2/1
f 96/2/1 93/2/1 95/2/1
f 97/2/1 91/2/1 94/2/1
f 98/2/1 91/2/1 97/2/1
f 99/4/1 96/4/1 95/4/1
f 100/4/1 96/4/1 99/4/1
f 101/4/1 98/4/1 97/4/1
f 102/4/1 98/4/1 101/4/1
f 103/2/1 100/2/1 99/2/1
f 104/2/1 100/2/1 103/2/1
f 105/2/1 102/2/1 101/2/1
f 106/2/1 102/2/1 105/2/1
f 107/5/1 104/5/1 103/5/1
f 108/5/1 104/5/1 107/5/1
f 109/5/1 106/5/1 105/5/1
f 110/5/1 106/5/1 109/5/1
f 111/5/2 112/5/2 115/5/2
f 115/5/2 112/5/2 116/5/2
f 113/5/2 114/5/2 117/5/2
f 117/5/2 114/5/2 118/5/2
f 115/4/2 116/4/2 119/4/2
f 119/4/2 116/4/2 120/4/2
f 117/2/2 118/2/2 121/2/2
f 121/2/2 118/2/2 122/2/2
f 119/2/2 120/2/2 123/2/2
f 123/2/2 120/2/2 124/2/2
f 121/4/2 122/4/2 125/4/2
f 125/4/2 122/4/2 126/4/2
f 123/4/2 124/4/2 127/4/2
f 127/4/2 124/4/2 128/4/2
f 125/2/2 126/2/2 129/2/2
f 127/2/2 128/2/2 130/2/2
f 130/2/2 128/2/2 131/2/2
f 130/4/2 131/4/2 132/4/2
f 132/4/2 131/4/2 133/4/2
f 132/2/2 133/2/2 134/2/2
f 134/2/2 133/2/2 135/2/2
f 134/4/2 135/4/2 136/4/2
f 136/4/2 135/4/2 137/4/2
f 129/2/2 126/2/2 138/2/2
f 138/2/2 126/2/2 139/2/2
f 138/4/2 139/4/2 140/4/2
f 140/4/2 139/4/2 141/4/2
f 136/2/2 137/2/2 142/2/2
f 142/2/2 137/2/2 143/2/2
f 142/4/2 143/4/2 144/4/2
f 144/4/2 143/4/2 145/4/2
f 144/2/2 145/2/2 146/2/2
f 146/2/2 145/2/2 147/2/2
f 146/4/2 147/4/2 148/4/2
f 148/4/2 147/4/2 149/4/2
f 148/2/2 149/2/2 150/2/2
f 150/2/2 149/2/2 151/2/2
f 140/2/2 141/2/2 152/2/2
f 152/2/2 141/2/2 153/2/2
f 150/5/2 151/5/2 154/5/2
f 154/5/2 151/5/2 155/5/2
f 152/5/2 153/5/2 156/5/2
f 156/5/2 153/5/2 157/5/2
f 158/5/2 159/5/2 162/5/2
f 162/5/2 159/5/2 163/5/2
f 160/5/2 161/5/2 164/5/2
f 164/5/2 161/5/2 165/5/2
f 162/2/2 163/2/2 166/2/2
f 166/2/2 163/2/2 167/2/2
f 164/2/2 165/2/2 168/2/2
f 168/2/2 165/2/2 169/2/2
f 166/5/2 167/5/2 170/5/2
f 170/5/2 167/5/2 171/5/2
f 168/5/2 169/5/2 172/5/2
f 172/5/2 169/5/2 173/5/2
f 174/5/2 175/5/2 178/5/2
f 178/5/2 175/5/2 179/5/2
f 176/5/2 177/5/2 180/5/2
f 180/5/2 177/5/2 181/5/2
f 178/2/2 179/2/2 182/2/2
f 182/2/2 179/2/2 183/2/2
f 180/2/2 181/2/2 184/2/2
f 184/2/2 181/2/2 185/2/2
f 182/5/2 183/5/2 186/5/2
f 186/5/2 183/5/2 187/5/2
f 184/5/2 185/5/2 188/5/2
f 188/5/2 185/5/2 189/5/2
f 190/5/2 191/5/2 194/5/2
f 194/5/2 191/5/2 195/5/2
f 192/5/2 193/5/2 196/5/2
f 196/5/2 193/5/2 197/5/2
f 194/2/2 195/2/2 198/2/2
f 198/2/2 195/2/2 199/2/2
f 196/2/2 197/2/2 200/2/2
f 200/2/2 197/2/2 201/2/2
f 198/5/2 199/5/2 202/5/2
f 202/5/2 199/5/2 203/5/2
f 200/5/2 201/5/2 204/5/2
f 204/5/2 201/5/2 205/5/2
f 206/5/2 207/5/2 208/5/2
f 208/5/2 207/5/2 209/5/2
f 208/3/2 209/3/2 210/3/2
f 210/3/2 209/3/2 211/3/2
f 210/5/2 211/5/2 212/5/2
f 212/5/2 211/5/2 213/5/2
f 226/2/3 216/2/3 215/2/3
f 227/4/3 217/4/3 216/4/3
f 227/2/3 216/2/3 226/2/3
f 228/2/3 218/2/3 217/2/3
f 228/4/3 217/4/3 227/4/3
f 229/4/3 219/4/3 218/4/3
f 229/2/3 218/2/3 228/2/3
f 230/2/3 220/2/3 219/2/3
f 230/4/3 219/4/3 229/4/3
f 231/2/3 220/2/3 230/2/3
f 232/2/3 220/2/3 231/2/3
f 233/4/3 221/4/3 220/4/3
f 233/2/3 220/2/3 232/2/3
f 234/2/3 222/2/3 221/2/3
f 234/4/3 221/4/3 233/4/3
f 235/4/3 223/4/3 222/4/3
f 235/2/3 222/2/3 234/2/3
f 236/2/3 224/2/3 223/2/3
f 236/4/3 223/4/3 235/4/3
f 237/2/3 224/2/3 236/2/3
f 238/2/3 224/2/3 237/2/3
f 239/5/3 225/5/3 224/5/3
f 239/2/3 224/2/3 238/2/3
f 240/2/3 226/2/3 215/2/3
f 241/4/3 227/4/3 226/4/3
f 241/2/3 226/2/3 240/2/3
f 242/2/3 228/2/3 227/2/3
f 242/4/3 227/4/3 241/4/3
f 243/4/3 229/4/3 228/4/3
f 243/2/3 228/2/3 242/2/3
f 244/2/3 230/2/3 229/2/3
f 244/4/3 229/4/3 243/4/3
f 245/4/3 231/4/3 230/4/3
f 245/2/3 230/2/3 244/2/3
f 246/2/3 232/2/3 231/2/3
f 246/4/3 231/4/3 245/4/3
f 247/2/3 232/2/3 246/2/3
f 248/2/3 232/2/3 247/2/3
f 249/4/3 233/4/3 232/4/3
f 249/2/3 232/2/3 248/2/3
f 250/2/3 234/2/3 233/2/3
f 250/4/3 233/4/3 249/4/3
f 251/4/3 235/4/3 234/4/3
f 251/2/3 234/2/3 250/2/3
f 252/2/3 236/2/3 235/2/3
f 252/4/3 235/4/3 251/4/3
f 253/4/3 237/4/3 236/4/3
f 253/2/3 236/2/3 252/2/3
f 254/2/3 238/2/3 237/2/3
f 254/4/3 237/4/3 253/4/3
f 255/2/3 238/2/3 254/2/3
f 256/2/3 238/2/3 255/2/3
f 257/4/3 239/4/3 238/4/3
f 257/2/3 238/2/3 256/2/3
f 258/5/3 225/5/3 239/5/3
f 258/4/3 239/4/3 257/4/3
f 259/2/3 240/2/3 215/2/3
f 260/4/3 241/4/3 240/4/3
f 260/2/3 240/2/3 259/2/3
f 261/2/3 242/2/3 241/2/3
f 261/4/3 241/4/3 260/4/3
f 262/4/3 243/4/3 242/4/3
f 262/2/3 242/2/3 261/2/3
f 263/2/3 244/2/3 243/2/3
f 263/4/3 243/4/3 262/4/3
f 264/4/3 245/4/3 244/4/3
f 264/2/3 244/2/3 263/2/3
f 265/2/3 246/2/3 245/2/3
f 265/4/3 245/4/3 264/4/3
f 266/4/3 247/4/3 246/4/3
f 266/2/3 246/2/3 265/2/3
f 267/2/3 248/2/3 247/2/3
f 267/4/3 247/4/3 266/4/3
f 268/4/3 249/4/3 248/4/3
f 268/2/3 248/2/3 267/2/3
f 269/2/3 250/2/3 249/2/3
f 269/4/3 249/4/3 268/4/3
f 270/4/3 251/4/3 250/4/3
f 270/2/3 250/2/3 269/2/3
f 271/2/3 252/2/3 251/2/3
f 271/4/3 251/4/3 270/4/3
f 272/4/3 253/4/3 252/4/3
f 272/2/3 252/2/3 271/2/3
f 273/2/3 254/2/3 253/2/3
f 273/4/3 253/4/3 272/4/3
f 274/4/3 255/4/3 254/4/3
f 274/2/3 254/2/3 273/2/3
f 275/2/3 256/2/3 255/2/3
f 275/4/3 255/4/3 274/4/3
f 276/4/3 257/4/3 256/4/3
f 276/2/3 256/2/3 275/2/3
f 277/2/3 258/2/3 257/2/3
f 277/4/3 257/4/3 276/4/3
f 278/5/3 225/5/3 258/5/3
f 278/2/3 258/2/3 277/2/3
f 279/5/3 215/5/3 214/5/3
f 279/2/3 259/2/3 215/2/3
f 280/4/3 260/4/3 259/4/3
f 280/2/3 259/2/3 279/2/3
f 281/2/3 261/2/3 260/2/3
f 281/4/3 260/4/3 280/4/3
f 282/4/3 262/4/3 261/4/3
f 282/2/3 261/2/3 281/2/3
f 283/2/3 263/2/3 262/2/3
f 283/4/3 262/4/3 282/4/3
f 283/2/3 264/2/3 263/2/3
f 283/2/3 265/2/3 264/2/3
f 284/4/3 266/4/3 265/4/3
f 284/2/3 265/2/3 283/2/3
f 285/2/3 267/2/3 266/2/3
f 285/4/3 266/4/3 284/4/3
f 286/4/3 268/4/3 267/4/3
f 286/2/3 267/2/3 285/2/3
f 287/2/3 269/2/3 268/2/3
f 287/4/3 268/4/3 286/4/3
f 288/4/3 270/4/3 269/4/3
f 288/2/3 269/2/3 287/2/3
f 289/2/3 271/2/3 270/2/3
f 289/4/3 270/4/3 288/4/3
f 289/2/3 273/2/3 272/2/3
f 289/2/3 272/2/3 271/2/3
f 290/4/3 274/4/3 273/4/3
f 290/2/3 273/2/3 289/2/3
f 291/2/3 275/2/3 274/2/3
f 291/4/3 274/4/3 290/4/3
f 292/4/3 276/4/3 275/4/3
f 292/2/3 275/2/3 291/2/3
f 293/2/3 277/2/3 276/2/3
f 293/4/3 276/4/3 292/4/3
f 294/4/3 278/4/3 277/4/3
f 294/2/3 277/2/3 293/2/3
f 295/5/3 225/5/3 278/5/3
f 295/4/3 278/4/3 294/4/3
f 296/5/3 279/5/3 214/5/3
f 297/4/3 280/4/3 279/4/3
f 297/5/3 279/5/3 296/5/3
f 298/2/3 281/2/3 280/2/3
f 298/4/3 280/4/3 297/4/3
f 299/4/3 282/4/3 281/4/3
f 299/2/3 281/2/3 298/2/3
f 300/2/3 283/2/3 282/2/3
f 300/4/3 282/4/3 299/4/3
f 300/2/3 284/2/3 283/2/3
f 300/2/3 285/2/3 284/2/3
f 301/4/3 286/4/3 285/4/3
f 301/2/3 285/2/3 300/2/3
f 302/2/3 287/2/3 286/2/3
f 302/4/3 286/4/3 301/4/3
f 303/4/3 288/4/3 287/4/3
f 303/2/3 287/2/3 302/2/3
f 304/2/3 290/2/3 289/2/3
f 304/4/3 288/4/3 303/4/3
f 304/2/3 291/2/3 290/2/3
f 304/2/3 289/2/3 288/2/3
f 305/4/3 292/4/3 291/4/3
f 305/2/3 291/2/3 304/2/3
f 306/2/3 293/2/3 292/2/3
f 306/4/3 292/4/3 305/4/3
f 307/4/3 294/4/3 293/4/3
f 307/2/3 293/2/3 306/2/3
f 308/2/3 295/2/3 294/2/3
f 308/4/3 294/4/3 307/4/3
f 309/5/3 225/5/3 295/5/3
f 309/2/3 295/2/3 308/2/3
f 310/5/3 225/5/3 309/5/3
f 315/5/3 312/5/3 311/5/3
f 316/2/3 313/2/3 312/2/3
f 316/5/3 312/5/3 315/5/3
f 317/2/3 313/2/3 316/2/3
f 318/2/3 313/2/3 317/2/3
f 319/2/3 313/2/3 318/2/3
f 320/2/3 313/2/3 319/2/3
f 321/2/3 313/2/3 320/2/3
f 322/2/3 313/2/3 321/2/3
f 323/2/3 313/2/3 322/2/3
f 324/2/3 313/2/3 323/2/3
f 325/5/3 314/5/3 313/5/3
f 325/2/3 313/2/3 324/2/3
f 326/5/3 314/5/3 325/5/3
f 342/5/3 328/5/3 327/5/3
f 343/2/3 329/2/3 328/2/3
f 343/5/3 328/5/3 342/5/3
f 343/2/3 330/2/3 329/2/3
f 343/2/3 340/2/3 339/2/3
f 343/2/3 339/2/3 338/2/3
f 343/2/3 338/2/3 337/2/3
f 343/2/3 337/2/3 336/2/3
f 343/2/3 336/2/3 335/2/3
f 343/2/3 335/2/3 334/2/3
f 343/2/3 334/2/3 333/2/3
f 343/2/3 333/2/3 332/2/3
f 343/2/3 332/2/3 331/2/3
f 343/2/3 331/2/3 330/2/3
f 344/5/3 341/5/3 340/5/3
f 344/2/3 340/2/3 343/2/3
f 345/5/3 341/5/3 344/5/3
f 350/5/3 347/5/3 346/5/3
f 351/2/3 348/2/3 347/2/3
f 351/5/3 347/5/3 350/5/3
f 352/5/3 349/5/3 348/5/3
f 352/2/3 348/2/3 351/2/3
f 353/5/3 349/5/3 352/5/3
f 358/5/3 355/5/3 354/5/3
f 359/2/3 356/2/3 355/2/3
f 359/5/3 355/5/3 358/5/3
f 360/5/3 357/5/3 356/5/3
f 360/2/3 356/2/3 359/2/3
f 361/5/3 357/5/3 360/5/3
f 366/5/3 363/5/3 362/5/3
f 367/2/3 364/2/3 363/2/3
f 367/5/3 363/5/3 366/5/3
f 368/5/3 365/5/3 364/5/3
f 368/2/3 364/2/3 367/2/3
f 369/5/3 365/5/3 368/5/3
f 374/5/3 371/5/3 370/5/3
f 375/2/3 372/2/3 371/2/3
f 375/5/3 371/5/3 374/5/3
f 376/5/3 373/5/3 372/5/3
f 376/2/3 372/2/3 375/2/3
f 377/5/3 373/5/3 376/5/3
f 382/5/3 379/5/3 378/5/3
f 383/4/3 380/4/3 379/4/3
f 383/5/3 379/5/3 382/5/3
f 384/5/3 381/5/3 380/5/3
f 384/4/3 380/4/3 383/4/3
f 385/5/3 381/5/3 384/5/3
f 390/5/3 387/5/3 386/5/3
f 391/3/3 388/3/3 387/3/3
f 391/5/3 387/5/3 390/5/3
f 392/5/3 389/5/3 388/5/3
f 392/3/3 388/3/3 391/3/3
f 393/5/3 389/5/3 392/5/3
f 394/5/4 395/5/4 398/5/4
f 395/4/4 396/4/4 399/4/4
f 398/5/4 395/5/4 399/5/4
f 396/5/4 397/5/4 400/5/4
f 399/4/4 396/4/4 400/4/4
f 400/5/4 397/5/4 401/5/4
f 402/5/4 403/5/4 406/5/4
f 403/3/4 404/3/4 407/3/4
f 406/5/4 403/5/4 407/5/4
f 404/5/4 405/5/4 408/5/4
f 407/3/4 404/3/4 408/3/4
f 408/5/4 405/5/4 409/5/4
f 410/5/4 411/5/4 414/5/4
f 411/2/4 412/2/4 415/2/4
f 414/5/4 411/5/4 415/5/4
f 412/5/4 413/5/4 416/5/4
f 415/2/4 412/2/4 416/2/4
f 416/5/4 413/5/4 417/5/4
f 418/5/4 419/5/4 422/5/4
f 419/2/4 420/2/4 423/2/4
f 422/5/4 419/5/4 423/5/4
f 420/5/4 421/5/4 424/5/4
f 423/2/4 420/2/4 424/2/4
f 424/5/4 421/5/4 425/5/4
f 426/5/4 427/5/4 430/5/4
f 427/2/4 428/2/4 431/2/4
f 430/5/4 427/5/4 431/5/4
f 428/5/4 429/5/4 432/5/4
f 431/2/4 428/2/4 432/2/4
f 432/5/4 429/5/4 433/5/4
f 434/5/4 435/5/4 438/5/4
f 435/2/4 436/2/4 439/2/4
f 438/5/4 435/5/4 439/5/4
f 436/5/4 437/5/4 440/5/4
f 439/2/4 436/2/4 440/2/4
f 440/5/4 437/5/4 441/5/4
f 443/2/4 444/2/4 446/2/4
f 446/2/4 444/2/4 447/2/4
f 447/2/4 444/2/4 448/2/4
f 448/2/4 444/2/4 449/2/4
f 449/2/4 444/2/4 450/2/4
f 450/2/4 444/2/4 451/2/4
f 442/5/4 443/5/4 452/5/4
f 443/2/4 446/2/4 453/2/4
f 452/5/4 443/5/4 453/5/4
f 453/2/4 446/2/4 454/2/4
f 446/4/4 447/4/4 455/4/4
f 454/2/4 446/2/4 455/2/4
f 447/2/4 448/2/4 456/2/4
f 455/4/4 447/4/4 456/4/4
f 456/2/4 448/2/4 457/2/4
f 448/4/4 449/4/4 458/4/4
f 457/2/4 448/2/4 458/2/4
f 449/2/4 450/2/4 459/2/4
f 458/4/4 449/4/4 459/4/4
f 459/2/4 450/2/4 460/2/4
f 450/4/4 451/4/4 461/4/4
f 460/2/4 450/2/4 461/2/4
f 461/4/4 451/4/4 462/4/4
f 451/2/4 444/2/4 463/2/4
f 462/4/4 451/4/4 463/4/4
f 463/2/4 444/2/4 464/2/4
f 464/2/4 444/2/4 465/2/4
f 444/5/4 445/5/4 466/5/4
f 465/2/4 444/2/4 466/2/4
f 466/5/4 445/5/4 467/5/4
f 469/2/4 470/2/4 477/2/4
f 470/2/4 471/2/4 477/2/4
f 471/4/4 472/4/4 477/4/4
f 472/2/4 473/2/4 478/2/4
f 477/4/4 472/4/4 478/4/4
f 473/4/4 474/4/4 479/4/4
f 478/2/4 473/2/4 479/2/4
f 474/2/4 475/2/4 480/2/4
f 479/4/4 474/4/4 480/4/4
f 468/5/4 469/5/4 481/5/4
f 478/2/4 479/2/4 482/2/4
f 481/5/4 469/5/4 482/5/4
f 477/2/4 478/2/4 482/2/4
f 479/2/4 480/2/4 482/2/4
f 469/2/4 477/2/4 482/2/4
f 480/2/4 475/2/4 483/2/4
f 482/2/4 480/2/4 483/2/4
f 475/5/4 476/5/4 483/5/4
f 483/5/4 476/5/4 484/5/4
f 495/4/4 496/4/4 499/4/4
f 499/4/4 496/4/4 500/4/4
f 500/4/4 496/4/4 501/4/4
f 496/2/4 497/2/4 502/2/4
f 501/4/4 496/4/4 502/4/4
f 495/4/4 499/4/4 503/4/4
f 499/2/4 500/2/4 503/2/4
f 500/4/4 501/4/4 504/4/4
f 503/2/4 500/2/4 504/2/4
f 488/2/4 489/2/4 505/2/4
f 489/4/4 490/4/4 505/4/4
f 490/2/4 491/2/4 506/2/4
f 505/4/4 490/4/4 506/4/4
f 491/4/4 492/4/4 507/4/4
f 506/2/4 491/2/4 507/2/4
f 492/2/4 493/2/4 508/2/4
f 507/4/4 492/4/4 508/4/4
f 503/4/4 504/4/4 509/4/4
f 494/2/4 495/2/4 509/2/4
f 495/4/4 503/4/4 509/4/4
f 504/4/4 501/4/4 510/4/4
f 509/4/4 504/4/4 510/4/4
f 501/2/4 502/2/4 510/2/4
f 505/2/4 506/2/4 511/2/4
f 506/4/4 507/4/4 511/4/4
f 507/2/4 508/2/4 512/2/4
f 511/4/4 507/4/4 512/4/4
f 485/5/4 486/5/4 513/5/4
f 486/2/4 487/2/4 514/2/4
f 513/5/4 486/5/4 514/5/4
f 487/4/4 488/4/4 515/4/4
f 514/2/4 487/2/4 515/2/4
f 488/2/4 505/2/4 516/2/4
f 515/4/4 488/4/4 516/4/4
f 505/2/4 511/2/4 516/2/4
f 511/2/4 512/2/4 516/2/4
f 512/2/4 508/2/4 517/2/4
f 516/2/4 512/2/4 517/2/4
f 508/2/4 493/2/4 517/2/4
f 493/4/4 494/4/4 517/4/4
f 494/2/4 509/2/4 518/2/4
f 517/4/4 494/4/4 518/4/4
f 509/2/4 510/2/4 518/2/4
f 497/5/4 498/5/4 519/5/4
f 518/2/4 510/2/4 519/2/4
f 510/2/4 502/2/4 519/2/4
f 502/2/4 497/2/4 519/2/4
f 519/5/4 498/5/4 520/5/4
f 524/5/5 522/5/5 521/5/5
f 525/5/5 522/5/5 524/5/5
f 528/5/5 524/5/5 523/5/5
f 528/5/5 526/5/5 525/5/5
f 528/5/5 525/5/5 524/5/5
f 529/5/5 526/5/5 528/5/5
f 532/5/5 528/5/5 527/5/5
f 532/5/5 530/5/5 529/5/5
f 532/5/5 529/5/5 528/5/5
f 533/5/5 530/5/5 532/5/5
f 536/5/5 532/5/5 531/5/5
f 536/5/5 534/5/5 533/5/5
f 536/5/5 533/5/5 532/5/5
f 537/5/5 534/5/5 536/5/5
f 539/5/5 536/5/5 535/5/5
f 539/5/5 538/5/5 537/5/5
f 539/5/5 537/5/5 536/5/5
f 540/5/5 538/5/5 539/5/5
f 541/5/5 538/5/5 540/5/5
f 542/5/5 538/5/5 541/5/5
f 543/5/5 541/5/5 540/5/5
f 544/5/5 541/5/5 543/5/5
f 545/5/5 541/5/5 544/5/5
f 546/5/5 541/5/5 545/5/5
f 547/5/5 545/5/5 544/5/5
f 548/5/5 545/5/5 547/5/5
f 549/5/5 545/5/5 548/5/5
f 550/5/5 545/5/5 549/5/5
f 551/5/5 549/5/5 548/5/5
f 552/5/5 549/5/5 551/5/5
f 553/5/5 549/5/5 552/5/5
f 554/5/5 549/5/5 553/5/5
f 555/5/5 553/5/5 552/5/5
f 556/5/5 553/5/5 555/5/5
f 557/5/6 558/5/6 560/5/6
f 560/5/6 558/5/6 561/5/6
f 559/5/6 560/5/6 564/5/6
f 561/5/6 562/5/6 564/5/6
f 560/5/6 561/5/6 564/5/6
f 564/5/6 562/5/6 565/5/6
f 563/5/6 564/5/6 568/5/6
f 565/5/6 566/5/6 568/5/6
f 564/5/6 565/5/6 568/5/6
f 568/5/6 566/5/6 569/5/6
f 567/5/6 568/5/6 572/5/6
f 569/5/6 570/5/6 572/5/6
f 568/5/6 569/5/6 572/5/6
f 572/5/6 570/5/6 573/5/6
f 571/5/6 572/5/6 575/5/6
f 573/5/6 574/5/6 575/5/6
f 572/5/6 573/5/6 575/5/6
f 575/5/6 574/5/6 576/5/6
f 571/5/6 575/5/6 577/5/6
f 577/5/6 575/5/6 578/5/6
f 576/5/6 574/5/6 579/5/6
f 579/5/6 574/5/6 580/5/6
f 575/1/6 576/1/6 581/1/6
f 581/1/6 576/1/6 582/1/6
f 578/5/6 575/5/6 583/5/6
f 583/5/6 575/5/6 584/5/6
f 575/1/6 581/1/6 585/1/6
f 581/5/6 582/5/6 585/5/6
f 582/1/6 576/1/6 586/1/6
f 585/5/6 582/5/6 586/5/6
f 576/5/6 579/5/6 587/5/6
f 587/5/6 579/5/6 588/5/6
f 584/5/6 575/5/6 589/5/6
f 589/5/6 575/5/6 590/5/6
f 575/1/6 585/1/6 591/1/6
f 590/5/6 575/5/6 591/5/6
f 585/1/6 586/1/6 591/1/6
f 586/1/6 576/1/6 592/1/6
f 591/1/6 586/1/6 592/1/6
f 576/5/6 587/5/6 592/5/6
f 592/5/6 587/5/6 593/5/6
f 593/5/6 587/5/6 594/5/6
f 590/5/6 591/5/6 595/5/6
f 592/5/6 593/5/6 595/5/6
f 591/5/6 592/5/6 595/5/6
f 595/5/6 593/5/6 596/5/6
f 596/5/6 593/5/6 597/5/6
f 597/5/6 593/5/6 598/5/6
f 596/5/6 597/5/6 599/5/6
f 599/5/6 597/5/6 600/5/6
