# MagicaVoxel @ Ephtracy

# group
o 

# material
mtllib krabbler kotzen5.mtl
usemtl palette

# normals
vn -1 0 0
vn 1 0 0
vn 0 0 1
vn 0 0 -1
vn 0 -1 0
vn 0 1 0

# texcoords
vt 0.0566406 0.5
vt 0.0605469 0.5
vt 0.466797 0.5
vt 0.818359 0.5
vt 0.876953 0.5
vt 0.900391 0.5
vt 0.935547 0.5
vt 0.958984 0.5
vt 0.994141 0.5

# verts
v 3.1 2.5 -3.7
v 3.1 2.5 -3.9
v 3.1 2.6 -3.4
v 3.1 2.6 -3.7
v 3.1 2.8 -3.8
v 3.1 2.8 -3.9
v 3.1 2.9 -3.4
v 3.1 2.9 -3.8
v 3.2 2.1 -3.7
v 3.2 2.1 -3.9
v 3.2 2.5 -3.7
v 3.2 2.5 -3.9
v 3.2 2.6 -3.3
v 3.2 2.6 -3.4
v 3.2 2.9 -3.3
v 3.2 2.9 -3.4
v 3.3 2 -3.7
v 3.3 2 -3.9
v 3.3 2.1 -3.7
v 3.3 2.1 -3.9
v 3.3 2.6 -3.2
v 3.3 2.6 -3.3
v 3.3 2.9 -3.2
v 3.3 2.9 -3.3
v 3.4 2 -4.1
v 3.4 2 -4.5
v 3.4 2 -4.7
v 3.4 2.3 -4.4
v 3.4 2.3 -4.5
v 3.4 2.3 -4.7
v 3.4 2.5 -3.2
v 3.4 2.5 -3.7
v 3.4 2.6 -3.1
v 3.4 2.6 -3.2
v 3.4 2.6 -3.7
v 3.4 2.6 -3.9
v 3.4 2.6 -4
v 3.4 2.6 -4.1
v 3.4 2.8 -3.8
v 3.4 2.8 -3.9
v 3.4 2.9 -3.1
v 3.4 2.9 -3.2
v 3.4 2.9 -3.8
v 3.4 2.9 -3.9
v 3.4 2.9 -4
v 3.4 2.9 -4.4
v 3.4 3 -3.2
v 3.4 3 -3.9
v 3.5 2.7 -2.7
v 3.5 2.7 -2.8
v 3.5 2.7 -3
v 3.5 2.8 -2.7
v 3.5 2.8 -2.8
v 3.5 3.1 -2.7
v 3.5 3.1 -3
v 3.6 2.6 -3
v 3.6 2.6 -3.1
v 3.6 2.7 -3
v 3.6 2.9 -3
v 3.6 2.9 -3.1
v 3.8 2 -4.1
v 3.8 2 -4.5
v 3.8 2 -4.7
v 3.8 2.3 -4.4
v 3.8 2.3 -4.5
v 3.8 2.3 -4.7
v 3.8 2.5 -3.3
v 3.8 2.5 -3.9
v 3.8 2.6 -3.3
v 3.8 2.6 -3.9
v 3.8 2.6 -4.1
v 3.8 2.6 -4.3
v 3.8 2.9 -3
v 3.8 2.9 -3.1
v 3.8 2.9 -4.3
v 3.8 2.9 -4.4
v 3.8 3 -3
v 3.8 3 -3.1
v 3.9 2.5 -3.2
v 3.9 2.5 -3.3
v 3.9 2.6 -3.2
v 3.9 2.6 -3.3
v 4 2 -3.7
v 4 2 -3.9
v 4 2.1 -3.8
v 4 2.1 -3.9
v 4 2.2 -3.7
v 4 2.2 -3.8
v 4.1 2.1 -3.8
v 4.1 2.1 -3.9
v 4.1 2.2 -3.7
v 4.1 2.2 -3.8
v 4.1 2.2 -3.9
v 4.1 2.5 -3.7
v 4.1 2.5 -3.9
v 3.4 2.1 -3.8
v 3.4 2.1 -3.9
v 3.4 2.2 -3.7
v 3.4 2.2 -3.8
v 3.4 2.2 -3.9
v 3.4 2.5 -3.7
v 3.4 2.5 -3.9
v 3.5 2 -3.7
v 3.5 2 -3.9
v 3.5 2.1 -3.8
v 3.5 2.1 -3.9
v 3.5 2.2 -3.7
v 3.5 2.2 -3.8
v 3.6 2.5 -3.2
v 3.6 2.5 -3.3
v 3.6 2.6 -3.2
v 3.6 2.6 -3.3
v 3.7 2 -4.1
v 3.7 2 -4.5
v 3.7 2 -4.7
v 3.7 2.3 -4.4
v 3.7 2.3 -4.5
v 3.7 2.3 -4.7
v 3.7 2.5 -3.3
v 3.7 2.5 -3.9
v 3.7 2.6 -3
v 3.7 2.6 -3.1
v 3.7 2.6 -3.3
v 3.7 2.6 -3.9
v 3.7 2.6 -4.1
v 3.7 2.6 -4.3
v 3.7 2.7 -3
v 3.7 2.7 -3.1
v 3.7 2.9 -4.3
v 3.7 2.9 -4.4
v 3.9 2.7 -3
v 3.9 2.7 -3.1
v 3.9 2.9 -3.1
v 3.9 3 -3
v 3.9 3 -3.1
v 4 2.7 -2.7
v 4 2.7 -2.8
v 4 2.7 -3
v 4 2.8 -2.7
v 4 2.8 -2.8
v 4 3.1 -2.7
v 4 3.1 -3
v 4.1 2 -4.1
v 4.1 2 -4.5
v 4.1 2 -4.7
v 4.1 2.3 -4.4
v 4.1 2.3 -4.5
v 4.1 2.3 -4.7
v 4.1 2.5 -3.2
v 4.1 2.5 -3.7
v 4.1 2.6 -3.1
v 4.1 2.6 -3.2
v 4.1 2.6 -3.7
v 4.1 2.6 -3.9
v 4.1 2.6 -4
v 4.1 2.6 -4.1
v 4.1 2.8 -3.8
v 4.1 2.8 -3.9
v 4.1 2.9 -3.1
v 4.1 2.9 -3.2
v 4.1 2.9 -3.8
v 4.1 2.9 -3.9
v 4.1 2.9 -4
v 4.1 2.9 -4.4
v 4.1 3 -3.2
v 4.1 3 -3.9
v 4.2 2 -3.7
v 4.2 2 -3.9
v 4.2 2.1 -3.7
v 4.2 2.1 -3.9
v 4.2 2.6 -3.2
v 4.2 2.6 -3.3
v 4.2 2.9 -3.2
v 4.2 2.9 -3.3
v 4.3 2.1 -3.7
v 4.3 2.1 -3.9
v 4.3 2.5 -3.7
v 4.3 2.5 -3.9
v 4.3 2.6 -3.3
v 4.3 2.6 -3.4
v 4.3 2.9 -3.3
v 4.3 2.9 -3.4
v 4.4 2.5 -3.7
v 4.4 2.5 -3.9
v 4.4 2.6 -3.4
v 4.4 2.6 -3.7
v 4.4 2.8 -3.8
v 4.4 2.8 -3.9
v 4.4 2.9 -3.4
v 4.4 2.9 -3.8
v 3.5 2.7 -2.7
v 3.5 2.8 -2.7
v 3.5 3.1 -2.7
v 3.6 2.9 -2.7
v 3.6 3 -2.7
v 3.7 2.9 -2.7
v 3.7 3 -2.7
v 3.8 2.9 -2.7
v 3.8 3 -2.7
v 3.9 2.9 -2.7
v 3.9 3 -2.7
v 4 2.7 -2.7
v 4 2.8 -2.7
v 4 3.1 -2.7
v 3.6 2.6 -3
v 3.6 2.7 -3
v 3.7 2.6 -3
v 3.7 2.7 -3
v 3.4 2.6 -3.1
v 3.4 2.9 -3.1
v 3.5 2.6 -3.1
v 3.5 2.9 -3.1
v 3.6 2.6 -3.1
v 3.6 2.9 -3.1
v 3.7 2.6 -3.1
v 3.7 2.7 -3.1
v 3.9 2.6 -3.1
v 3.9 2.7 -3.1
v 3.9 2.9 -3.1
v 4 2.6 -3.1
v 4 2.9 -3.1
v 4.1 2.6 -3.1
v 4.1 2.9 -3.1
v 3.3 2.6 -3.2
v 3.3 2.9 -3.2
v 3.4 2.5 -3.2
v 3.4 2.6 -3.2
v 3.4 2.9 -3.2
v 3.4 3 -3.2
v 3.5 2.5 -3.2
v 3.5 2.6 -3.2
v 3.5 2.9 -3.2
v 3.5 3 -3.2
v 3.6 2.5 -3.2
v 3.6 2.6 -3.2
v 3.6 2.9 -3.2
v 3.6 3 -3.2
v 3.9 2.5 -3.2
v 3.9 2.6 -3.2
v 3.9 2.9 -3.2
v 3.9 3 -3.2
v 4 2.5 -3.2
v 4 2.6 -3.2
v 4 2.9 -3.2
v 4 3 -3.2
v 4.1 2.5 -3.2
v 4.1 2.6 -3.2
v 4.1 2.9 -3.2
v 4.1 3 -3.2
v 4.2 2.6 -3.2
v 4.2 2.9 -3.2
v 3.2 2.6 -3.3
v 3.2 2.9 -3.3
v 3.3 2.6 -3.3
v 3.3 2.9 -3.3
v 3.6 2.5 -3.3
v 3.6 2.6 -3.3
v 3.7 2.5 -3.3
v 3.7 2.6 -3.3
v 3.8 2.5 -3.3
v 3.8 2.6 -3.3
v 3.9 2.5 -3.3
v 3.9 2.6 -3.3
v 4.2 2.6 -3.3
v 4.2 2.9 -3.3
v 4.3 2.6 -3.3
v 4.3 2.9 -3.3
v 3.1 2.6 -3.4
v 3.1 2.9 -3.4
v 3.2 2.6 -3.4
v 3.2 2.9 -3.4
v 4.3 2.6 -3.4
v 4.3 2.9 -3.4
v 4.4 2.6 -3.4
v 4.4 2.9 -3.4
v 3.1 2.5 -3.7
v 3.1 2.6 -3.7
v 3.2 2.1 -3.7
v 3.2 2.5 -3.7
v 3.3 2 -3.7
v 3.3 2.1 -3.7
v 3.3 2.2 -3.7
v 3.4 2.2 -3.7
v 3.4 2.5 -3.7
v 3.4 2.6 -3.7
v 3.5 2 -3.7
v 3.5 2.2 -3.7
v 4 2 -3.7
v 4 2.2 -3.7
v 4.1 2.2 -3.7
v 4.1 2.5 -3.7
v 4.1 2.6 -3.7
v 4.2 2 -3.7
v 4.2 2.1 -3.7
v 4.2 2.2 -3.7
v 4.3 2.1 -3.7
v 4.3 2.5 -3.7
v 4.4 2.5 -3.7
v 4.4 2.6 -3.7
v 3.4 2 -4.1
v 3.4 2.6 -4.1
v 3.7 2 -4.1
v 3.7 2.6 -4.1
v 3.8 2 -4.1
v 3.8 2.6 -4.1
v 4.1 2 -4.1
v 4.1 2.6 -4.1
v 3.5 2.7 -3
v 3.5 3.1 -3
v 3.6 2.7 -3
v 3.6 2.9 -3
v 3.8 2.9 -3
v 3.8 3 -3
v 3.9 2.7 -3
v 3.9 3 -3
v 4 2.7 -3
v 4 3.1 -3
v 3.8 2.9 -3.1
v 3.8 3 -3.1
v 3.9 2.9 -3.1
v 3.9 3 -3.1
v 3.1 2.8 -3.8
v 3.1 2.9 -3.8
v 3.4 2.1 -3.8
v 3.4 2.2 -3.8
v 3.4 2.8 -3.8
v 3.4 2.9 -3.8
v 3.5 2.1 -3.8
v 3.5 2.2 -3.8
v 4 2.1 -3.8
v 4 2.2 -3.8
v 4.1 2.1 -3.8
v 4.1 2.2 -3.8
v 4.1 2.8 -3.8
v 4.1 2.9 -3.8
v 4.4 2.8 -3.8
v 4.4 2.9 -3.8
v 3.1 2.5 -3.9
v 3.1 2.8 -3.9
v 3.2 2.1 -3.9
v 3.2 2.5 -3.9
v 3.3 2 -3.9
v 3.3 2.1 -3.9
v 3.3 2.2 -3.9
v 3.4 2.1 -3.9
v 3.4 2.2 -3.9
v 3.4 2.5 -3.9
v 3.4 2.6 -3.9
v 3.4 2.8 -3.9
v 3.4 2.9 -3.9
v 3.4 3 -3.9
v 3.5 2 -3.9
v 3.5 2.1 -3.9
v 3.5 2.5 -3.9
v 3.5 2.6 -3.9
v 3.5 2.9 -3.9
v 3.5 3 -3.9
v 3.6 2.5 -3.9
v 3.6 2.6 -3.9
v 3.6 2.9 -3.9
v 3.6 3 -3.9
v 3.7 2.5 -3.9
v 3.7 2.6 -3.9
v 3.8 2.5 -3.9
v 3.8 2.6 -3.9
v 3.9 2.5 -3.9
v 3.9 2.6 -3.9
v 3.9 2.9 -3.9
v 3.9 3 -3.9
v 4 2 -3.9
v 4 2.1 -3.9
v 4 2.5 -3.9
v 4 2.6 -3.9
v 4 2.9 -3.9
v 4 3 -3.9
v 4.1 2.1 -3.9
v 4.1 2.2 -3.9
v 4.1 2.5 -3.9
v 4.1 2.6 -3.9
v 4.1 2.8 -3.9
v 4.1 2.9 -3.9
v 4.1 3 -3.9
v 4.2 2 -3.9
v 4.2 2.1 -3.9
v 4.2 2.2 -3.9
v 4.3 2.1 -3.9
v 4.3 2.5 -3.9
v 4.4 2.5 -3.9
v 4.4 2.8 -3.9
v 3.7 2.6 -4.3
v 3.7 2.9 -4.3
v 3.8 2.6 -4.3
v 3.8 2.9 -4.3
v 3.4 2.3 -4.4
v 3.4 2.9 -4.4
v 3.7 2.3 -4.4
v 3.7 2.9 -4.4
v 3.8 2.3 -4.4
v 3.8 2.9 -4.4
v 4.1 2.3 -4.4
v 4.1 2.9 -4.4
v 3.4 2 -4.7
v 3.4 2.3 -4.7
v 3.7 2 -4.7
v 3.7 2.3 -4.7
v 3.8 2 -4.7
v 3.8 2.3 -4.7
v 4.1 2 -4.7
v 4.1 2.3 -4.7
v 3.3 2 -3.7
v 3.5 2 -3.7
v 4 2 -3.7
v 4.2 2 -3.7
v 3.3 2 -3.9
v 3.5 2 -3.9
v 4 2 -3.9
v 4.2 2 -3.9
v 3.4 2 -4.1
v 3.7 2 -4.1
v 3.8 2 -4.1
v 4.1 2 -4.1
v 3.4 2 -4.5
v 3.7 2 -4.5
v 3.8 2 -4.5
v 4.1 2 -4.5
v 3.4 2 -4.7
v 3.7 2 -4.7
v 3.8 2 -4.7
v 4.1 2 -4.7
v 3.2 2.1 -3.7
v 3.3 2.1 -3.7
v 4.2 2.1 -3.7
v 4.3 2.1 -3.7
v 3.2 2.1 -3.9
v 3.3 2.1 -3.9
v 4.2 2.1 -3.9
v 4.3 2.1 -3.9
v 3.4 2.5 -3.2
v 3.5 2.5 -3.2
v 3.6 2.5 -3.2
v 3.9 2.5 -3.2
v 4 2.5 -3.2
v 4.1 2.5 -3.2
v 3.6 2.5 -3.3
v 3.7 2.5 -3.3
v 3.8 2.5 -3.3
v 3.9 2.5 -3.3
v 3.1 2.5 -3.7
v 3.2 2.5 -3.7
v 3.4 2.5 -3.7
v 4.1 2.5 -3.7
v 4.3 2.5 -3.7
v 4.4 2.5 -3.7
v 3.1 2.5 -3.9
v 3.2 2.5 -3.9
v 3.4 2.5 -3.9
v 3.5 2.5 -3.9
v 3.6 2.5 -3.9
v 3.7 2.5 -3.9
v 3.8 2.5 -3.9
v 3.9 2.5 -3.9
v 4 2.5 -3.9
v 4.1 2.5 -3.9
v 4.3 2.5 -3.9
v 4.4 2.5 -3.9
v 3.6 2.6 -3
v 3.7 2.6 -3
v 3.4 2.6 -3.1
v 3.5 2.6 -3.1
v 3.6 2.6 -3.1
v 3.7 2.6 -3.1
v 3.9 2.6 -3.1
v 4 2.6 -3.1
v 4.1 2.6 -3.1
v 3.3 2.6 -3.2
v 3.4 2.6 -3.2
v 3.5 2.6 -3.2
v 3.6 2.6 -3.2
v 3.9 2.6 -3.2
v 4 2.6 -3.2
v 4.1 2.6 -3.2
v 4.2 2.6 -3.2
v 3.2 2.6 -3.3
v 3.3 2.6 -3.3
v 3.6 2.6 -3.3
v 3.7 2.6 -3.3
v 3.8 2.6 -3.3
v 3.9 2.6 -3.3
v 4.2 2.6 -3.3
v 4.3 2.6 -3.3
v 3.1 2.6 -3.4
v 3.2 2.6 -3.4
v 4.3 2.6 -3.4
v 4.4 2.6 -3.4
v 3.1 2.6 -3.7
v 3.4 2.6 -3.7
v 4.1 2.6 -3.7
v 4.4 2.6 -3.7
v 3.4 2.6 -3.9
v 3.5 2.6 -3.9
v 3.6 2.6 -3.9
v 3.7 2.6 -3.9
v 3.8 2.6 -3.9
v 3.9 2.6 -3.9
v 4 2.6 -3.9
v 4.1 2.6 -3.9
v 3.4 2.6 -4
v 4.1 2.6 -4
v 3.4 2.6 -4.1
v 3.7 2.6 -4.1
v 3.8 2.6 -4.1
v 4.1 2.6 -4.1
v 3.7 2.6 -4.3
v 3.8 2.6 -4.3
v 3.5 2.7 -2.7
v 4 2.7 -2.7
v 3.5 2.7 -2.8
v 4 2.7 -2.8
v 3.5 2.7 -3
v 3.6 2.7 -3
v 3.7 2.7 -3
v 3.9 2.7 -3
v 4 2.7 -3
v 3.7 2.7 -3.1
v 3.9 2.7 -3.1
v 3.4 2.1 -3.8
v 3.5 2.1 -3.8
v 4 2.1 -3.8
v 4.1 2.1 -3.8
v 3.4 2.1 -3.9
v 3.5 2.1 -3.9
v 4 2.1 -3.9
v 4.1 2.1 -3.9
v 3.4 2.2 -3.7
v 3.5 2.2 -3.7
v 4 2.2 -3.7
v 4.1 2.2 -3.7
v 3.4 2.2 -3.8
v 3.5 2.2 -3.8
v 4 2.2 -3.8
v 4.1 2.2 -3.8
v 3.4 2.3 -4.4
v 3.7 2.3 -4.4
v 3.8 2.3 -4.4
v 4.1 2.3 -4.4
v 3.4 2.3 -4.5
v 3.7 2.3 -4.5
v 3.8 2.3 -4.5
v 4.1 2.3 -4.5
v 3.4 2.3 -4.7
v 3.7 2.3 -4.7
v 3.8 2.3 -4.7
v 4.1 2.3 -4.7
v 3.1 2.8 -3.8
v 3.4 2.8 -3.8
v 4.1 2.8 -3.8
v 4.4 2.8 -3.8
v 3.1 2.8 -3.9
v 3.4 2.8 -3.9
v 4.1 2.8 -3.9
v 4.4 2.8 -3.9
v 3.6 2.9 -3
v 3.8 2.9 -3
v 3.4 2.9 -3.1
v 3.5 2.9 -3.1
v 3.6 2.9 -3.1
v 3.8 2.9 -3.1
v 3.9 2.9 -3.1
v 4 2.9 -3.1
v 4.1 2.9 -3.1
v 3.3 2.9 -3.2
v 3.4 2.9 -3.2
v 3.5 2.9 -3.2
v 3.6 2.9 -3.2
v 3.9 2.9 -3.2
v 4 2.9 -3.2
v 4.1 2.9 -3.2
v 4.2 2.9 -3.2
v 3.2 2.9 -3.3
v 3.3 2.9 -3.3
v 4.2 2.9 -3.3
v 4.3 2.9 -3.3
v 3.1 2.9 -3.4
v 3.2 2.9 -3.4
v 4.3 2.9 -3.4
v 4.4 2.9 -3.4
v 3.1 2.9 -3.8
v 3.4 2.9 -3.8
v 4.1 2.9 -3.8
v 4.4 2.9 -3.8
v 3.4 2.9 -3.9
v 3.5 2.9 -3.9
v 3.6 2.9 -3.9
v 3.9 2.9 -3.9
v 4 2.9 -3.9
v 4.1 2.9 -3.9
v 3.4 2.9 -4
v 4.1 2.9 -4
v 3.7 2.9 -4.3
v 3.8 2.9 -4.3
v 3.4 2.9 -4.4
v 3.7 2.9 -4.4
v 3.8 2.9 -4.4
v 4.1 2.9 -4.4
v 3.8 3 -3
v 3.9 3 -3
v 3.8 3 -3.1
v 3.9 3 -3.1
v 3.4 3 -3.2
v 3.5 3 -3.2
v 3.6 3 -3.2
v 3.9 3 -3.2
v 4 3 -3.2
v 4.1 3 -3.2
v 3.4 3 -3.9
v 3.5 3 -3.9
v 3.6 3 -3.9
v 3.9 3 -3.9
v 4 3 -3.9
v 4.1 3 -3.9
v 3.5 3.1 -2.7
v 4 3.1 -2.7
v 3.5 3.1 -3
v 4 3.1 -3

# faces
f 4/6/1 2/6/1 1/6/1
f 5/6/1 2/6/1 4/6/1
f 5/6/1 4/6/1 3/6/1
f 6/6/1 2/6/1 5/6/1
f 7/6/1 5/6/1 3/6/1
f 8/6/1 5/6/1 7/6/1
f 11/6/1 10/6/1 9/6/1
f 12/6/1 10/6/1 11/6/1
f 15/6/1 14/6/1 13/6/1
f 16/6/1 14/6/1 15/6/1
f 19/1/1 18/1/1 17/1/1
f 20/1/1 18/1/1 19/1/1
f 23/6/1 22/6/1 21/6/1
f 24/6/1 22/6/1 23/6/1
f 28/7/1 26/7/1 25/7/1
f 29/2/1 27/2/1 26/2/1
f 29/7/1 26/7/1 28/7/1
f 30/2/1 27/2/1 29/2/1
f 34/4/1 32/4/1 31/4/1
f 35/4/1 32/4/1 34/4/1
f 38/7/1 28/7/1 25/7/1
f 40/5/1 37/5/1 36/5/1
f 41/4/1 34/4/1 33/4/1
f 42/4/1 34/4/1 41/4/1
f 43/6/1 40/6/1 39/6/1
f 44/5/1 37/5/1 40/5/1
f 44/6/1 40/6/1 43/6/1
f 45/7/1 38/7/1 37/7/1
f 45/5/1 37/5/1 44/5/1
f 46/7/1 28/7/1 38/7/1
f 46/7/1 38/7/1 45/7/1
f 47/4/1 44/4/1 43/4/1
f 47/4/1 43/4/1 42/4/1
f 48/4/1 44/4/1 47/4/1
f 52/9/1 50/9/1 49/9/1
f 53/1/1 51/1/1 50/1/1
f 53/9/1 50/9/1 52/9/1
f 54/1/1 53/1/1 52/1/1
f 55/1/1 51/1/1 53/1/1
f 55/1/1 53/1/1 54/1/1
f 58/1/1 57/1/1 56/1/1
f 59/1/1 57/1/1 58/1/1
f 60/1/1 57/1/1 59/1/1
f 64/7/1 62/7/1 61/7/1
f 65/2/1 63/2/1 62/2/1
f 65/7/1 62/7/1 64/7/1
f 66/2/1 63/2/1 65/2/1
f 69/4/1 68/4/1 67/4/1
f 70/4/1 68/4/1 69/4/1
f 71/7/1 64/7/1 61/7/1
f 72/7/1 64/7/1 71/7/1
f 75/7/1 64/7/1 72/7/1
f 76/7/1 64/7/1 75/7/1
f 77/1/1 74/1/1 73/1/1
f 78/1/1 74/1/1 77/1/1
f 81/8/1 80/8/1 79/8/1
f 82/8/1 80/8/1 81/8/1
f 85/1/1 84/1/1 83/1/1
f 86/1/1 84/1/1 85/1/1
f 87/1/1 85/1/1 83/1/1
f 88/1/1 85/1/1 87/1/1
f 92/1/1 90/1/1 89/1/1
f 93/1/1 90/1/1 92/1/1
f 94/6/1 92/6/1 91/6/1
f 94/6/1 93/6/1 92/6/1
f 95/6/1 93/6/1 94/6/1
f 96/1/2 97/1/2 99/1/2
f 99/1/2 97/1/2 100/1/2
f 98/6/2 99/6/2 101/6/2
f 99/6/2 100/6/2 101/6/2
f 101/6/2 100/6/2 102/6/2
f 103/1/2 104/1/2 105/1/2
f 105/1/2 104/1/2 106/1/2
f 103/1/2 105/1/2 107/1/2
f 107/1/2 105/1/2 108/1/2
f 109/8/2 110/8/2 111/8/2
f 111/8/2 110/8/2 112/8/2
f 113/7/2 114/7/2 116/7/2
f 114/2/2 115/2/2 117/2/2
f 116/7/2 114/7/2 117/7/2
f 117/2/2 115/2/2 118/2/2
f 119/4/2 120/4/2 123/4/2
f 123/4/2 120/4/2 124/4/2
f 113/7/2 116/7/2 125/7/2
f 125/7/2 116/7/2 126/7/2
f 121/1/2 122/1/2 127/1/2
f 127/1/2 122/1/2 128/1/2
f 126/7/2 116/7/2 129/7/2
f 129/7/2 116/7/2 130/7/2
f 131/1/2 132/1/2 133/1/2
f 131/1/2 133/1/2 134/1/2
f 134/1/2 133/1/2 135/1/2
f 136/9/2 137/9/2 139/9/2
f 137/1/2 138/1/2 140/1/2
f 139/9/2 137/9/2 140/9/2
f 139/1/2 140/1/2 141/1/2
f 140/1/2 138/1/2 142/1/2
f 141/1/2 140/1/2 142/1/2
f 143/7/2 144/7/2 146/7/2
f 144/2/2 145/2/2 147/2/2
f 146/7/2 144/7/2 147/7/2
f 147/2/2 145/2/2 148/2/2
f 149/4/2 150/4/2 152/4/2
f 152/4/2 150/4/2 153/4/2
f 143/7/2 146/7/2 156/7/2
f 154/5/2 155/5/2 158/5/2
f 151/4/2 152/4/2 159/4/2
f 159/4/2 152/4/2 160/4/2
f 157/6/2 158/6/2 161/6/2
f 158/5/2 155/5/2 162/5/2
f 161/6/2 158/6/2 162/6/2
f 155/7/2 156/7/2 163/7/2
f 162/5/2 155/5/2 163/5/2
f 156/7/2 146/7/2 164/7/2
f 163/7/2 156/7/2 164/7/2
f 161/4/2 162/4/2 165/4/2
f 160/4/2 161/4/2 165/4/2
f 165/4/2 162/4/2 166/4/2
f 167/1/2 168/1/2 169/1/2
f 169/1/2 168/1/2 170/1/2
f 171/6/2 172/6/2 173/6/2
f 173/6/2 172/6/2 174/6/2
f 175/6/2 176/6/2 177/6/2
f 177/6/2 176/6/2 178/6/2
f 179/6/2 180/6/2 181/6/2
f 181/6/2 180/6/2 182/6/2
f 183/6/2 184/6/2 186/6/2
f 186/6/2 184/6/2 187/6/2
f 185/6/2 186/6/2 187/6/2
f 187/6/2 184/6/2 188/6/2
f 185/6/2 187/6/2 189/6/2
f 189/6/2 187/6/2 190/6/2
f 194/1/3 193/1/3 192/1/3
f 195/1/3 193/1/3 194/1/3
f 196/1/3 194/1/3 192/1/3
f 196/3/3 195/3/3 194/3/3
f 197/1/3 193/1/3 195/1/3
f 197/3/3 195/3/3 196/3/3
f 198/1/3 196/1/3 192/1/3
f 198/1/3 197/1/3 196/1/3
f 199/1/3 193/1/3 197/1/3
f 199/1/3 197/1/3 198/1/3
f 200/1/3 198/1/3 192/1/3
f 200/3/3 199/3/3 198/3/3
f 201/1/3 193/1/3 199/1/3
f 201/3/3 199/3/3 200/3/3
f 202/9/3 192/9/3 191/9/3
f 203/1/3 200/1/3 192/1/3
f 203/9/3 192/9/3 202/9/3
f 203/1/3 201/1/3 200/1/3
f 204/1/3 193/1/3 201/1/3
f 204/1/3 201/1/3 203/1/3
f 207/1/3 206/1/3 205/1/3
f 208/1/3 206/1/3 207/1/3
f 211/4/3 210/4/3 209/4/3
f 212/4/3 210/4/3 211/4/3
f 213/8/3 212/8/3 211/8/3
f 214/8/3 212/8/3 213/8/3
f 217/1/3 216/1/3 215/1/3
f 218/1/3 216/1/3 217/1/3
f 220/8/3 218/8/3 217/8/3
f 220/8/3 219/8/3 218/8/3
f 221/8/3 219/8/3 220/8/3
f 222/4/3 221/4/3 220/4/3
f 223/4/3 221/4/3 222/4/3
f 227/6/3 225/6/3 224/6/3
f 228/6/3 225/6/3 227/6/3
f 230/4/3 227/4/3 226/4/3
f 231/4/3 227/4/3 230/4/3
f 232/4/3 229/4/3 228/4/3
f 233/4/3 229/4/3 232/4/3
f 234/8/3 231/8/3 230/8/3
f 235/8/3 231/8/3 234/8/3
f 236/8/3 233/8/3 232/8/3
f 237/8/3 233/8/3 236/8/3
f 240/4/3 237/4/3 236/4/3
f 241/4/3 237/4/3 240/4/3
f 242/8/3 239/8/3 238/8/3
f 243/8/3 239/8/3 242/8/3
f 244/8/3 241/8/3 240/8/3
f 245/8/3 241/8/3 244/8/3
f 246/4/3 243/4/3 242/4/3
f 247/4/3 243/4/3 246/4/3
f 248/4/3 245/4/3 244/4/3
f 249/4/3 245/4/3 248/4/3
f 250/6/3 248/6/3 247/6/3
f 251/6/3 248/6/3 250/6/3
f 254/6/3 253/6/3 252/6/3
f 255/6/3 253/6/3 254/6/3
f 258/4/3 257/4/3 256/4/3
f 259/4/3 257/4/3 258/4/3
f 262/4/3 261/4/3 260/4/3
f 263/4/3 261/4/3 262/4/3
f 266/6/3 265/6/3 264/6/3
f 267/6/3 265/6/3 266/6/3
f 270/6/3 269/6/3 268/6/3
f 271/6/3 269/6/3 270/6/3
f 274/6/3 273/6/3 272/6/3
f 275/6/3 273/6/3 274/6/3
f 279/6/3 277/6/3 276/6/3
f 281/6/3 279/6/3 278/6/3
f 282/6/3 279/6/3 281/6/3
f 283/1/3 281/1/3 280/1/3
f 283/6/3 279/6/3 282/6/3
f 283/1/3 282/1/3 281/1/3
f 284/6/3 277/6/3 279/6/3
f 284/6/3 279/6/3 283/6/3
f 285/6/3 277/6/3 284/6/3
f 286/1/3 283/1/3 280/1/3
f 287/1/3 283/1/3 286/1/3
f 290/1/3 289/1/3 288/1/3
f 293/1/3 290/1/3 288/1/3
f 294/1/3 290/1/3 293/1/3
f 295/6/3 292/6/3 291/6/3
f 295/1/3 290/1/3 294/1/3
f 295/6/3 291/6/3 290/6/3
f 296/6/3 295/6/3 294/6/3
f 297/6/3 292/6/3 295/6/3
f 297/6/3 295/6/3 296/6/3
f 298/6/3 292/6/3 297/6/3
f 299/6/3 292/6/3 298/6/3
f 302/7/3 301/7/3 300/7/3
f 303/7/3 301/7/3 302/7/3
f 306/7/3 305/7/3 304/7/3
f 307/7/3 305/7/3 306/7/3
f 308/1/4 309/1/4 310/1/4
f 310/1/4 309/1/4 311/1/4
f 311/1/4 309/1/4 312/1/4
f 312/1/4 309/1/4 313/1/4
f 313/1/4 309/1/4 315/1/4
f 314/1/4 315/1/4 316/1/4
f 315/1/4 309/1/4 317/1/4
f 316/1/4 315/1/4 317/1/4
f 318/1/4 319/1/4 320/1/4
f 320/1/4 319/1/4 321/1/4
f 322/6/4 323/6/4 326/6/4
f 326/6/4 323/6/4 327/6/4
f 324/1/4 325/1/4 328/1/4
f 328/1/4 325/1/4 329/1/4
f 330/1/4 331/1/4 332/1/4
f 332/1/4 331/1/4 333/1/4
f 334/6/4 335/6/4 336/6/4
f 336/6/4 335/6/4 337/6/4
f 338/6/4 339/6/4 341/6/4
f 340/6/4 341/6/4 343/6/4
f 343/6/4 341/6/4 344/6/4
f 342/1/4 343/1/4 345/1/4
f 343/1/4 344/1/4 345/1/4
f 344/6/4 341/6/4 346/6/4
f 345/1/4 344/1/4 346/1/4
f 341/6/4 339/6/4 347/6/4
f 346/6/4 341/6/4 347/6/4
f 347/6/4 339/6/4 348/6/4
f 348/6/4 339/6/4 349/6/4
f 342/1/4 345/1/4 352/1/4
f 352/1/4 345/1/4 353/1/4
f 347/4/4 348/4/4 354/4/4
f 354/4/4 348/4/4 355/4/4
f 350/4/4 351/4/4 356/4/4
f 356/4/4 351/4/4 357/4/4
f 354/8/4 355/8/4 358/8/4
f 358/8/4 355/8/4 359/8/4
f 356/8/4 357/8/4 360/8/4
f 360/8/4 357/8/4 361/8/4
f 358/4/4 359/4/4 362/4/4
f 362/4/4 359/4/4 363/4/4
f 364/4/4 365/4/4 366/4/4
f 366/4/4 365/4/4 367/4/4
f 360/4/4 361/4/4 368/4/4
f 368/4/4 361/4/4 369/4/4
f 366/8/4 367/8/4 372/8/4
f 372/8/4 367/8/4 373/8/4
f 368/8/4 369/8/4 374/8/4
f 374/8/4 369/8/4 375/8/4
f 370/1/4 371/1/4 376/1/4
f 372/4/4 373/4/4 378/4/4
f 378/4/4 373/4/4 379/4/4
f 374/4/4 375/4/4 381/4/4
f 381/4/4 375/4/4 382/4/4
f 376/1/4 377/1/4 383/1/4
f 370/1/4 376/1/4 383/1/4
f 383/1/4 377/1/4 384/1/4
f 379/6/4 380/6/4 385/6/4
f 384/1/4 377/1/4 385/1/4
f 377/6/4 378/6/4 385/6/4
f 378/6/4 379/6/4 385/6/4
f 384/6/4 385/6/4 386/6/4
f 385/6/4 380/6/4 387/6/4
f 386/6/4 385/6/4 387/6/4
f 387/6/4 380/6/4 388/6/4
f 388/6/4 380/6/4 389/6/4
f 390/7/4 391/7/4 392/7/4
f 392/7/4 391/7/4 393/7/4
f 394/7/4 395/7/4 396/7/4
f 396/7/4 395/7/4 397/7/4
f 398/7/4 399/7/4 400/7/4
f 400/7/4 399/7/4 401/7/4
f 402/2/4 403/2/4 404/2/4
f 404/2/4 403/2/4 405/2/4
f 406/2/4 407/2/4 408/2/4
f 408/2/4 407/2/4 409/2/4
f 414/1/5 411/1/5 410/1/5
f 415/1/5 411/1/5 414/1/5
f 416/1/5 413/1/5 412/1/5
f 417/1/5 413/1/5 416/1/5
f 422/7/5 419/7/5 418/7/5
f 423/7/5 419/7/5 422/7/5
f 424/7/5 421/7/5 420/7/5
f 425/7/5 421/7/5 424/7/5
f 426/2/5 423/2/5 422/2/5
f 427/2/5 423/2/5 426/2/5
f 428/2/5 425/2/5 424/2/5
f 429/2/5 425/2/5 428/2/5
f 434/6/5 431/6/5 430/6/5
f 435/6/5 431/6/5 434/6/5
f 436/6/5 433/6/5 432/6/5
f 437/6/5 433/6/5 436/6/5
f 444/8/5 440/8/5 439/8/5
f 447/8/5 442/8/5 441/8/5
f 450/4/5 439/4/5 438/4/5
f 451/4/5 443/4/5 442/4/5
f 454/6/5 449/6/5 448/6/5
f 455/6/5 449/6/5 454/6/5
f 456/4/5 439/4/5 450/4/5
f 457/8/5 444/8/5 439/8/5
f 457/4/5 439/4/5 456/4/5
f 458/4/5 445/4/5 444/4/5
f 458/8/5 444/8/5 457/8/5
f 459/4/5 445/4/5 458/4/5
f 460/4/5 447/4/5 446/4/5
f 461/8/5 442/8/5 447/8/5
f 461/4/5 447/4/5 460/4/5
f 462/4/5 451/4/5 442/4/5
f 462/8/5 442/8/5 461/8/5
f 463/4/5 451/4/5 462/4/5
f 464/6/5 453/6/5 452/6/5
f 465/6/5 453/6/5 464/6/5
f 470/1/5 467/1/5 466/1/5
f 471/1/5 467/1/5 470/1/5
f 476/4/5 469/4/5 468/4/5
f 477/8/5 470/8/5 469/8/5
f 477/4/5 469/4/5 476/4/5
f 478/1/5 471/1/5 470/1/5
f 478/8/5 470/8/5 477/8/5
f 478/1/5 472/1/5 471/1/5
f 479/8/5 473/8/5 472/8/5
f 479/1/5 472/1/5 478/1/5
f 480/4/5 474/4/5 473/4/5
f 480/8/5 473/8/5 479/8/5
f 481/4/5 474/4/5 480/4/5
f 484/6/5 476/6/5 475/6/5
f 485/6/5 479/6/5 478/6/5
f 486/6/5 479/6/5 485/6/5
f 487/6/5 479/6/5 486/6/5
f 488/6/5 479/6/5 487/6/5
f 489/6/5 482/6/5 481/6/5
f 492/6/5 484/6/5 483/6/5
f 493/6/5 490/6/5 489/6/5
f 495/6/5 492/6/5 491/6/5
f 496/6/5 476/6/5 484/6/5
f 496/6/5 492/6/5 495/6/5
f 496/6/5 484/6/5 492/6/5
f 497/6/5 494/6/5 493/6/5
f 497/6/5 489/6/5 481/6/5
f 497/6/5 493/6/5 489/6/5
f 498/6/5 494/6/5 497/6/5
f 502/6/5 487/6/5 486/6/5
f 503/6/5 487/6/5 502/6/5
f 507/5/5 501/5/5 500/5/5
f 507/5/5 506/5/5 505/5/5
f 507/5/5 505/5/5 504/5/5
f 507/5/5 504/5/5 503/5/5
f 507/5/5 503/5/5 502/5/5
f 507/5/5 502/5/5 501/5/5
f 507/5/5 500/5/5 499/5/5
f 508/5/5 506/5/5 507/5/5
f 509/7/5 508/7/5 507/7/5
f 510/7/5 508/7/5 509/7/5
f 511/7/5 508/7/5 510/7/5
f 512/7/5 508/7/5 511/7/5
f 513/7/5 511/7/5 510/7/5
f 514/7/5 511/7/5 513/7/5
f 517/9/5 516/9/5 515/9/5
f 518/9/5 516/9/5 517/9/5
f 519/1/5 518/1/5 517/1/5
f 520/1/5 518/1/5 519/1/5
f 521/1/5 518/1/5 520/1/5
f 522/1/5 518/1/5 521/1/5
f 523/1/5 518/1/5 522/1/5
f 524/1/5 522/1/5 521/1/5
f 525/1/5 522/1/5 524/1/5
f 526/1/6 527/1/6 530/1/6
f 530/1/6 527/1/6 531/1/6
f 528/1/6 529/1/6 532/1/6
f 532/1/6 529/1/6 533/1/6
f 534/1/6 535/1/6 538/1/6
f 538/1/6 535/1/6 539/1/6
f 536/1/6 537/1/6 540/1/6
f 540/1/6 537/1/6 541/1/6
f 542/7/6 543/7/6 546/7/6
f 546/7/6 543/7/6 547/7/6
f 544/7/6 545/7/6 548/7/6
f 548/7/6 545/7/6 549/7/6
f 546/2/6 547/2/6 550/2/6
f 550/2/6 547/2/6 551/2/6
f 548/2/6 549/2/6 552/2/6
f 552/2/6 549/2/6 553/2/6
f 554/6/6 555/6/6 558/6/6
f 558/6/6 555/6/6 559/6/6
f 556/6/6 557/6/6 560/6/6
f 560/6/6 557/6/6 561/6/6
f 562/1/6 563/1/6 566/1/6
f 566/1/6 563/1/6 567/1/6
f 564/4/6 565/4/6 572/4/6
f 565/8/6 566/8/6 573/8/6
f 572/4/6 565/4/6 573/4/6
f 566/1/6 567/1/6 574/1/6
f 573/8/6 566/8/6 574/8/6
f 567/1/6 568/1/6 574/1/6
f 568/8/6 569/8/6 575/8/6
f 574/1/6 568/1/6 575/1/6
f 569/4/6 570/4/6 576/4/6
f 575/8/6 569/8/6 576/8/6
f 576/4/6 570/4/6 577/4/6
f 571/6/6 572/6/6 580/6/6
f 577/6/6 578/6/6 581/6/6
f 579/6/6 580/6/6 584/6/6
f 581/6/6 582/6/6 585/6/6
f 583/6/6 584/6/6 587/6/6
f 580/6/6 572/6/6 588/6/6
f 587/6/6 584/6/6 588/6/6
f 584/6/6 580/6/6 588/6/6
f 585/6/6 586/6/6 589/6/6
f 577/6/6 581/6/6 589/6/6
f 581/6/6 585/6/6 589/6/6
f 589/6/6 586/6/6 590/6/6
f 591/5/6 592/5/6 597/5/6
f 595/5/6 596/5/6 597/5/6
f 594/5/6 595/5/6 597/5/6
f 593/5/6 594/5/6 597/5/6
f 592/5/6 593/5/6 597/5/6
f 597/5/6 596/5/6 598/5/6
f 597/7/6 598/7/6 599/7/6
f 599/7/6 598/7/6 600/7/6
f 597/7/6 599/7/6 601/7/6
f 601/7/6 599/7/6 602/7/6
f 600/7/6 598/7/6 603/7/6
f 603/7/6 598/7/6 604/7/6
f 605/1/6 606/1/6 607/1/6
f 607/1/6 606/1/6 608/1/6
f 609/4/6 610/4/6 615/4/6
f 610/8/6 611/8/6 616/8/6
f 615/4/6 610/4/6 616/4/6
f 611/4/6 612/4/6 617/4/6
f 616/8/6 611/8/6 617/8/6
f 612/8/6 613/8/6 618/8/6
f 617/4/6 612/4/6 618/4/6
f 613/4/6 614/4/6 619/4/6
f 618/8/6 613/8/6 619/8/6
f 619/4/6 614/4/6 620/4/6
f 621/1/6 622/1/6 623/1/6
f 623/1/6 622/1/6 624/1/6
