# MagicaVoxel @ Ephtracy

# group
o 

# material
mtllib Zaun Eckpfahl.mtl
usemtl palette

# normals
vn -1 0 0
vn 1 0 0
vn 0 0 1
vn 0 0 -1
vn 0 -1 0
vn 0 1 0

# texcoords
vt 0.0449219 0.5
vt 0.0488281 0.5
vt 0.0527344 0.5

# verts
v 1.3 2 -0.3
v 1.3 2 -0.4
v 1.3 2 -0.5
v 1.3 2.5 -0.3
v 1.3 2.5 -0.4
v 1.3 2.5 -0.5
v 1.3 2.8 -0.4
v 1.3 2.8 -0.5
v 1.3 3 -0.3
v 1.3 3 -0.4
v 1.3 3.1 -0.4
v 1.3 3.1 -0.5
v 1.3 3.2 -0.3
v 1.3 3.2 -0.4
v 1.3 3.2 -0.5
v 1.5 2 -0.3
v 1.5 2 -0.5
v 1.5 2.6 -0.3
v 1.5 2.6 -0.4
v 1.5 2.6 -0.5
v 1.5 2.7 -0.4
v 1.5 2.7 -0.5
v 1.5 2.8 -0.4
v 1.5 2.8 -0.5
v 1.5 2.9 -0.3
v 1.5 2.9 -0.4
v 1.5 3.1 -0.4
v 1.5 3.1 -0.5
v 1.5 3.2 -0.3
v 1.5 3.2 -0.4
v 1.5 3.2 -0.5
v 1.3 2 -0.3
v 1.3 2.5 -0.3
v 1.3 3 -0.3
v 1.3 3.2 -0.3
v 1.4 2 -0.3
v 1.4 2.5 -0.3
v 1.4 2.6 -0.3
v 1.4 2.9 -0.3
v 1.4 3 -0.3
v 1.4 3.2 -0.3
v 1.5 2 -0.3
v 1.5 2.6 -0.3
v 1.5 2.9 -0.3
v 1.5 3.2 -0.3
v 1.3 2 -0.5
v 1.3 2.5 -0.5
v 1.3 2.8 -0.5
v 1.3 3.1 -0.5
v 1.3 3.2 -0.5
v 1.4 2 -0.5
v 1.4 2.5 -0.5
v 1.4 2.6 -0.5
v 1.4 2.7 -0.5
v 1.4 2.8 -0.5
v 1.4 3.1 -0.5
v 1.4 3.2 -0.5
v 1.5 2 -0.5
v 1.5 2.6 -0.5
v 1.5 2.7 -0.5
v 1.5 2.8 -0.5
v 1.5 3.1 -0.5
v 1.5 3.2 -0.5
v 1.3 2 -0.3
v 1.4 2 -0.3
v 1.5 2 -0.3
v 1.3 2 -0.4
v 1.4 2 -0.4
v 1.3 2 -0.5
v 1.4 2 -0.5
v 1.5 2 -0.5
v 1.3 3.2 -0.3
v 1.4 3.2 -0.3
v 1.5 3.2 -0.3
v 1.3 3.2 -0.4
v 1.4 3.2 -0.4
v 1.5 3.2 -0.4
v 1.3 3.2 -0.5
v 1.4 3.2 -0.5
v 1.5 3.2 -0.5

# faces
f 4/2/1 2/2/1 1/2/1
f 5/3/1 3/3/1 2/3/1
f 5/2/1 2/2/1 4/2/1
f 6/3/1 3/3/1 5/3/1
f 7/1/1 5/1/1 4/1/1
f 7/2/1 6/2/1 5/2/1
f 8/2/1 6/2/1 7/2/1
f 9/1/1 7/1/1 4/1/1
f 9/1/1 8/1/1 7/1/1
f 10/1/1 8/1/1 9/1/1
f 11/3/1 10/3/1 9/3/1
f 11/1/1 8/1/1 10/1/1
f 12/1/1 8/1/1 11/1/1
f 13/3/1 11/3/1 9/3/1
f 14/2/1 12/2/1 11/2/1
f 14/3/1 11/3/1 13/3/1
f 15/2/1 12/2/1 14/2/1
f 16/1/2 17/1/2 18/1/2
f 18/1/2 17/1/2 19/1/2
f 19/1/2 17/1/2 20/1/2
f 18/3/2 19/3/2 21/3/2
f 19/2/2 20/2/2 21/2/2
f 21/2/2 20/2/2 22/2/2
f 18/3/2 21/3/2 23/3/2
f 21/3/2 22/3/2 23/3/2
f 23/3/2 22/3/2 24/3/2
f 18/3/2 23/3/2 25/3/2
f 23/1/2 24/1/2 26/1/2
f 25/3/2 23/3/2 26/3/2
f 25/2/2 26/2/2 27/2/2
f 26/1/2 24/1/2 27/1/2
f 27/1/2 24/1/2 28/1/2
f 25/2/2 27/2/2 29/2/2
f 27/3/2 28/3/2 30/3/2
f 29/2/2 27/2/2 30/2/2
f 30/3/2 28/3/2 31/3/2
f 36/2/3 33/2/3 32/2/3
f 37/1/3 34/1/3 33/1/3
f 37/2/3 33/2/3 36/2/3
f 38/1/3 34/1/3 37/1/3
f 39/1/3 34/1/3 38/1/3
f 40/3/3 35/3/3 34/3/3
f 40/1/3 34/1/3 39/1/3
f 41/3/3 35/3/3 40/3/3
f 42/1/3 37/1/3 36/1/3
f 42/1/3 38/1/3 37/1/3
f 43/3/3 39/3/3 38/3/3
f 43/1/3 38/1/3 42/1/3
f 44/2/3 41/2/3 40/2/3
f 44/3/3 39/3/3 43/3/3
f 44/2/3 40/2/3 39/2/3
f 45/2/3 41/2/3 44/2/3
f 46/3/4 47/3/4 51/3/4
f 47/2/4 48/2/4 52/2/4
f 51/3/4 47/3/4 52/3/4
f 52/2/4 48/2/4 53/2/4
f 53/2/4 48/2/4 54/2/4
f 48/1/4 49/1/4 55/1/4
f 54/2/4 48/2/4 55/2/4
f 49/2/4 50/2/4 56/2/4
f 55/1/4 49/1/4 56/1/4
f 56/2/4 50/2/4 57/2/4
f 51/1/4 52/1/4 58/1/4
f 52/1/4 53/1/4 58/1/4
f 53/2/4 54/2/4 59/2/4
f 58/1/4 53/1/4 59/1/4
f 54/3/4 55/3/4 60/3/4
f 59/2/4 54/2/4 60/2/4
f 55/1/4 56/1/4 61/1/4
f 60/3/4 55/3/4 61/3/4
f 56/3/4 57/3/4 62/3/4
f 61/1/4 56/1/4 62/1/4
f 62/3/4 57/3/4 63/3/4
f 67/2/5 65/2/5 64/2/5
f 68/1/5 66/1/5 65/1/5
f 68/2/5 65/2/5 67/2/5
f 69/3/5 68/3/5 67/3/5
f 70/1/5 66/1/5 68/1/5
f 70/3/5 68/3/5 69/3/5
f 71/1/5 66/1/5 70/1/5
f 72/3/6 73/3/6 75/3/6
f 73/2/6 74/2/6 76/2/6
f 75/3/6 73/3/6 76/3/6
f 76/2/6 74/2/6 77/2/6
f 75/2/6 76/2/6 78/2/6
f 76/3/6 77/3/6 79/3/6
f 78/2/6 76/2/6 79/2/6
f 79/3/6 77/3/6 80/3/6
