# MagicaVoxel @ Ephtracy

# group
o 

# material
mtllib Riesenblume25.mtl
usemtl palette

# normals
vn -1 0 0
vn 1 0 0
vn 0 0 1
vn 0 0 -1
vn 0 -1 0
vn 0 1 0

# texcoords
vt 0.0214844 0.5
vt 0.0957031 0.5
vt 0.748047 0.5

# verts
v 3.1 3.3 -2.7
v 3.1 3.3 -2.8
v 3.1 3.4 -2.7
v 3.1 3.4 -2.8
v 3.2 3.2 -2.6
v 3.2 3.2 -2.8
v 3.2 3.3 -2.5
v 3.2 3.3 -2.6
v 3.2 3.3 -2.7
v 3.2 3.3 -2.8
v 3.2 3.4 -2.5
v 3.2 3.4 -2.6
v 3.3 3.2 -2.5
v 3.3 3.2 -2.6
v 3.3 3.2 -2.8
v 3.3 3.2 -2.9
v 3.3 3.3 -2.5
v 3.3 3.3 -2.6
v 3.3 3.3 -2.8
v 3.3 3.3 -2.9
v 3.3 3.4 -2.6
v 3.3 3.4 -2.8
v 3.4 3.1 -2.6
v 3.4 3.1 -2.8
v 3.4 3.2 -2.6
v 3.4 3.2 -2.8
v 3.5 3 -2.6
v 3.5 3 -2.8
v 3.5 3.1 -2.5
v 3.5 3.1 -2.6
v 3.5 3.1 -2.8
v 3.5 3.1 -2.9
v 3.5 3.2 -2.3
v 3.5 3.2 -2.5
v 3.5 3.2 -2.6
v 3.5 3.2 -2.8
v 3.5 3.2 -2.9
v 3.5 3.2 -3.1
v 3.5 3.3 -2.1
v 3.5 3.3 -2.3
v 3.5 3.3 -2.5
v 3.5 3.3 -2.8
v 3.5 3.3 -2.9
v 3.5 3.3 -3.1
v 3.5 3.4 -2
v 3.5 3.4 -2.1
v 3.5 3.4 -2.3
v 3.5 3.4 -2.8
v 3.5 3.4 -2.9
v 3.5 3.5 -2
v 3.5 3.5 -2.1
v 3.6 2 -2.6
v 3.6 2 -2.8
v 3.6 2.3 -2.8
v 3.6 2.3 -2.9
v 3.6 2.4 -2.9
v 3.6 2.4 -3
v 3.6 2.5 -3
v 3.6 2.5 -3.1
v 3.6 2.6 -2.8
v 3.6 2.6 -2.9
v 3.6 2.6 -3.1
v 3.6 2.6 -3.2
v 3.6 2.7 -2.9
v 3.6 2.7 -3
v 3.6 2.7 -3.1
v 3.6 2.7 -3.2
v 3.6 2.8 -3
v 3.6 2.8 -3.1
v 3.6 3 -2.5
v 3.6 3 -2.6
v 3.6 3 -2.8
v 3.6 3 -2.9
v 3.6 3.1 -2.4
v 3.6 3.1 -2.5
v 3.6 3.1 -2.6
v 3.6 3.1 -2.8
v 3.6 3.1 -2.9
v 3.6 3.1 -3
v 3.6 3.2 -2.4
v 3.6 3.2 -2.5
v 3.6 3.2 -2.9
v 3.6 3.2 -3
v 3.6 3.2 -3.1
v 3.6 3.2 -3.2
v 3.6 3.3 -2.4
v 3.6 3.3 -2.6
v 3.6 3.3 -3
v 3.6 3.3 -3.1
v 3.6 3.3 -3.2
v 3.6 3.3 -3.3
v 3.6 3.4 -1.9
v 3.6 3.4 -2
v 3.6 3.4 -2.4
v 3.6 3.4 -2.6
v 3.6 3.4 -3
v 3.6 3.4 -3.1
v 3.6 3.4 -3.2
v 3.6 3.4 -3.3
v 3.6 3.5 -1.9
v 3.6 3.5 -2
v 3.7 3.3 -2.2
v 3.7 3.3 -2.3
v 3.7 3.3 -2.4
v 3.7 3.3 -2.6
v 3.7 3.3 -2.8
v 3.7 3.3 -2.9
v 3.7 3.3 -3
v 3.7 3.4 -2.2
v 3.7 3.4 -2.4
v 3.7 3.4 -2.6
v 3.7 3.4 -2.8
v 3.7 3.4 -2.9
v 3.7 3.4 -3
v 3.8 3.3 -2.8
v 3.8 3.3 -2.9
v 3.8 3.3 -3.1
v 3.8 3.3 -3.2
v 3.8 3.3 -3.3
v 3.8 3.4 -2.8
v 3.8 3.4 -2.9
v 3.8 3.4 -3.1
v 3.8 3.4 -3.3
v 3.9 3.3 -2.6
v 3.9 3.3 -2.7
v 3.9 3.4 -2.6
v 3.9 3.4 -2.7
v 3.2 3.3 -2.7
v 3.2 3.3 -2.8
v 3.2 3.4 -2.7
v 3.2 3.4 -2.8
v 3.3 3.3 -2.5
v 3.3 3.3 -2.6
v 3.3 3.4 -2.5
v 3.3 3.4 -2.6
v 3.6 3.2 -2.9
v 3.6 3.2 -3
v 3.6 3.3 -2.1
v 3.6 3.3 -2.3
v 3.6 3.3 -2.6
v 3.6 3.3 -2.8
v 3.6 3.3 -2.9
v 3.6 3.3 -3
v 3.6 3.4 -2
v 3.6 3.4 -2.1
v 3.6 3.4 -2.3
v 3.6 3.4 -2.6
v 3.6 3.4 -2.8
v 3.6 3.5 -2
v 3.6 3.5 -2.1
v 3.7 2.3 -2.8
v 3.7 2.3 -2.9
v 3.7 2.4 -2.9
v 3.7 2.4 -3
v 3.7 2.5 -3
v 3.7 2.5 -3.1
v 3.7 2.6 -2.8
v 3.7 2.6 -2.9
v 3.7 2.6 -3.1
v 3.7 2.6 -3.2
v 3.7 2.7 -2.9
v 3.7 2.7 -3
v 3.7 2.7 -3.1
v 3.7 2.7 -3.2
v 3.7 2.8 -3
v 3.7 2.8 -3.1
v 3.7 3.3 -2.8
v 3.7 3.3 -2.9
v 3.7 3.3 -3.2
v 3.7 3.3 -3.3
v 3.7 3.4 -1.9
v 3.7 3.4 -2
v 3.7 3.4 -2.8
v 3.7 3.4 -2.9
v 3.7 3.4 -3.2
v 3.7 3.4 -3.3
v 3.7 3.5 -1.9
v 3.7 3.5 -2
v 3.8 2 -2.6
v 3.8 2 -2.8
v 3.8 3 -2.5
v 3.8 3 -2.6
v 3.8 3 -2.8
v 3.8 3 -2.9
v 3.8 3.1 -2.4
v 3.8 3.1 -2.5
v 3.8 3.1 -2.6
v 3.8 3.1 -2.8
v 3.8 3.1 -2.9
v 3.8 3.1 -3
v 3.8 3.2 -2.3
v 3.8 3.2 -2.4
v 3.8 3.2 -2.5
v 3.8 3.2 -2.9
v 3.8 3.2 -3
v 3.8 3.2 -3.1
v 3.8 3.2 -3.2
v 3.8 3.3 -2.2
v 3.8 3.3 -2.3
v 3.8 3.3 -2.4
v 3.8 3.3 -2.5
v 3.8 3.3 -2.6
v 3.8 3.3 -2.7
v 3.8 3.3 -2.9
v 3.8 3.3 -3
v 3.8 3.3 -3.1
v 3.8 3.3 -3.2
v 3.8 3.4 -2.2
v 3.8 3.4 -2.4
v 3.8 3.4 -2.5
v 3.8 3.4 -2.6
v 3.8 3.4 -2.7
v 3.8 3.4 -2.9
v 3.8 3.4 -3
v 3.8 3.4 -3.1
v 3.9 3 -2.6
v 3.9 3 -2.8
v 3.9 3.1 -2.5
v 3.9 3.1 -2.6
v 3.9 3.1 -2.8
v 3.9 3.1 -2.9
v 3.9 3.2 -2.4
v 3.9 3.2 -2.5
v 3.9 3.2 -2.6
v 3.9 3.2 -2.8
v 3.9 3.2 -2.9
v 3.9 3.2 -3
v 3.9 3.2 -3.1
v 3.9 3.3 -2.4
v 3.9 3.3 -2.5
v 3.9 3.3 -2.6
v 3.9 3.3 -2.8
v 3.9 3.3 -2.9
v 3.9 3.3 -3
v 3.9 3.3 -3.1
v 3.9 3.3 -3.3
v 3.9 3.4 -2.5
v 3.9 3.4 -2.6
v 3.9 3.4 -2.8
v 3.9 3.4 -2.9
v 3.9 3.4 -3.1
v 3.9 3.4 -3.3
v 4 3.1 -2.6
v 4 3.1 -2.8
v 4 3.2 -2.6
v 4 3.2 -2.8
v 4 3.3 -2.6
v 4 3.3 -2.8
v 4 3.4 -2.6
v 4 3.4 -2.8
v 4.1 3.2 -2.5
v 4.1 3.2 -2.6
v 4.1 3.2 -2.8
v 4.1 3.2 -2.9
v 4.1 3.3 -2.5
v 4.1 3.3 -2.6
v 4.1 3.3 -2.8
v 4.1 3.3 -2.9
v 4.2 3.2 -2.6
v 4.2 3.2 -2.8
v 4.2 3.3 -2.6
v 4.2 3.3 -2.8
v 3.6 3.4 -1.9
v 3.6 3.5 -1.9
v 3.7 3.4 -1.9
v 3.7 3.5 -1.9
v 3.5 3.4 -2
v 3.5 3.5 -2
v 3.6 3.4 -2
v 3.6 3.5 -2
v 3.5 3.3 -2.1
v 3.5 3.4 -2.1
v 3.6 3.3 -2.1
v 3.6 3.4 -2.1
v 3.7 3.3 -2.2
v 3.7 3.4 -2.2
v 3.8 3.3 -2.2
v 3.8 3.4 -2.2
v 3.5 3.2 -2.3
v 3.5 3.3 -2.3
v 3.6 3.3 -2.3
v 3.7 3.3 -2.3
v 3.8 3.2 -2.3
v 3.8 3.3 -2.3
v 3.6 3.1 -2.4
v 3.6 3.2 -2.4
v 3.6 3.3 -2.4
v 3.6 3.4 -2.4
v 3.7 3.3 -2.4
v 3.7 3.4 -2.4
v 3.8 3.1 -2.4
v 3.8 3.2 -2.4
v 3.8 3.3 -2.4
v 3.9 3.2 -2.4
v 3.9 3.3 -2.4
v 3.2 3.3 -2.5
v 3.2 3.4 -2.5
v 3.3 3.2 -2.5
v 3.3 3.3 -2.5
v 3.3 3.4 -2.5
v 3.5 3.1 -2.5
v 3.5 3.2 -2.5
v 3.5 3.3 -2.5
v 3.6 3 -2.5
v 3.6 3.1 -2.5
v 3.6 3.2 -2.5
v 3.8 3 -2.5
v 3.8 3.1 -2.5
v 3.8 3.2 -2.5
v 3.8 3.3 -2.5
v 3.8 3.4 -2.5
v 3.9 3.1 -2.5
v 3.9 3.2 -2.5
v 3.9 3.3 -2.5
v 3.9 3.4 -2.5
v 4.1 3.2 -2.5
v 4.1 3.3 -2.5
v 3.2 3.2 -2.6
v 3.2 3.3 -2.6
v 3.3 3.2 -2.6
v 3.3 3.3 -2.6
v 3.3 3.4 -2.6
v 3.4 3.1 -2.6
v 3.4 3.2 -2.6
v 3.4 3.3 -2.6
v 3.4 3.4 -2.6
v 3.5 3 -2.6
v 3.5 3.1 -2.6
v 3.5 3.2 -2.6
v 3.6 2 -2.6
v 3.6 3 -2.6
v 3.6 3.1 -2.6
v 3.6 3.3 -2.6
v 3.6 3.4 -2.6
v 3.8 2 -2.6
v 3.8 3 -2.6
v 3.8 3.1 -2.6
v 3.9 3 -2.6
v 3.9 3.1 -2.6
v 3.9 3.2 -2.6
v 3.9 3.3 -2.6
v 3.9 3.4 -2.6
v 4 3.1 -2.6
v 4 3.2 -2.6
v 4 3.3 -2.6
v 4 3.4 -2.6
v 4.1 3.2 -2.6
v 4.1 3.3 -2.6
v 4.2 3.2 -2.6
v 4.2 3.3 -2.6
v 3.1 3.3 -2.7
v 3.1 3.4 -2.7
v 3.2 3.3 -2.7
v 3.2 3.4 -2.7
v 3.8 3.3 -2.7
v 3.8 3.4 -2.7
v 3.9 3.3 -2.7
v 3.9 3.4 -2.7
v 3.6 3.3 -2.8
v 3.6 3.4 -2.8
v 3.7 3.3 -2.8
v 3.7 3.4 -2.8
v 3.6 2.6 -2.9
v 3.6 2.7 -2.9
v 3.7 2.6 -2.9
v 3.7 2.7 -2.9
v 3.7 3.3 -2.9
v 3.7 3.4 -2.9
v 3.8 3.3 -2.9
v 3.8 3.4 -2.9
v 3.6 2.7 -3
v 3.6 2.8 -3
v 3.6 3.2 -3
v 3.6 3.3 -3
v 3.6 3.4 -3
v 3.7 2.7 -3
v 3.7 2.8 -3
v 3.7 3.3 -3
v 3.7 3.4 -3
v 3.8 3.2 -3
v 3.8 3.3 -3
v 3.9 3.2 -3
v 3.9 3.3 -3
v 3.8 3.3 -3.1
v 3.8 3.4 -3.1
v 3.9 3.3 -3.1
v 3.9 3.4 -3.1
v 3.6 3.3 -3.2
v 3.6 3.4 -3.2
v 3.7 3.3 -3.2
v 3.7 3.4 -3.2
v 3.6 3.4 -2
v 3.6 3.5 -2
v 3.7 3.4 -2
v 3.7 3.5 -2
v 3.5 3.4 -2.1
v 3.5 3.5 -2.1
v 3.6 3.4 -2.1
v 3.6 3.5 -2.1
v 3.5 3.3 -2.3
v 3.5 3.4 -2.3
v 3.6 3.3 -2.3
v 3.6 3.4 -2.3
v 3.2 3.3 -2.6
v 3.2 3.4 -2.6
v 3.3 3.3 -2.6
v 3.3 3.4 -2.6
v 3.6 3.3 -2.6
v 3.6 3.4 -2.6
v 3.7 3.3 -2.6
v 3.7 3.4 -2.6
v 3.8 3.3 -2.6
v 3.8 3.4 -2.6
v 3.9 3.3 -2.6
v 3.9 3.4 -2.6
v 3.1 3.3 -2.8
v 3.1 3.4 -2.8
v 3.2 3.2 -2.8
v 3.2 3.3 -2.8
v 3.2 3.4 -2.8
v 3.3 3.2 -2.8
v 3.3 3.3 -2.8
v 3.3 3.4 -2.8
v 3.4 3.1 -2.8
v 3.4 3.2 -2.8
v 3.4 3.3 -2.8
v 3.4 3.4 -2.8
v 3.5 3 -2.8
v 3.5 3.1 -2.8
v 3.5 3.2 -2.8
v 3.5 3.3 -2.8
v 3.5 3.4 -2.8
v 3.6 2 -2.8
v 3.6 2.3 -2.8
v 3.6 2.6 -2.8
v 3.6 3 -2.8
v 3.6 3.1 -2.8
v 3.7 2.3 -2.8
v 3.7 2.6 -2.8
v 3.7 3.3 -2.8
v 3.7 3.4 -2.8
v 3.8 2 -2.8
v 3.8 3 -2.8
v 3.8 3.1 -2.8
v 3.8 3.3 -2.8
v 3.8 3.4 -2.8
v 3.9 3 -2.8
v 3.9 3.1 -2.8
v 3.9 3.2 -2.8
v 3.9 3.3 -2.8
v 3.9 3.4 -2.8
v 4 3.1 -2.8
v 4 3.2 -2.8
v 4 3.3 -2.8
v 4 3.4 -2.8
v 4.1 3.2 -2.8
v 4.1 3.3 -2.8
v 4.2 3.2 -2.8
v 4.2 3.3 -2.8
v 3.3 3.2 -2.9
v 3.3 3.3 -2.9
v 3.5 3.1 -2.9
v 3.5 3.2 -2.9
v 3.5 3.3 -2.9
v 3.5 3.4 -2.9
v 3.6 2.3 -2.9
v 3.6 2.4 -2.9
v 3.6 3 -2.9
v 3.6 3.1 -2.9
v 3.6 3.2 -2.9
v 3.6 3.3 -2.9
v 3.7 2.3 -2.9
v 3.7 2.4 -2.9
v 3.7 3.3 -2.9
v 3.7 3.4 -2.9
v 3.8 3 -2.9
v 3.8 3.1 -2.9
v 3.8 3.2 -2.9
v 3.8 3.3 -2.9
v 3.8 3.4 -2.9
v 3.9 3.1 -2.9
v 3.9 3.2 -2.9
v 3.9 3.3 -2.9
v 3.9 3.4 -2.9
v 4.1 3.2 -2.9
v 4.1 3.3 -2.9
v 3.6 2.4 -3
v 3.6 2.5 -3
v 3.6 3.1 -3
v 3.6 3.2 -3
v 3.7 2.4 -3
v 3.7 2.5 -3
v 3.8 3.1 -3
v 3.8 3.2 -3
v 3.5 3.2 -3.1
v 3.5 3.3 -3.1
v 3.6 2.5 -3.1
v 3.6 2.6 -3.1
v 3.6 2.7 -3.1
v 3.6 2.8 -3.1
v 3.6 3.2 -3.1
v 3.6 3.3 -3.1
v 3.6 3.4 -3.1
v 3.7 2.5 -3.1
v 3.7 2.6 -3.1
v 3.7 2.7 -3.1
v 3.7 2.8 -3.1
v 3.8 3.2 -3.1
v 3.8 3.3 -3.1
v 3.8 3.4 -3.1
v 3.9 3.2 -3.1
v 3.9 3.3 -3.1
v 3.6 2.6 -3.2
v 3.6 2.7 -3.2
v 3.6 3.2 -3.2
v 3.6 3.3 -3.2
v 3.7 2.6 -3.2
v 3.7 2.7 -3.2
v 3.7 3.3 -3.2
v 3.8 3.2 -3.2
v 3.8 3.3 -3.2
v 3.6 3.3 -3.3
v 3.6 3.4 -3.3
v 3.7 3.3 -3.3
v 3.7 3.4 -3.3
v 3.8 3.3 -3.3
v 3.8 3.4 -3.3
v 3.9 3.3 -3.3
v 3.9 3.4 -3.3
v 3.6 2 -2.6
v 3.8 2 -2.6
v 3.6 2 -2.8
v 3.8 2 -2.8
v 3.6 2.3 -2.8
v 3.7 2.3 -2.8
v 3.6 2.3 -2.9
v 3.7 2.3 -2.9
v 3.6 2.4 -2.9
v 3.7 2.4 -2.9
v 3.6 2.4 -3
v 3.7 2.4 -3
v 3.6 2.5 -3
v 3.7 2.5 -3
v 3.6 2.5 -3.1
v 3.7 2.5 -3.1
v 3.6 2.6 -3.1
v 3.7 2.6 -3.1
v 3.6 2.6 -3.2
v 3.7 2.6 -3.2
v 3.6 3 -2.5
v 3.8 3 -2.5
v 3.5 3 -2.6
v 3.6 3 -2.6
v 3.8 3 -2.6
v 3.9 3 -2.6
v 3.5 3 -2.8
v 3.6 3 -2.8
v 3.8 3 -2.8
v 3.9 3 -2.8
v 3.6 3 -2.9
v 3.8 3 -2.9
v 3.6 3.1 -2.4
v 3.8 3.1 -2.4
v 3.5 3.1 -2.5
v 3.6 3.1 -2.5
v 3.8 3.1 -2.5
v 3.9 3.1 -2.5
v 3.4 3.1 -2.6
v 3.5 3.1 -2.6
v 3.6 3.1 -2.6
v 3.8 3.1 -2.6
v 3.9 3.1 -2.6
v 4 3.1 -2.6
v 3.4 3.1 -2.8
v 3.5 3.1 -2.8
v 3.6 3.1 -2.8
v 3.8 3.1 -2.8
v 3.9 3.1 -2.8
v 4 3.1 -2.8
v 3.5 3.1 -2.9
v 3.6 3.1 -2.9
v 3.8 3.1 -2.9
v 3.9 3.1 -2.9
v 3.6 3.1 -3
v 3.8 3.1 -3
v 3.5 3.2 -2.3
v 3.8 3.2 -2.3
v 3.6 3.2 -2.4
v 3.8 3.2 -2.4
v 3.9 3.2 -2.4
v 3.3 3.2 -2.5
v 3.5 3.2 -2.5
v 3.6 3.2 -2.5
v 3.8 3.2 -2.5
v 3.9 3.2 -2.5
v 4.1 3.2 -2.5
v 3.2 3.2 -2.6
v 3.3 3.2 -2.6
v 3.4 3.2 -2.6
v 3.5 3.2 -2.6
v 3.9 3.2 -2.6
v 4 3.2 -2.6
v 4.1 3.2 -2.6
v 4.2 3.2 -2.6
v 3.2 3.2 -2.8
v 3.3 3.2 -2.8
v 3.4 3.2 -2.8
v 3.5 3.2 -2.8
v 3.9 3.2 -2.8
v 4 3.2 -2.8
v 4.1 3.2 -2.8
v 4.2 3.2 -2.8
v 3.3 3.2 -2.9
v 3.5 3.2 -2.9
v 3.6 3.2 -2.9
v 3.9 3.2 -2.9
v 4.1 3.2 -2.9
v 3.6 3.2 -3
v 3.8 3.2 -3
v 3.9 3.2 -3
v 3.5 3.2 -3.1
v 3.6 3.2 -3.1
v 3.8 3.2 -3.1
v 3.9 3.2 -3.1
v 3.6 3.2 -3.2
v 3.8 3.2 -3.2
v 3.5 3.3 -2.1
v 3.6 3.3 -2.1
v 3.7 3.3 -2.2
v 3.8 3.3 -2.2
v 3.5 3.3 -2.3
v 3.6 3.3 -2.3
v 3.7 3.3 -2.3
v 3.8 3.3 -2.3
v 3.2 3.3 -2.5
v 3.3 3.3 -2.5
v 3.2 3.3 -2.6
v 3.3 3.3 -2.6
v 3.1 3.3 -2.7
v 3.2 3.3 -2.7
v 3.1 3.3 -2.8
v 3.2 3.3 -2.8
v 3.7 3.3 -2.9
v 3.8 3.3 -2.9
v 3.7 3.3 -3
v 3.8 3.3 -3
v 3.8 3.3 -3.1
v 3.9 3.3 -3.1
v 3.6 3.3 -3.2
v 3.7 3.3 -3.2
v 3.8 3.3 -3.2
v 3.6 3.3 -3.3
v 3.7 3.3 -3.3
v 3.8 3.3 -3.3
v 3.9 3.3 -3.3
v 3.6 3.4 -1.9
v 3.7 3.4 -1.9
v 3.5 3.4 -2
v 3.6 3.4 -2
v 3.7 3.4 -2
v 3.5 3.4 -2.1
v 3.6 3.4 -2.1
v 3.6 2.6 -2.8
v 3.7 2.6 -2.8
v 3.6 2.6 -2.9
v 3.7 2.6 -2.9
v 3.6 2.7 -2.9
v 3.7 2.7 -2.9
v 3.6 2.7 -3
v 3.7 2.7 -3
v 3.6 2.7 -3.1
v 3.7 2.7 -3.1
v 3.6 2.7 -3.2
v 3.7 2.7 -3.2
v 3.6 2.8 -3
v 3.7 2.8 -3
v 3.6 2.8 -3.1
v 3.7 2.8 -3.1
v 3.6 3.2 -2.9
v 3.8 3.2 -2.9
v 3.6 3.2 -3
v 3.8 3.2 -3
v 3.5 3.3 -2.3
v 3.6 3.3 -2.3
v 3.7 3.3 -2.3
v 3.6 3.3 -2.4
v 3.7 3.3 -2.4
v 3.8 3.3 -2.4
v 3.9 3.3 -2.4
v 3.3 3.3 -2.5
v 3.5 3.3 -2.5
v 3.8 3.3 -2.5
v 3.9 3.3 -2.5
v 4.1 3.3 -2.5
v 3.2 3.3 -2.6
v 3.3 3.3 -2.6
v 3.4 3.3 -2.6
v 3.6 3.3 -2.6
v 3.7 3.3 -2.6
v 3.8 3.3 -2.6
v 3.9 3.3 -2.6
v 4 3.3 -2.6
v 4.1 3.3 -2.6
v 4.2 3.3 -2.6
v 3.2 3.3 -2.7
v 3.8 3.3 -2.7
v 3.9 3.3 -2.7
v 3.2 3.3 -2.8
v 3.3 3.3 -2.8
v 3.4 3.3 -2.8
v 3.5 3.3 -2.8
v 3.6 3.3 -2.8
v 3.7 3.3 -2.8
v 3.8 3.3 -2.8
v 3.9 3.3 -2.8
v 4 3.3 -2.8
v 4.1 3.3 -2.8
v 4.2 3.3 -2.8
v 3.3 3.3 -2.9
v 3.5 3.3 -2.9
v 3.6 3.3 -2.9
v 3.7 3.3 -2.9
v 3.8 3.3 -2.9
v 3.9 3.3 -2.9
v 4.1 3.3 -2.9
v 3.6 3.3 -3
v 3.8 3.3 -3
v 3.9 3.3 -3
v 3.5 3.3 -3.1
v 3.6 3.3 -3.1
v 3.8 3.3 -3.1
v 3.9 3.3 -3.1
v 3.6 3.3 -3.2
v 3.7 3.3 -3.2
v 3.8 3.3 -3.2
v 3.5 3.4 -2.1
v 3.6 3.4 -2.1
v 3.7 3.4 -2.2
v 3.8 3.4 -2.2
v 3.5 3.4 -2.3
v 3.6 3.4 -2.3
v 3.6 3.4 -2.4
v 3.7 3.4 -2.4
v 3.8 3.4 -2.4
v 3.2 3.4 -2.5
v 3.3 3.4 -2.5
v 3.8 3.4 -2.5
v 3.9 3.4 -2.5
v 3.2 3.4 -2.6
v 3.3 3.4 -2.6
v 3.4 3.4 -2.6
v 3.6 3.4 -2.6
v 3.7 3.4 -2.6
v 3.8 3.4 -2.6
v 3.9 3.4 -2.6
v 4 3.4 -2.6
v 3.1 3.4 -2.7
v 3.2 3.4 -2.7
v 3.8 3.4 -2.7
v 3.9 3.4 -2.7
v 3.1 3.4 -2.8
v 3.2 3.4 -2.8
v 3.3 3.4 -2.8
v 3.4 3.4 -2.8
v 3.5 3.4 -2.8
v 3.6 3.4 -2.8
v 3.7 3.4 -2.8
v 3.8 3.4 -2.8
v 3.9 3.4 -2.8
v 4 3.4 -2.8
v 3.5 3.4 -2.9
v 3.7 3.4 -2.9
v 3.8 3.4 -2.9
v 3.9 3.4 -2.9
v 3.6 3.4 -3
v 3.7 3.4 -3
v 3.8 3.4 -3
v 3.6 3.4 -3.1
v 3.8 3.4 -3.1
v 3.9 3.4 -3.1
v 3.6 3.4 -3.2
v 3.7 3.4 -3.2
v 3.6 3.4 -3.3
v 3.7 3.4 -3.3
v 3.8 3.4 -3.3
v 3.9 3.4 -3.3
v 3.6 3.5 -1.9
v 3.7 3.5 -1.9
v 3.5 3.5 -2
v 3.6 3.5 -2
v 3.7 3.5 -2
v 3.5 3.5 -2.1
v 3.6 3.5 -2.1

# faces
f 3/2/1 2/2/1 1/2/1
f 4/2/1 2/2/1 3/2/1
f 8/2/1 6/2/1 5/2/1
f 9/2/1 6/2/1 8/2/1
f 10/2/1 6/2/1 9/2/1
f 11/2/1 8/2/1 7/2/1
f 12/2/1 8/2/1 11/2/1
f 17/2/1 14/2/1 13/2/1
f 18/2/1 14/2/1 17/2/1
f 19/2/1 16/2/1 15/2/1
f 20/2/1 16/2/1 19/2/1
f 21/2/1 19/2/1 18/2/1
f 22/2/1 19/2/1 21/2/1
f 25/3/1 24/3/1 23/3/1
f 26/3/1 24/3/1 25/3/1
f 30/3/1 28/3/1 27/3/1
f 31/3/1 28/3/1 30/3/1
f 34/3/1 30/3/1 29/3/1
f 35/3/1 30/3/1 34/3/1
f 36/3/1 32/3/1 31/3/1
f 37/3/1 32/3/1 36/3/1
f 40/2/1 34/2/1 33/2/1
f 41/2/1 34/2/1 40/2/1
f 43/2/1 38/2/1 37/2/1
f 44/2/1 38/2/1 43/2/1
f 46/2/1 40/2/1 39/2/1
f 47/2/1 40/2/1 46/2/1
f 48/1/1 43/1/1 42/1/1
f 49/1/1 43/1/1 48/1/1
f 50/2/1 46/2/1 45/2/1
f 51/2/1 46/2/1 50/2/1
f 54/3/1 53/3/1 52/3/1
f 56/3/1 55/3/1 54/3/1
f 58/3/1 57/3/1 56/3/1
f 60/3/1 54/3/1 52/3/1
f 60/3/1 59/3/1 58/3/1
f 60/3/1 58/3/1 56/3/1
f 60/3/1 56/3/1 54/3/1
f 61/3/1 59/3/1 60/3/1
f 62/3/1 59/3/1 61/3/1
f 64/3/1 63/3/1 62/3/1
f 64/3/1 62/3/1 61/3/1
f 65/3/1 63/3/1 64/3/1
f 66/3/1 63/3/1 65/3/1
f 67/3/1 63/3/1 66/3/1
f 68/3/1 66/3/1 65/3/1
f 69/3/1 66/3/1 68/3/1
f 71/3/1 60/3/1 52/3/1
f 72/3/1 60/3/1 71/3/1
f 75/3/1 71/3/1 70/3/1
f 76/3/1 71/3/1 75/3/1
f 77/3/1 73/3/1 72/3/1
f 78/3/1 73/3/1 77/3/1
f 80/3/1 75/3/1 74/3/1
f 81/3/1 75/3/1 80/3/1
f 82/3/1 79/3/1 78/3/1
f 83/3/1 79/3/1 82/3/1
f 89/2/1 85/2/1 84/2/1
f 90/2/1 85/2/1 89/2/1
f 94/1/1 87/1/1 86/1/1
f 95/1/1 87/1/1 94/1/1
f 96/2/1 89/2/1 88/2/1
f 97/2/1 89/2/1 96/2/1
f 98/2/1 91/2/1 90/2/1
f 99/2/1 91/2/1 98/2/1
f 100/2/1 93/2/1 92/2/1
f 101/2/1 93/2/1 100/2/1
f 109/2/1 103/2/1 102/2/1
f 109/2/1 104/2/1 103/2/1
f 110/2/1 104/2/1 109/2/1
f 111/1/1 106/1/1 105/1/1
f 112/1/1 106/1/1 111/1/1
f 113/1/1 108/1/1 107/1/1
f 114/1/1 108/1/1 113/1/1
f 120/1/1 116/1/1 115/1/1
f 121/1/1 116/1/1 120/1/1
f 122/2/1 119/2/1 118/2/1
f 122/2/1 118/2/1 117/2/1
f 123/2/1 119/2/1 122/2/1
f 126/1/1 125/1/1 124/1/1
f 127/1/1 125/1/1 126/1/1
f 128/2/2 129/2/2 130/2/2
f 130/2/2 129/2/2 131/2/2
f 132/2/2 133/2/2 134/2/2
f 134/2/2 133/2/2 135/2/2
f 136/2/2 137/2/2 142/2/2
f 142/2/2 137/2/2 143/2/2
f 138/2/2 139/2/2 145/2/2
f 145/2/2 139/2/2 146/2/2
f 140/1/2 141/1/2 147/1/2
f 147/1/2 141/1/2 148/1/2
f 144/2/2 145/2/2 149/2/2
f 149/2/2 145/2/2 150/2/2
f 151/3/2 152/3/2 153/3/2
f 153/3/2 154/3/2 155/3/2
f 151/3/2 153/3/2 157/3/2
f 155/3/2 156/3/2 157/3/2
f 153/3/2 155/3/2 157/3/2
f 157/3/2 156/3/2 158/3/2
f 158/3/2 156/3/2 159/3/2
f 159/3/2 160/3/2 161/3/2
f 158/3/2 159/3/2 161/3/2
f 161/3/2 160/3/2 162/3/2
f 162/3/2 160/3/2 163/3/2
f 163/3/2 160/3/2 164/3/2
f 162/3/2 163/3/2 165/3/2
f 165/3/2 163/3/2 166/3/2
f 167/1/2 168/1/2 173/1/2
f 173/1/2 168/1/2 174/1/2
f 169/2/2 170/2/2 175/2/2
f 175/2/2 170/2/2 176/2/2
f 171/2/2 172/2/2 177/2/2
f 177/2/2 172/2/2 178/2/2
f 179/3/2 180/3/2 182/3/2
f 182/3/2 180/3/2 183/3/2
f 181/3/2 182/3/2 186/3/2
f 186/3/2 182/3/2 187/3/2
f 183/3/2 184/3/2 188/3/2
f 188/3/2 184/3/2 189/3/2
f 185/3/2 186/3/2 192/3/2
f 192/3/2 186/3/2 193/3/2
f 189/3/2 190/3/2 194/3/2
f 194/3/2 190/3/2 195/3/2
f 191/2/2 192/2/2 199/2/2
f 199/2/2 192/2/2 200/2/2
f 196/2/2 197/2/2 206/2/2
f 206/2/2 197/2/2 207/2/2
f 198/2/2 199/2/2 208/2/2
f 199/2/2 200/2/2 208/2/2
f 200/1/2 201/1/2 209/1/2
f 208/2/2 200/2/2 209/2/2
f 209/1/2 201/1/2 210/1/2
f 202/1/2 203/1/2 211/1/2
f 211/1/2 203/1/2 212/1/2
f 204/1/2 205/1/2 213/1/2
f 205/2/2 206/2/2 214/2/2
f 213/1/2 205/1/2 214/1/2
f 214/2/2 206/2/2 215/2/2
f 216/3/2 217/3/2 219/3/2
f 219/3/2 217/3/2 220/3/2
f 218/3/2 219/3/2 223/3/2
f 223/3/2 219/3/2 224/3/2
f 220/3/2 221/3/2 225/3/2
f 225/3/2 221/3/2 226/3/2
f 222/2/2 223/2/2 229/2/2
f 229/2/2 223/2/2 230/2/2
f 227/2/2 228/2/2 234/2/2
f 234/2/2 228/2/2 235/2/2
f 230/1/2 231/1/2 237/1/2
f 237/1/2 231/1/2 238/1/2
f 232/1/2 233/1/2 239/1/2
f 239/1/2 233/1/2 240/1/2
f 235/2/2 236/2/2 241/2/2
f 241/2/2 236/2/2 242/2/2
f 243/3/2 244/3/2 245/3/2
f 245/3/2 244/3/2 246/3/2
f 247/1/2 248/1/2 249/1/2
f 249/1/2 248/1/2 250/1/2
f 251/2/2 252/2/2 255/2/2
f 255/2/2 252/2/2 256/2/2
f 253/2/2 254/2/2 257/2/2
f 257/2/2 254/2/2 258/2/2
f 259/2/2 260/2/2 261/2/2
f 261/2/2 260/2/2 262/2/2
f 265/2/3 264/2/3 263/2/3
f 266/2/3 264/2/3 265/2/3
f 269/2/3 268/2/3 267/2/3
f 270/2/3 268/2/3 269/2/3
f 273/2/3 272/2/3 271/2/3
f 274/2/3 272/2/3 273/2/3
f 277/2/3 276/2/3 275/2/3
f 278/2/3 276/2/3 277/2/3
f 281/2/3 280/2/3 279/2/3
f 282/2/3 281/2/3 279/2/3
f 283/2/3 282/2/3 279/2/3
f 284/2/3 282/2/3 283/2/3
f 289/1/3 288/1/3 287/1/3
f 290/1/3 288/1/3 289/1/3
f 291/3/3 286/3/3 285/3/3
f 292/3/3 286/3/3 291/3/3
f 294/2/3 293/2/3 292/2/3
f 295/2/3 293/2/3 294/2/3
f 299/2/3 297/2/3 296/2/3
f 300/2/3 297/2/3 299/2/3
f 302/2/3 299/2/3 298/2/3
f 303/2/3 299/2/3 302/2/3
f 305/3/3 302/3/3 301/3/3
f 306/3/3 302/3/3 305/3/3
f 307/3/3 305/3/3 304/3/3
f 308/3/3 305/3/3 307/3/3
f 312/3/3 309/3/3 308/3/3
f 313/3/3 309/3/3 312/3/3
f 314/1/3 311/1/3 310/1/3
f 315/1/3 311/1/3 314/1/3
f 316/2/3 314/2/3 313/2/3
f 317/2/3 314/2/3 316/2/3
f 320/2/3 319/2/3 318/2/3
f 321/2/3 319/2/3 320/2/3
f 325/2/3 322/2/3 321/2/3
f 326/2/3 322/2/3 325/2/3
f 328/3/3 324/3/3 323/3/3
f 329/3/3 324/3/3 328/3/3
f 331/3/3 328/3/3 327/3/3
f 332/3/3 328/3/3 331/3/3
f 333/1/3 326/1/3 325/1/3
f 334/1/3 326/1/3 333/1/3
f 335/3/3 331/3/3 330/3/3
f 336/3/3 331/3/3 335/3/3
f 338/3/3 337/3/3 336/3/3
f 339/3/3 337/3/3 338/3/3
f 343/3/3 340/3/3 339/3/3
f 344/3/3 340/3/3 343/3/3
f 345/1/3 342/1/3 341/1/3
f 346/1/3 342/1/3 345/1/3
f 349/2/3 348/2/3 347/2/3
f 350/2/3 348/2/3 349/2/3
f 353/2/3 352/2/3 351/2/3
f 354/2/3 352/2/3 353/2/3
f 357/1/3 356/1/3 355/1/3
f 358/1/3 356/1/3 357/1/3
f 361/1/3 360/1/3 359/1/3
f 362/1/3 360/1/3 361/1/3
f 365/3/3 364/3/3 363/3/3
f 366/3/3 364/3/3 365/3/3
f 369/1/3 368/1/3 367/1/3
f 370/1/3 368/1/3 369/1/3
f 376/3/3 372/3/3 371/3/3
f 377/3/3 372/3/3 376/3/3
f 378/2/3 375/2/3 374/2/3
f 378/2/3 374/2/3 373/2/3
f 379/2/3 375/2/3 378/2/3
f 380/2/3 378/2/3 373/2/3
f 381/2/3 378/2/3 380/2/3
f 382/2/3 381/2/3 380/2/3
f 383/2/3 381/2/3 382/2/3
f 386/2/3 385/2/3 384/2/3
f 387/2/3 385/2/3 386/2/3
f 390/2/3 389/2/3 388/2/3
f 391/2/3 389/2/3 390/2/3
f 392/2/4 393/2/4 394/2/4
f 394/2/4 393/2/4 395/2/4
f 396/2/4 397/2/4 398/2/4
f 398/2/4 397/2/4 399/2/4
f 400/2/4 401/2/4 402/2/4
f 402/2/4 401/2/4 403/2/4
f 404/2/4 405/2/4 406/2/4
f 406/2/4 405/2/4 407/2/4
f 408/1/4 409/1/4 410/1/4
f 410/1/4 409/1/4 411/1/4
f 412/1/4 413/1/4 414/1/4
f 414/1/4 413/1/4 415/1/4
f 416/2/4 417/2/4 419/2/4
f 419/2/4 417/2/4 420/2/4
f 418/2/4 419/2/4 421/2/4
f 421/2/4 419/2/4 422/2/4
f 422/2/4 423/2/4 426/2/4
f 426/2/4 423/2/4 427/2/4
f 424/3/4 425/3/4 429/3/4
f 429/3/4 425/3/4 430/3/4
f 426/1/4 427/1/4 431/1/4
f 431/1/4 427/1/4 432/1/4
f 428/3/4 429/3/4 436/3/4
f 436/3/4 429/3/4 437/3/4
f 433/3/4 434/3/4 438/3/4
f 435/3/4 436/3/4 439/3/4
f 438/3/4 439/3/4 442/3/4
f 433/3/4 438/3/4 442/3/4
f 439/3/4 436/3/4 443/3/4
f 442/3/4 439/3/4 443/3/4
f 440/1/4 441/1/4 445/1/4
f 445/1/4 441/1/4 446/1/4
f 443/3/4 444/3/4 447/3/4
f 447/3/4 444/3/4 448/3/4
f 448/3/4 449/3/4 452/3/4
f 452/3/4 449/3/4 453/3/4
f 450/1/4 451/1/4 454/1/4
f 454/1/4 451/1/4 455/1/4
f 456/2/4 457/2/4 458/2/4
f 458/2/4 457/2/4 459/2/4
f 460/2/4 461/2/4 463/2/4
f 463/2/4 461/2/4 464/2/4
f 462/3/4 463/3/4 469/3/4
f 469/3/4 463/3/4 470/3/4
f 464/1/4 465/1/4 471/1/4
f 466/3/4 467/3/4 472/3/4
f 472/3/4 467/3/4 473/3/4
f 470/2/4 471/2/4 474/2/4
f 471/1/4 465/1/4 474/1/4
f 474/1/4 465/1/4 475/1/4
f 468/3/4 469/3/4 476/3/4
f 476/3/4 469/3/4 477/3/4
f 470/2/4 474/2/4 478/2/4
f 478/2/4 474/2/4 479/2/4
f 477/3/4 478/3/4 481/3/4
f 478/2/4 479/2/4 482/2/4
f 481/3/4 478/3/4 482/3/4
f 479/1/4 480/1/4 483/1/4
f 482/2/4 479/2/4 483/2/4
f 483/1/4 480/1/4 484/1/4
f 482/2/4 483/2/4 485/2/4
f 485/2/4 483/2/4 486/2/4
f 487/3/4 488/3/4 491/3/4
f 491/3/4 488/3/4 492/3/4
f 489/3/4 490/3/4 493/3/4
f 493/3/4 490/3/4 494/3/4
f 495/2/4 496/2/4 501/2/4
f 501/2/4 496/2/4 502/2/4
f 497/3/4 498/3/4 504/3/4
f 504/3/4 498/3/4 505/3/4
f 499/3/4 500/3/4 506/3/4
f 506/3/4 500/3/4 507/3/4
f 502/2/4 503/2/4 509/2/4
f 509/2/4 503/2/4 510/2/4
f 508/2/4 509/2/4 511/2/4
f 511/2/4 509/2/4 512/2/4
f 513/3/4 514/3/4 517/3/4
f 517/3/4 514/3/4 518/3/4
f 515/2/4 516/2/4 519/2/4
f 515/2/4 519/2/4 520/2/4
f 520/2/4 519/2/4 521/2/4
f 522/2/4 523/2/4 524/2/4
f 524/2/4 523/2/4 525/2/4
f 526/2/4 527/2/4 528/2/4
f 528/2/4 527/2/4 529/2/4
f 532/3/5 531/3/5 530/3/5
f 533/3/5 531/3/5 532/3/5
f 536/3/5 535/3/5 534/3/5
f 537/3/5 535/3/5 536/3/5
f 540/3/5 539/3/5 538/3/5
f 541/3/5 539/3/5 540/3/5
f 544/3/5 543/3/5 542/3/5
f 545/3/5 543/3/5 544/3/5
f 548/3/5 547/3/5 546/3/5
f 549/3/5 547/3/5 548/3/5
f 553/3/5 551/3/5 550/3/5
f 554/3/5 551/3/5 553/3/5
f 556/3/5 553/3/5 552/3/5
f 557/3/5 553/3/5 556/3/5
f 558/3/5 555/3/5 554/3/5
f 559/3/5 555/3/5 558/3/5
f 560/3/5 558/3/5 557/3/5
f 561/3/5 558/3/5 560/3/5
f 565/3/5 563/3/5 562/3/5
f 566/3/5 563/3/5 565/3/5
f 569/3/5 565/3/5 564/3/5
f 570/3/5 565/3/5 569/3/5
f 571/3/5 567/3/5 566/3/5
f 572/3/5 567/3/5 571/3/5
f 574/3/5 569/3/5 568/3/5
f 575/3/5 569/3/5 574/3/5
f 578/3/5 573/3/5 572/3/5
f 579/3/5 573/3/5 578/3/5
f 580/3/5 576/3/5 575/3/5
f 581/3/5 576/3/5 580/3/5
f 582/3/5 578/3/5 577/3/5
f 583/3/5 578/3/5 582/3/5
f 584/3/5 582/3/5 581/3/5
f 585/3/5 582/3/5 584/3/5
f 588/2/5 587/2/5 586/2/5
f 589/2/5 587/2/5 588/2/5
f 592/2/5 588/2/5 586/2/5
f 593/2/5 588/2/5 592/2/5
f 594/2/5 590/2/5 589/2/5
f 595/2/5 590/2/5 594/2/5
f 598/2/5 592/2/5 591/2/5
f 599/2/5 592/2/5 598/2/5
f 600/2/5 592/2/5 599/2/5
f 601/2/5 596/2/5 595/2/5
f 602/2/5 596/2/5 601/2/5
f 603/2/5 596/2/5 602/2/5
f 605/2/5 598/2/5 597/2/5
f 605/2/5 599/2/5 598/2/5
f 606/2/5 599/2/5 605/2/5
f 607/2/5 599/2/5 606/2/5
f 610/2/5 604/2/5 603/2/5
f 610/2/5 603/2/5 602/2/5
f 611/2/5 604/2/5 610/2/5
f 612/2/5 604/2/5 611/2/5
f 613/2/5 608/2/5 607/2/5
f 613/2/5 607/2/5 606/2/5
f 614/2/5 608/2/5 613/2/5
f 616/2/5 611/2/5 610/2/5
f 616/2/5 610/2/5 609/2/5
f 617/2/5 611/2/5 616/2/5
f 618/2/5 615/2/5 614/2/5
f 621/2/5 618/2/5 614/2/5
f 621/2/5 620/2/5 619/2/5
f 621/2/5 619/2/5 618/2/5
f 622/2/5 620/2/5 621/2/5
f 623/2/5 620/2/5 622/2/5
f 624/2/5 620/2/5 623/2/5
f 625/2/5 623/2/5 622/2/5
f 626/2/5 623/2/5 625/2/5
f 631/2/5 628/2/5 627/2/5
f 632/2/5 628/2/5 631/2/5
f 633/2/5 630/2/5 629/2/5
f 634/2/5 630/2/5 633/2/5
f 637/2/5 636/2/5 635/2/5
f 638/2/5 636/2/5 637/2/5
f 641/2/5 640/2/5 639/2/5
f 642/2/5 640/2/5 641/2/5
f 645/1/5 644/1/5 643/1/5
f 646/1/5 644/1/5 645/1/5
f 651/2/5 648/2/5 647/2/5
f 652/2/5 650/2/5 649/2/5
f 653/2/5 650/2/5 652/2/5
f 654/2/5 648/2/5 651/2/5
f 655/2/5 648/2/5 654/2/5
f 659/2/5 657/2/5 656/2/5
f 660/2/5 657/2/5 659/2/5
f 661/2/5 659/2/5 658/2/5
f 662/2/5 659/2/5 661/2/5
f 663/3/6 664/3/6 665/3/6
f 665/3/6 664/3/6 666/3/6
f 667/3/6 668/3/6 669/3/6
f 669/3/6 668/3/6 670/3/6
f 671/3/6 672/3/6 673/3/6
f 673/3/6 672/3/6 674/3/6
f 675/3/6 676/3/6 677/3/6
f 677/3/6 676/3/6 678/3/6
f 679/3/6 680/3/6 681/3/6
f 681/3/6 680/3/6 682/3/6
f 683/2/6 684/2/6 686/2/6
f 684/2/6 685/2/6 686/2/6
f 686/2/6 685/2/6 687/2/6
f 683/2/6 686/2/6 691/2/6
f 688/2/6 689/2/6 692/2/6
f 692/2/6 689/2/6 693/2/6
f 690/2/6 691/2/6 696/2/6
f 696/2/6 691/2/6 697/2/6
f 691/2/6 686/2/6 698/2/6
f 697/2/6 691/2/6 698/2/6
f 693/2/6 694/2/6 701/2/6
f 701/2/6 694/2/6 702/2/6
f 702/2/6 694/2/6 703/2/6
f 695/2/6 696/2/6 705/2/6
f 700/2/6 701/2/6 706/2/6
f 706/2/6 701/2/6 707/2/6
f 705/2/6 696/2/6 708/2/6
f 708/2/6 696/2/6 709/2/6
f 698/2/6 699/2/6 712/2/6
f 712/2/6 699/2/6 713/2/6
f 703/2/6 704/2/6 716/2/6
f 702/2/6 703/2/6 716/2/6
f 716/2/6 704/2/6 717/2/6
f 717/2/6 704/2/6 718/2/6
f 710/2/6 711/2/6 719/2/6
f 709/2/6 710/2/6 719/2/6
f 719/2/6 711/2/6 720/2/6
f 713/2/6 714/2/6 722/2/6
f 722/2/6 714/2/6 723/2/6
f 716/2/6 717/2/6 724/2/6
f 715/2/6 716/2/6 724/2/6
f 724/2/6 717/2/6 725/2/6
f 720/2/6 721/2/6 726/2/6
f 720/2/6 726/2/6 729/2/6
f 729/2/6 726/2/6 730/2/6
f 727/2/6 728/2/6 731/2/6
f 731/2/6 728/2/6 732/2/6
f 730/2/6 731/2/6 733/2/6
f 733/2/6 731/2/6 734/2/6
f 734/2/6 731/2/6 735/2/6
f 736/2/6 737/2/6 740/2/6
f 740/2/6 737/2/6 741/2/6
f 738/2/6 739/2/6 743/2/6
f 743/2/6 739/2/6 744/2/6
f 742/1/6 743/1/6 747/1/6
f 743/1/6 744/1/6 747/1/6
f 745/2/6 746/2/6 749/2/6
f 749/2/6 746/2/6 750/2/6
f 747/1/6 748/1/6 752/1/6
f 742/1/6 747/1/6 752/1/6
f 752/1/6 748/1/6 753/1/6
f 753/1/6 748/1/6 754/1/6
f 754/1/6 748/1/6 755/1/6
f 753/1/6 754/1/6 759/1/6
f 755/1/6 756/1/6 760/1/6
f 757/2/6 758/2/6 761/2/6
f 761/2/6 758/2/6 762/2/6
f 750/2/6 751/2/6 763/2/6
f 751/1/6 752/1/6 764/1/6
f 763/2/6 751/2/6 764/2/6
f 764/1/6 752/1/6 765/1/6
f 765/1/6 752/1/6 766/1/6
f 753/1/6 759/1/6 767/1/6
f 759/1/6 760/1/6 767/1/6
f 767/1/6 760/1/6 768/1/6
f 760/1/6 756/1/6 769/1/6
f 768/1/6 760/1/6 769/1/6
f 769/1/6 756/1/6 770/1/6
f 765/1/6 766/1/6 771/1/6
f 766/1/6 767/1/6 771/1/6
f 771/1/6 767/1/6 772/1/6
f 768/1/6 769/1/6 773/1/6
f 773/1/6 769/1/6 774/1/6
f 772/1/6 773/1/6 776/1/6
f 776/1/6 773/1/6 777/1/6
f 775/2/6 776/2/6 778/2/6
f 776/2/6 777/2/6 778/2/6
f 778/2/6 777/2/6 779/2/6
f 781/2/6 782/2/6 783/2/6
f 783/2/6 782/2/6 784/2/6
f 779/2/6 780/2/6 785/2/6
f 785/2/6 780/2/6 786/2/6
f 787/2/6 788/2/6 790/2/6
f 790/2/6 788/2/6 791/2/6
f 789/2/6 790/2/6 792/2/6
f 792/2/6 790/2/6 793/2/6
