# MagicaVoxel @ Ephtracy

# group
o 

# material
mtllib kleines geschuetz.mtl
usemtl palette

# normals
vn -1 0 0
vn 1 0 0
vn 0 0 1
vn 0 0 -1
vn 0 -1 0
vn 0 1 0

# texcoords
vt 0.869141 0.5
vt 0.994141 0.5

# verts
v 3.2 2.3 -1.4
v 3.2 2.3 -1.5
v 3.2 2.4 -1.3
v 3.2 2.4 -1.4
v 3.2 2.4 -1.5
v 3.2 2.4 -1.6
v 3.2 2.5 -1
v 3.2 2.5 -1.3
v 3.2 2.5 -1.6
v 3.2 2.5 -1.7
v 3.2 2.6 -1
v 3.2 2.6 -1.7
v 3.4 2.3 -1.4
v 3.4 2.3 -1.5
v 3.4 2.4 -1.3
v 3.4 2.4 -1.4
v 3.4 2.4 -1.5
v 3.4 2.4 -1.6
v 3.4 2.5 -1
v 3.4 2.5 -1.3
v 3.4 2.5 -1.6
v 3.4 2.5 -1.7
v 3.4 2.6 -1
v 3.4 2.6 -1.7
v 3.2 2.5 -1
v 3.2 2.6 -1
v 3.4 2.5 -1
v 3.4 2.6 -1
v 3.2 2.4 -1.3
v 3.2 2.5 -1.3
v 3.4 2.4 -1.3
v 3.4 2.5 -1.3
v 3.2 2.3 -1.4
v 3.2 2.4 -1.4
v 3.4 2.3 -1.4
v 3.4 2.4 -1.4
v 3.2 2.3 -1.5
v 3.2 2.4 -1.5
v 3.4 2.3 -1.5
v 3.4 2.4 -1.5
v 3.2 2.4 -1.6
v 3.2 2.5 -1.6
v 3.4 2.4 -1.6
v 3.4 2.5 -1.6
v 3.2 2.5 -1.7
v 3.2 2.6 -1.7
v 3.4 2.5 -1.7
v 3.4 2.6 -1.7
v 3.2 2.3 -1.4
v 3.4 2.3 -1.4
v 3.2 2.3 -1.5
v 3.4 2.3 -1.5
v 3.2 2.4 -1.3
v 3.4 2.4 -1.3
v 3.2 2.4 -1.4
v 3.4 2.4 -1.4
v 3.2 2.4 -1.5
v 3.4 2.4 -1.5
v 3.2 2.4 -1.6
v 3.4 2.4 -1.6
v 3.2 2.5 -1
v 3.4 2.5 -1
v 3.2 2.5 -1.3
v 3.4 2.5 -1.3
v 3.2 2.5 -1.6
v 3.4 2.5 -1.6
v 3.2 2.5 -1.7
v 3.4 2.5 -1.7
v 3.2 2.6 -1
v 3.4 2.6 -1
v 3.2 2.6 -1.7
v 3.4 2.6 -1.7

# faces
f 4/2/1 2/2/1 1/2/1
f 5/2/1 2/2/1 4/2/1
f 8/2/1 4/2/1 3/2/1
f 8/2/1 6/2/1 5/2/1
f 8/2/1 5/2/1 4/2/1
f 9/2/1 6/2/1 8/2/1
f 11/1/1 8/1/1 7/1/1
f 11/1/1 10/1/1 9/1/1
f 11/1/1 9/1/1 8/1/1
f 12/1/1 10/1/1 11/1/1
f 13/2/2 14/2/2 16/2/2
f 16/2/2 14/2/2 17/2/2
f 15/2/2 16/2/2 20/2/2
f 17/2/2 18/2/2 20/2/2
f 16/2/2 17/2/2 20/2/2
f 20/2/2 18/2/2 21/2/2
f 19/1/2 20/1/2 23/1/2
f 21/1/2 22/1/2 23/1/2
f 20/1/2 21/1/2 23/1/2
f 23/1/2 22/1/2 24/1/2
f 27/1/3 26/1/3 25/1/3
f 28/1/3 26/1/3 27/1/3
f 31/2/3 30/2/3 29/2/3
f 32/2/3 30/2/3 31/2/3
f 35/2/3 34/2/3 33/2/3
f 36/2/3 34/2/3 35/2/3
f 37/2/4 38/2/4 39/2/4
f 39/2/4 38/2/4 40/2/4
f 41/2/4 42/2/4 43/2/4
f 43/2/4 42/2/4 44/2/4
f 45/1/4 46/1/4 47/1/4
f 47/1/4 46/1/4 48/1/4
f 51/2/5 50/2/5 49/2/5
f 52/2/5 50/2/5 51/2/5
f 55/2/5 54/2/5 53/2/5
f 56/2/5 54/2/5 55/2/5
f 59/2/5 58/2/5 57/2/5
f 60/2/5 58/2/5 59/2/5
f 63/1/5 62/1/5 61/1/5
f 64/1/5 62/1/5 63/1/5
f 67/1/5 66/1/5 65/1/5
f 68/1/5 66/1/5 67/1/5
f 69/1/6 70/1/6 71/1/6
f 71/1/6 70/1/6 72/1/6
