# MagicaVoxel @ Ephtracy

# group
o 

# material
mtllib stativ kleines geschuetz.mtl
usemtl palette

# normals
vn -1 0 0
vn 1 0 0
vn 0 0 1
vn 0 0 -1
vn 0 -1 0
vn 0 1 0

# texcoords
vt 0.873047 0.5
vt 0.982422 0.5

# verts
v 2.8 2 -1.1
v 2.8 2 -1.2
v 2.8 2 -1.7
v 2.8 2 -1.8
v 2.8 2.1 -1.1
v 2.8 2.1 -1.2
v 2.8 2.1 -1.7
v 2.8 2.1 -1.8
v 2.9 2.1 -1.1
v 2.9 2.1 -1.2
v 2.9 2.1 -1.7
v 2.9 2.1 -1.8
v 2.9 2.2 -1.1
v 2.9 2.2 -1.2
v 2.9 2.2 -1.7
v 2.9 2.2 -1.8
v 3 2.2 -1.1
v 3 2.2 -1.2
v 3 2.2 -1.3
v 3 2.2 -1.6
v 3 2.2 -1.7
v 3 2.2 -1.8
v 3 2.3 -1.1
v 3 2.3 -1.3
v 3 2.3 -1.6
v 3 2.3 -1.8
v 3.1 2.2 -1.3
v 3.1 2.2 -1.4
v 3.1 2.2 -1.5
v 3.1 2.2 -1.6
v 3.1 2.3 -1.3
v 3.1 2.3 -1.4
v 3.1 2.3 -1.5
v 3.1 2.3 -1.6
v 3.2 2.2 -1.4
v 3.2 2.2 -1.5
v 3.2 2.3 -1.4
v 3.2 2.3 -1.5
v 3.4 2.2 -1.2
v 3.4 2.2 -1.3
v 3.4 2.2 -1.6
v 3.4 2.2 -1.7
v 3.4 2.3 -1.2
v 3.4 2.3 -1.3
v 3.4 2.3 -1.6
v 3.4 2.3 -1.7
v 3.5 2.1 -1.1
v 3.5 2.1 -1.2
v 3.5 2.1 -1.7
v 3.5 2.1 -1.8
v 3.5 2.2 -1.1
v 3.5 2.2 -1.2
v 3.5 2.2 -1.7
v 3.5 2.2 -1.8
v 3.5 2.3 -1.1
v 3.5 2.3 -1.2
v 3.5 2.3 -1.7
v 3.5 2.3 -1.8
v 3.6 2 -1.1
v 3.6 2 -1.2
v 3.6 2 -1.7
v 3.6 2 -1.8
v 3.6 2.1 -1.1
v 3.6 2.1 -1.2
v 3.6 2.1 -1.7
v 3.6 2.1 -1.8
v 3 2 -1.1
v 3 2 -1.2
v 3 2 -1.7
v 3 2 -1.8
v 3 2.1 -1.1
v 3 2.1 -1.2
v 3 2.1 -1.7
v 3 2.1 -1.8
v 3.1 2.1 -1.1
v 3.1 2.1 -1.2
v 3.1 2.1 -1.7
v 3.1 2.1 -1.8
v 3.1 2.2 -1.1
v 3.1 2.2 -1.2
v 3.1 2.2 -1.7
v 3.1 2.2 -1.8
v 3.1 2.3 -1.1
v 3.1 2.3 -1.2
v 3.1 2.3 -1.7
v 3.1 2.3 -1.8
v 3.2 2.2 -1.2
v 3.2 2.2 -1.3
v 3.2 2.2 -1.6
v 3.2 2.2 -1.7
v 3.2 2.3 -1.2
v 3.2 2.3 -1.3
v 3.2 2.3 -1.6
v 3.2 2.3 -1.7
v 3.4 2.2 -1.4
v 3.4 2.2 -1.5
v 3.4 2.3 -1.4
v 3.4 2.3 -1.5
v 3.5 2.2 -1.3
v 3.5 2.2 -1.4
v 3.5 2.2 -1.5
v 3.5 2.2 -1.6
v 3.5 2.3 -1.3
v 3.5 2.3 -1.4
v 3.5 2.3 -1.5
v 3.5 2.3 -1.6
v 3.6 2.2 -1.1
v 3.6 2.2 -1.2
v 3.6 2.2 -1.3
v 3.6 2.2 -1.6
v 3.6 2.2 -1.7
v 3.6 2.2 -1.8
v 3.6 2.3 -1.1
v 3.6 2.3 -1.3
v 3.6 2.3 -1.6
v 3.6 2.3 -1.8
v 3.7 2.1 -1.1
v 3.7 2.1 -1.2
v 3.7 2.1 -1.7
v 3.7 2.1 -1.8
v 3.7 2.2 -1.1
v 3.7 2.2 -1.2
v 3.7 2.2 -1.7
v 3.7 2.2 -1.8
v 3.8 2 -1.1
v 3.8 2 -1.2
v 3.8 2 -1.7
v 3.8 2 -1.8
v 3.8 2.1 -1.1
v 3.8 2.1 -1.2
v 3.8 2.1 -1.7
v 3.8 2.1 -1.8
v 2.8 2 -1.1
v 2.8 2.1 -1.1
v 2.9 2.1 -1.1
v 2.9 2.2 -1.1
v 3 2 -1.1
v 3 2.1 -1.1
v 3 2.2 -1.1
v 3 2.3 -1.1
v 3.1 2.1 -1.1
v 3.1 2.2 -1.1
v 3.1 2.3 -1.1
v 3.5 2.1 -1.1
v 3.5 2.2 -1.1
v 3.5 2.3 -1.1
v 3.6 2 -1.1
v 3.6 2.1 -1.1
v 3.6 2.2 -1.1
v 3.6 2.3 -1.1
v 3.7 2.1 -1.1
v 3.7 2.2 -1.1
v 3.8 2 -1.1
v 3.8 2.1 -1.1
v 3.1 2.2 -1.2
v 3.1 2.3 -1.2
v 3.2 2.2 -1.2
v 3.2 2.3 -1.2
v 3.4 2.2 -1.2
v 3.4 2.3 -1.2
v 3.5 2.2 -1.2
v 3.5 2.3 -1.2
v 3.2 2.2 -1.3
v 3.2 2.3 -1.3
v 3.4 2.2 -1.3
v 3.4 2.3 -1.3
v 3.1 2.2 -1.5
v 3.1 2.3 -1.5
v 3.2 2.2 -1.5
v 3.2 2.3 -1.5
v 3.4 2.2 -1.5
v 3.4 2.3 -1.5
v 3.5 2.2 -1.5
v 3.5 2.3 -1.5
v 3 2.2 -1.6
v 3 2.3 -1.6
v 3.1 2.2 -1.6
v 3.1 2.3 -1.6
v 3.5 2.2 -1.6
v 3.5 2.3 -1.6
v 3.6 2.2 -1.6
v 3.6 2.3 -1.6
v 2.8 2 -1.7
v 2.8 2.1 -1.7
v 2.9 2.1 -1.7
v 2.9 2.2 -1.7
v 3 2 -1.7
v 3 2.1 -1.7
v 3 2.2 -1.7
v 3.1 2.1 -1.7
v 3.1 2.2 -1.7
v 3.5 2.1 -1.7
v 3.5 2.2 -1.7
v 3.6 2 -1.7
v 3.6 2.1 -1.7
v 3.6 2.2 -1.7
v 3.7 2.1 -1.7
v 3.7 2.2 -1.7
v 3.8 2 -1.7
v 3.8 2.1 -1.7
v 2.8 2 -1.2
v 2.8 2.1 -1.2
v 2.9 2.1 -1.2
v 2.9 2.2 -1.2
v 3 2 -1.2
v 3 2.1 -1.2
v 3 2.2 -1.2
v 3.1 2.1 -1.2
v 3.1 2.2 -1.2
v 3.5 2.1 -1.2
v 3.5 2.2 -1.2
v 3.6 2 -1.2
v 3.6 2.1 -1.2
v 3.6 2.2 -1.2
v 3.7 2.1 -1.2
v 3.7 2.2 -1.2
v 3.8 2 -1.2
v 3.8 2.1 -1.2
v 3 2.2 -1.3
v 3 2.3 -1.3
v 3.1 2.2 -1.3
v 3.1 2.3 -1.3
v 3.5 2.2 -1.3
v 3.5 2.3 -1.3
v 3.6 2.2 -1.3
v 3.6 2.3 -1.3
v 3.1 2.2 -1.4
v 3.1 2.3 -1.4
v 3.2 2.2 -1.4
v 3.2 2.3 -1.4
v 3.4 2.2 -1.4
v 3.4 2.3 -1.4
v 3.5 2.2 -1.4
v 3.5 2.3 -1.4
v 3.2 2.2 -1.6
v 3.2 2.3 -1.6
v 3.4 2.2 -1.6
v 3.4 2.3 -1.6
v 3.1 2.2 -1.7
v 3.1 2.3 -1.7
v 3.2 2.2 -1.7
v 3.2 2.3 -1.7
v 3.4 2.2 -1.7
v 3.4 2.3 -1.7
v 3.5 2.2 -1.7
v 3.5 2.3 -1.7
v 2.8 2 -1.8
v 2.8 2.1 -1.8
v 2.9 2.1 -1.8
v 2.9 2.2 -1.8
v 3 2 -1.8
v 3 2.1 -1.8
v 3 2.2 -1.8
v 3 2.3 -1.8
v 3.1 2.1 -1.8
v 3.1 2.2 -1.8
v 3.1 2.3 -1.8
v 3.5 2.1 -1.8
v 3.5 2.2 -1.8
v 3.5 2.3 -1.8
v 3.6 2 -1.8
v 3.6 2.1 -1.8
v 3.6 2.2 -1.8
v 3.6 2.3 -1.8
v 3.7 2.1 -1.8
v 3.7 2.2 -1.8
v 3.8 2 -1.8
v 3.8 2.1 -1.8
v 2.8 2 -1.1
v 3 2 -1.1
v 3.6 2 -1.1
v 3.8 2 -1.1
v 2.8 2 -1.2
v 3 2 -1.2
v 3.6 2 -1.2
v 3.8 2 -1.2
v 2.8 2 -1.7
v 3 2 -1.7
v 3.6 2 -1.7
v 3.8 2 -1.7
v 2.8 2 -1.8
v 3 2 -1.8
v 3.6 2 -1.8
v 3.8 2 -1.8
v 3 2.1 -1.1
v 3.1 2.1 -1.1
v 3.5 2.1 -1.1
v 3.6 2.1 -1.1
v 3 2.1 -1.2
v 3.1 2.1 -1.2
v 3.5 2.1 -1.2
v 3.6 2.1 -1.2
v 3 2.1 -1.7
v 3.1 2.1 -1.7
v 3.5 2.1 -1.7
v 3.6 2.1 -1.7
v 3 2.1 -1.8
v 3.1 2.1 -1.8
v 3.5 2.1 -1.8
v 3.6 2.1 -1.8
v 3 2.2 -1.2
v 3.1 2.2 -1.2
v 3.2 2.2 -1.2
v 3.4 2.2 -1.2
v 3.5 2.2 -1.2
v 3.6 2.2 -1.2
v 3 2.2 -1.3
v 3.1 2.2 -1.3
v 3.2 2.2 -1.3
v 3.4 2.2 -1.3
v 3.5 2.2 -1.3
v 3.6 2.2 -1.3
v 3.1 2.2 -1.4
v 3.2 2.2 -1.4
v 3.4 2.2 -1.4
v 3.5 2.2 -1.4
v 3.1 2.2 -1.5
v 3.2 2.2 -1.5
v 3.4 2.2 -1.5
v 3.5 2.2 -1.5
v 3 2.2 -1.6
v 3.1 2.2 -1.6
v 3.2 2.2 -1.6
v 3.4 2.2 -1.6
v 3.5 2.2 -1.6
v 3.6 2.2 -1.6
v 3 2.2 -1.7
v 3.1 2.2 -1.7
v 3.2 2.2 -1.7
v 3.4 2.2 -1.7
v 3.5 2.2 -1.7
v 3.6 2.2 -1.7
v 2.8 2.1 -1.1
v 2.9 2.1 -1.1
v 3.7 2.1 -1.1
v 3.8 2.1 -1.1
v 2.8 2.1 -1.2
v 2.9 2.1 -1.2
v 3.7 2.1 -1.2
v 3.8 2.1 -1.2
v 2.8 2.1 -1.7
v 2.9 2.1 -1.7
v 3.7 2.1 -1.7
v 3.8 2.1 -1.7
v 2.8 2.1 -1.8
v 2.9 2.1 -1.8
v 3.7 2.1 -1.8
v 3.8 2.1 -1.8
v 2.9 2.2 -1.1
v 3 2.2 -1.1
v 3.6 2.2 -1.1
v 3.7 2.2 -1.1
v 2.9 2.2 -1.2
v 3 2.2 -1.2
v 3.6 2.2 -1.2
v 3.7 2.2 -1.2
v 2.9 2.2 -1.7
v 3 2.2 -1.7
v 3.6 2.2 -1.7
v 3.7 2.2 -1.7
v 2.9 2.2 -1.8
v 3 2.2 -1.8
v 3.6 2.2 -1.8
v 3.7 2.2 -1.8
v 3 2.3 -1.1
v 3.1 2.3 -1.1
v 3.5 2.3 -1.1
v 3.6 2.3 -1.1
v 3.1 2.3 -1.2
v 3.2 2.3 -1.2
v 3.4 2.3 -1.2
v 3.5 2.3 -1.2
v 3 2.3 -1.3
v 3.1 2.3 -1.3
v 3.2 2.3 -1.3
v 3.4 2.3 -1.3
v 3.5 2.3 -1.3
v 3.6 2.3 -1.3
v 3.1 2.3 -1.4
v 3.2 2.3 -1.4
v 3.4 2.3 -1.4
v 3.5 2.3 -1.4
v 3.1 2.3 -1.5
v 3.2 2.3 -1.5
v 3.4 2.3 -1.5
v 3.5 2.3 -1.5
v 3 2.3 -1.6
v 3.1 2.3 -1.6
v 3.2 2.3 -1.6
v 3.4 2.3 -1.6
v 3.5 2.3 -1.6
v 3.6 2.3 -1.6
v 3.1 2.3 -1.7
v 3.2 2.3 -1.7
v 3.4 2.3 -1.7
v 3.5 2.3 -1.7
v 3 2.3 -1.8
v 3.1 2.3 -1.8
v 3.5 2.3 -1.8
v 3.6 2.3 -1.8

# faces
f 5/2/1 2/2/1 1/2/1
f 6/2/1 2/2/1 5/2/1
f 7/2/1 4/2/1 3/2/1
f 8/2/1 4/2/1 7/2/1
f 13/2/1 10/2/1 9/2/1
f 14/2/1 10/2/1 13/2/1
f 15/2/1 12/2/1 11/2/1
f 16/2/1 12/2/1 15/2/1
f 23/1/1 18/1/1 17/1/1
f 23/1/1 19/1/1 18/1/1
f 24/1/1 19/1/1 23/1/1
f 25/1/1 22/1/1 21/1/1
f 25/1/1 21/1/1 20/1/1
f 26/1/1 22/1/1 25/1/1
f 31/1/1 28/1/1 27/1/1
f 32/1/1 28/1/1 31/1/1
f 33/1/1 30/1/1 29/1/1
f 34/1/1 30/1/1 33/1/1
f 37/1/1 36/1/1 35/1/1
f 38/1/1 36/1/1 37/1/1
f 43/1/1 40/1/1 39/1/1
f 44/1/1 40/1/1 43/1/1
f 45/1/1 42/1/1 41/1/1
f 46/1/1 42/1/1 45/1/1
f 51/2/1 48/2/1 47/2/1
f 52/2/1 48/2/1 51/2/1
f 53/2/1 50/2/1 49/2/1
f 54/2/1 50/2/1 53/2/1
f 55/1/1 52/1/1 51/1/1
f 56/1/1 52/1/1 55/1/1
f 57/1/1 54/1/1 53/1/1
f 58/1/1 54/1/1 57/1/1
f 63/2/1 60/2/1 59/2/1
f 64/2/1 60/2/1 63/2/1
f 65/2/1 62/2/1 61/2/1
f 66/2/1 62/2/1 65/2/1
f 67/2/2 68/2/2 71/2/2
f 71/2/2 68/2/2 72/2/2
f 69/2/2 70/2/2 73/2/2
f 73/2/2 70/2/2 74/2/2
f 75/2/2 76/2/2 79/2/2
f 79/2/2 76/2/2 80/2/2
f 77/2/2 78/2/2 81/2/2
f 81/2/2 78/2/2 82/2/2
f 79/1/2 80/1/2 83/1/2
f 83/1/2 80/1/2 84/1/2
f 81/1/2 82/1/2 85/1/2
f 85/1/2 82/1/2 86/1/2
f 87/1/2 88/1/2 91/1/2
f 91/1/2 88/1/2 92/1/2
f 89/1/2 90/1/2 93/1/2
f 93/1/2 90/1/2 94/1/2
f 95/1/2 96/1/2 97/1/2
f 97/1/2 96/1/2 98/1/2
f 99/1/2 100/1/2 103/1/2
f 103/1/2 100/1/2 104/1/2
f 101/1/2 102/1/2 105/1/2
f 105/1/2 102/1/2 106/1/2
f 107/1/2 108/1/2 113/1/2
f 108/1/2 109/1/2 113/1/2
f 113/1/2 109/1/2 114/1/2
f 111/1/2 112/1/2 115/1/2
f 110/1/2 111/1/2 115/1/2
f 115/1/2 112/1/2 116/1/2
f 117/2/2 118/2/2 121/2/2
f 121/2/2 118/2/2 122/2/2
f 119/2/2 120/2/2 123/2/2
f 123/2/2 120/2/2 124/2/2
f 125/2/2 126/2/2 129/2/2
f 129/2/2 126/2/2 130/2/2
f 127/2/2 128/2/2 131/2/2
f 131/2/2 128/2/2 132/2/2
f 135/2/3 134/2/3 133/2/3
f 137/2/3 135/2/3 133/2/3
f 137/2/3 136/2/3 135/2/3
f 138/2/3 136/2/3 137/2/3
f 139/2/3 136/2/3 138/2/3
f 141/2/3 139/2/3 138/2/3
f 142/1/3 140/1/3 139/1/3
f 142/2/3 139/2/3 141/2/3
f 143/1/3 140/1/3 142/1/3
f 148/2/3 145/2/3 144/2/3
f 149/1/3 146/1/3 145/1/3
f 149/2/3 145/2/3 148/2/3
f 150/1/3 146/1/3 149/1/3
f 151/2/3 148/2/3 147/2/3
f 151/2/3 149/2/3 148/2/3
f 152/2/3 149/2/3 151/2/3
f 153/2/3 151/2/3 147/2/3
f 154/2/3 151/2/3 153/2/3
f 157/1/3 156/1/3 155/1/3
f 158/1/3 156/1/3 157/1/3
f 161/1/3 160/1/3 159/1/3
f 162/1/3 160/1/3 161/1/3
f 165/1/3 164/1/3 163/1/3
f 166/1/3 164/1/3 165/1/3
f 169/1/3 168/1/3 167/1/3
f 170/1/3 168/1/3 169/1/3
f 173/1/3 172/1/3 171/1/3
f 174/1/3 172/1/3 173/1/3
f 177/1/3 176/1/3 175/1/3
f 178/1/3 176/1/3 177/1/3
f 181/1/3 180/1/3 179/1/3
f 182/1/3 180/1/3 181/1/3
f 185/2/3 184/2/3 183/2/3
f 187/2/3 185/2/3 183/2/3
f 187/2/3 186/2/3 185/2/3
f 188/2/3 186/2/3 187/2/3
f 189/2/3 186/2/3 188/2/3
f 190/2/3 189/2/3 188/2/3
f 191/2/3 189/2/3 190/2/3
f 195/2/3 193/2/3 192/2/3
f 196/2/3 193/2/3 195/2/3
f 197/2/3 195/2/3 194/2/3
f 197/2/3 196/2/3 195/2/3
f 198/2/3 196/2/3 197/2/3
f 199/2/3 197/2/3 194/2/3
f 200/2/3 197/2/3 199/2/3
f 201/2/4 202/2/4 203/2/4
f 201/2/4 203/2/4 205/2/4
f 203/2/4 204/2/4 205/2/4
f 205/2/4 204/2/4 206/2/4
f 206/2/4 204/2/4 207/2/4
f 206/2/4 207/2/4 208/2/4
f 208/2/4 207/2/4 209/2/4
f 210/2/4 211/2/4 213/2/4
f 213/2/4 211/2/4 214/2/4
f 212/2/4 213/2/4 215/2/4
f 213/2/4 214/2/4 215/2/4
f 215/2/4 214/2/4 216/2/4
f 212/2/4 215/2/4 217/2/4
f 217/2/4 215/2/4 218/2/4
f 219/1/4 220/1/4 221/1/4
f 221/1/4 220/1/4 222/1/4
f 223/1/4 224/1/4 225/1/4
f 225/1/4 224/1/4 226/1/4
f 227/1/4 228/1/4 229/1/4
f 229/1/4 228/1/4 230/1/4
f 231/1/4 232/1/4 233/1/4
f 233/1/4 232/1/4 234/1/4
f 235/1/4 236/1/4 237/1/4
f 237/1/4 236/1/4 238/1/4
f 239/1/4 240/1/4 241/1/4
f 241/1/4 240/1/4 242/1/4
f 243/1/4 244/1/4 245/1/4
f 245/1/4 244/1/4 246/1/4
f 247/2/4 248/2/4 249/2/4
f 247/2/4 249/2/4 251/2/4
f 249/2/4 250/2/4 251/2/4
f 251/2/4 250/2/4 252/2/4
f 252/2/4 250/2/4 253/2/4
f 252/2/4 253/2/4 255/2/4
f 253/1/4 254/1/4 256/1/4
f 255/2/4 253/2/4 256/2/4
f 256/1/4 254/1/4 257/1/4
f 258/2/4 259/2/4 262/2/4
f 259/1/4 260/1/4 263/1/4
f 262/2/4 259/2/4 263/2/4
f 263/1/4 260/1/4 264/1/4
f 261/2/4 262/2/4 265/2/4
f 262/2/4 263/2/4 265/2/4
f 265/2/4 263/2/4 266/2/4
f 261/2/4 265/2/4 267/2/4
f 267/2/4 265/2/4 268/2/4
f 273/2/5 270/2/5 269/2/5
f 274/2/5 270/2/5 273/2/5
f 275/2/5 272/2/5 271/2/5
f 276/2/5 272/2/5 275/2/5
f 281/2/5 278/2/5 277/2/5
f 282/2/5 278/2/5 281/2/5
f 283/2/5 280/2/5 279/2/5
f 284/2/5 280/2/5 283/2/5
f 289/2/5 286/2/5 285/2/5
f 290/2/5 286/2/5 289/2/5
f 291/2/5 288/2/5 287/2/5
f 292/2/5 288/2/5 291/2/5
f 297/2/5 294/2/5 293/2/5
f 298/2/5 294/2/5 297/2/5
f 299/2/5 296/2/5 295/2/5
f 300/2/5 296/2/5 299/2/5
f 307/1/5 302/1/5 301/1/5
f 307/1/5 303/1/5 302/1/5
f 308/1/5 303/1/5 307/1/5
f 309/1/5 303/1/5 308/1/5
f 310/1/5 306/1/5 305/1/5
f 310/1/5 305/1/5 304/1/5
f 311/1/5 306/1/5 310/1/5
f 312/1/5 306/1/5 311/1/5
f 313/1/5 309/1/5 308/1/5
f 313/1/5 311/1/5 310/1/5
f 313/1/5 310/1/5 309/1/5
f 314/1/5 311/1/5 313/1/5
f 315/1/5 311/1/5 314/1/5
f 316/1/5 311/1/5 315/1/5
f 318/1/5 315/1/5 314/1/5
f 319/1/5 315/1/5 318/1/5
f 322/1/5 318/1/5 317/1/5
f 322/1/5 320/1/5 319/1/5
f 322/1/5 319/1/5 318/1/5
f 323/1/5 320/1/5 322/1/5
f 324/1/5 320/1/5 323/1/5
f 325/1/5 320/1/5 324/1/5
f 327/1/5 322/1/5 321/1/5
f 327/1/5 323/1/5 322/1/5
f 328/1/5 323/1/5 327/1/5
f 329/1/5 323/1/5 328/1/5
f 330/1/5 325/1/5 324/1/5
f 330/1/5 326/1/5 325/1/5
f 331/1/5 326/1/5 330/1/5
f 332/1/5 326/1/5 331/1/5
f 333/2/6 334/2/6 337/2/6
f 337/2/6 334/2/6 338/2/6
f 335/2/6 336/2/6 339/2/6
f 339/2/6 336/2/6 340/2/6
f 341/2/6 342/2/6 345/2/6
f 345/2/6 342/2/6 346/2/6
f 343/2/6 344/2/6 347/2/6
f 347/2/6 344/2/6 348/2/6
f 349/2/6 350/2/6 353/2/6
f 353/2/6 350/2/6 354/2/6
f 351/2/6 352/2/6 355/2/6
f 355/2/6 352/2/6 356/2/6
f 357/2/6 358/2/6 361/2/6
f 361/2/6 358/2/6 362/2/6
f 359/2/6 360/2/6 363/2/6
f 363/2/6 360/2/6 364/2/6
f 365/1/6 366/1/6 369/1/6
f 367/1/6 368/1/6 372/1/6
f 369/1/6 370/1/6 373/1/6
f 365/1/6 369/1/6 373/1/6
f 373/1/6 370/1/6 374/1/6
f 374/1/6 370/1/6 375/1/6
f 371/1/6 372/1/6 376/1/6
f 372/1/6 368/1/6 377/1/6
f 376/1/6 372/1/6 377/1/6
f 377/1/6 368/1/6 378/1/6
f 374/1/6 375/1/6 379/1/6
f 375/1/6 376/1/6 379/1/6
f 376/1/6 377/1/6 379/1/6
f 379/1/6 377/1/6 380/1/6
f 380/1/6 377/1/6 381/1/6
f 381/1/6 377/1/6 382/1/6
f 380/1/6 381/1/6 384/1/6
f 384/1/6 381/1/6 385/1/6
f 383/1/6 384/1/6 388/1/6
f 385/1/6 386/1/6 388/1/6
f 384/1/6 385/1/6 388/1/6
f 388/1/6 386/1/6 389/1/6
f 389/1/6 386/1/6 390/1/6
f 390/1/6 386/1/6 391/1/6
f 387/1/6 388/1/6 393/1/6
f 388/1/6 389/1/6 393/1/6
f 393/1/6 389/1/6 394/1/6
f 390/1/6 391/1/6 395/1/6
f 391/1/6 392/1/6 395/1/6
f 395/1/6 392/1/6 396/1/6
f 387/1/6 393/1/6 397/1/6
f 397/1/6 393/1/6 398/1/6
f 396/1/6 392/1/6 399/1/6
f 399/1/6 392/1/6 400/1/6
