# MagicaVoxel @ Ephtracy

# group
o 

# material
mtllib Buergersteig 2.mtl
usemtl palette

# normals
vn -1 0 0
vn 1 0 0
vn 0 0 1
vn 0 0 -1
vn 0 -1 0
vn 0 1 0

# texcoords
vt 0.0917969 0.5
vt 0.974609 0.5
vt 0.978516 0.5
vt 0.982422 0.5
vt 0.986328 0.5
vt 0.990234 0.5

# verts
v 2.5 2 0
v 2.5 2 -0.7
v 2.5 2 -0.8
v 2.5 2 -2.1
v 2.5 2 -2.2
v 2.5 2 -3.3
v 2.5 2 -3.4
v 2.5 2 -4.4
v 2.5 2 -4.5
v 2.5 2 -5.4
v 2.5 2 -5.5
v 2.5 2.1 0
v 2.5 2.1 -0.7
v 2.5 2.1 -0.8
v 2.5 2.1 -2.1
v 2.5 2.1 -2.2
v 2.5 2.1 -3.3
v 2.5 2.1 -3.4
v 2.5 2.1 -4.4
v 2.5 2.1 -4.5
v 2.5 2.1 -5.4
v 2.5 2.1 -5.5
v 5.5 2 0
v 5.5 2 -0.5
v 5.5 2 -0.6
v 5.5 2 -1.7
v 5.5 2 -1.8
v 5.5 2 -2.7
v 5.5 2 -2.8
v 5.5 2 -3.9
v 5.5 2 -4
v 5.5 2 -5
v 5.5 2 -5.1
v 5.5 2 -5.5
v 5.5 2.1 0
v 5.5 2.1 -0.5
v 5.5 2.1 -0.6
v 5.5 2.1 -1.7
v 5.5 2.1 -1.8
v 5.5 2.1 -2.7
v 5.5 2.1 -2.8
v 5.5 2.1 -3.9
v 5.5 2.1 -4
v 5.5 2.1 -5
v 5.5 2.1 -5.1
v 5.5 2.1 -5.5
v 2.5 2 0
v 2.5 2.1 0
v 2.8 2 0
v 2.8 2.1 0
v 4.2 2 0
v 4.2 2.1 0
v 4.3 2 0
v 4.3 2.1 0
v 5.2 2 0
v 5.2 2.1 0
v 5.5 2 0
v 5.5 2.1 0
v 2.5 2 -5.5
v 2.5 2.1 -5.5
v 2.8 2 -5.5
v 2.8 2.1 -5.5
v 5.2 2 -5.5
v 5.2 2.1 -5.5
v 5.5 2 -5.5
v 5.5 2.1 -5.5
v 2.5 2 0
v 2.8 2 0
v 4.2 2 0
v 4.3 2 0
v 5.2 2 0
v 5.5 2 0
v 2.8 2 -0.1
v 2.9 2 -0.1
v 4.2 2 -0.1
v 4.3 2 -0.1
v 4.6 2 -0.1
v 5 2 -0.1
v 2.9 2 -0.2
v 3.2 2 -0.2
v 4.5 2 -0.2
v 4.6 2 -0.2
v 5 2 -0.2
v 5.1 2 -0.2
v 3.2 2 -0.3
v 3.6 2 -0.3
v 4.4 2 -0.3
v 4.5 2 -0.3
v 5.1 2 -0.3
v 5.2 2 -0.3
v 3.6 2 -0.4
v 3.7 2 -0.4
v 4.3 2 -0.5
v 4.4 2 -0.5
v 5.2 2 -0.5
v 5.5 2 -0.5
v 5.2 2 -0.6
v 5.5 2 -0.6
v 2.5 2 -0.7
v 2.8 2 -0.7
v 3.6 2 -0.7
v 3.7 2 -0.7
v 4.2 2 -0.7
v 4.3 2 -0.7
v 2.5 2 -0.8
v 2.8 2 -0.8
v 3.1 2 -0.8
v 3.5 2 -0.8
v 3.6 2 -0.8
v 3.5 2 -0.9
v 3.6 2 -0.9
v 3.1 2 -1
v 3.5 2 -1
v 5 2 -1
v 5.2 2 -1
v 4.2 2 -1.1
v 4.4 2 -1.1
v 4.8 2 -1.1
v 5 2 -1.1
v 3.1 2 -1.2
v 3.4 2 -1.2
v 3.9 2 -1.2
v 4.4 2 -1.2
v 4.8 2 -1.2
v 2.8 2 -1.3
v 3.1 2 -1.3
v 3.4 2 -1.3
v 3.5 2 -1.3
v 3.7 2 -1.3
v 3.9 2 -1.3
v 4.4 2 -1.3
v 4.6 2 -1.3
v 3.5 2 -1.4
v 3.7 2 -1.4
v 4.6 2 -1.4
v 4.7 2 -1.4
v 4.7 2 -1.5
v 4.8 2 -1.5
v 4.8 2 -1.6
v 4.9 2 -1.6
v 4.9 2 -1.7
v 5 2 -1.7
v 5.2 2 -1.7
v 5.5 2 -1.7
v 5 2 -1.8
v 5.1 2 -1.8
v 5.2 2 -1.8
v 5.5 2 -1.8
v 5.1 2 -1.9
v 5.2 2 -1.9
v 2.5 2 -2.1
v 2.8 2 -2.1
v 2.5 2 -2.2
v 2.8 2 -2.2
v 5.1 2 -2.4
v 5.2 2 -2.4
v 3.6 2 -2.5
v 3.7 2 -2.5
v 5 2 -2.5
v 5.1 2 -2.5
v 3.4 2 -2.6
v 3.6 2 -2.6
v 3.7 2 -2.6
v 3.9 2 -2.6
v 4.9 2 -2.6
v 5 2 -2.6
v 3.3 2 -2.7
v 3.4 2 -2.7
v 3.9 2 -2.7
v 4.9 2 -2.7
v 5 2 -2.7
v 5.1 2 -2.7
v 5.2 2 -2.7
v 5.5 2 -2.7
v 3.2 2 -2.8
v 3.3 2 -2.8
v 5 2 -2.8
v 5.1 2 -2.8
v 5.2 2 -2.8
v 5.5 2 -2.8
v 2.9 2 -2.9
v 3.2 2 -2.9
v 2.8 2 -3
v 2.9 2 -3
v 2.5 2 -3.3
v 2.8 2 -3.3
v 4.7 2 -3.3
v 5 2 -3.3
v 2.5 2 -3.4
v 2.8 2 -3.4
v 3.5 2 -3.4
v 3.9 2 -3.4
v 2.8 2 -3.5
v 3.2 2 -3.5
v 3.4 2 -3.5
v 3.5 2 -3.5
v 3.9 2 -3.5
v 4 2 -3.5
v 3.2 2 -3.6
v 3.4 2 -3.6
v 4 2 -3.6
v 4.1 2 -3.6
v 4.7 2 -3.6
v 5 2 -3.6
v 4.1 2 -3.7
v 4.2 2 -3.7
v 5.2 2 -3.9
v 5.5 2 -3.9
v 4.2 2 -4
v 4.3 2 -4
v 4.7 2 -4
v 5 2 -4
v 5.2 2 -4
v 5.5 2 -4
v 4.3 2 -4.1
v 4.4 2 -4.1
v 4.7 2 -4.3
v 5 2 -4.3
v 2.5 2 -4.4
v 2.8 2 -4.4
v 2.5 2 -4.5
v 2.8 2 -4.5
v 4.3 2 -4.6
v 4.4 2 -4.6
v 4.2 2 -4.7
v 4.3 2 -4.7
v 4.1 2 -4.9
v 4.2 2 -4.9
v 4 2 -5
v 4.1 2 -5
v 5.2 2 -5
v 5.5 2 -5
v 3.9 2 -5.1
v 4 2 -5.1
v 5.2 2 -5.1
v 5.5 2 -5.1
v 3.6 2 -5.2
v 3.9 2 -5.2
v 3.1 2 -5.3
v 3.6 2 -5.3
v 4.6 2 -5.3
v 4.7 2 -5.3
v 2.5 2 -5.4
v 2.8 2 -5.4
v 3.1 2 -5.4
v 4.6 2 -5.4
v 4.7 2 -5.4
v 2.5 2 -5.5
v 2.8 2 -5.5
v 5.2 2 -5.5
v 5.5 2 -5.5
v 2.5 2.1 0
v 2.8 2.1 0
v 4.2 2.1 0
v 4.3 2.1 0
v 5.2 2.1 0
v 5.5 2.1 0
v 2.8 2.1 -0.1
v 2.9 2.1 -0.1
v 4.2 2.1 -0.1
v 4.3 2.1 -0.1
v 4.6 2.1 -0.1
v 5 2.1 -0.1
v 2.9 2.1 -0.2
v 3.2 2.1 -0.2
v 4.5 2.1 -0.2
v 4.6 2.1 -0.2
v 5 2.1 -0.2
v 5.1 2.1 -0.2
v 3.2 2.1 -0.3
v 3.6 2.1 -0.3
v 4.4 2.1 -0.3
v 4.5 2.1 -0.3
v 5.1 2.1 -0.3
v 5.2 2.1 -0.3
v 3.6 2.1 -0.4
v 3.7 2.1 -0.4
v 4.3 2.1 -0.5
v 4.4 2.1 -0.5
v 5.2 2.1 -0.5
v 5.5 2.1 -0.5
v 5.2 2.1 -0.6
v 5.5 2.1 -0.6
v 2.5 2.1 -0.7
v 2.8 2.1 -0.7
v 3.6 2.1 -0.7
v 3.7 2.1 -0.7
v 4.2 2.1 -0.7
v 4.3 2.1 -0.7
v 2.5 2.1 -0.8
v 2.8 2.1 -0.8
v 3.1 2.1 -0.8
v 3.5 2.1 -0.8
v 3.6 2.1 -0.8
v 3.5 2.1 -0.9
v 3.6 2.1 -0.9
v 3.1 2.1 -1
v 3.5 2.1 -1
v 5 2.1 -1
v 5.2 2.1 -1
v 4.2 2.1 -1.1
v 4.4 2.1 -1.1
v 4.8 2.1 -1.1
v 5 2.1 -1.1
v 3.1 2.1 -1.2
v 3.4 2.1 -1.2
v 3.9 2.1 -1.2
v 4.4 2.1 -1.2
v 4.8 2.1 -1.2
v 2.8 2.1 -1.3
v 3.1 2.1 -1.3
v 3.4 2.1 -1.3
v 3.5 2.1 -1.3
v 3.7 2.1 -1.3
v 3.9 2.1 -1.3
v 4.4 2.1 -1.3
v 4.6 2.1 -1.3
v 3.5 2.1 -1.4
v 3.7 2.1 -1.4
v 4.6 2.1 -1.4
v 4.7 2.1 -1.4
v 4.7 2.1 -1.5
v 4.8 2.1 -1.5
v 4.8 2.1 -1.6
v 4.9 2.1 -1.6
v 4.9 2.1 -1.7
v 5 2.1 -1.7
v 5.2 2.1 -1.7
v 5.5 2.1 -1.7
v 5 2.1 -1.8
v 5.1 2.1 -1.8
v 5.2 2.1 -1.8
v 5.5 2.1 -1.8
v 5.1 2.1 -1.9
v 5.2 2.1 -1.9
v 2.5 2.1 -2.1
v 2.8 2.1 -2.1
v 2.5 2.1 -2.2
v 2.8 2.1 -2.2
v 5.1 2.1 -2.4
v 5.2 2.1 -2.4
v 3.6 2.1 -2.5
v 3.7 2.1 -2.5
v 5 2.1 -2.5
v 5.1 2.1 -2.5
v 3.4 2.1 -2.6
v 3.6 2.1 -2.6
v 3.7 2.1 -2.6
v 3.9 2.1 -2.6
v 4.9 2.1 -2.6
v 5 2.1 -2.6
v 3.3 2.1 -2.7
v 3.4 2.1 -2.7
v 3.9 2.1 -2.7
v 4.9 2.1 -2.7
v 5 2.1 -2.7
v 5.1 2.1 -2.7
v 5.2 2.1 -2.7
v 5.5 2.1 -2.7
v 3.2 2.1 -2.8
v 3.3 2.1 -2.8
v 5 2.1 -2.8
v 5.1 2.1 -2.8
v 5.2 2.1 -2.8
v 5.5 2.1 -2.8
v 2.9 2.1 -2.9
v 3.2 2.1 -2.9
v 2.8 2.1 -3
v 2.9 2.1 -3
v 2.5 2.1 -3.3
v 2.8 2.1 -3.3
v 4.7 2.1 -3.3
v 5 2.1 -3.3
v 2.5 2.1 -3.4
v 2.8 2.1 -3.4
v 3.5 2.1 -3.4
v 3.9 2.1 -3.4
v 2.8 2.1 -3.5
v 3.2 2.1 -3.5
v 3.4 2.1 -3.5
v 3.5 2.1 -3.5
v 3.9 2.1 -3.5
v 4 2.1 -3.5
v 3.2 2.1 -3.6
v 3.4 2.1 -3.6
v 4 2.1 -3.6
v 4.1 2.1 -3.6
v 4.7 2.1 -3.6
v 5 2.1 -3.6
v 4.1 2.1 -3.7
v 4.2 2.1 -3.7
v 5.2 2.1 -3.9
v 5.5 2.1 -3.9
v 4.2 2.1 -4
v 4.3 2.1 -4
v 4.7 2.1 -4
v 5 2.1 -4
v 5.2 2.1 -4
v 5.5 2.1 -4
v 4.3 2.1 -4.1
v 4.4 2.1 -4.1
v 4.7 2.1 -4.3
v 5 2.1 -4.3
v 2.5 2.1 -4.4
v 2.8 2.1 -4.4
v 2.5 2.1 -4.5
v 2.8 2.1 -4.5
v 4.3 2.1 -4.6
v 4.4 2.1 -4.6
v 4.2 2.1 -4.7
v 4.3 2.1 -4.7
v 4.1 2.1 -4.9
v 4.2 2.1 -4.9
v 4 2.1 -5
v 4.1 2.1 -5
v 5.2 2.1 -5
v 5.5 2.1 -5
v 3.9 2.1 -5.1
v 4 2.1 -5.1
v 5.2 2.1 -5.1
v 5.5 2.1 -5.1
v 3.6 2.1 -5.2
v 3.9 2.1 -5.2
v 3.1 2.1 -5.3
v 3.6 2.1 -5.3
v 4.6 2.1 -5.3
v 4.7 2.1 -5.3
v 2.5 2.1 -5.4
v 2.8 2.1 -5.4
v 3.1 2.1 -5.4
v 4.6 2.1 -5.4
v 4.7 2.1 -5.4
v 2.5 2.1 -5.5
v 2.8 2.1 -5.5
v 5.2 2.1 -5.5
v 5.5 2.1 -5.5

# faces
f 12/4/1 2/4/1 1/4/1
f 13/6/1 3/6/1 2/6/1
f 13/4/1 2/4/1 12/4/1
f 14/4/1 4/4/1 3/4/1
f 14/6/1 3/6/1 13/6/1
f 15/6/1 5/6/1 4/6/1
f 15/4/1 4/4/1 14/4/1
f 16/4/1 6/4/1 5/4/1
f 16/6/1 5/6/1 15/6/1
f 17/6/1 7/6/1 6/6/1
f 17/4/1 6/4/1 16/4/1
f 18/4/1 8/4/1 7/4/1
f 18/6/1 7/6/1 17/6/1
f 19/6/1 9/6/1 8/6/1
f 19/4/1 8/4/1 18/4/1
f 20/4/1 10/4/1 9/4/1
f 20/6/1 9/6/1 19/6/1
f 21/6/1 11/6/1 10/6/1
f 21/4/1 10/4/1 20/4/1
f 22/6/1 11/6/1 21/6/1
f 23/4/2 24/4/2 35/4/2
f 24/6/2 25/6/2 36/6/2
f 35/4/2 24/4/2 36/4/2
f 25/4/2 26/4/2 37/4/2
f 36/6/2 25/6/2 37/6/2
f 26/6/2 27/6/2 38/6/2
f 37/4/2 26/4/2 38/4/2
f 27/4/2 28/4/2 39/4/2
f 38/6/2 27/6/2 39/6/2
f 28/6/2 29/6/2 40/6/2
f 39/4/2 28/4/2 40/4/2
f 29/4/2 30/4/2 41/4/2
f 40/6/2 29/6/2 41/6/2
f 30/6/2 31/6/2 42/6/2
f 41/4/2 30/4/2 42/4/2
f 31/4/2 32/4/2 43/4/2
f 42/6/2 31/6/2 43/6/2
f 32/6/2 33/6/2 44/6/2
f 43/4/2 32/4/2 44/4/2
f 33/4/2 34/4/2 45/4/2
f 44/6/2 33/6/2 45/6/2
f 45/4/2 34/4/2 46/4/2
f 49/4/3 48/4/3 47/4/3
f 50/4/3 48/4/3 49/4/3
f 51/2/3 50/2/3 49/2/3
f 52/2/3 50/2/3 51/2/3
f 53/5/3 52/5/3 51/5/3
f 54/5/3 52/5/3 53/5/3
f 55/2/3 54/2/3 53/2/3
f 56/2/3 54/2/3 55/2/3
f 57/4/3 56/4/3 55/4/3
f 58/4/3 56/4/3 57/4/3
f 59/6/4 60/6/4 61/6/4
f 61/6/4 60/6/4 62/6/4
f 61/2/4 62/2/4 63/2/4
f 63/2/4 62/2/4 64/2/4
f 63/4/4 64/4/4 65/4/4
f 65/4/4 64/4/4 66/4/4
f 73/4/5 68/4/5 67/4/5
f 73/2/5 69/2/5 68/2/5
f 74/2/5 69/2/5 73/2/5
f 75/5/5 70/5/5 69/5/5
f 75/2/5 69/2/5 74/2/5
f 76/2/5 71/2/5 70/2/5
f 76/5/5 70/5/5 75/5/5
f 77/2/5 71/2/5 76/2/5
f 78/2/5 71/2/5 77/2/5
f 79/2/5 75/2/5 74/2/5
f 79/5/5 74/5/5 73/5/5
f 79/2/5 76/2/5 75/2/5
f 79/2/5 77/2/5 76/2/5
f 80/2/5 77/2/5 79/2/5
f 81/2/5 77/2/5 80/2/5
f 82/5/5 78/5/5 77/5/5
f 82/2/5 77/2/5 81/2/5
f 83/2/5 71/2/5 78/2/5
f 83/5/5 78/5/5 82/5/5
f 84/2/5 71/2/5 83/2/5
f 85/2/5 81/2/5 80/2/5
f 85/5/5 80/5/5 79/5/5
f 86/2/5 81/2/5 85/2/5
f 87/2/5 81/2/5 86/2/5
f 88/5/5 82/5/5 81/5/5
f 88/2/5 81/2/5 87/2/5
f 88/5/5 84/5/5 83/5/5
f 88/5/5 83/5/5 82/5/5
f 89/2/5 71/2/5 84/2/5
f 89/5/5 84/5/5 88/5/5
f 90/4/5 72/4/5 71/4/5
f 90/2/5 71/2/5 89/2/5
f 91/2/5 87/2/5 86/2/5
f 91/5/5 86/5/5 85/5/5
f 92/2/5 87/2/5 91/2/5
f 93/2/5 87/2/5 92/2/5
f 94/5/5 89/5/5 88/5/5
f 94/2/5 87/2/5 93/2/5
f 94/5/5 88/5/5 87/5/5
f 94/5/5 90/5/5 89/5/5
f 95/4/5 72/4/5 90/4/5
f 95/5/5 90/5/5 94/5/5
f 96/4/5 72/4/5 95/4/5
f 97/5/5 94/5/5 93/5/5
f 97/5/5 95/5/5 94/5/5
f 97/6/5 96/6/5 95/6/5
f 98/6/5 96/6/5 97/6/5
f 99/4/5 73/4/5 67/4/5
f 100/5/5 79/5/5 73/5/5
f 100/4/5 73/4/5 99/4/5
f 100/5/5 91/5/5 85/5/5
f 100/5/5 85/5/5 79/5/5
f 101/3/5 92/3/5 91/3/5
f 101/5/5 91/5/5 100/5/5
f 102/2/5 93/2/5 92/2/5
f 102/3/5 92/3/5 101/3/5
f 103/2/5 93/2/5 102/2/5
f 104/5/5 97/5/5 93/5/5
f 104/2/5 93/2/5 103/2/5
f 105/6/5 100/6/5 99/6/5
f 106/5/5 101/5/5 100/5/5
f 106/6/5 100/6/5 105/6/5
f 107/5/5 101/5/5 106/5/5
f 108/5/5 101/5/5 107/5/5
f 109/2/5 103/2/5 102/2/5
f 109/5/5 101/5/5 108/5/5
f 109/2/5 102/2/5 101/2/5
f 110/5/5 108/5/5 107/5/5
f 110/3/5 109/3/5 108/3/5
f 111/2/5 103/2/5 109/2/5
f 111/3/5 109/3/5 110/3/5
f 112/5/5 110/5/5 107/5/5
f 112/2/5 107/2/5 106/2/5
f 113/2/5 111/2/5 110/2/5
f 113/5/5 110/5/5 112/5/5
f 114/5/5 97/5/5 104/5/5
f 114/5/5 104/5/5 103/5/5
f 115/4/5 98/4/5 97/4/5
f 115/5/5 97/5/5 114/5/5
f 116/2/5 111/2/5 113/2/5
f 116/5/5 114/5/5 103/5/5
f 116/2/5 103/2/5 111/2/5
f 116/2/5 113/2/5 112/2/5
f 117/5/5 114/5/5 116/5/5
f 118/5/5 114/5/5 117/5/5
f 119/2/5 115/2/5 114/2/5
f 119/5/5 114/5/5 118/5/5
f 120/2/5 112/2/5 106/2/5
f 120/2/5 116/2/5 112/2/5
f 120/2/5 117/2/5 116/2/5
f 121/2/5 117/2/5 120/2/5
f 122/2/5 117/2/5 121/2/5
f 123/5/5 118/5/5 117/5/5
f 123/2/5 117/2/5 122/2/5
f 124/2/5 119/2/5 118/2/5
f 124/5/5 118/5/5 123/5/5
f 125/4/5 106/4/5 105/4/5
f 125/2/5 120/2/5 106/2/5
f 126/5/5 121/5/5 120/5/5
f 126/2/5 120/2/5 125/2/5
f 127/2/5 122/2/5 121/2/5
f 127/5/5 121/5/5 126/5/5
f 128/2/5 122/2/5 127/2/5
f 129/2/5 122/2/5 128/2/5
f 130/5/5 123/5/5 122/5/5
f 130/2/5 122/2/5 129/2/5
f 131/2/5 124/2/5 123/2/5
f 131/5/5 123/5/5 130/5/5
f 132/2/5 124/2/5 131/2/5
f 133/5/5 126/5/5 125/5/5
f 133/2/5 129/2/5 128/2/5
f 133/5/5 127/5/5 126/5/5
f 133/5/5 128/5/5 127/5/5
f 134/5/5 132/5/5 131/5/5
f 134/2/5 129/2/5 133/2/5
f 134/5/5 130/5/5 129/5/5
f 134/5/5 131/5/5 130/5/5
f 135/2/5 124/2/5 132/2/5
f 135/5/5 132/5/5 134/5/5
f 136/2/5 124/2/5 135/2/5
f 137/5/5 134/5/5 133/5/5
f 137/2/5 124/2/5 136/2/5
f 137/5/5 136/5/5 135/5/5
f 137/5/5 135/5/5 134/5/5
f 138/2/5 119/2/5 124/2/5
f 138/2/5 124/2/5 137/2/5
f 139/5/5 138/5/5 137/5/5
f 139/2/5 119/2/5 138/2/5
f 140/2/5 119/2/5 139/2/5
f 141/5/5 140/5/5 139/5/5
f 141/2/5 119/2/5 140/2/5
f 142/2/5 115/2/5 119/2/5
f 142/2/5 119/2/5 141/2/5
f 143/4/5 98/4/5 115/4/5
f 143/2/5 115/2/5 142/2/5
f 144/4/5 98/4/5 143/4/5
f 145/5/5 142/5/5 141/5/5
f 145/2/5 143/2/5 142/2/5
f 146/2/5 143/2/5 145/2/5
f 147/6/5 144/6/5 143/6/5
f 147/2/5 143/2/5 146/2/5
f 148/6/5 144/6/5 147/6/5
f 149/5/5 146/5/5 145/5/5
f 149/2/5 147/2/5 146/2/5
f 150/4/5 148/4/5 147/4/5
f 150/2/5 147/2/5 149/2/5
f 151/4/5 125/4/5 105/4/5
f 152/5/5 137/5/5 133/5/5
f 152/4/5 125/4/5 151/4/5
f 152/5/5 141/5/5 139/5/5
f 152/5/5 150/5/5 149/5/5
f 152/5/5 149/5/5 145/5/5
f 152/5/5 145/5/5 141/5/5
f 152/5/5 133/5/5 125/5/5
f 152/5/5 139/5/5 137/5/5
f 153/6/5 152/6/5 151/6/5
f 154/5/5 150/5/5 152/5/5
f 154/6/5 152/6/5 153/6/5
f 155/5/5 150/5/5 154/5/5
f 156/4/5 148/4/5 150/4/5
f 156/5/5 150/5/5 155/5/5
f 157/5/5 155/5/5 154/5/5
f 158/5/5 155/5/5 157/5/5
f 159/5/5 155/5/5 158/5/5
f 160/2/5 156/2/5 155/2/5
f 160/5/5 155/5/5 159/5/5
f 161/5/5 157/5/5 154/5/5
f 162/2/5 158/2/5 157/2/5
f 162/5/5 157/5/5 161/5/5
f 163/5/5 159/5/5 158/5/5
f 163/2/5 158/2/5 162/2/5
f 164/5/5 159/5/5 163/5/5
f 165/5/5 159/5/5 164/5/5
f 166/2/5 160/2/5 159/2/5
f 166/5/5 159/5/5 165/5/5
f 167/5/5 161/5/5 154/5/5
f 168/2/5 162/2/5 161/2/5
f 168/5/5 161/5/5 167/5/5
f 168/2/5 163/2/5 162/2/5
f 168/2/5 164/2/5 163/2/5
f 169/5/5 165/5/5 164/5/5
f 169/2/5 164/2/5 168/2/5
f 170/2/5 166/2/5 165/2/5
f 170/5/5 165/5/5 169/5/5
f 171/2/5 160/2/5 166/2/5
f 171/2/5 166/2/5 170/2/5
f 172/2/5 156/2/5 160/2/5
f 172/2/5 160/2/5 171/2/5
f 173/4/5 148/4/5 156/4/5
f 173/2/5 156/2/5 172/2/5
f 174/4/5 148/4/5 173/4/5
f 175/5/5 167/5/5 154/5/5
f 176/2/5 171/2/5 170/2/5
f 176/5/5 167/5/5 175/5/5
f 176/2/5 170/2/5 169/2/5
f 176/2/5 168/2/5 167/2/5
f 176/2/5 169/2/5 168/2/5
f 177/5/5 172/5/5 171/5/5
f 177/2/5 171/2/5 176/2/5
f 178/2/5 173/2/5 172/2/5
f 178/5/5 172/5/5 177/5/5
f 179/6/5 174/6/5 173/6/5
f 179/2/5 173/2/5 178/2/5
f 180/6/5 174/6/5 179/6/5
f 181/5/5 175/5/5 154/5/5
f 182/2/5 176/2/5 175/2/5
f 182/5/5 175/5/5 181/5/5
f 182/2/5 178/2/5 177/2/5
f 182/2/5 177/2/5 176/2/5
f 182/2/5 179/2/5 178/2/5
f 183/5/5 181/5/5 154/5/5
f 183/4/5 154/4/5 153/4/5
f 184/2/5 182/2/5 181/2/5
f 184/5/5 181/5/5 183/5/5
f 185/4/5 183/4/5 153/4/5
f 186/2/5 184/2/5 183/2/5
f 186/4/5 183/4/5 185/4/5
f 187/2/5 179/2/5 182/2/5
f 187/2/5 184/2/5 186/2/5
f 187/2/5 182/2/5 184/2/5
f 188/2/5 179/2/5 187/2/5
f 189/6/5 186/6/5 185/6/5
f 190/2/5 187/2/5 186/2/5
f 190/6/5 186/6/5 189/6/5
f 191/2/5 187/2/5 190/2/5
f 192/2/5 187/2/5 191/2/5
f 193/4/5 190/4/5 189/4/5
f 193/2/5 191/2/5 190/2/5
f 194/2/5 191/2/5 193/2/5
f 195/2/5 191/2/5 194/2/5
f 196/5/5 192/5/5 191/5/5
f 196/2/5 191/2/5 195/2/5
f 197/2/5 187/2/5 192/2/5
f 197/5/5 192/5/5 196/5/5
f 198/2/5 187/2/5 197/2/5
f 199/2/5 195/2/5 194/2/5
f 199/5/5 194/5/5 193/5/5
f 200/5/5 196/5/5 195/5/5
f 200/2/5 195/2/5 199/2/5
f 200/5/5 198/5/5 197/5/5
f 200/5/5 197/5/5 196/5/5
f 201/2/5 187/2/5 198/2/5
f 201/5/5 198/5/5 200/5/5
f 202/2/5 187/2/5 201/2/5
f 203/1/5 188/1/5 187/1/5
f 203/2/5 187/2/5 202/2/5
f 204/2/5 179/2/5 188/2/5
f 204/1/5 188/1/5 203/1/5
f 205/2/5 203/2/5 202/2/5
f 205/5/5 202/5/5 201/5/5
f 205/2/5 204/2/5 203/2/5
f 205/5/5 201/5/5 200/5/5
f 205/5/5 200/5/5 199/5/5
f 206/2/5 204/2/5 205/2/5
f 207/2/5 179/2/5 204/2/5
f 207/2/5 204/2/5 206/2/5
f 207/4/5 180/4/5 179/4/5
f 208/4/5 180/4/5 207/4/5
f 209/5/5 206/5/5 205/5/5
f 209/2/5 207/2/5 206/2/5
f 210/2/5 207/2/5 209/2/5
f 211/2/5 207/2/5 210/2/5
f 212/2/5 207/2/5 211/2/5
f 213/6/5 208/6/5 207/6/5
f 213/2/5 207/2/5 212/2/5
f 214/6/5 208/6/5 213/6/5
f 215/5/5 210/5/5 209/5/5
f 215/2/5 211/2/5 210/2/5
f 216/2/5 211/2/5 215/2/5
f 217/1/5 212/1/5 211/1/5
f 217/2/5 211/2/5 216/2/5
f 218/2/5 213/2/5 212/2/5
f 218/1/5 212/1/5 217/1/5
f 219/4/5 193/4/5 189/4/5
f 220/5/5 205/5/5 199/5/5
f 220/4/5 193/4/5 219/4/5
f 220/5/5 199/5/5 193/5/5
f 220/5/5 216/5/5 215/5/5
f 220/5/5 215/5/5 209/5/5
f 220/5/5 209/5/5 205/5/5
f 221/6/5 220/6/5 219/6/5
f 222/5/5 216/5/5 220/5/5
f 222/6/5 220/6/5 221/6/5
f 223/5/5 216/5/5 222/5/5
f 224/2/5 218/2/5 217/2/5
f 224/5/5 216/5/5 223/5/5
f 224/2/5 217/2/5 216/2/5
f 225/5/5 223/5/5 222/5/5
f 226/2/5 224/2/5 223/2/5
f 226/5/5 223/5/5 225/5/5
f 227/5/5 225/5/5 222/5/5
f 228/2/5 226/2/5 225/2/5
f 228/5/5 225/5/5 227/5/5
f 229/5/5 227/5/5 222/5/5
f 230/2/5 228/2/5 227/2/5
f 230/5/5 227/5/5 229/5/5
f 231/2/5 213/2/5 218/2/5
f 231/2/5 228/2/5 230/2/5
f 231/2/5 218/2/5 224/2/5
f 231/4/5 214/4/5 213/4/5
f 231/2/5 226/2/5 228/2/5
f 231/2/5 224/2/5 226/2/5
f 232/4/5 214/4/5 231/4/5
f 233/5/5 229/5/5 222/5/5
f 234/2/5 230/2/5 229/2/5
f 234/5/5 229/5/5 233/5/5
f 234/2/5 231/2/5 230/2/5
f 235/6/5 232/6/5 231/6/5
f 235/2/5 231/2/5 234/2/5
f 236/6/5 232/6/5 235/6/5
f 237/5/5 233/5/5 222/5/5
f 238/2/5 234/2/5 233/2/5
f 238/5/5 233/5/5 237/5/5
f 238/2/5 235/2/5 234/2/5
f 239/5/5 237/5/5 222/5/5
f 240/2/5 238/2/5 237/2/5
f 240/5/5 237/5/5 239/5/5
f 241/2/5 235/2/5 238/2/5
f 241/2/5 238/2/5 240/2/5
f 242/2/5 235/2/5 241/2/5
f 243/4/5 222/4/5 221/4/5
f 244/5/5 239/5/5 222/5/5
f 244/4/5 222/4/5 243/4/5
f 245/2/5 240/2/5 239/2/5
f 245/5/5 239/5/5 244/5/5
f 245/2/5 241/2/5 240/2/5
f 246/5/5 242/5/5 241/5/5
f 246/2/5 241/2/5 245/2/5
f 247/2/5 235/2/5 242/2/5
f 247/5/5 242/5/5 246/5/5
f 248/6/5 244/6/5 243/6/5
f 249/2/5 246/2/5 245/2/5
f 249/6/5 244/6/5 248/6/5
f 249/2/5 245/2/5 244/2/5
f 249/2/5 247/2/5 246/2/5
f 250/2/5 235/2/5 247/2/5
f 250/2/5 247/2/5 249/2/5
f 250/4/5 236/4/5 235/4/5
f 251/4/5 236/4/5 250/4/5
f 252/4/6 253/4/6 258/4/6
f 253/2/6 254/2/6 258/2/6
f 258/2/6 254/2/6 259/2/6
f 254/5/6 255/5/6 260/5/6
f 259/2/6 254/2/6 260/2/6
f 255/2/6 256/2/6 261/2/6
f 260/5/6 255/5/6 261/5/6
f 261/2/6 256/2/6 262/2/6
f 262/2/6 256/2/6 263/2/6
f 259/2/6 260/2/6 264/2/6
f 258/5/6 259/5/6 264/5/6
f 260/2/6 261/2/6 264/2/6
f 261/2/6 262/2/6 264/2/6
f 264/2/6 262/2/6 265/2/6
f 265/2/6 262/2/6 266/2/6
f 262/5/6 263/5/6 267/5/6
f 266/2/6 262/2/6 267/2/6
f 263/2/6 256/2/6 268/2/6
f 267/5/6 263/5/6 268/5/6
f 268/2/6 256/2/6 269/2/6
f 265/2/6 266/2/6 270/2/6
f 264/5/6 265/5/6 270/5/6
f 270/2/6 266/2/6 271/2/6
f 271/2/6 266/2/6 272/2/6
f 266/5/6 267/5/6 273/5/6
f 272/2/6 266/2/6 273/2/6
f 268/5/6 269/5/6 273/5/6
f 267/5/6 268/5/6 273/5/6
f 269/2/6 256/2/6 274/2/6
f 273/5/6 269/5/6 274/5/6
f 256/4/6 257/4/6 275/4/6
f 274/2/6 256/2/6 275/2/6
f 271/2/6 272/2/6 276/2/6
f 270/5/6 271/5/6 276/5/6
f 276/2/6 272/2/6 277/2/6
f 277/2/6 272/2/6 278/2/6
f 273/5/6 274/5/6 279/5/6
f 278/2/6 272/2/6 279/2/6
f 272/5/6 273/5/6 279/5/6
f 274/5/6 275/5/6 279/5/6
f 275/4/6 257/4/6 280/4/6
f 279/5/6 275/5/6 280/5/6
f 280/4/6 257/4/6 281/4/6
f 278/5/6 279/5/6 282/5/6
f 279/5/6 280/5/6 282/5/6
f 280/6/6 281/6/6 282/6/6
f 282/6/6 281/6/6 283/6/6
f 252/4/6 258/4/6 284/4/6
f 258/5/6 264/5/6 285/5/6
f 284/4/6 258/4/6 285/4/6
f 270/5/6 276/5/6 285/5/6
f 264/5/6 270/5/6 285/5/6
f 276/3/6 277/3/6 286/3/6
f 285/5/6 276/5/6 286/5/6
f 277/2/6 278/2/6 287/2/6
f 286/3/6 277/3/6 287/3/6
f 287/2/6 278/2/6 288/2/6
f 278/5/6 282/5/6 289/5/6
f 288/2/6 278/2/6 289/2/6
f 284/6/6 285/6/6 290/6/6
f 285/5/6 286/5/6 291/5/6
f 290/6/6 285/6/6 291/6/6
f 291/5/6 286/5/6 292/5/6
f 292/5/6 286/5/6 293/5/6
f 287/2/6 288/2/6 294/2/6
f 293/5/6 286/5/6 294/5/6
f 286/2/6 287/2/6 294/2/6
f 292/5/6 293/5/6 295/5/6
f 293/3/6 294/3/6 295/3/6
f 294/2/6 288/2/6 296/2/6
f 295/3/6 294/3/6 296/3/6
f 292/5/6 295/5/6 297/5/6
f 291/2/6 292/2/6 297/2/6
f 295/2/6 296/2/6 298/2/6
f 297/5/6 295/5/6 298/5/6
f 289/5/6 282/5/6 299/5/6
f 288/5/6 289/5/6 299/5/6
f 282/4/6 283/4/6 300/4/6
f 299/5/6 282/5/6 300/5/6
f 298/2/6 296/2/6 301/2/6
f 288/5/6 299/5/6 301/5/6
f 296/2/6 288/2/6 301/2/6
f 297/2/6 298/2/6 301/2/6
f 301/5/6 299/5/6 302/5/6
f 302/5/6 299/5/6 303/5/6
f 299/2/6 300/2/6 304/2/6
f 303/5/6 299/5/6 304/5/6
f 291/2/6 297/2/6 305/2/6
f 297/2/6 301/2/6 305/2/6
f 301/2/6 302/2/6 305/2/6
f 305/2/6 302/2/6 306/2/6
f 306/2/6 302/2/6 307/2/6
f 302/5/6 303/5/6 308/5/6
f 307/2/6 302/2/6 308/2/6
f 303/2/6 304/2/6 309/2/6
f 308/5/6 303/5/6 309/5/6
f 290/4/6 291/4/6 310/4/6
f 291/2/6 305/2/6 310/2/6
f 305/5/6 306/5/6 311/5/6
f 310/2/6 305/2/6 311/2/6
f 306/2/6 307/2/6 312/2/6
f 311/5/6 306/5/6 312/5/6
f 312/2/6 307/2/6 313/2/6
f 313/2/6 307/2/6 314/2/6
f 307/5/6 308/5/6 315/5/6
f 314/2/6 307/2/6 315/2/6
f 308/2/6 309/2/6 316/2/6
f 315/5/6 308/5/6 316/5/6
f 316/2/6 309/2/6 317/2/6
f 310/5/6 311/5/6 318/5/6
f 313/2/6 314/2/6 318/2/6
f 311/5/6 312/5/6 318/5/6
f 312/5/6 313/5/6 318/5/6
f 316/5/6 317/5/6 319/5/6
f 318/2/6 314/2/6 319/2/6
f 314/5/6 315/5/6 319/5/6
f 315/5/6 316/5/6 319/5/6
f 317/2/6 309/2/6 320/2/6
f 319/5/6 317/5/6 320/5/6
f 320/2/6 309/2/6 321/2/6
f 318/5/6 319/5/6 322/5/6
f 321/2/6 309/2/6 322/2/6
f 320/5/6 321/5/6 322/5/6
f 319/5/6 320/5/6 322/5/6
f 309/2/6 304/2/6 323/2/6
f 322/2/6 309/2/6 323/2/6
f 322/5/6 323/5/6 324/5/6
f 323/2/6 304/2/6 324/2/6
f 324/2/6 304/2/6 325/2/6
f 324/5/6 325/5/6 326/5/6
f 325/2/6 304/2/6 326/2/6
f 304/2/6 300/2/6 327/2/6
f 326/2/6 304/2/6 327/2/6
f 300/4/6 283/4/6 328/4/6
f 327/2/6 300/2/6 328/2/6
f 328/4/6 283/4/6 329/4/6
f 326/5/6 327/5/6 330/5/6
f 327/2/6 328/2/6 330/2/6
f 330/2/6 328/2/6 331/2/6
f 328/6/6 329/6/6 332/6/6
f 331/2/6 328/2/6 332/2/6
f 332/6/6 329/6/6 333/6/6
f 330/5/6 331/5/6 334/5/6
f 331/2/6 332/2/6 334/2/6
f 332/4/6 333/4/6 335/4/6
f 334/2/6 332/2/6 335/2/6
f 290/4/6 310/4/6 336/4/6
f 318/5/6 322/5/6 337/5/6
f 336/4/6 310/4/6 337/4/6
f 324/5/6 326/5/6 337/5/6
f 334/5/6 335/5/6 337/5/6
f 330/5/6 334/5/6 337/5/6
f 326/5/6 330/5/6 337/5/6
f 310/5/6 318/5/6 337/5/6
f 322/5/6 324/5/6 337/5/6
f 336/6/6 337/6/6 338/6/6
f 337/5/6 335/5/6 339/5/6
f 338/6/6 337/6/6 339/6/6
f 339/5/6 335/5/6 340/5/6
f 335/4/6 333/4/6 341/4/6
f 340/5/6 335/5/6 341/5/6
f 339/5/6 340/5/6 342/5/6
f 342/5/6 340/5/6 343/5/6
f 343/5/6 340/5/6 344/5/6
f 340/2/6 341/2/6 345/2/6
f 344/5/6 340/5/6 345/5/6
f 339/5/6 342/5/6 346/5/6
f 342/2/6 343/2/6 347/2/6
f 346/5/6 342/5/6 347/5/6
f 343/5/6 344/5/6 348/5/6
f 347/2/6 343/2/6 348/2/6
f 348/5/6 344/5/6 349/5/6
f 349/5/6 344/5/6 350/5/6
f 344/2/6 345/2/6 351/2/6
f 350/5/6 344/5/6 351/5/6
f 339/5/6 346/5/6 352/5/6
f 346/2/6 347/2/6 353/2/6
f 352/5/6 346/5/6 353/5/6
f 347/2/6 348/2/6 353/2/6
f 348/2/6 349/2/6 353/2/6
f 349/5/6 350/5/6 354/5/6
f 353/2/6 349/2/6 354/2/6
f 350/2/6 351/2/6 355/2/6
f 354/5/6 350/5/6 355/5/6
f 351/2/6 345/2/6 356/2/6
f 355/2/6 351/2/6 356/2/6
f 345/2/6 341/2/6 357/2/6
f 356/2/6 345/2/6 357/2/6
f 341/4/6 333/4/6 358/4/6
f 357/2/6 341/2/6 358/2/6
f 358/4/6 333/4/6 359/4/6
f 339/5/6 352/5/6 360/5/6
f 355/2/6 356/2/6 361/2/6
f 360/5/6 352/5/6 361/5/6
f 354/2/6 355/2/6 361/2/6
f 352/2/6 353/2/6 361/2/6
f 353/2/6 354/2/6 361/2/6
f 356/5/6 357/5/6 362/5/6
f 361/2/6 356/2/6 362/2/6
f 357/2/6 358/2/6 363/2/6
f 362/5/6 357/5/6 363/5/6
f 358/6/6 359/6/6 364/6/6
f 363/2/6 358/2/6 364/2/6
f 364/6/6 359/6/6 365/6/6
f 339/5/6 360/5/6 366/5/6
f 360/2/6 361/2/6 367/2/6
f 366/5/6 360/5/6 367/5/6
f 362/2/6 363/2/6 367/2/6
f 361/2/6 362/2/6 367/2/6
f 363/2/6 364/2/6 367/2/6
f 339/5/6 366/5/6 368/5/6
f 338/4/6 339/4/6 368/4/6
f 366/2/6 367/2/6 369/2/6
f 368/5/6 366/5/6 369/5/6
f 338/4/6 368/4/6 370/4/6
f 368/2/6 369/2/6 371/2/6
f 370/4/6 368/4/6 371/4/6
f 367/2/6 364/2/6 372/2/6
f 371/2/6 369/2/6 372/2/6
f 369/2/6 367/2/6 372/2/6
f 372/2/6 364/2/6 373/2/6
f 370/6/6 371/6/6 374/6/6
f 371/2/6 372/2/6 375/2/6
f 374/6/6 371/6/6 375/6/6
f 375/2/6 372/2/6 376/2/6
f 376/2/6 372/2/6 377/2/6
f 374/4/6 375/4/6 378/4/6
f 375/2/6 376/2/6 378/2/6
f 378/2/6 376/2/6 379/2/6
f 379/2/6 376/2/6 380/2/6
f 376/5/6 377/5/6 381/5/6
f 380/2/6 376/2/6 381/2/6
f 377/2/6 372/2/6 382/2/6
f 381/5/6 377/5/6 382/5/6
f 382/2/6 372/2/6 383/2/6
f 379/2/6 380/2/6 384/2/6
f 378/5/6 379/5/6 384/5/6
f 380/5/6 381/5/6 385/5/6
f 384/2/6 380/2/6 385/2/6
f 382/5/6 383/5/6 385/5/6
f 381/5/6 382/5/6 385/5/6
f 383/2/6 372/2/6 386/2/6
f 385/5/6 383/5/6 386/5/6
f 386/2/6 372/2/6 387/2/6
f 372/1/6 373/1/6 388/1/6
f 387/2/6 372/2/6 388/2/6
f 373/2/6 364/2/6 389/2/6
f 388/1/6 373/1/6 389/1/6
f 387/2/6 388/2/6 390/2/6
f 386/5/6 387/5/6 390/5/6
f 388/2/6 389/2/6 390/2/6
f 385/5/6 386/5/6 390/5/6
f 384/5/6 385/5/6 390/5/6
f 390/2/6 389/2/6 391/2/6
f 389/2/6 364/2/6 392/2/6
f 391/2/6 389/2/6 392/2/6
f 364/4/6 365/4/6 392/4/6
f 392/4/6 365/4/6 393/4/6
f 390/5/6 391/5/6 394/5/6
f 391/2/6 392/2/6 394/2/6
f 394/2/6 392/2/6 395/2/6
f 395/2/6 392/2/6 396/2/6
f 396/2/6 392/2/6 397/2/6
f 392/6/6 393/6/6 398/6/6
f 397/2/6 392/2/6 398/2/6
f 398/6/6 393/6/6 399/6/6
f 394/5/6 395/5/6 400/5/6
f 395/2/6 396/2/6 400/2/6
f 400/2/6 396/2/6 401/2/6
f 396/1/6 397/1/6 402/1/6
f 401/2/6 396/2/6 402/2/6
f 397/2/6 398/2/6 403/2/6
f 402/1/6 397/1/6 403/1/6
f 374/4/6 378/4/6 404/4/6
f 384/5/6 390/5/6 405/5/6
f 404/4/6 378/4/6 405/4/6
f 378/5/6 384/5/6 405/5/6
f 400/5/6 401/5/6 405/5/6
f 394/5/6 400/5/6 405/5/6
f 390/5/6 394/5/6 405/5/6
f 404/6/6 405/6/6 406/6/6
f 405/5/6 401/5/6 407/5/6
f 406/6/6 405/6/6 407/6/6
f 407/5/6 401/5/6 408/5/6
f 402/2/6 403/2/6 409/2/6
f 408/5/6 401/5/6 409/5/6
f 401/2/6 402/2/6 409/2/6
f 407/5/6 408/5/6 410/5/6
f 408/2/6 409/2/6 411/2/6
f 410/5/6 408/5/6 411/5/6
f 407/5/6 410/5/6 412/5/6
f 410/2/6 411/2/6 413/2/6
f 412/5/6 410/5/6 413/5/6
f 407/5/6 412/5/6 414/5/6
f 412/2/6 413/2/6 415/2/6
f 414/5/6 412/5/6 415/5/6
f 403/2/6 398/2/6 416/2/6
f 415/2/6 413/2/6 416/2/6
f 409/2/6 403/2/6 416/2/6
f 398/4/6 399/4/6 416/4/6
f 413/2/6 411/2/6 416/2/6
f 411/2/6 409/2/6 416/2/6
f 416/4/6 399/4/6 417/4/6
f 407/5/6 414/5/6 418/5/6
f 414/2/6 415/2/6 419/2/6
f 418/5/6 414/5/6 419/5/6
f 415/2/6 416/2/6 419/2/6
f 416/6/6 417/6/6 420/6/6
f 419/2/6 416/2/6 420/2/6
f 420/6/6 417/6/6 421/6/6
f 407/5/6 418/5/6 422/5/6
f 418/2/6 419/2/6 423/2/6
f 422/5/6 418/5/6 423/5/6
f 419/2/6 420/2/6 423/2/6
f 407/5/6 422/5/6 424/5/6
f 422/2/6 423/2/6 425/2/6
f 424/5/6 422/5/6 425/5/6
f 423/2/6 420/2/6 426/2/6
f 425/2/6 423/2/6 426/2/6
f 426/2/6 420/2/6 427/2/6
f 406/4/6 407/4/6 428/4/6
f 407/5/6 424/5/6 429/5/6
f 428/4/6 407/4/6 429/4/6
f 424/2/6 425/2/6 430/2/6
f 429/5/6 424/5/6 430/5/6
f 425/2/6 426/2/6 430/2/6
f 426/5/6 427/5/6 431/5/6
f 430/2/6 426/2/6 431/2/6
f 427/2/6 420/2/6 432/2/6
f 431/5/6 427/5/6 432/5/6
f 428/6/6 429/6/6 433/6/6
f 430/2/6 431/2/6 434/2/6
f 433/6/6 429/6/6 434/6/6
f 429/2/6 430/2/6 434/2/6
f 431/2/6 432/2/6 434/2/6
f 432/2/6 420/2/6 435/2/6
f 434/2/6 432/2/6 435/2/6
f 420/4/6 421/4/6 435/4/6
f 435/4/6 421/4/6 436/4/6
