# MagicaVoxel @ Ephtracy

# group
o 

# material
mtllib Buergersteig kurz.mtl
usemtl palette

# normals
vn -1 0 0
vn 1 0 0
vn 0 0 1
vn 0 0 -1
vn 0 -1 0
vn 0 1 0

# texcoords
vt 0.974609 0.5
vt 0.978516 0.5
vt 0.982422 0.5
vt 0.986328 0.5
vt 0.990234 0.5

# verts
v 2.5 2 0
v 2.5 2 -0.7
v 2.5 2 -0.8
v 2.5 2 -2.1
v 2.5 2 -2.2
v 2.5 2 -3.1
v 2.5 2.1 0
v 2.5 2.1 -0.7
v 2.5 2.1 -0.8
v 2.5 2.1 -2.1
v 2.5 2.1 -2.2
v 2.5 2.1 -3.1
v 5.5 2 0
v 5.5 2 -0.5
v 5.5 2 -0.6
v 5.5 2 -1.7
v 5.5 2 -1.8
v 5.5 2 -2.7
v 5.5 2 -2.8
v 5.5 2 -3.1
v 5.5 2.1 0
v 5.5 2.1 -0.5
v 5.5 2.1 -0.6
v 5.5 2.1 -1.7
v 5.5 2.1 -1.8
v 5.5 2.1 -2.7
v 5.5 2.1 -2.8
v 5.5 2.1 -3.1
v 2.5 2 0
v 2.5 2.1 0
v 2.8 2 0
v 2.8 2.1 0
v 2.9 2 0
v 2.9 2.1 0
v 3.1 2 0
v 3.1 2.1 0
v 4.2 2 0
v 4.2 2.1 0
v 4.3 2 0
v 4.3 2.1 0
v 5.2 2 0
v 5.2 2.1 0
v 5.5 2 0
v 5.5 2.1 0
v 2.5 2 -3.1
v 2.5 2.1 -3.1
v 2.8 2 -3.1
v 2.8 2.1 -3.1
v 5.2 2 -3.1
v 5.2 2.1 -3.1
v 5.5 2 -3.1
v 5.5 2.1 -3.1
v 2.5 2 0
v 2.8 2 0
v 2.9 2 0
v 3.1 2 0
v 4.2 2 0
v 4.3 2 0
v 5.2 2 0
v 5.5 2 0
v 4.2 2 -0.1
v 4.3 2 -0.1
v 4.6 2 -0.1
v 5 2 -0.1
v 3.1 2 -0.2
v 3.5 2 -0.2
v 4.5 2 -0.2
v 4.6 2 -0.2
v 5 2 -0.2
v 5.1 2 -0.2
v 3.5 2 -0.3
v 3.6 2 -0.3
v 4.4 2 -0.3
v 4.5 2 -0.3
v 5.1 2 -0.3
v 5.2 2 -0.3
v 3.6 2 -0.4
v 3.7 2 -0.4
v 4.3 2 -0.5
v 4.4 2 -0.5
v 5.2 2 -0.5
v 5.5 2 -0.5
v 5.2 2 -0.6
v 5.5 2 -0.6
v 2.5 2 -0.7
v 2.8 2 -0.7
v 2.9 2 -0.7
v 3 2 -0.7
v 3.6 2 -0.7
v 3.7 2 -0.7
v 4.2 2 -0.7
v 4.3 2 -0.7
v 2.5 2 -0.8
v 2.8 2 -0.8
v 3 2 -0.8
v 3.1 2 -0.8
v 3.5 2 -0.8
v 3.6 2 -0.8
v 3.5 2 -0.9
v 3.6 2 -0.9
v 3.1 2 -1
v 3.5 2 -1
v 5 2 -1
v 5.2 2 -1
v 3.1 2 -1.1
v 3.5 2 -1.1
v 4.2 2 -1.1
v 4.4 2 -1.1
v 4.8 2 -1.1
v 5 2 -1.1
v 3.9 2 -1.2
v 4.4 2 -1.2
v 4.8 2 -1.2
v 3 2 -1.3
v 3.1 2 -1.3
v 3.7 2 -1.3
v 3.9 2 -1.3
v 4.4 2 -1.3
v 4.6 2 -1.3
v 3.5 2 -1.4
v 3.7 2 -1.4
v 4.6 2 -1.4
v 4.7 2 -1.4
v 2.9 2 -1.5
v 3 2 -1.5
v 4.7 2 -1.5
v 4.8 2 -1.5
v 4.8 2 -1.6
v 4.9 2 -1.6
v 4.9 2 -1.7
v 5 2 -1.7
v 5.2 2 -1.7
v 5.5 2 -1.7
v 5 2 -1.8
v 5.1 2 -1.8
v 5.2 2 -1.8
v 5.5 2 -1.8
v 2.8 2 -1.9
v 2.9 2 -1.9
v 5.1 2 -1.9
v 5.2 2 -1.9
v 2.5 2 -2.1
v 2.8 2 -2.1
v 2.5 2 -2.2
v 2.8 2 -2.2
v 2.8 2 -2.4
v 2.9 2 -2.4
v 5.1 2 -2.4
v 5.2 2 -2.4
v 3.6 2 -2.5
v 3.7 2 -2.5
v 5 2 -2.5
v 5.1 2 -2.5
v 3.4 2 -2.6
v 3.6 2 -2.6
v 3.7 2 -2.6
v 3.9 2 -2.6
v 4.9 2 -2.6
v 5 2 -2.6
v 3.3 2 -2.7
v 3.4 2 -2.7
v 3.9 2 -2.7
v 4.9 2 -2.7
v 5 2 -2.7
v 5.1 2 -2.7
v 5.2 2 -2.7
v 5.5 2 -2.7
v 3.2 2 -2.8
v 3.3 2 -2.8
v 5 2 -2.8
v 5.1 2 -2.8
v 5.2 2 -2.8
v 5.5 2 -2.8
v 2.9 2 -2.9
v 3 2 -2.9
v 3 2 -3
v 3.2 2 -3
v 2.5 2 -3.1
v 2.8 2 -3.1
v 5.2 2 -3.1
v 5.5 2 -3.1
v 2.5 2.1 0
v 2.8 2.1 0
v 2.9 2.1 0
v 3.1 2.1 0
v 4.2 2.1 0
v 4.3 2.1 0
v 5.2 2.1 0
v 5.5 2.1 0
v 4.2 2.1 -0.1
v 4.3 2.1 -0.1
v 4.6 2.1 -0.1
v 5 2.1 -0.1
v 3.1 2.1 -0.2
v 3.5 2.1 -0.2
v 4.5 2.1 -0.2
v 4.6 2.1 -0.2
v 5 2.1 -0.2
v 5.1 2.1 -0.2
v 3.5 2.1 -0.3
v 3.6 2.1 -0.3
v 4.4 2.1 -0.3
v 4.5 2.1 -0.3
v 5.1 2.1 -0.3
v 5.2 2.1 -0.3
v 3.6 2.1 -0.4
v 3.7 2.1 -0.4
v 4.3 2.1 -0.5
v 4.4 2.1 -0.5
v 5.2 2.1 -0.5
v 5.5 2.1 -0.5
v 5.2 2.1 -0.6
v 5.5 2.1 -0.6
v 2.5 2.1 -0.7
v 2.8 2.1 -0.7
v 2.9 2.1 -0.7
v 3 2.1 -0.7
v 3.6 2.1 -0.7
v 3.7 2.1 -0.7
v 4.2 2.1 -0.7
v 4.3 2.1 -0.7
v 2.5 2.1 -0.8
v 2.8 2.1 -0.8
v 3 2.1 -0.8
v 3.1 2.1 -0.8
v 3.5 2.1 -0.8
v 3.6 2.1 -0.8
v 3.5 2.1 -0.9
v 3.6 2.1 -0.9
v 3.1 2.1 -1
v 3.5 2.1 -1
v 5 2.1 -1
v 5.2 2.1 -1
v 3.1 2.1 -1.1
v 3.5 2.1 -1.1
v 4.2 2.1 -1.1
v 4.4 2.1 -1.1
v 4.8 2.1 -1.1
v 5 2.1 -1.1
v 3.9 2.1 -1.2
v 4.4 2.1 -1.2
v 4.8 2.1 -1.2
v 3 2.1 -1.3
v 3.1 2.1 -1.3
v 3.7 2.1 -1.3
v 3.9 2.1 -1.3
v 4.4 2.1 -1.3
v 4.6 2.1 -1.3
v 3.5 2.1 -1.4
v 3.7 2.1 -1.4
v 4.6 2.1 -1.4
v 4.7 2.1 -1.4
v 2.9 2.1 -1.5
v 3 2.1 -1.5
v 4.7 2.1 -1.5
v 4.8 2.1 -1.5
v 4.8 2.1 -1.6
v 4.9 2.1 -1.6
v 4.9 2.1 -1.7
v 5 2.1 -1.7
v 5.2 2.1 -1.7
v 5.5 2.1 -1.7
v 5 2.1 -1.8
v 5.1 2.1 -1.8
v 5.2 2.1 -1.8
v 5.5 2.1 -1.8
v 2.8 2.1 -1.9
v 2.9 2.1 -1.9
v 5.1 2.1 -1.9
v 5.2 2.1 -1.9
v 2.5 2.1 -2.1
v 2.8 2.1 -2.1
v 2.5 2.1 -2.2
v 2.8 2.1 -2.2
v 2.8 2.1 -2.4
v 2.9 2.1 -2.4
v 5.1 2.1 -2.4
v 5.2 2.1 -2.4
v 3.6 2.1 -2.5
v 3.7 2.1 -2.5
v 5 2.1 -2.5
v 5.1 2.1 -2.5
v 3.4 2.1 -2.6
v 3.6 2.1 -2.6
v 3.7 2.1 -2.6
v 3.9 2.1 -2.6
v 4.9 2.1 -2.6
v 5 2.1 -2.6
v 3.3 2.1 -2.7
v 3.4 2.1 -2.7
v 3.9 2.1 -2.7
v 4.9 2.1 -2.7
v 5 2.1 -2.7
v 5.1 2.1 -2.7
v 5.2 2.1 -2.7
v 5.5 2.1 -2.7
v 3.2 2.1 -2.8
v 3.3 2.1 -2.8
v 5 2.1 -2.8
v 5.1 2.1 -2.8
v 5.2 2.1 -2.8
v 5.5 2.1 -2.8
v 2.9 2.1 -2.9
v 3 2.1 -2.9
v 3 2.1 -3
v 3.2 2.1 -3
v 2.5 2.1 -3.1
v 2.8 2.1 -3.1
v 5.2 2.1 -3.1
v 5.5 2.1 -3.1

# faces
f 7/3/1 2/3/1 1/3/1
f 8/5/1 3/5/1 2/5/1
f 8/3/1 2/3/1 7/3/1
f 9/3/1 4/3/1 3/3/1
f 9/5/1 3/5/1 8/5/1
f 10/5/1 5/5/1 4/5/1
f 10/3/1 4/3/1 9/3/1
f 11/3/1 6/3/1 5/3/1
f 11/5/1 5/5/1 10/5/1
f 12/3/1 6/3/1 11/3/1
f 13/3/2 14/3/2 21/3/2
f 14/5/2 15/5/2 22/5/2
f 21/3/2 14/3/2 22/3/2
f 15/3/2 16/3/2 23/3/2
f 22/5/2 15/5/2 23/5/2
f 16/5/2 17/5/2 24/5/2
f 23/3/2 16/3/2 24/3/2
f 17/3/2 18/3/2 25/3/2
f 24/5/2 17/5/2 25/5/2
f 18/5/2 19/5/2 26/5/2
f 25/3/2 18/3/2 26/3/2
f 19/3/2 20/3/2 27/3/2
f 26/5/2 19/5/2 27/5/2
f 27/3/2 20/3/2 28/3/2
f 31/3/3 30/3/3 29/3/3
f 32/3/3 30/3/3 31/3/3
f 33/1/3 32/1/3 31/1/3
f 34/1/3 32/1/3 33/1/3
f 35/4/3 34/4/3 33/4/3
f 36/4/3 34/4/3 35/4/3
f 37/1/3 36/1/3 35/1/3
f 38/1/3 36/1/3 37/1/3
f 39/4/3 38/4/3 37/4/3
f 40/4/3 38/4/3 39/4/3
f 41/1/3 40/1/3 39/1/3
f 42/1/3 40/1/3 41/1/3
f 43/3/3 42/3/3 41/3/3
f 44/3/3 42/3/3 43/3/3
f 45/3/4 46/3/4 47/3/4
f 47/3/4 46/3/4 48/3/4
f 47/1/4 48/1/4 49/1/4
f 49/1/4 48/1/4 50/1/4
f 49/3/4 50/3/4 51/3/4
f 51/3/4 50/3/4 52/3/4
f 61/1/5 57/1/5 56/1/5
f 61/4/5 58/4/5 57/4/5
f 62/1/5 59/1/5 58/1/5
f 62/4/5 58/4/5 61/4/5
f 63/1/5 59/1/5 62/1/5
f 64/1/5 59/1/5 63/1/5
f 65/4/5 56/4/5 55/4/5
f 65/1/5 61/1/5 56/1/5
f 65/1/5 62/1/5 61/1/5
f 65/1/5 63/1/5 62/1/5
f 66/1/5 63/1/5 65/1/5
f 67/1/5 63/1/5 66/1/5
f 68/4/5 64/4/5 63/4/5
f 68/1/5 63/1/5 67/1/5
f 69/1/5 59/1/5 64/1/5
f 69/4/5 64/4/5 68/4/5
f 70/1/5 59/1/5 69/1/5
f 71/1/5 67/1/5 66/1/5
f 71/4/5 66/4/5 65/4/5
f 72/1/5 67/1/5 71/1/5
f 73/1/5 67/1/5 72/1/5
f 74/4/5 68/4/5 67/4/5
f 74/1/5 67/1/5 73/1/5
f 74/4/5 70/4/5 69/4/5
f 74/4/5 69/4/5 68/4/5
f 75/1/5 59/1/5 70/1/5
f 75/4/5 70/4/5 74/4/5
f 76/3/5 60/3/5 59/3/5
f 76/1/5 59/1/5 75/1/5
f 77/1/5 73/1/5 72/1/5
f 77/4/5 72/4/5 71/4/5
f 78/1/5 73/1/5 77/1/5
f 79/1/5 73/1/5 78/1/5
f 80/4/5 75/4/5 74/4/5
f 80/1/5 73/1/5 79/1/5
f 80/4/5 74/4/5 73/4/5
f 80/4/5 76/4/5 75/4/5
f 81/3/5 60/3/5 76/3/5
f 81/4/5 76/4/5 80/4/5
f 82/3/5 60/3/5 81/3/5
f 83/4/5 80/4/5 79/4/5
f 83/4/5 81/4/5 80/4/5
f 83/5/5 82/5/5 81/5/5
f 84/5/5 82/5/5 83/5/5
f 85/3/5 54/3/5 53/3/5
f 86/1/5 55/1/5 54/1/5
f 86/3/5 54/3/5 85/3/5
f 87/4/5 65/4/5 55/4/5
f 87/1/5 55/1/5 86/1/5
f 87/4/5 77/4/5 71/4/5
f 87/4/5 71/4/5 65/4/5
f 88/4/5 77/4/5 87/4/5
f 89/2/5 78/2/5 77/2/5
f 89/4/5 77/4/5 88/4/5
f 90/1/5 79/1/5 78/1/5
f 90/2/5 78/2/5 89/2/5
f 91/1/5 79/1/5 90/1/5
f 92/4/5 83/4/5 79/4/5
f 92/1/5 79/1/5 91/1/5
f 93/5/5 86/5/5 85/5/5
f 94/1/5 88/1/5 87/1/5
f 94/5/5 86/5/5 93/5/5
f 94/1/5 87/1/5 86/1/5
f 95/4/5 89/4/5 88/4/5
f 95/1/5 88/1/5 94/1/5
f 96/4/5 89/4/5 95/4/5
f 97/4/5 89/4/5 96/4/5
f 98/1/5 91/1/5 90/1/5
f 98/4/5 89/4/5 97/4/5
f 98/1/5 90/1/5 89/1/5
f 99/4/5 97/4/5 96/4/5
f 99/2/5 98/2/5 97/2/5
f 100/1/5 91/1/5 98/1/5
f 100/2/5 98/2/5 99/2/5
f 101/4/5 99/4/5 96/4/5
f 101/1/5 96/1/5 95/1/5
f 101/1/5 95/1/5 94/1/5
f 102/1/5 100/1/5 99/1/5
f 102/4/5 99/4/5 101/4/5
f 103/4/5 83/4/5 92/4/5
f 103/4/5 92/4/5 91/4/5
f 104/3/5 84/3/5 83/3/5
f 104/4/5 83/4/5 103/4/5
f 105/1/5 102/1/5 101/1/5
f 105/1/5 101/1/5 94/1/5
f 106/1/5 100/1/5 102/1/5
f 106/1/5 102/1/5 105/1/5
f 107/4/5 103/4/5 91/4/5
f 107/1/5 100/1/5 106/1/5
f 107/1/5 91/1/5 100/1/5
f 108/4/5 103/4/5 107/4/5
f 109/4/5 103/4/5 108/4/5
f 110/1/5 104/1/5 103/1/5
f 110/4/5 103/4/5 109/4/5
f 111/1/5 107/1/5 106/1/5
f 111/1/5 108/1/5 107/1/5
f 112/4/5 109/4/5 108/4/5
f 112/1/5 108/1/5 111/1/5
f 113/1/5 110/1/5 109/1/5
f 113/4/5 109/4/5 112/4/5
f 114/1/5 105/1/5 94/1/5
f 115/4/5 106/4/5 105/4/5
f 115/1/5 105/1/5 114/1/5
f 116/1/5 111/1/5 106/1/5
f 117/4/5 112/4/5 111/4/5
f 117/1/5 111/1/5 116/1/5
f 118/1/5 113/1/5 112/1/5
f 118/4/5 112/4/5 117/4/5
f 119/1/5 113/1/5 118/1/5
f 120/4/5 106/4/5 115/4/5
f 120/1/5 116/1/5 106/1/5
f 120/4/5 115/4/5 114/4/5
f 121/4/5 119/4/5 118/4/5
f 121/1/5 116/1/5 120/1/5
f 121/4/5 117/4/5 116/4/5
f 121/4/5 118/4/5 117/4/5
f 122/1/5 113/1/5 119/1/5
f 122/4/5 119/4/5 121/4/5
f 123/1/5 113/1/5 122/1/5
f 124/1/5 114/1/5 94/1/5
f 125/4/5 121/4/5 120/4/5
f 125/1/5 114/1/5 124/1/5
f 125/4/5 120/4/5 114/4/5
f 125/4/5 123/4/5 122/4/5
f 125/4/5 122/4/5 121/4/5
f 126/1/5 113/1/5 123/1/5
f 126/4/5 123/4/5 125/4/5
f 127/1/5 110/1/5 113/1/5
f 127/1/5 113/1/5 126/1/5
f 128/4/5 126/4/5 125/4/5
f 128/1/5 110/1/5 127/1/5
f 128/4/5 127/4/5 126/4/5
f 128/4/5 125/4/5 124/4/5
f 129/1/5 110/1/5 128/1/5
f 130/4/5 129/4/5 128/4/5
f 130/1/5 110/1/5 129/1/5
f 131/1/5 104/1/5 110/1/5
f 131/1/5 110/1/5 130/1/5
f 132/3/5 84/3/5 104/3/5
f 132/1/5 104/1/5 131/1/5
f 133/3/5 84/3/5 132/3/5
f 134/4/5 131/4/5 130/4/5
f 134/1/5 132/1/5 131/1/5
f 135/1/5 132/1/5 134/1/5
f 136/5/5 133/5/5 132/5/5
f 136/1/5 132/1/5 135/1/5
f 137/5/5 133/5/5 136/5/5
f 138/3/5 94/3/5 93/3/5
f 138/1/5 124/1/5 94/1/5
f 139/4/5 130/4/5 128/4/5
f 139/1/5 124/1/5 138/1/5
f 139/4/5 128/4/5 124/4/5
f 139/4/5 135/4/5 134/4/5
f 139/4/5 134/4/5 130/4/5
f 140/1/5 136/1/5 135/1/5
f 140/4/5 135/4/5 139/4/5
f 141/3/5 137/3/5 136/3/5
f 141/1/5 136/1/5 140/1/5
f 142/3/5 138/3/5 93/3/5
f 143/4/5 140/4/5 139/4/5
f 143/3/5 138/3/5 142/3/5
f 143/4/5 139/4/5 138/4/5
f 143/4/5 141/4/5 140/4/5
f 144/5/5 143/5/5 142/5/5
f 145/4/5 141/4/5 143/4/5
f 145/5/5 143/5/5 144/5/5
f 146/3/5 145/3/5 144/3/5
f 146/4/5 141/4/5 145/4/5
f 147/4/5 141/4/5 146/4/5
f 148/4/5 141/4/5 147/4/5
f 149/3/5 137/3/5 141/3/5
f 149/4/5 141/4/5 148/4/5
f 150/4/5 148/4/5 147/4/5
f 151/4/5 148/4/5 150/4/5
f 152/4/5 148/4/5 151/4/5
f 153/1/5 149/1/5 148/1/5
f 153/4/5 148/4/5 152/4/5
f 154/4/5 150/4/5 147/4/5
f 155/1/5 151/1/5 150/1/5
f 155/4/5 150/4/5 154/4/5
f 156/4/5 152/4/5 151/4/5
f 156/1/5 151/1/5 155/1/5
f 157/4/5 152/4/5 156/4/5
f 158/4/5 152/4/5 157/4/5
f 159/1/5 153/1/5 152/1/5
f 159/4/5 152/4/5 158/4/5
f 160/4/5 154/4/5 147/4/5
f 161/1/5 155/1/5 154/1/5
f 161/4/5 154/4/5 160/4/5
f 161/1/5 156/1/5 155/1/5
f 161/1/5 157/1/5 156/1/5
f 162/4/5 158/4/5 157/4/5
f 162/1/5 157/1/5 161/1/5
f 163/1/5 159/1/5 158/1/5
f 163/4/5 158/4/5 162/4/5
f 164/1/5 153/1/5 159/1/5
f 164/1/5 159/1/5 163/1/5
f 165/1/5 149/1/5 153/1/5
f 165/1/5 153/1/5 164/1/5
f 166/3/5 137/3/5 149/3/5
f 166/1/5 149/1/5 165/1/5
f 167/3/5 137/3/5 166/3/5
f 168/4/5 160/4/5 147/4/5
f 169/1/5 164/1/5 163/1/5
f 169/4/5 160/4/5 168/4/5
f 169/1/5 163/1/5 162/1/5
f 169/1/5 161/1/5 160/1/5
f 169/1/5 162/1/5 161/1/5
f 170/4/5 165/4/5 164/4/5
f 170/1/5 164/1/5 169/1/5
f 171/1/5 166/1/5 165/1/5
f 171/4/5 165/4/5 170/4/5
f 172/5/5 167/5/5 166/5/5
f 172/1/5 166/1/5 171/1/5
f 173/5/5 167/5/5 172/5/5
f 174/1/5 147/1/5 146/1/5
f 174/4/5 168/4/5 147/4/5
f 175/4/5 168/4/5 174/4/5
f 176/1/5 175/1/5 174/1/5
f 176/4/5 168/4/5 175/4/5
f 177/1/5 169/1/5 168/1/5
f 177/4/5 168/4/5 176/4/5
f 177/1/5 171/1/5 170/1/5
f 177/1/5 170/1/5 169/1/5
f 177/1/5 172/1/5 171/1/5
f 178/3/5 146/3/5 144/3/5
f 179/1/5 176/1/5 174/1/5
f 179/3/5 146/3/5 178/3/5
f 179/1/5 174/1/5 146/1/5
f 179/1/5 177/1/5 176/1/5
f 180/1/5 172/1/5 177/1/5
f 180/1/5 177/1/5 179/1/5
f 180/3/5 173/3/5 172/3/5
f 181/3/5 173/3/5 180/3/5
f 185/1/6 186/1/6 190/1/6
f 186/4/6 187/4/6 190/4/6
f 187/1/6 188/1/6 191/1/6
f 190/4/6 187/4/6 191/4/6
f 191/1/6 188/1/6 192/1/6
f 192/1/6 188/1/6 193/1/6
f 184/4/6 185/4/6 194/4/6
f 185/1/6 190/1/6 194/1/6
f 190/1/6 191/1/6 194/1/6
f 191/1/6 192/1/6 194/1/6
f 194/1/6 192/1/6 195/1/6
f 195/1/6 192/1/6 196/1/6
f 192/4/6 193/4/6 197/4/6
f 196/1/6 192/1/6 197/1/6
f 193/1/6 188/1/6 198/1/6
f 197/4/6 193/4/6 198/4/6
f 198/1/6 188/1/6 199/1/6
f 195/1/6 196/1/6 200/1/6
f 194/4/6 195/4/6 200/4/6
f 200/1/6 196/1/6 201/1/6
f 201/1/6 196/1/6 202/1/6
f 196/4/6 197/4/6 203/4/6
f 202/1/6 196/1/6 203/1/6
f 198/4/6 199/4/6 203/4/6
f 197/4/6 198/4/6 203/4/6
f 199/1/6 188/1/6 204/1/6
f 203/4/6 199/4/6 204/4/6
f 188/3/6 189/3/6 205/3/6
f 204/1/6 188/1/6 205/1/6
f 201/1/6 202/1/6 206/1/6
f 200/4/6 201/4/6 206/4/6
f 206/1/6 202/1/6 207/1/6
f 207/1/6 202/1/6 208/1/6
f 203/4/6 204/4/6 209/4/6
f 208/1/6 202/1/6 209/1/6
f 202/4/6 203/4/6 209/4/6
f 204/4/6 205/4/6 209/4/6
f 205/3/6 189/3/6 210/3/6
f 209/4/6 205/4/6 210/4/6
f 210/3/6 189/3/6 211/3/6
f 208/4/6 209/4/6 212/4/6
f 209/4/6 210/4/6 212/4/6
f 210/5/6 211/5/6 212/5/6
f 212/5/6 211/5/6 213/5/6
f 182/3/6 183/3/6 214/3/6
f 183/1/6 184/1/6 215/1/6
f 214/3/6 183/3/6 215/3/6
f 184/4/6 194/4/6 216/4/6
f 215/1/6 184/1/6 216/1/6
f 200/4/6 206/4/6 216/4/6
f 194/4/6 200/4/6 216/4/6
f 216/4/6 206/4/6 217/4/6
f 206/2/6 207/2/6 218/2/6
f 217/4/6 206/4/6 218/4/6
f 207/1/6 208/1/6 219/1/6
f 218/2/6 207/2/6 219/2/6
f 219/1/6 208/1/6 220/1/6
f 208/4/6 212/4/6 221/4/6
f 220/1/6 208/1/6 221/1/6
f 214/5/6 215/5/6 222/5/6
f 216/1/6 217/1/6 223/1/6
f 222/5/6 215/5/6 223/5/6
f 215/1/6 216/1/6 223/1/6
f 217/4/6 218/4/6 224/4/6
f 223/1/6 217/1/6 224/1/6
f 224/4/6 218/4/6 225/4/6
f 225/4/6 218/4/6 226/4/6
f 219/1/6 220/1/6 227/1/6
f 226/4/6 218/4/6 227/4/6
f 218/1/6 219/1/6 227/1/6
f 225/4/6 226/4/6 228/4/6
f 226/2/6 227/2/6 228/2/6
f 227/1/6 220/1/6 229/1/6
f 228/2/6 227/2/6 229/2/6
f 225/4/6 228/4/6 230/4/6
f 224/1/6 225/1/6 230/1/6
f 223/1/6 224/1/6 230/1/6
f 228/1/6 229/1/6 231/1/6
f 230/4/6 228/4/6 231/4/6
f 221/4/6 212/4/6 232/4/6
f 220/4/6 221/4/6 232/4/6
f 212/3/6 213/3/6 233/3/6
f 232/4/6 212/4/6 233/4/6
f 230/1/6 231/1/6 234/1/6
f 223/1/6 230/1/6 234/1/6
f 231/1/6 229/1/6 235/1/6
f 234/1/6 231/1/6 235/1/6
f 220/4/6 232/4/6 236/4/6
f 235/1/6 229/1/6 236/1/6
f 229/1/6 220/1/6 236/1/6
f 236/4/6 232/4/6 237/4/6
f 237/4/6 232/4/6 238/4/6
f 232/1/6 233/1/6 239/1/6
f 238/4/6 232/4/6 239/4/6
f 235/1/6 236/1/6 240/1/6
f 236/1/6 237/1/6 240/1/6
f 237/4/6 238/4/6 241/4/6
f 240/1/6 237/1/6 241/1/6
f 238/1/6 239/1/6 242/1/6
f 241/4/6 238/4/6 242/4/6
f 223/1/6 234/1/6 243/1/6
f 234/4/6 235/4/6 244/4/6
f 243/1/6 234/1/6 244/1/6
f 235/1/6 240/1/6 245/1/6
f 240/4/6 241/4/6 246/4/6
f 245/1/6 240/1/6 246/1/6
f 241/1/6 242/1/6 247/1/6
f 246/4/6 241/4/6 247/4/6
f 247/1/6 242/1/6 248/1/6
f 244/4/6 235/4/6 249/4/6
f 235/1/6 245/1/6 249/1/6
f 243/4/6 244/4/6 249/4/6
f 247/4/6 248/4/6 250/4/6
f 249/1/6 245/1/6 250/1/6
f 245/4/6 246/4/6 250/4/6
f 246/4/6 247/4/6 250/4/6
f 248/1/6 242/1/6 251/1/6
f 250/4/6 248/4/6 251/4/6
f 251/1/6 242/1/6 252/1/6
f 223/1/6 243/1/6 253/1/6
f 249/4/6 250/4/6 254/4/6
f 253/1/6 243/1/6 254/1/6
f 243/4/6 249/4/6 254/4/6
f 251/4/6 252/4/6 254/4/6
f 250/4/6 251/4/6 254/4/6
f 252/1/6 242/1/6 255/1/6
f 254/4/6 252/4/6 255/4/6
f 242/1/6 239/1/6 256/1/6
f 255/1/6 242/1/6 256/1/6
f 254/4/6 255/4/6 257/4/6
f 256/1/6 239/1/6 257/1/6
f 255/4/6 256/4/6 257/4/6
f 253/4/6 254/4/6 257/4/6
f 257/1/6 239/1/6 258/1/6
f 257/4/6 258/4/6 259/4/6
f 258/1/6 239/1/6 259/1/6
f 239/1/6 233/1/6 260/1/6
f 259/1/6 239/1/6 260/1/6
f 233/3/6 213/3/6 261/3/6
f 260/1/6 233/1/6 261/1/6
f 261/3/6 213/3/6 262/3/6
f 259/4/6 260/4/6 263/4/6
f 260/1/6 261/1/6 263/1/6
f 263/1/6 261/1/6 264/1/6
f 261/5/6 262/5/6 265/5/6
f 264/1/6 261/1/6 265/1/6
f 265/5/6 262/5/6 266/5/6
f 222/3/6 223/3/6 267/3/6
f 223/1/6 253/1/6 267/1/6
f 257/4/6 259/4/6 268/4/6
f 267/1/6 253/1/6 268/1/6
f 253/4/6 257/4/6 268/4/6
f 263/4/6 264/4/6 268/4/6
f 259/4/6 263/4/6 268/4/6
f 264/1/6 265/1/6 269/1/6
f 268/4/6 264/4/6 269/4/6
f 265/3/6 266/3/6 270/3/6
f 269/1/6 265/1/6 270/1/6
f 222/3/6 267/3/6 271/3/6
f 268/4/6 269/4/6 272/4/6
f 271/3/6 267/3/6 272/3/6
f 267/4/6 268/4/6 272/4/6
f 269/4/6 270/4/6 272/4/6
f 271/5/6 272/5/6 273/5/6
f 272/4/6 270/4/6 274/4/6
f 273/5/6 272/5/6 274/5/6
f 273/3/6 274/3/6 275/3/6
f 274/4/6 270/4/6 275/4/6
f 275/4/6 270/4/6 276/4/6
f 276/4/6 270/4/6 277/4/6
f 270/3/6 266/3/6 278/3/6
f 277/4/6 270/4/6 278/4/6
f 276/4/6 277/4/6 279/4/6
f 279/4/6 277/4/6 280/4/6
f 280/4/6 277/4/6 281/4/6
f 277/1/6 278/1/6 282/1/6
f 281/4/6 277/4/6 282/4/6
f 276/4/6 279/4/6 283/4/6
f 279/1/6 280/1/6 284/1/6
f 283/4/6 279/4/6 284/4/6
f 280/4/6 281/4/6 285/4/6
f 284/1/6 280/1/6 285/1/6
f 285/4/6 281/4/6 286/4/6
f 286/4/6 281/4/6 287/4/6
f 281/1/6 282/1/6 288/1/6
f 287/4/6 281/4/6 288/4/6
f 276/4/6 283/4/6 289/4/6
f 283/1/6 284/1/6 290/1/6
f 289/4/6 283/4/6 290/4/6
f 284/1/6 285/1/6 290/1/6
f 285/1/6 286/1/6 290/1/6
f 286/4/6 287/4/6 291/4/6
f 290/1/6 286/1/6 291/1/6
f 287/1/6 288/1/6 292/1/6
f 291/4/6 287/4/6 292/4/6
f 288/1/6 282/1/6 293/1/6
f 292/1/6 288/1/6 293/1/6
f 282/1/6 278/1/6 294/1/6
f 293/1/6 282/1/6 294/1/6
f 278/3/6 266/3/6 295/3/6
f 294/1/6 278/1/6 295/1/6
f 295/3/6 266/3/6 296/3/6
f 276/4/6 289/4/6 297/4/6
f 292/1/6 293/1/6 298/1/6
f 297/4/6 289/4/6 298/4/6
f 291/1/6 292/1/6 298/1/6
f 289/1/6 290/1/6 298/1/6
f 290/1/6 291/1/6 298/1/6
f 293/4/6 294/4/6 299/4/6
f 298/1/6 293/1/6 299/1/6
f 294/1/6 295/1/6 300/1/6
f 299/4/6 294/4/6 300/4/6
f 295/5/6 296/5/6 301/5/6
f 300/1/6 295/1/6 301/1/6
f 301/5/6 296/5/6 302/5/6
f 275/1/6 276/1/6 303/1/6
f 276/4/6 297/4/6 303/4/6
f 303/4/6 297/4/6 304/4/6
f 303/1/6 304/1/6 305/1/6
f 304/4/6 297/4/6 305/4/6
f 297/1/6 298/1/6 306/1/6
f 305/4/6 297/4/6 306/4/6
f 299/1/6 300/1/6 306/1/6
f 298/1/6 299/1/6 306/1/6
f 300/1/6 301/1/6 306/1/6
f 273/3/6 275/3/6 307/3/6
f 303/1/6 305/1/6 308/1/6
f 307/3/6 275/3/6 308/3/6
f 275/1/6 303/1/6 308/1/6
f 305/1/6 306/1/6 308/1/6
f 306/1/6 301/1/6 309/1/6
f 308/1/6 306/1/6 309/1/6
f 301/3/6 302/3/6 309/3/6
f 309/3/6 302/3/6 310/3/6
