# MagicaVoxel @ Ephtracy

# group
o 

# material
mtllib 2.mtl
usemtl palette

# normals
vn -1 0 0
vn 1 0 0
vn 0 0 1
vn 0 0 -1
vn 0 -1 0
vn 0 1 0

# texcoords
vt 0.0214844 0.5
vt 0.0683594 0.5
vt 0.900391 0.5

# verts
v 1.8 3.9 -3.6
v 1.8 3.9 -3.8
v 1.8 4 -3.6
v 1.8 4 -3.8
v 1.9 3.8 -3.7
v 1.9 3.8 -3.8
v 1.9 3.9 -3.5
v 1.9 3.9 -3.6
v 1.9 3.9 -3.7
v 1.9 3.9 -3.8
v 1.9 3.9 -3.9
v 1.9 4 -3.5
v 1.9 4 -3.6
v 1.9 4 -3.7
v 1.9 4 -3.8
v 1.9 4 -3.9
v 1.9 4.1 -3.7
v 1.9 4.1 -3.8
v 2 3.7 -3.6
v 2 3.7 -3.8
v 2 3.8 -3.5
v 2 3.8 -3.6
v 2 3.8 -3.7
v 2 3.8 -3.8
v 2 3.8 -3.9
v 2 3.9 -3.5
v 2 3.9 -3.6
v 2 3.9 -3.7
v 2 3.9 -3.8
v 2 3.9 -3.9
v 2 3.9 -4
v 2 4 -3.5
v 2 4 -3.6
v 2 4 -3.7
v 2 4 -3.8
v 2 4 -3.9
v 2 4 -4
v 2 4.1 -3.5
v 2 4.1 -3.6
v 2 4.1 -3.7
v 2 4.1 -3.8
v 2 4.1 -3.9
v 2 4.2 -3.6
v 2 4.2 -3.8
v 2.1 3.9 -3.5
v 2.1 3.9 -3.6
v 2.1 4 -3.5
v 2.1 4 -3.6
v 2.2 3.9 -3.6
v 2.2 3.9 -3.7
v 2.2 4 -3.6
v 2.2 4 -3.7
v 1.9 3.9 -3.6
v 1.9 3.9 -3.7
v 1.9 4 -3.6
v 1.9 4 -3.7
v 2 3.9 -3.5
v 2 3.9 -3.6
v 2 4 -3.5
v 2 4 -3.6
v 2.1 3.7 -3.6
v 2.1 3.7 -3.8
v 2.1 3.8 -3.5
v 2.1 3.8 -3.6
v 2.1 3.8 -3.7
v 2.1 3.8 -3.8
v 2.1 3.8 -3.9
v 2.1 3.9 -3.5
v 2.1 3.9 -3.6
v 2.1 3.9 -3.7
v 2.1 3.9 -3.8
v 2.1 3.9 -3.9
v 2.1 3.9 -4
v 2.1 4 -3.5
v 2.1 4 -3.6
v 2.1 4 -3.7
v 2.1 4 -3.8
v 2.1 4 -3.9
v 2.1 4 -4
v 2.1 4.1 -3.5
v 2.1 4.1 -3.6
v 2.1 4.1 -3.7
v 2.1 4.1 -3.8
v 2.1 4.1 -3.9
v 2.1 4.2 -3.6
v 2.1 4.2 -3.8
v 2.2 3.8 -3.7
v 2.2 3.8 -3.8
v 2.2 3.9 -3.5
v 2.2 3.9 -3.6
v 2.2 3.9 -3.7
v 2.2 3.9 -3.8
v 2.2 3.9 -3.9
v 2.2 4 -3.5
v 2.2 4 -3.6
v 2.2 4 -3.7
v 2.2 4 -3.8
v 2.2 4 -3.9
v 2.2 4.1 -3.7
v 2.2 4.1 -3.8
v 2.3 3.9 -3.6
v 2.3 3.9 -3.8
v 2.3 4 -3.6
v 2.3 4 -3.8
v 1.9 3.9 -3.5
v 1.9 4 -3.5
v 2 3.8 -3.5
v 2 3.9 -3.5
v 2 4 -3.5
v 2 4.1 -3.5
v 2.1 3.8 -3.5
v 2.1 3.9 -3.5
v 2.1 4 -3.5
v 2.1 4.1 -3.5
v 2.2 3.9 -3.5
v 2.2 4 -3.5
v 1.8 3.9 -3.6
v 1.8 4 -3.6
v 1.9 3.9 -3.6
v 1.9 4 -3.6
v 2 3.7 -3.6
v 2 3.8 -3.6
v 2 3.9 -3.6
v 2 4 -3.6
v 2 4.1 -3.6
v 2 4.2 -3.6
v 2.1 3.7 -3.6
v 2.1 3.8 -3.6
v 2.1 3.9 -3.6
v 2.1 4 -3.6
v 2.1 4.1 -3.6
v 2.1 4.2 -3.6
v 2.2 3.9 -3.6
v 2.2 4 -3.6
v 2.3 3.9 -3.6
v 2.3 4 -3.6
v 1.9 3.8 -3.7
v 1.9 3.9 -3.7
v 1.9 4 -3.7
v 1.9 4.1 -3.7
v 2 3.8 -3.7
v 2 3.9 -3.7
v 2 4 -3.7
v 2 4.1 -3.7
v 2.1 3.8 -3.7
v 2.1 3.9 -3.7
v 2.1 4 -3.7
v 2.1 4.1 -3.7
v 2.2 3.8 -3.7
v 2.2 3.9 -3.7
v 2.2 4 -3.7
v 2.2 4.1 -3.7
v 1.9 3.9 -3.6
v 1.9 4 -3.6
v 2 3.8 -3.6
v 2 3.9 -3.6
v 2 4 -3.6
v 2 4.1 -3.6
v 2.1 3.8 -3.6
v 2.1 3.9 -3.6
v 2.1 4 -3.6
v 2.1 4.1 -3.6
v 2.2 3.9 -3.6
v 2.2 4 -3.6
v 1.8 3.9 -3.8
v 1.8 4 -3.8
v 1.9 3.8 -3.8
v 1.9 3.9 -3.8
v 1.9 4 -3.8
v 1.9 4.1 -3.8
v 2 3.7 -3.8
v 2 3.8 -3.8
v 2 3.9 -3.8
v 2 4 -3.8
v 2 4.1 -3.8
v 2 4.2 -3.8
v 2.1 3.7 -3.8
v 2.1 3.8 -3.8
v 2.1 3.9 -3.8
v 2.1 4 -3.8
v 2.1 4.1 -3.8
v 2.1 4.2 -3.8
v 2.2 3.8 -3.8
v 2.2 3.9 -3.8
v 2.2 4 -3.8
v 2.2 4.1 -3.8
v 2.3 3.9 -3.8
v 2.3 4 -3.8
v 1.9 3.9 -3.9
v 1.9 4 -3.9
v 2 3.8 -3.9
v 2 3.9 -3.9
v 2 4 -3.9
v 2 4.1 -3.9
v 2.1 3.8 -3.9
v 2.1 3.9 -3.9
v 2.1 4 -3.9
v 2.1 4.1 -3.9
v 2.2 3.9 -3.9
v 2.2 4 -3.9
v 2 3.9 -4
v 2 4 -4
v 2.1 3.9 -4
v 2.1 4 -4
v 2 3.7 -3.6
v 2.1 3.7 -3.6
v 2 3.7 -3.8
v 2.1 3.7 -3.8
v 2 3.8 -3.5
v 2.1 3.8 -3.5
v 2 3.8 -3.6
v 2.1 3.8 -3.6
v 1.9 3.8 -3.7
v 2 3.8 -3.7
v 2.1 3.8 -3.7
v 2.2 3.8 -3.7
v 1.9 3.8 -3.8
v 2 3.8 -3.8
v 2.1 3.8 -3.8
v 2.2 3.8 -3.8
v 2 3.8 -3.9
v 2.1 3.8 -3.9
v 1.9 3.9 -3.5
v 2 3.9 -3.5
v 2.1 3.9 -3.5
v 2.2 3.9 -3.5
v 1.8 3.9 -3.6
v 1.9 3.9 -3.6
v 2 3.9 -3.6
v 2.1 3.9 -3.6
v 2.2 3.9 -3.6
v 2.3 3.9 -3.6
v 1.9 3.9 -3.7
v 2 3.9 -3.7
v 2.1 3.9 -3.7
v 2.2 3.9 -3.7
v 1.8 3.9 -3.8
v 1.9 3.9 -3.8
v 2 3.9 -3.8
v 2.1 3.9 -3.8
v 2.2 3.9 -3.8
v 2.3 3.9 -3.8
v 1.9 3.9 -3.9
v 2 3.9 -3.9
v 2.1 3.9 -3.9
v 2.2 3.9 -3.9
v 2 3.9 -4
v 2.1 3.9 -4
v 2 4 -3.5
v 2.1 4 -3.5
v 2 4 -3.6
v 2.1 4 -3.6
v 2 4.1 -3.6
v 2.1 4.1 -3.6
v 2 4.1 -3.7
v 2.1 4.1 -3.7
v 2 3.8 -3.6
v 2.1 3.8 -3.6
v 2 3.8 -3.7
v 2.1 3.8 -3.7
v 2 3.9 -3.5
v 2.1 3.9 -3.5
v 2 3.9 -3.6
v 2.1 3.9 -3.6
v 1.9 4 -3.5
v 2 4 -3.5
v 2.1 4 -3.5
v 2.2 4 -3.5
v 1.8 4 -3.6
v 1.9 4 -3.6
v 2 4 -3.6
v 2.1 4 -3.6
v 2.2 4 -3.6
v 2.3 4 -3.6
v 1.9 4 -3.7
v 2 4 -3.7
v 2.1 4 -3.7
v 2.2 4 -3.7
v 1.8 4 -3.8
v 1.9 4 -3.8
v 2 4 -3.8
v 2.1 4 -3.8
v 2.2 4 -3.8
v 2.3 4 -3.8
v 1.9 4 -3.9
v 2 4 -3.9
v 2.1 4 -3.9
v 2.2 4 -3.9
v 2 4 -4
v 2.1 4 -4
v 2 4.1 -3.5
v 2.1 4.1 -3.5
v 2 4.1 -3.6
v 2.1 4.1 -3.6
v 1.9 4.1 -3.7
v 2 4.1 -3.7
v 2.1 4.1 -3.7
v 2.2 4.1 -3.7
v 1.9 4.1 -3.8
v 2 4.1 -3.8
v 2.1 4.1 -3.8
v 2.2 4.1 -3.8
v 2 4.1 -3.9
v 2.1 4.1 -3.9
v 2 4.2 -3.6
v 2.1 4.2 -3.6
v 2 4.2 -3.8
v 2.1 4.2 -3.8

# faces
f 3/3/1 2/3/1 1/3/1
f 4/3/1 2/3/1 3/3/1
f 9/2/1 6/2/1 5/2/1
f 10/2/1 6/2/1 9/2/1
f 12/1/1 8/1/1 7/1/1
f 13/1/1 8/1/1 12/1/1
f 15/1/1 11/1/1 10/1/1
f 16/1/1 11/1/1 15/1/1
f 17/2/1 15/2/1 14/2/1
f 18/2/1 15/2/1 17/2/1
f 22/3/1 20/3/1 19/3/1
f 23/3/1 20/3/1 22/3/1
f 24/3/1 20/3/1 23/3/1
f 26/1/1 22/1/1 21/1/1
f 27/1/1 22/1/1 26/1/1
f 29/1/1 25/1/1 24/1/1
f 30/1/1 25/1/1 29/1/1
f 33/1/1 28/1/1 27/1/1
f 34/1/1 28/1/1 33/1/1
f 36/1/1 31/1/1 30/1/1
f 37/1/1 31/1/1 36/1/1
f 38/1/1 33/1/1 32/1/1
f 39/1/1 33/1/1 38/1/1
f 41/1/1 36/1/1 35/1/1
f 42/1/1 36/1/1 41/1/1
f 43/3/1 40/3/1 39/3/1
f 43/3/1 41/3/1 40/3/1
f 44/3/1 41/3/1 43/3/1
f 47/1/1 46/1/1 45/1/1
f 48/1/1 46/1/1 47/1/1
f 51/3/1 50/3/1 49/3/1
f 52/3/1 50/3/1 51/3/1
f 53/3/2 54/3/2 55/3/2
f 55/3/2 54/3/2 56/3/2
f 57/1/2 58/1/2 59/1/2
f 59/1/2 58/1/2 60/1/2
f 61/3/2 62/3/2 64/3/2
f 64/3/2 62/3/2 65/3/2
f 65/3/2 62/3/2 66/3/2
f 63/1/2 64/1/2 68/1/2
f 68/1/2 64/1/2 69/1/2
f 66/1/2 67/1/2 71/1/2
f 71/1/2 67/1/2 72/1/2
f 69/1/2 70/1/2 75/1/2
f 75/1/2 70/1/2 76/1/2
f 72/1/2 73/1/2 78/1/2
f 78/1/2 73/1/2 79/1/2
f 74/1/2 75/1/2 80/1/2
f 80/1/2 75/1/2 81/1/2
f 77/1/2 78/1/2 83/1/2
f 83/1/2 78/1/2 84/1/2
f 81/3/2 82/3/2 85/3/2
f 82/3/2 83/3/2 85/3/2
f 85/3/2 83/3/2 86/3/2
f 87/2/2 88/2/2 91/2/2
f 91/2/2 88/2/2 92/2/2
f 89/1/2 90/1/2 94/1/2
f 94/1/2 90/1/2 95/1/2
f 92/1/2 93/1/2 97/1/2
f 97/1/2 93/1/2 98/1/2
f 96/2/2 97/2/2 99/2/2
f 99/2/2 97/2/2 100/2/2
f 101/3/2 102/3/2 103/3/2
f 103/3/2 102/3/2 104/3/2
f 108/1/3 106/1/3 105/1/3
f 109/1/3 106/1/3 108/1/3
f 111/1/3 108/1/3 107/1/3
f 112/1/3 108/1/3 111/1/3
f 113/1/3 110/1/3 109/1/3
f 114/1/3 110/1/3 113/1/3
f 115/1/3 113/1/3 112/1/3
f 116/1/3 113/1/3 115/1/3
f 119/3/3 118/3/3 117/3/3
f 120/3/3 118/3/3 119/3/3
f 127/3/3 122/3/3 121/3/3
f 128/3/3 122/3/3 127/3/3
f 129/1/3 124/1/3 123/1/3
f 130/1/3 124/1/3 129/1/3
f 131/3/3 126/3/3 125/3/3
f 132/3/3 126/3/3 131/3/3
f 135/3/3 134/3/3 133/3/3
f 136/3/3 134/3/3 135/3/3
f 141/2/3 138/2/3 137/2/3
f 142/1/3 139/1/3 138/1/3
f 142/2/3 138/2/3 141/2/3
f 143/2/3 140/2/3 139/2/3
f 143/1/3 139/1/3 142/1/3
f 144/2/3 140/2/3 143/2/3
f 145/1/3 142/1/3 141/1/3
f 146/1/3 142/1/3 145/1/3
f 147/1/3 144/1/3 143/1/3
f 148/1/3 144/1/3 147/1/3
f 149/2/3 146/2/3 145/2/3
f 150/1/3 147/1/3 146/1/3
f 150/2/3 146/2/3 149/2/3
f 151/2/3 148/2/3 147/2/3
f 151/1/3 147/1/3 150/1/3
f 152/2/3 148/2/3 151/2/3
f 153/1/4 154/1/4 156/1/4
f 156/1/4 154/1/4 157/1/4
f 155/1/4 156/1/4 159/1/4
f 159/1/4 156/1/4 160/1/4
f 157/1/4 158/1/4 161/1/4
f 161/1/4 158/1/4 162/1/4
f 160/1/4 161/1/4 163/1/4
f 163/1/4 161/1/4 164/1/4
f 165/3/4 166/3/4 168/3/4
f 168/3/4 166/3/4 169/3/4
f 167/2/4 168/2/4 172/2/4
f 172/2/4 168/2/4 173/2/4
f 169/2/4 170/2/4 174/2/4
f 174/2/4 170/2/4 175/2/4
f 171/3/4 172/3/4 177/3/4
f 177/3/4 172/3/4 178/3/4
f 175/3/4 176/3/4 181/3/4
f 181/3/4 176/3/4 182/3/4
f 178/2/4 179/2/4 183/2/4
f 183/2/4 179/2/4 184/2/4
f 180/2/4 181/2/4 185/2/4
f 185/2/4 181/2/4 186/2/4
f 184/3/4 185/3/4 187/3/4
f 187/3/4 185/3/4 188/3/4
f 189/1/4 190/1/4 192/1/4
f 192/1/4 190/1/4 193/1/4
f 191/1/4 192/1/4 195/1/4
f 195/1/4 192/1/4 196/1/4
f 193/1/4 194/1/4 197/1/4
f 197/1/4 194/1/4 198/1/4
f 196/1/4 197/1/4 199/1/4
f 199/1/4 197/1/4 200/1/4
f 201/1/4 202/1/4 203/1/4
f 203/1/4 202/1/4 204/1/4
f 207/3/5 206/3/5 205/3/5
f 208/3/5 206/3/5 207/3/5
f 211/1/5 210/1/5 209/1/5
f 212/1/5 210/1/5 211/1/5
f 217/2/5 214/2/5 213/2/5
f 218/2/5 214/2/5 217/2/5
f 219/2/5 216/2/5 215/2/5
f 220/2/5 216/2/5 219/2/5
f 221/1/5 219/1/5 218/1/5
f 222/1/5 219/1/5 221/1/5
f 228/1/5 224/1/5 223/1/5
f 229/1/5 224/1/5 228/1/5
f 230/1/5 226/1/5 225/1/5
f 231/1/5 226/1/5 230/1/5
f 233/3/5 228/3/5 227/3/5
f 234/1/5 230/1/5 229/1/5
f 235/1/5 230/1/5 234/1/5
f 236/3/5 232/3/5 231/3/5
f 237/3/5 233/3/5 227/3/5
f 238/3/5 233/3/5 237/3/5
f 241/3/5 232/3/5 236/3/5
f 242/3/5 232/3/5 241/3/5
f 243/1/5 239/1/5 238/1/5
f 244/1/5 239/1/5 243/1/5
f 245/1/5 241/1/5 240/1/5
f 246/1/5 241/1/5 245/1/5
f 247/1/5 245/1/5 244/1/5
f 248/1/5 245/1/5 247/1/5
f 251/1/5 250/1/5 249/1/5
f 252/1/5 250/1/5 251/1/5
f 255/3/5 254/3/5 253/3/5
f 256/3/5 254/3/5 255/3/5
f 257/3/6 258/3/6 259/3/6
f 259/3/6 258/3/6 260/3/6
f 261/1/6 262/1/6 263/1/6
f 263/1/6 262/1/6 264/1/6
f 265/1/6 266/1/6 270/1/6
f 270/1/6 266/1/6 271/1/6
f 267/1/6 268/1/6 272/1/6
f 272/1/6 268/1/6 273/1/6
f 269/3/6 270/3/6 275/3/6
f 271/1/6 272/1/6 276/1/6
f 276/1/6 272/1/6 277/1/6
f 273/3/6 274/3/6 278/3/6
f 269/3/6 275/3/6 279/3/6
f 279/3/6 275/3/6 280/3/6
f 278/3/6 274/3/6 283/3/6
f 283/3/6 274/3/6 284/3/6
f 280/1/6 281/1/6 285/1/6
f 285/1/6 281/1/6 286/1/6
f 282/1/6 283/1/6 287/1/6
f 287/1/6 283/1/6 288/1/6
f 286/1/6 287/1/6 289/1/6
f 289/1/6 287/1/6 290/1/6
f 291/1/6 292/1/6 293/1/6
f 293/1/6 292/1/6 294/1/6
f 295/2/6 296/2/6 299/2/6
f 299/2/6 296/2/6 300/2/6
f 297/2/6 298/2/6 301/2/6
f 301/2/6 298/2/6 302/2/6
f 300/1/6 301/1/6 303/1/6
f 303/1/6 301/1/6 304/1/6
f 305/3/6 306/3/6 307/3/6
f 307/3/6 306/3/6 308/3/6
