# MagicaVoxel @ Ephtracy

# group
o 

# material
mtllib Dixieklo zu.mtl
usemtl palette

# normals
vn -1 0 0
vn 1 0 0
vn 0 0 1
vn 0 0 -1
vn 0 -1 0
vn 0 1 0

# texcoords
vt 0.748047 0.5
vt 0.779297 0.5
vt 0.810547 0.5
vt 0.958984 0.5

# verts
v 4.7 4.8 -2.5
v 4.7 4.8 -4.7
v 4.7 5 -2.5
v 4.7 5 -4.7
v 4.8 2 -2.6
v 4.8 2 -4.6
v 4.8 2.2 -2.8
v 4.8 2.2 -4.4
v 4.8 4.6 -2.8
v 4.8 4.6 -4.4
v 4.8 4.8 -2.6
v 4.8 4.8 -4.6
v 4.8 5 -2.6
v 4.8 5 -4.6
v 4.8 5.2 -2.6
v 4.8 5.2 -4.6
v 4.9 5.2 -2.7
v 4.9 5.2 -4.5
v 4.9 5.3 -2.7
v 4.9 5.3 -4.5
v 5 5.3 -2.8
v 5 5.3 -4.4
v 5 5.4 -2.8
v 5 5.4 -4.4
v 5.1 5.4 -2.9
v 5.1 5.4 -4.3
v 5.1 5.5 -2.9
v 5.1 5.5 -4.3
v 5.2 5.5 -3
v 5.2 5.5 -4.2
v 5.2 5.6 -3
v 5.2 5.6 -4.2
v 6.7 2.1 -2.7
v 6.7 2.1 -4.5
v 6.7 2.2 -2.8
v 6.7 2.2 -4.4
v 6.7 4.6 -2.8
v 6.7 4.6 -4.4
v 6.7 4.8 -2.7
v 6.7 4.8 -4.5
v 4.9 2.1 -2.7
v 4.9 2.1 -4.5
v 4.9 2.2 -2.8
v 4.9 2.2 -4.4
v 4.9 4.6 -2.8
v 4.9 4.6 -4.4
v 4.9 4.8 -2.7
v 4.9 4.8 -4.5
v 6.4 5.5 -3
v 6.4 5.5 -4.2
v 6.4 5.6 -3
v 6.4 5.6 -4.2
v 6.5 5.4 -2.9
v 6.5 5.4 -4.3
v 6.5 5.5 -2.9
v 6.5 5.5 -4.3
v 6.6 5.3 -2.8
v 6.6 5.3 -4.4
v 6.6 5.4 -2.8
v 6.6 5.4 -4.4
v 6.7 5.2 -2.7
v 6.7 5.2 -4.5
v 6.7 5.3 -2.7
v 6.7 5.3 -4.5
v 6.8 2 -2.6
v 6.8 2 -4.6
v 6.8 2.2 -2.8
v 6.8 2.2 -4.4
v 6.8 4.6 -2.8
v 6.8 4.6 -4.4
v 6.8 4.8 -2.6
v 6.8 4.8 -4.6
v 6.8 5 -2.6
v 6.8 5 -4.6
v 6.8 5.2 -2.6
v 6.8 5.2 -4.6
v 6.9 4.8 -2.5
v 6.9 4.8 -4.7
v 6.9 5 -2.5
v 6.9 5 -4.7
v 4.7 4.8 -2.5
v 4.7 5 -2.5
v 6.9 4.8 -2.5
v 6.9 5 -2.5
v 4.8 2 -2.6
v 4.8 4.8 -2.6
v 4.8 5 -2.6
v 4.8 5.2 -2.6
v 5 2.2 -2.6
v 5 4.6 -2.6
v 5.1 2.3 -2.6
v 5.1 4.5 -2.6
v 5.2 3.3 -2.6
v 5.2 3.5 -2.6
v 5.4 3.3 -2.6
v 5.4 3.5 -2.6
v 6.6 2.2 -2.6
v 6.6 2.3 -2.6
v 6.6 4.5 -2.6
v 6.6 4.6 -2.6
v 6.8 2 -2.6
v 6.8 4.8 -2.6
v 6.8 5 -2.6
v 6.8 5.2 -2.6
v 4.9 5.2 -2.7
v 4.9 5.3 -2.7
v 6.7 5.2 -2.7
v 6.7 5.3 -2.7
v 5 5.3 -2.8
v 5 5.4 -2.8
v 6.6 5.3 -2.8
v 6.6 5.4 -2.8
v 5.1 5.4 -2.9
v 5.1 5.5 -2.9
v 6.5 5.4 -2.9
v 6.5 5.5 -2.9
v 5.2 5.5 -3
v 5.2 5.6 -3
v 6.4 5.5 -3
v 6.4 5.6 -3
v 4.9 2.1 -4.5
v 4.9 4.8 -4.5
v 5 2.2 -4.5
v 5 4.6 -4.5
v 6.6 2.2 -4.5
v 6.6 4.6 -4.5
v 6.7 2.1 -4.5
v 6.7 4.8 -4.5
v 4.9 2.1 -2.7
v 4.9 4.8 -2.7
v 5 2.2 -2.7
v 5 4.6 -2.7
v 5.1 2.3 -2.7
v 5.1 4.5 -2.7
v 5.2 3.3 -2.7
v 5.2 3.5 -2.7
v 5.4 3.3 -2.7
v 5.4 3.5 -2.7
v 6.6 2.2 -2.7
v 6.6 2.3 -2.7
v 6.6 4.5 -2.7
v 6.6 4.6 -2.7
v 6.7 2.1 -2.7
v 6.7 4.8 -2.7
v 5.2 5.5 -4.2
v 5.2 5.6 -4.2
v 6.4 5.5 -4.2
v 6.4 5.6 -4.2
v 5.1 5.4 -4.3
v 5.1 5.5 -4.3
v 6.5 5.4 -4.3
v 6.5 5.5 -4.3
v 5 5.3 -4.4
v 5 5.4 -4.4
v 6.6 5.3 -4.4
v 6.6 5.4 -4.4
v 4.9 5.2 -4.5
v 4.9 5.3 -4.5
v 6.7 5.2 -4.5
v 6.7 5.3 -4.5
v 4.8 2 -4.6
v 4.8 4.8 -4.6
v 4.8 5 -4.6
v 4.8 5.2 -4.6
v 5 2.2 -4.6
v 5 4.6 -4.6
v 6.6 2.2 -4.6
v 6.6 4.6 -4.6
v 6.8 2 -4.6
v 6.8 4.8 -4.6
v 6.8 5 -4.6
v 6.8 5.2 -4.6
v 4.7 4.8 -4.7
v 4.7 5 -4.7
v 6.9 4.8 -4.7
v 6.9 5 -4.7
v 4.8 2 -2.6
v 6.8 2 -2.6
v 4.8 2 -4.6
v 6.8 2 -4.6
v 4.7 4.8 -2.5
v 6.9 4.8 -2.5
v 4.8 4.8 -2.6
v 6.8 4.8 -2.6
v 4.9 4.8 -2.7
v 6.7 4.8 -2.7
v 4.9 4.8 -4.5
v 6.7 4.8 -4.5
v 4.8 4.8 -4.6
v 6.8 4.8 -4.6
v 4.7 4.8 -4.7
v 6.9 4.8 -4.7
v 4.9 2.1 -2.7
v 6.7 2.1 -2.7
v 4.9 2.1 -4.5
v 6.7 2.1 -4.5
v 4.7 5 -2.5
v 6.9 5 -2.5
v 4.8 5 -2.6
v 6.8 5 -2.6
v 4.8 5 -4.6
v 6.8 5 -4.6
v 4.7 5 -4.7
v 6.9 5 -4.7
v 4.8 5.2 -2.6
v 6.8 5.2 -2.6
v 4.9 5.2 -2.7
v 6.7 5.2 -2.7
v 4.9 5.2 -4.5
v 6.7 5.2 -4.5
v 4.8 5.2 -4.6
v 6.8 5.2 -4.6
v 4.9 5.3 -2.7
v 6.7 5.3 -2.7
v 5 5.3 -2.8
v 6.6 5.3 -2.8
v 5 5.3 -4.4
v 6.6 5.3 -4.4
v 4.9 5.3 -4.5
v 6.7 5.3 -4.5
v 5 5.4 -2.8
v 6.6 5.4 -2.8
v 5.1 5.4 -2.9
v 6.5 5.4 -2.9
v 5.1 5.4 -4.3
v 6.5 5.4 -4.3
v 5 5.4 -4.4
v 6.6 5.4 -4.4
v 5.1 5.5 -2.9
v 6.5 5.5 -2.9
v 5.2 5.5 -3
v 6.4 5.5 -3
v 5.2 5.5 -4.2
v 6.4 5.5 -4.2
v 5.1 5.5 -4.3
v 6.5 5.5 -4.3
v 5.2 5.6 -3
v 6.4 5.6 -3
v 5.4 5.6 -3.1
v 5.5 5.6 -3.1
v 5.6 5.6 -3.1
v 5.7 5.6 -3.1
v 5.9 5.6 -3.1
v 6.3 5.6 -3.1
v 5.3 5.6 -3.2
v 5.4 5.6 -3.2
v 5.5 5.6 -3.2
v 5.6 5.6 -3.2
v 5.7 5.6 -3.2
v 5.8 5.6 -3.2
v 6 5.6 -3.2
v 6.3 5.6 -3.2
v 5.4 5.6 -3.3
v 5.5 5.6 -3.3
v 5.6 5.6 -3.3
v 5.7 5.6 -3.3
v 5.5 5.6 -3.4
v 5.6 5.6 -3.4
v 6 5.6 -3.9
v 6.3 5.6 -3.9
v 5.3 5.6 -4
v 5.4 5.6 -4
v 5.7 5.6 -4
v 5.8 5.6 -4
v 5.9 5.6 -4
v 6.3 5.6 -4
v 5.2 5.6 -4.2
v 6.4 5.6 -4.2

# faces
f 3/4/1 2/4/1 1/4/1
f 4/4/1 2/4/1 3/4/1
f 7/2/1 6/2/1 5/2/1
f 8/2/1 6/2/1 7/2/1
f 9/2/1 7/2/1 5/2/1
f 9/1/1 8/1/1 7/1/1
f 10/2/1 6/2/1 8/2/1
f 10/1/1 8/1/1 9/1/1
f 11/2/1 9/2/1 5/2/1
f 11/2/1 10/2/1 9/2/1
f 12/2/1 6/2/1 10/2/1
f 12/2/1 10/2/1 11/2/1
f 15/4/1 14/4/1 13/4/1
f 16/4/1 14/4/1 15/4/1
f 19/4/1 18/4/1 17/4/1
f 20/4/1 18/4/1 19/4/1
f 23/4/1 22/4/1 21/4/1
f 24/4/1 22/4/1 23/4/1
f 27/4/1 26/4/1 25/4/1
f 28/4/1 26/4/1 27/4/1
f 31/4/1 30/4/1 29/4/1
f 32/4/1 30/4/1 31/4/1
f 35/2/1 34/2/1 33/2/1
f 36/2/1 34/2/1 35/2/1
f 37/2/1 35/2/1 33/2/1
f 37/1/1 36/1/1 35/1/1
f 38/2/1 34/2/1 36/2/1
f 38/1/1 36/1/1 37/1/1
f 39/2/1 37/2/1 33/2/1
f 39/2/1 38/2/1 37/2/1
f 40/2/1 34/2/1 38/2/1
f 40/2/1 38/2/1 39/2/1
f 41/2/2 42/2/2 43/2/2
f 43/2/2 42/2/2 44/2/2
f 41/2/2 43/2/2 45/2/2
f 43/1/2 44/1/2 45/1/2
f 44/2/2 42/2/2 46/2/2
f 45/1/2 44/1/2 46/1/2
f 41/2/2 45/2/2 47/2/2
f 45/2/2 46/2/2 47/2/2
f 46/2/2 42/2/2 48/2/2
f 47/2/2 46/2/2 48/2/2
f 49/4/2 50/4/2 51/4/2
f 51/4/2 50/4/2 52/4/2
f 53/4/2 54/4/2 55/4/2
f 55/4/2 54/4/2 56/4/2
f 57/4/2 58/4/2 59/4/2
f 59/4/2 58/4/2 60/4/2
f 61/4/2 62/4/2 63/4/2
f 63/4/2 62/4/2 64/4/2
f 65/2/2 66/2/2 67/2/2
f 67/2/2 66/2/2 68/2/2
f 65/2/2 67/2/2 69/2/2
f 67/1/2 68/1/2 69/1/2
f 68/2/2 66/2/2 70/2/2
f 69/1/2 68/1/2 70/1/2
f 65/2/2 69/2/2 71/2/2
f 69/2/2 70/2/2 71/2/2
f 70/2/2 66/2/2 72/2/2
f 71/2/2 70/2/2 72/2/2
f 73/4/2 74/4/2 75/4/2
f 75/4/2 74/4/2 76/4/2
f 77/4/2 78/4/2 79/4/2
f 79/4/2 78/4/2 80/4/2
f 83/4/3 82/4/3 81/4/3
f 84/4/3 82/4/3 83/4/3
f 89/2/3 86/2/3 85/2/3
f 90/2/3 86/2/3 89/2/3
f 91/3/3 90/3/3 89/3/3
f 92/3/3 90/3/3 91/3/3
f 93/2/3 92/2/3 91/2/3
f 94/2/3 92/2/3 93/2/3
f 95/2/3 93/2/3 91/2/3
f 95/3/3 94/3/3 93/3/3
f 96/2/3 92/2/3 94/2/3
f 96/3/3 94/3/3 95/3/3
f 97/2/3 89/2/3 85/2/3
f 97/3/3 91/3/3 89/3/3
f 98/2/3 96/2/3 95/2/3
f 98/3/3 91/3/3 97/3/3
f 98/2/3 95/2/3 91/2/3
f 99/2/3 92/2/3 96/2/3
f 99/2/3 96/2/3 98/2/3
f 99/3/3 90/3/3 92/3/3
f 100/2/3 86/2/3 90/2/3
f 100/3/3 90/3/3 99/3/3
f 101/2/3 98/2/3 97/2/3
f 101/2/3 99/2/3 98/2/3
f 101/2/3 100/2/3 99/2/3
f 101/2/3 97/2/3 85/2/3
f 102/2/3 86/2/3 100/2/3
f 102/2/3 100/2/3 101/2/3
f 103/4/3 88/4/3 87/4/3
f 104/4/3 88/4/3 103/4/3
f 107/4/3 106/4/3 105/4/3
f 108/4/3 106/4/3 107/4/3
f 111/4/3 110/4/3 109/4/3
f 112/4/3 110/4/3 111/4/3
f 115/4/3 114/4/3 113/4/3
f 116/4/3 114/4/3 115/4/3
f 119/4/3 118/4/3 117/4/3
f 120/4/3 118/4/3 119/4/3
f 123/2/3 122/2/3 121/2/3
f 124/2/3 122/2/3 123/2/3
f 125/2/3 123/2/3 121/2/3
f 125/1/3 124/1/3 123/1/3
f 126/2/3 122/2/3 124/2/3
f 126/1/3 124/1/3 125/1/3
f 127/2/3 125/2/3 121/2/3
f 127/2/3 126/2/3 125/2/3
f 128/2/3 122/2/3 126/2/3
f 128/2/3 126/2/3 127/2/3
f 129/2/4 130/2/4 131/2/4
f 131/2/4 130/2/4 132/2/4
f 131/3/4 132/3/4 133/3/4
f 133/3/4 132/3/4 134/3/4
f 133/2/4 134/2/4 135/2/4
f 135/2/4 134/2/4 136/2/4
f 133/2/4 135/2/4 137/2/4
f 135/3/4 136/3/4 137/3/4
f 136/2/4 134/2/4 138/2/4
f 137/3/4 136/3/4 138/3/4
f 129/2/4 131/2/4 139/2/4
f 131/3/4 133/3/4 139/3/4
f 137/2/4 138/2/4 140/2/4
f 139/3/4 133/3/4 140/3/4
f 133/2/4 137/2/4 140/2/4
f 138/2/4 134/2/4 141/2/4
f 140/2/4 138/2/4 141/2/4
f 134/3/4 132/3/4 141/3/4
f 132/2/4 130/2/4 142/2/4
f 141/3/4 132/3/4 142/3/4
f 139/2/4 140/2/4 143/2/4
f 140/2/4 141/2/4 143/2/4
f 141/2/4 142/2/4 143/2/4
f 129/2/4 139/2/4 143/2/4
f 142/2/4 130/2/4 144/2/4
f 143/2/4 142/2/4 144/2/4
f 145/4/4 146/4/4 147/4/4
f 147/4/4 146/4/4 148/4/4
f 149/4/4 150/4/4 151/4/4
f 151/4/4 150/4/4 152/4/4
f 153/4/4 154/4/4 155/4/4
f 155/4/4 154/4/4 156/4/4
f 157/4/4 158/4/4 159/4/4
f 159/4/4 158/4/4 160/4/4
f 161/2/4 162/2/4 165/2/4
f 165/2/4 162/2/4 166/2/4
f 161/2/4 165/2/4 167/2/4
f 165/1/4 166/1/4 167/1/4
f 166/2/4 162/2/4 168/2/4
f 167/1/4 166/1/4 168/1/4
f 161/2/4 167/2/4 169/2/4
f 167/2/4 168/2/4 169/2/4
f 168/2/4 162/2/4 170/2/4
f 169/2/4 168/2/4 170/2/4
f 163/4/4 164/4/4 171/4/4
f 171/4/4 164/4/4 172/4/4
f 173/4/4 174/4/4 175/4/4
f 175/4/4 174/4/4 176/4/4
f 179/2/5 178/2/5 177/2/5
f 180/2/5 178/2/5 179/2/5
f 183/4/5 182/4/5 181/4/5
f 184/4/5 182/4/5 183/4/5
f 187/4/5 186/4/5 185/4/5
f 188/4/5 186/4/5 187/4/5
f 189/4/5 183/4/5 181/4/5
f 190/4/5 182/4/5 184/4/5
f 191/4/5 189/4/5 181/4/5
f 191/4/5 190/4/5 189/4/5
f 192/4/5 182/4/5 190/4/5
f 192/4/5 190/4/5 191/4/5
f 193/2/6 194/2/6 195/2/6
f 195/2/6 194/2/6 196/2/6
f 197/4/6 198/4/6 199/4/6
f 199/4/6 198/4/6 200/4/6
f 197/4/6 199/4/6 201/4/6
f 200/4/6 198/4/6 202/4/6
f 197/4/6 201/4/6 203/4/6
f 201/4/6 202/4/6 203/4/6
f 202/4/6 198/4/6 204/4/6
f 203/4/6 202/4/6 204/4/6
f 205/4/6 206/4/6 207/4/6
f 207/4/6 206/4/6 208/4/6
f 205/4/6 207/4/6 209/4/6
f 208/4/6 206/4/6 210/4/6
f 205/4/6 209/4/6 211/4/6
f 209/4/6 210/4/6 211/4/6
f 210/4/6 206/4/6 212/4/6
f 211/4/6 210/4/6 212/4/6
f 213/4/6 214/4/6 215/4/6
f 215/4/6 214/4/6 216/4/6
f 213/4/6 215/4/6 217/4/6
f 216/4/6 214/4/6 218/4/6
f 213/4/6 217/4/6 219/4/6
f 217/4/6 218/4/6 219/4/6
f 218/4/6 214/4/6 220/4/6
f 219/4/6 218/4/6 220/4/6
f 221/4/6 222/4/6 223/4/6
f 223/4/6 222/4/6 224/4/6
f 221/4/6 223/4/6 225/4/6
f 224/4/6 222/4/6 226/4/6
f 221/4/6 225/4/6 227/4/6
f 225/4/6 226/4/6 227/4/6
f 226/4/6 222/4/6 228/4/6
f 227/4/6 226/4/6 228/4/6
f 229/4/6 230/4/6 231/4/6
f 231/4/6 230/4/6 232/4/6
f 229/4/6 231/4/6 233/4/6
f 232/4/6 230/4/6 234/4/6
f 229/4/6 233/4/6 235/4/6
f 233/4/6 234/4/6 235/4/6
f 234/4/6 230/4/6 236/4/6
f 235/4/6 234/4/6 236/4/6
f 237/4/6 238/4/6 239/4/6
f 239/4/6 238/4/6 240/4/6
f 240/4/6 238/4/6 241/4/6
f 241/4/6 238/4/6 242/4/6
f 242/4/6 238/4/6 243/4/6
f 243/4/6 238/4/6 244/4/6
f 237/4/6 239/4/6 245/4/6
f 239/2/6 240/2/6 246/2/6
f 245/4/6 239/4/6 246/4/6
f 240/4/6 241/4/6 247/4/6
f 246/2/6 240/2/6 247/2/6
f 241/2/6 242/2/6 248/2/6
f 247/4/6 241/4/6 248/4/6
f 242/4/6 243/4/6 249/4/6
f 248/2/6 242/2/6 249/2/6
f 249/4/6 243/4/6 250/4/6
f 243/2/6 244/2/6 251/2/6
f 244/4/6 238/4/6 252/4/6
f 251/2/6 244/2/6 252/2/6
f 245/2/6 246/2/6 253/2/6
f 246/2/6 247/2/6 253/2/6
f 247/2/6 248/2/6 253/2/6
f 249/2/6 250/2/6 253/2/6
f 248/2/6 249/2/6 253/2/6
f 253/2/6 250/2/6 254/2/6
f 254/2/6 250/2/6 255/2/6
f 255/2/6 250/2/6 256/2/6
f 253/4/6 254/4/6 257/4/6
f 254/2/6 255/2/6 257/2/6
f 255/4/6 256/4/6 258/4/6
f 257/2/6 255/2/6 258/2/6
f 243/2/6 251/2/6 259/2/6
f 251/4/6 252/4/6 259/4/6
f 252/4/6 238/4/6 260/4/6
f 259/4/6 252/4/6 260/4/6
f 237/4/6 245/4/6 261/4/6
f 245/2/6 253/2/6 261/2/6
f 257/4/6 258/4/6 262/4/6
f 261/2/6 253/2/6 262/2/6
f 253/4/6 257/4/6 262/4/6
f 258/4/6 256/4/6 263/4/6
f 262/4/6 258/4/6 263/4/6
f 256/2/6 250/2/6 263/2/6
f 250/4/6 243/4/6 264/4/6
f 263/2/6 250/2/6 264/2/6
f 243/2/6 259/2/6 265/2/6
f 264/4/6 243/4/6 265/4/6
f 259/2/6 260/2/6 265/2/6
f 260/4/6 238/4/6 266/4/6
f 265/2/6 260/2/6 266/2/6
f 261/4/6 262/4/6 267/4/6
f 264/4/6 265/4/6 267/4/6
f 265/4/6 266/4/6 267/4/6
f 262/4/6 263/4/6 267/4/6
f 237/4/6 261/4/6 267/4/6
f 263/4/6 264/4/6 267/4/6
f 266/4/6 238/4/6 268/4/6
f 267/4/6 266/4/6 268/4/6
